<svg width="20" height="20" viewBox="0 0 20 20" fill="none" xmlns="http://www.w3.org/2000/svg">
<path d="M7.3002 18.1C8.0166 18.6598 8.9634 19 10.0002 19C11.037 19 11.9838 18.6598 12.7002 18.1M1.4772 12.1546C1.2855 13.3723 2.1414 14.2174 3.189 14.6386C7.2057 16.2541 12.7947 16.2541 16.8114 14.6386C17.859 14.2174 18.7149 13.3723 18.5232 12.1546C18.4062 11.4058 17.8239 10.783 17.3928 10.1746C16.8285 9.3673 16.7727 8.488 16.7718 7.5511C16.7727 3.934 13.7415 1 10.0002 1C6.2589 1 3.2277 3.934 3.2277 7.552C3.2277 8.488 3.1719 9.3682 2.6067 10.1746C2.1765 10.783 1.5951 11.4058 1.4772 12.1546Z" stroke="black" stroke-width="1.35" stroke-linecap="round" stroke-linejoin="round"/>
</svg>
