<svg width="38" height="38" viewBox="0 0 38 38" fill="none" xmlns="http://www.w3.org/2000/svg">
<g id="icon/vaccine">
<path id="Vector" d="M26.917 3.16699C26.917 3.97427 26.917 4.37791 27.0242 4.75406C27.0831 4.96069 27.1656 5.15984 27.2701 5.34761C27.4602 5.68938 27.7457 5.97481 28.3165 6.54564L31.455 9.68418C32.0258 10.255 32.3113 10.5404 32.6531 10.7306C32.8409 10.835 33.0399 10.9176 33.2465 10.9764C33.6227 11.0837 34.0263 11.0837 34.8337 11.0837" stroke="white" stroke-width="2" stroke-linecap="round" stroke-linejoin="round"/>
<path id="Vector_2" d="M18.5144 11.083L10.712 18.8854C9.02608 20.5713 8.18315 21.4143 7.98222 22.4244C7.89525 22.8616 7.89525 23.3117 7.98222 23.749C8.18315 24.7592 9.0261 25.6022 10.712 27.2881C12.3978 28.9739 13.2408 29.8169 14.2509 30.0178" stroke="white" stroke-width="2" stroke-linecap="round" stroke-linejoin="round"/>
<path id="Vector_3" d="M17.417 9.5L26.917 19" stroke="white" stroke-width="2" stroke-linecap="round" stroke-linejoin="round"/>
<path id="Vector_4" d="M12.6663 29.5086L10.8147 30.8311C10.0695 31.3634 9.69686 31.6296 9.28823 31.6618C9.12976 31.6743 8.97031 31.6611 8.81605 31.6226C8.41829 31.5238 8.09449 31.2 7.44691 30.5525C6.79934 29.9049 6.47555 29.5811 6.37664 29.1834C6.33828 29.029 6.32509 28.8695 6.33756 28.711C6.36974 28.3025 6.6359 27.9298 7.1682 27.1847L8.4908 25.333" stroke="white" stroke-width="2" stroke-linecap="round" stroke-linejoin="round"/>
<path id="Vector_5" d="M21.375 12.6663L29.2917 6.33301M25.3333 16.6247L31.6667 8.70801" stroke="white" stroke-width="2" stroke-linejoin="round"/>
<path id="Vector_6" d="M7.12533 30.875L3.16699 34.8333" stroke="white" stroke-width="2" stroke-linecap="round" stroke-linejoin="round"/>
<path id="Vector_7" d="M21.217 28.5003L22.1363 29.4196C22.5948 29.8781 22.8241 30.1074 23.1031 30.0947C23.3822 30.0821 23.5898 29.833 24.0049 29.3347L26.2837 26.6003M30.0837 28.5003C30.0837 31.9981 27.2481 34.8337 23.7503 34.8337C20.2526 34.8337 17.417 31.9981 17.417 28.5003C17.417 25.0026 20.2526 22.167 23.7503 22.167C27.2481 22.167 30.0837 25.0026 30.0837 28.5003Z" stroke="white" stroke-width="2" stroke-linecap="round" stroke-linejoin="round"/>
</g>
</svg>
