<svg width="38" height="38" viewBox="0 0 38 38" fill="none" xmlns="http://www.w3.org/2000/svg">
<g id="Frame 1171275232">
<rect width="38" height="38" rx="19" fill="#FFDF99"/>
<g id="Group">
<path id="Vector" d="M25.5 10H11.5C10.3954 10 9.5 10.8954 9.5 12V26C9.5 27.1046 10.3954 28 11.5 28H25.5C26.6046 28 27.5 27.1046 27.5 26V12C27.5 10.8954 26.6046 10 25.5 10Z" stroke="black" stroke-width="1.5" stroke-linecap="round" stroke-linejoin="round"/>
<path id="Vector_2" d="M15.5 18C16.6046 18 17.5 17.1046 17.5 16C17.5 14.8954 16.6046 14 15.5 14C14.3954 14 13.5 14.8954 13.5 16C13.5 17.1046 14.3954 18 15.5 18Z" stroke="black" stroke-width="1.5" stroke-linecap="round" stroke-linejoin="round"/>
<path id="Vector_3" d="M27.5 21.9997L24.414 18.9137C24.0389 18.5388 23.5303 18.3281 23 18.3281C22.4697 18.3281 21.9611 18.5388 21.586 18.9137L12.5 27.9997" stroke="black" stroke-width="1.5" stroke-linecap="round" stroke-linejoin="round"/>
</g>
</g>
</svg>
