<svg width="38" height="37" viewBox="0 0 38 37" fill="none" xmlns="http://www.w3.org/2000/svg">
<rect width="38" height="36.67" rx="18.335" fill="#FFDF99"/>
<path d="M17.4999 22.3524L16.1724 23.5973C15.8243 23.9332 15.3522 24.1219 14.8599 24.1219C14.3676 24.1219 13.8955 23.9332 13.5474 23.5973C13.1993 23.2613 13.0037 22.8057 13.0037 22.3307C13.0037 21.8556 13.1993 21.4 13.5474 21.0641L16.9524 17.7711C17.2866 17.4475 17.7369 17.2603 18.2101 17.2482C18.6834 17.2361 19.1433 17.3999 19.4949 17.7059L19.5849 17.7783C19.7271 17.9127 19.9188 17.987 20.1178 17.985C20.3169 17.9829 20.5069 17.9047 20.6461 17.7675C20.7854 17.6302 20.8624 17.4452 20.8603 17.2532C20.8582 17.0611 20.7771 16.8777 20.6349 16.7433C20.5925 16.6905 20.5475 16.6398 20.4999 16.5914C19.8596 16.0538 19.0316 15.7712 18.1836 15.8008C17.3355 15.8304 16.5308 16.1699 15.9324 16.7506L12.4824 20.0436C11.8961 20.6594 11.5791 21.4699 11.5974 22.3059C11.6158 23.1419 11.9681 23.9387 12.5808 24.53C13.1935 25.1213 14.0192 25.4613 14.8856 25.479C15.7519 25.4967 16.5918 25.1907 17.2299 24.625L18.5274 23.4018C18.6555 23.267 18.7259 23.0903 18.7245 22.9073C18.7231 22.7244 18.6499 22.5487 18.5197 22.4157C18.3895 22.2828 18.2119 22.2023 18.0227 22.1905C17.8335 22.1788 17.6467 22.2366 17.4999 22.3524ZM25.5174 12.0462C24.8865 11.4412 24.0331 11.1016 23.1436 11.1016C22.2541 11.1016 21.4008 11.4412 20.7699 12.0462L19.4724 13.2693C19.3443 13.4042 19.2738 13.5809 19.2753 13.7639C19.2767 13.9468 19.3499 14.1225 19.4801 14.2554C19.6103 14.3884 19.7879 14.4689 19.9771 14.4807C20.1663 14.4924 20.3531 14.4346 20.4999 14.3188L21.7974 13.0739C22.1455 12.738 22.6176 12.5493 23.1099 12.5493C23.6022 12.5493 24.0743 12.738 24.4224 13.0739C24.7705 13.4098 24.966 13.8654 24.966 14.3405C24.966 14.8156 24.7705 15.2711 24.4224 15.6071L21.0174 18.9001C20.6832 19.2237 20.2329 19.4109 19.7596 19.423C19.2864 19.4351 18.8264 19.2712 18.4749 18.9653L18.3849 18.8929C18.2427 18.7585 18.0509 18.6842 17.8519 18.6862C17.6529 18.6882 17.4629 18.7665 17.3236 18.9037C17.1844 19.041 17.1074 19.226 17.1095 19.418C17.1116 19.6101 17.1927 19.7935 17.3349 19.9278C17.3894 19.9816 17.4469 20.0324 17.5074 20.0798C18.1484 20.6157 18.976 20.8973 19.8236 20.8677C20.6712 20.8382 21.4756 20.4997 22.0749 19.9206L25.4874 16.6275C26.1184 16.0225 26.4757 15.2012 26.4813 14.3428C26.4869 13.4845 26.1404 12.6589 25.5174 12.0462Z" fill="black"/>
</svg>
