<svg width="24" height="24" viewBox="0 0 24 24" fill="none" xmlns="http://www.w3.org/2000/svg">
<path d="M9.3002 20.1C10.0166 20.6598 10.9634 21 12.0002 21C13.037 21 13.9838 20.6598 14.7002 20.1M3.4772 14.1546C3.2855 15.3723 4.1414 16.2174 5.189 16.6386C9.2057 18.2541 14.7947 18.2541 18.8114 16.6386C19.859 16.2174 20.7149 15.3723 20.5232 14.1546C20.4062 13.4058 19.8239 12.783 19.3928 12.1746C18.8285 11.3673 18.7727 10.488 18.7718 9.5511C18.7727 5.934 15.7415 3 12.0002 3C8.2589 3 5.2277 5.934 5.2277 9.552C5.2277 10.488 5.1719 11.3682 4.6067 12.1746C4.1765 12.783 3.5951 13.4058 3.4772 14.1546Z" stroke="black" stroke-width="1.35" stroke-linecap="round" stroke-linejoin="round"/>
</svg>
