<svg width="16" height="20" viewBox="0 0 16 20" fill="none" xmlns="http://www.w3.org/2000/svg">
<path d="M1.17383 15.382V7.93811C1.17383 4.66751 1.17383 3.0331 2.20812 2.0161C3.24241 0.9991 4.90593 1 8.23384 1C11.5618 1 13.2261 1 14.2596 2.0161C15.2938 3.0313 15.2938 4.66661 15.2938 7.93721V15.3829C15.2938 17.4583 15.2938 18.496 14.6117 18.8668C13.2906 19.5868 10.8134 17.1865 9.63702 16.4638C8.95484 16.0453 8.61331 15.8356 8.23384 15.8356C7.85436 15.8356 7.51284 16.0453 6.83066 16.4638C5.65429 17.1865 3.17711 19.5868 1.856 18.8668C1.17383 18.496 1.17383 17.4583 1.17383 15.3829" stroke="#2E2E2E" stroke-width="1.4" stroke-linecap="round" stroke-linejoin="round"/>
</svg>
