<svg width="16" height="20" viewBox="0 0 16 20" fill="none" xmlns="http://www.w3.org/2000/svg">
<path d="M0.799805 15.382V7.93811C0.799805 4.66751 0.799805 3.0331 1.85461 2.0161C2.90941 0.9991 4.60591 1 7.99982 1C11.3937 1 13.0911 1 14.145 2.0161C15.1998 3.0313 15.1998 4.66661 15.1998 7.93721V15.3829C15.1998 17.4583 15.1998 18.496 14.5041 18.8668C13.1568 19.5868 10.6305 17.1865 9.43082 16.4638C8.73512 16.0453 8.38682 15.8356 7.99982 15.8356C7.61281 15.8356 7.26451 16.0453 6.56881 16.4638C5.36911 17.1865 2.84281 19.5868 1.49551 18.8668C0.799804 18.496 0.799805 17.4583 0.799805 15.3829" stroke="#FF8533" stroke-width="1.4" stroke-linecap="round" stroke-linejoin="round"/>
</svg>
