<svg width="31" height="38" viewBox="0 0 31 38" fill="none" xmlns="http://www.w3.org/2000/svg">
<path d="M7.70808 36.5587C6.96295 36.07 6.30256 35.4662 5.75228 34.7704C5.14698 34.0523 4.58615 33.2989 4.07284 32.5142C2.86827 30.7746 1.92362 28.8734 1.26786 26.8689C0.480109 24.5405 0.0986328 22.3087 0.0986328 20.1258C0.0986328 17.6879 0.633645 15.5597 1.68005 13.7715C2.45573 12.3738 3.59618 11.2058 4.98342 10.3883C6.32781 9.56516 7.87253 9.1147 9.45484 9.08437C10.0087 9.08437 10.6052 9.16354 11.2382 9.31488C11.6929 9.44178 12.2468 9.64203 12.9236 9.89117C13.7845 10.2183 14.2581 10.4186 14.4188 10.4675C14.9231 10.6491 15.3471 10.7282 15.6801 10.7282C15.9329 10.7282 16.2895 10.6491 16.6946 10.528C16.9226 10.4488 17.3525 10.3091 17.9678 10.0495C18.5772 9.83063 19.0567 9.64319 19.4382 9.50349C20.0228 9.33351 20.5885 9.17634 21.0928 9.09717C21.6907 9.00426 22.2974 8.97965 22.901 9.02383C23.9469 9.09122 24.9772 9.30971 25.9587 9.6723C27.5637 10.3091 28.8617 11.3034 29.8278 12.7167C29.4195 12.9648 29.0362 13.251 28.6834 13.5713C27.9152 14.2425 27.2609 15.0305 26.7453 15.9055C26.0713 17.1012 25.7218 18.4482 25.7308 19.8161C25.7556 21.4961 26.1926 22.9758 27.0535 24.2553C27.6865 25.2035 28.5092 26.0144 29.4711 26.6384C29.9636 26.9655 30.3876 27.1902 30.7939 27.3416C30.6037 27.9237 30.4006 28.4872 30.1609 29.046C29.6171 30.2992 28.9581 31.5006 28.1921 32.6353C27.5094 33.612 26.9744 34.3397 26.5681 34.824C25.9351 35.5633 25.3257 36.1279 24.7104 36.5214C24.0336 36.9638 23.2341 37.2002 22.4215 37.2002C21.8712 37.221 21.321 37.1554 20.7917 37.0057C20.337 36.8544 19.887 36.6902 19.4441 36.5028C18.9836 36.2943 18.5089 36.1181 18.0233 35.9754C16.823 35.6715 15.5645 35.6695 14.3632 35.9696C13.8708 36.1093 13.3972 36.2723 12.9295 36.4725C12.2716 36.7449 11.8346 36.9277 11.5819 37.0057C11.0776 37.1513 10.5544 37.2421 10.0253 37.2723C9.20682 37.2723 8.44387 37.0418 7.688 36.575L7.70808 36.5587ZM18.5028 7.90153C17.4328 8.42892 16.4112 8.65361 15.3967 8.58026C15.2372 7.57322 15.3967 6.54289 15.8207 5.41476C16.1816 4.45902 16.715 3.57552 17.395 2.80692C18.1131 1.99782 18.9844 1.33463 19.9602 0.854534C20.9995 0.327144 21.9904 0.0419117 22.9376 0C23.0604 1.05478 22.9376 2.09209 22.5443 3.21323C22.1804 4.20431 21.648 5.12712 20.97 5.94215C20.278 6.75236 19.4287 7.41813 18.4721 7.90036L18.5028 7.90153Z" fill="black"/>
</svg>
