<svg width="25" height="24" viewBox="0 0 25 24" fill="none" xmlns="http://www.w3.org/2000/svg">

<path id="Vector" d="M4.13556 11.2932C3.94809 11.4807 3.84277 11.735 3.84277 12.0002C3.84277 12.2653 3.94809 12.5197 4.13556 12.7072L9.79256 18.3642C9.98116 18.5463 10.2338 18.6471 10.496 18.6449C10.7582 18.6426 11.009 18.5374 11.1944 18.352C11.3798 18.1666 11.485 17.9158 11.4872 17.6536C11.4895 17.3914 11.3887 17.1388 11.2066 16.9502L7.25656 13.0002H20.4996C20.7648 13.0002 21.0191 12.8948 21.2067 12.7073C21.3942 12.5198 21.4996 12.2654 21.4996 12.0002C21.4996 11.735 21.3942 11.4806 21.2067 11.2931C21.0191 11.1055 20.7648 11.0002 20.4996 11.0002H7.25656L11.2066 7.05018C11.3887 6.86158 11.4895 6.60898 11.4872 6.34678C11.485 6.08458 11.3798 5.83377 11.1944 5.64836C11.009 5.46295 10.7582 5.35778 10.496 5.35551C10.2338 5.35323 9.98116 5.45402 9.79256 5.63618L4.13556 11.2932Z" fill="black"/>

</svg>
