<svg width="10" height="17" viewBox="0 0 10 17" fill="none" xmlns="http://www.w3.org/2000/svg">
<path d="M1.1756 16.5287C0.942121 16.5277 0.714173 16.4575 0.520582 16.327C0.326991 16.1964 0.176451 16.0114 0.0879977 15.7954C-0.000455833 15.5793 -0.02285 15.3418 0.0236462 15.113C0.0701424 14.8842 0.183441 14.6743 0.349216 14.5099L6.59433 8.26479L0.349216 2.01968C0.238565 1.90993 0.150738 1.77936 0.0908033 1.6355C0.0308683 1.49164 1.10301e-05 1.33733 1.10301e-05 1.18149C1.10301e-05 1.02564 0.0308683 0.871335 0.0908033 0.727474C0.150738 0.583613 0.238565 0.453043 0.349216 0.343295C0.570407 0.123417 0.86962 0 1.1815 0C1.49339 0 1.7926 0.123417 2.01379 0.343295L9.0971 7.4266C9.20775 7.53635 9.29558 7.66692 9.35551 7.81078C9.41545 7.95464 9.44631 8.10895 9.44631 8.26479C9.44631 8.42064 9.41545 8.57495 9.35551 8.71881C9.29558 8.86267 9.20775 8.99324 9.0971 9.10299L2.01379 16.1863C1.90348 16.2957 1.77266 16.3823 1.62882 16.441C1.48499 16.4998 1.33097 16.5296 1.1756 16.5287Z" fill="#FF8533"/>
</svg>
