<svg width="31" height="31" viewBox="0 0 31 31" fill="none" xmlns="http://www.w3.org/2000/svg">
<path d="M30.0992 15.2724C30.0992 6.98823 23.3953 0.272461 15.1258 0.272461C6.85623 0.272461 0.152344 6.98812 0.152344 15.2724C0.152344 22.7593 5.62794 28.965 12.7862 30.0902V19.6084H8.98433V15.2724H12.7862V11.9678C12.7862 8.20839 15.0217 6.13183 18.4418 6.13183C20.0801 6.13183 21.7936 6.4248 21.7936 6.4248V10.1162H19.9056C18.0454 10.1162 17.4654 11.2725 17.4654 12.4588V15.2724H21.6182L20.9543 19.6084H17.4654V30.0902C24.6236 28.965 30.0992 22.7594 30.0992 15.2724Z" fill="#1877F2"/>
<path d="M20.9534 19.6084L21.6172 15.2724H17.4644V12.4588C17.4644 11.2724 18.0446 10.1162 19.9046 10.1162H21.7927V6.4248C21.7927 6.4248 20.0792 6.13184 18.4409 6.13184C15.0207 6.13184 12.7852 8.2084 12.7852 11.9678V15.2724H8.9834V19.6084H12.7852V30.0902C13.5592 30.2117 14.3414 30.2726 15.1248 30.2724C15.9083 30.2727 16.6905 30.2117 17.4644 30.0902V19.6084H20.9534Z" fill="#FFF5EC"/>
</svg>
