<svg width="295" height="289" viewBox="0 0 295 289" fill="none" xmlns="http://www.w3.org/2000/svg">
<g clip-path="url(#clip0_2873_4017)">
<rect x="2.04688" width="292.814" height="289.222" rx="21.5569" fill="#FFE66C"/>
<mask id="mask0_2873_4017" style="mask-type:luminance" maskUnits="userSpaceOnUse" x="2" y="0" width="293" height="290">
<path d="M269.214 0H27.6919C13.528 0 2.0459 11.3412 2.0459 25.3314V263.89C2.0459 277.88 13.528 289.222 27.6919 289.222H269.214C283.378 289.222 294.86 277.88 294.86 263.89V25.3314C294.86 11.3412 283.378 0 269.214 0Z" fill="white"/>
</mask>
<g mask="url(#mask0_2873_4017)">
<path d="M214.403 117.231C213.411 133.935 219.84 150.288 228.46 164.671C232.682 171.696 237.671 178.609 244.772 182.725C251.873 186.842 261.564 187.509 267.977 182.392C271.095 179.897 273.158 176.337 274.934 172.761C277.204 168.231 279.188 163.527 280.259 158.584C281.65 152.164 281.506 145.505 280.755 138.989C279.363 126.783 275.813 114.577 268.601 104.581C261.388 94.5843 250.209 87.0512 237.895 86.034C222.463 84.7626 207.574 93.8691 198.282 106.186C188.991 118.503 184.433 133.649 180.931 148.651C178.628 158.489 176.709 168.581 177.716 178.625C178.244 183.838 179.188 189.13 182.498 193.199C185.808 197.267 190.35 200.239 195.196 202.305C197.227 203.179 199.322 203.895 201.497 204.292C204.567 204.848 207.19 204.816 210.213 204.006C216.306 191.625 222.671 179.372 229.323 167.278L214.387 117.247L214.403 117.231Z" fill="white"/>
<path d="M176.677 402.808C185.841 401.123 194.204 395.942 199.242 387.885C200.921 385.199 202.105 382.386 202.856 379.525C205.799 380.304 208.901 380.717 212.1 380.717C230.651 380.717 245.7 366.827 245.7 349.71C245.7 346.611 245.204 343.639 244.292 340.811C247.251 340.127 250.178 339.062 252.944 337.584C269.017 329.034 274.502 310.074 265.21 295.246C263.531 292.56 261.484 290.208 259.165 288.19C261.356 286.235 263.307 283.978 264.923 281.419C274.198 266.607 268.665 247.663 252.576 239.097C249.666 237.555 246.611 236.459 243.509 235.775C244.356 233.074 244.804 230.213 244.804 227.257C244.804 210.156 229.739 196.298 211.14 196.298C207.782 196.298 204.552 196.759 201.481 197.601C200.745 194.867 199.594 192.182 197.979 189.623C188.703 174.811 168.121 169.757 152.017 178.323C149.106 179.865 146.547 181.756 144.356 183.902C142.229 181.883 139.783 180.087 137 178.609C120.928 170.059 100.362 175.161 91.07 189.988C89.3908 192.674 88.2074 195.487 87.4557 198.348C84.5131 197.569 81.4106 197.156 78.2122 197.156C59.6611 197.156 44.6123 211.046 44.6123 228.163C44.6123 231.262 45.1081 234.234 46.0196 237.063C43.061 237.746 40.1344 238.811 37.3678 240.289C21.2955 248.839 15.8101 267.799 25.1017 282.627C26.7809 285.313 28.8279 287.665 31.1468 289.684C28.9558 291.638 27.0048 293.895 25.3895 296.454C16.114 311.266 21.6473 330.21 37.7356 338.776C40.6462 340.318 43.7007 341.414 46.8032 342.098C45.9557 344.8 45.5079 347.66 45.5079 350.616C45.5079 367.717 60.5726 381.575 79.1717 381.575C82.5301 381.575 85.7605 381.115 88.8311 380.272C89.5667 383.006 90.7182 385.692 92.3334 388.25C96.9392 395.593 104.312 400.535 112.532 402.617L176.661 402.824L176.677 402.808Z" fill="white"/>
<path d="M86.0321 201.59C63.8188 168.231 42.7089 133.744 31.3224 95.8557C25.0374 74.925 22.3827 50.6727 36.5359 31.951C40.582 26.5952 47.1388 21.5572 54.0155 22.5425C57.8057 23.0829 60.8602 25.3873 63.499 27.7871C80.3549 43.2508 86.416 65.6754 91.8693 87.0671C99.7056 117.788 107.43 147.205 115.266 177.926L86.0321 201.59Z" fill="white"/>
<path d="M120.703 258.264C120.447 257.088 119.104 256.802 118.096 257.072C117.313 257.262 116.625 257.676 116.017 258.2C114.866 259.185 114.13 260.775 114.226 262.3C114.306 263.365 114.722 264.255 115.57 264.907C116.241 265.415 117.041 265.781 117.856 265.956C119.536 266.305 121.439 265.988 122.622 264.668C123.742 263.413 124.157 261.665 123.438 260.123C122.718 258.581 120.735 257.405 119.024 257.501C118.096 257.548 117.169 257.914 116.561 258.645C115.921 259.424 115.665 260.393 115.985 261.379C116.561 263.159 118.864 264.923 120.687 263.715C121.695 263.047 122.19 261.808 121.95 260.632C121.711 259.456 120.655 258.581 119.472 258.597C118.8 258.597 118.16 258.947 117.808 259.503C117.409 260.139 117.505 260.918 117.808 261.553C118.24 262.443 119.12 263.111 120.079 263.365C120.943 263.588 121.663 262.968 121.727 262.126C121.823 260.822 120.799 259.503 119.504 259.265C118.832 259.138 118.064 259.44 117.904 260.171C117.76 260.806 118.096 261.633 118.816 261.76C118.896 261.76 118.96 261.792 119.04 261.808C119.184 261.839 118.88 261.696 118.992 261.792C119.168 261.935 119.088 261.776 118.992 261.792C119.024 261.792 119.216 262.03 119.088 261.871C118.976 261.728 119.088 261.903 119.12 261.935C119.216 262.046 119.072 261.696 119.12 261.935C119.12 261.967 119.136 262.094 119.168 262.11C119.152 261.935 119.136 261.903 119.136 261.998C119.136 262.046 119.136 262.094 119.136 262.141L120.783 260.902C120.783 260.902 120.655 260.87 120.591 260.854C120.559 260.854 120.415 260.775 120.559 260.854C120.703 260.934 120.559 260.854 120.527 260.838C120.479 260.806 120.415 260.759 120.351 260.727C120.351 260.727 120.527 260.87 120.415 260.775C120.383 260.743 120.335 260.711 120.303 260.679C120.255 260.632 120.207 260.584 120.159 260.536C120.239 260.6 120.255 260.695 120.175 260.552C120.175 260.552 120.079 260.409 120.079 260.377C120.079 260.377 120.143 260.6 120.111 260.457C120.079 260.314 120.111 260.584 120.111 260.632C120.079 260.759 119.983 260.934 119.887 261.029C119.823 261.093 119.712 261.156 119.632 261.188C119.632 261.188 119.36 261.204 119.52 261.204C119.68 261.204 119.424 261.188 119.408 261.188C119.68 261.22 119.296 261.124 119.408 261.188C119.52 261.251 119.36 261.14 119.344 261.124C119.392 261.172 119.44 261.22 119.488 261.267C119.488 261.267 119.344 261.093 119.424 261.204C119.504 261.315 119.392 261.156 119.392 261.124C119.424 261.379 119.424 261.124 119.408 261.093C119.424 261.124 119.408 261.204 119.408 261.251C119.44 261.426 119.472 261.061 119.408 261.22C119.392 261.283 119.36 261.363 119.36 261.426C119.328 261.601 119.472 261.283 119.36 261.41C119.36 261.41 119.296 261.538 119.28 261.538C119.296 261.538 119.456 261.283 119.296 261.506C119.296 261.522 119.168 261.665 119.296 261.538C119.424 261.41 119.296 261.538 119.28 261.538C119.248 261.569 119.008 261.649 119.328 261.538C119.296 261.538 119.136 261.585 119.312 261.553C119.408 261.553 119.408 261.553 119.328 261.553C119.232 261.553 119.248 261.553 119.408 261.569C119.36 261.553 119.296 261.538 119.248 261.522C119.104 261.49 119.28 261.522 119.312 261.538C119.248 261.49 119.184 261.458 119.12 261.426C119.12 261.426 118.96 261.315 119.072 261.395C119.2 261.49 119.008 261.347 118.992 261.315C118.944 261.283 118.912 261.236 118.88 261.204C118.816 261.14 118.56 260.854 118.72 261.061C118.64 260.965 118.576 260.854 118.512 260.743C118.48 260.695 118.464 260.648 118.432 260.6C118.448 260.648 118.512 260.838 118.448 260.6C118.384 260.361 118.448 260.775 118.448 260.52C118.448 260.234 118.448 260.552 118.432 260.568L118.48 260.393C118.528 260.441 118.352 260.616 118.464 260.457C118.48 260.425 118.512 260.377 118.544 260.346C118.608 260.218 118.496 260.425 118.48 260.425C118.48 260.425 118.592 260.314 118.608 260.282C118.624 260.266 118.752 260.155 118.608 260.266C118.464 260.377 118.624 260.266 118.672 260.234C118.72 260.203 118.752 260.187 118.8 260.171C119.008 260.044 118.656 260.203 118.8 260.171C118.864 260.171 119.184 260.091 118.912 260.123C119.024 260.123 119.152 260.123 119.264 260.123C119.52 260.155 119.312 260.123 119.264 260.123C119.328 260.123 119.376 260.139 119.44 260.155C119.6 260.187 119.744 260.25 119.887 260.298C120.031 260.346 119.887 260.298 119.855 260.282C119.919 260.314 119.999 260.346 120.063 260.393C120.175 260.457 120.287 260.52 120.399 260.6C120.463 260.648 120.735 260.854 120.527 260.679C120.623 260.759 120.719 260.838 120.799 260.918C120.863 260.981 121.055 261.22 120.911 261.013C120.975 261.108 121.055 261.22 121.103 261.315C121.103 261.315 121.183 261.458 121.167 261.458C121.151 261.474 121.087 261.204 121.135 261.395C121.135 261.442 121.247 261.712 121.215 261.744C121.199 261.744 121.215 261.458 121.199 261.617C121.199 261.681 121.199 261.744 121.199 261.792C121.199 261.887 121.199 261.967 121.199 262.062C121.199 262.237 121.263 261.808 121.199 261.983C121.199 262.03 121.183 262.078 121.167 262.11C121.167 262.157 121.039 262.412 121.055 262.459C121.055 262.443 121.199 262.173 121.071 262.396C121.055 262.443 121.023 262.475 121.007 262.523C120.959 262.618 120.895 262.714 120.847 262.793C120.719 263 120.991 262.65 120.831 262.825C120.751 262.92 120.671 263 120.575 263.095C120.575 263.095 120.463 263.206 120.431 263.222C120.431 263.222 120.639 263.079 120.511 263.159C120.415 263.222 120.335 263.27 120.239 263.333C120.175 263.365 120.111 263.397 120.047 263.429C120.063 263.429 120.255 263.365 120.111 263.397C119.967 263.429 119.839 263.492 119.712 263.524C119.632 263.54 119.28 263.588 119.584 263.556C119.472 263.556 119.376 263.572 119.264 263.572C119.136 263.572 119.008 263.572 118.88 263.572C118.8 263.572 118.736 263.572 118.672 263.556C118.48 263.556 118.88 263.604 118.688 263.556C118.448 263.492 118.192 263.445 117.952 263.365C117.904 263.349 117.856 263.333 117.792 263.302C118.016 263.413 117.84 263.318 117.792 263.302C117.665 263.238 117.537 263.174 117.409 263.111C117.313 263.063 117.233 263 117.153 262.952C116.961 262.825 117.137 262.952 117.153 262.968C117.121 262.936 117.073 262.904 117.041 262.873C116.993 262.825 116.945 262.777 116.897 262.729C116.801 262.634 116.929 262.777 116.945 262.793C116.929 262.761 116.897 262.698 116.865 262.666C116.833 262.586 116.833 262.602 116.865 262.714L116.833 262.602C116.833 262.602 116.817 262.475 116.785 262.428C116.737 262.3 116.785 262.602 116.785 262.364C116.785 262.237 116.785 262.11 116.785 261.983C116.785 261.935 116.785 261.887 116.785 261.84C116.785 261.681 116.737 262.094 116.785 261.855C116.817 261.728 116.833 261.617 116.865 261.49C116.865 261.458 116.993 261.14 116.993 261.124C116.993 261.124 116.881 261.347 116.961 261.22C116.993 261.156 117.025 261.077 117.073 261.013C117.137 260.902 117.201 260.791 117.265 260.695C117.297 260.663 117.329 260.616 117.345 260.584C117.441 260.441 117.137 260.806 117.345 260.584C117.505 260.409 117.681 260.25 117.856 260.075C117.984 259.948 117.665 260.203 117.824 260.107C117.872 260.075 117.92 260.028 117.984 259.996C118.096 259.932 118.192 259.869 118.32 259.805C118.384 259.773 118.432 259.758 118.496 259.726C118.656 259.646 118.272 259.789 118.448 259.742C118.576 259.71 118.688 259.662 118.816 259.63C118.848 259.63 118.928 259.63 118.96 259.599C118.8 259.694 118.72 259.615 118.896 259.63C119.04 259.63 118.752 259.615 118.752 259.615C118.544 259.551 118.224 259.265 118.176 259.042C118.32 259.71 119.136 260.155 119.775 259.948C120.479 259.726 120.831 259.074 120.687 258.359L120.703 258.264Z" fill="black"/>
<path d="M163.692 256.77C162.429 256.325 161.101 256.897 159.998 257.485C158.974 258.041 158.015 258.883 157.759 260.075C157.247 262.475 158.942 265.002 161.165 265.86C162.333 266.305 163.596 266.067 164.683 265.511C165.707 264.986 166.699 264.223 167.162 263.143C168.202 260.695 165.627 258.136 163.372 257.628C162.205 257.374 160.877 257.517 159.902 258.248C158.926 258.979 158.255 260.155 158.382 261.41C158.526 262.745 159.374 263.715 160.573 264.303C161.773 264.891 163.26 265.304 164.444 264.462C165.435 263.763 166.043 262.571 165.947 261.347C165.851 260.123 165.211 258.963 164.028 258.47C162.988 258.041 161.629 258.264 160.861 259.122C159.838 260.266 160.062 262.046 161.309 262.92C162.556 263.794 164.444 263.365 164.923 261.887C165.403 260.409 164.172 258.947 162.7 258.82C161.949 258.756 161.149 259.17 160.765 259.837C160.366 260.552 160.43 261.379 160.925 262.03C161.421 262.682 162.253 263.016 163.068 262.904C163.948 262.793 164.54 262.078 164.604 261.22C164.667 260.425 164.14 259.742 163.388 259.503C162.956 259.376 162.429 259.503 162.125 259.837C161.741 260.234 161.549 260.822 161.725 261.363C161.885 261.855 162.301 262.364 162.844 262.443C163.516 262.539 164.268 262.269 164.444 261.538C164.588 260.918 164.252 260.06 163.532 259.948L163.948 261.665L162.684 261.998C162.173 261.84 161.869 261.331 162.061 260.854C162.173 260.584 162.461 260.33 162.78 260.361C162.844 260.361 163.036 260.361 162.812 260.361C162.972 260.361 162.94 260.425 162.828 260.361C162.908 260.425 162.94 260.441 162.988 260.536C163.132 260.806 163.084 261.156 162.828 261.331C162.764 261.379 162.461 261.458 162.716 261.395C162.604 261.41 162.557 261.426 162.429 261.395C162.509 261.395 162.604 261.49 162.413 261.379C162.636 261.506 162.413 261.379 162.413 261.363L162.477 261.426C162.381 261.299 162.365 261.267 162.413 261.347C162.493 261.506 162.365 261.124 162.397 261.299C162.397 261.379 162.445 261.601 162.397 261.267C162.429 261.474 162.413 261.124 162.477 261.029C162.541 260.934 162.604 260.886 162.684 260.822C162.636 260.854 162.445 260.95 162.732 260.806C162.556 260.902 162.7 260.806 162.78 260.806C162.924 260.87 162.509 260.838 162.78 260.806C162.732 260.791 162.572 260.695 162.7 260.791L162.764 260.822C162.636 260.743 162.652 260.759 162.78 260.854C162.748 260.775 162.7 260.695 162.78 260.886C162.652 260.584 162.844 261.156 162.748 260.838C162.684 260.616 162.748 260.838 162.748 260.886C162.716 260.616 162.732 260.934 162.732 260.934V260.838C162.796 260.711 162.796 260.711 162.748 260.838L162.716 260.918C162.796 260.806 162.764 260.822 162.652 260.981C162.652 260.981 162.748 260.854 162.764 260.87C162.764 260.902 162.477 261.029 162.7 260.934L162.844 260.854C162.652 260.934 162.636 260.95 162.764 260.902H162.844C163.068 260.806 162.764 260.902 162.748 260.902C162.748 260.902 162.94 260.902 162.956 260.902C163.1 260.854 162.652 260.822 162.892 260.902C162.908 260.902 163.052 260.934 163.052 260.95C163.052 260.981 162.764 260.775 162.972 260.918C162.988 260.918 163.116 260.981 163.116 261.013L163.004 260.934C163.004 260.934 163.068 260.997 163.1 261.029C163.26 261.188 163.18 261.029 163.1 261.029C163.148 261.029 163.196 261.188 163.212 261.236C163.308 261.379 163.132 260.95 163.212 261.236C163.244 261.347 163.308 261.49 163.308 261.601C163.34 261.331 163.308 261.458 163.292 261.538C163.292 261.617 163.292 261.696 163.292 261.776C163.372 261.474 163.292 261.967 163.292 261.776C163.276 261.855 163.26 261.935 163.228 262.014V262.062C163.164 262.205 163.164 262.189 163.228 262.03C163.228 262.062 163.148 262.189 163.132 262.205C163.1 262.269 163.068 262.316 163.02 262.364C163.164 262.141 163.1 262.269 163.036 262.332C163.036 262.332 162.78 262.539 162.956 262.428C163.132 262.316 162.86 262.491 162.844 262.475C162.86 262.475 163.132 262.364 162.892 262.459L162.78 262.491C162.924 262.491 162.924 262.491 162.78 262.491C162.7 262.491 162.62 262.491 162.541 262.491C162.78 262.523 162.557 262.491 162.525 262.475C162.429 262.443 162.317 262.412 162.221 262.38C162.189 262.38 161.949 262.285 162.077 262.332C162.237 262.396 161.901 262.253 161.901 262.253C161.837 262.221 161.773 262.189 161.709 262.157C161.549 262.078 161.405 261.983 161.245 261.887C161.213 261.871 161.037 261.76 161.245 261.887C161.181 261.824 161.117 261.776 161.053 261.712C161.021 261.681 160.893 261.506 160.989 261.649C161.101 261.808 160.925 261.538 160.925 261.522C160.813 261.347 160.973 261.553 160.925 261.569C160.925 261.569 160.877 261.41 160.877 261.379C160.797 261.108 160.877 261.442 160.877 261.442C160.829 261.395 160.877 261.22 160.877 261.156C160.877 260.854 160.813 261.331 160.877 261.156C160.909 261.077 160.925 260.997 160.941 260.918C160.973 260.791 160.925 260.791 160.925 260.95C160.925 260.918 161.005 260.791 161.021 260.775C161.053 260.711 161.085 260.663 161.133 260.616C160.973 260.854 161.101 260.663 161.149 260.616C161.181 260.584 161.341 260.425 161.213 260.536C161.085 260.648 161.341 260.457 161.389 260.425C161.469 260.377 161.549 260.346 161.629 260.298C161.581 260.314 161.389 260.377 161.613 260.298C161.757 260.266 161.885 260.218 162.029 260.187C161.741 260.25 161.965 260.187 162.061 260.187C162.125 260.187 162.205 260.187 162.269 260.187C162.365 260.187 162.445 260.187 162.541 260.187C162.301 260.187 162.493 260.187 162.62 260.203C162.764 260.234 162.908 260.282 163.036 260.33C163.26 260.409 163.084 260.33 163.036 260.33C163.116 260.362 163.196 260.409 163.276 260.457C163.42 260.536 163.564 260.632 163.692 260.711C163.884 260.854 163.74 260.743 163.692 260.711C163.772 260.775 163.868 260.854 163.948 260.918C164.06 261.013 164.156 261.124 164.268 261.22C164.332 261.283 164.396 261.363 164.444 261.426C164.572 261.569 164.3 261.188 164.476 261.474C164.556 261.601 164.62 261.728 164.699 261.855C164.667 261.792 164.588 261.633 164.699 261.855C164.731 261.983 164.747 262.157 164.747 261.935C164.747 261.998 164.747 262.078 164.747 262.141C164.763 262.443 164.811 262.014 164.747 262.157C164.715 262.221 164.636 262.443 164.747 262.173C164.715 262.237 164.683 262.285 164.651 262.348C164.62 262.412 164.572 262.459 164.54 262.523C164.683 262.316 164.604 262.459 164.54 262.491C164.476 262.555 164.412 262.618 164.364 262.682C164.332 262.714 164.076 262.92 164.22 262.825C164.364 262.73 164.172 262.857 164.14 262.888C164.076 262.936 163.996 262.984 163.916 263.031C163.788 263.111 163.66 263.19 163.516 263.27C163.452 263.302 163.372 263.349 163.308 263.381C163.308 263.381 162.972 263.54 163.132 263.461C163.292 263.381 162.94 263.524 162.956 263.524C162.86 263.556 162.764 263.572 162.668 263.604C162.477 263.667 162.94 263.604 162.636 263.604C162.572 263.604 162.509 263.604 162.445 263.604C162.445 263.604 162.269 263.604 162.253 263.604H162.413C162.413 263.604 162.317 263.604 162.269 263.604C162.173 263.588 161.917 263.556 161.853 263.476C161.853 263.476 162.125 263.604 161.901 263.492C161.805 263.445 161.725 263.397 161.645 263.349C161.581 263.318 161.533 263.286 161.469 263.238C161.405 263.206 161.197 263 161.405 263.206C161.277 263.095 161.149 262.984 161.037 262.857C160.989 262.809 160.941 262.761 160.893 262.714C160.685 262.507 160.989 262.873 160.845 262.65C160.749 262.507 160.653 262.364 160.573 262.221C160.525 262.141 160.493 262.078 160.462 261.998C160.398 261.871 160.398 261.824 160.462 261.998C160.382 261.792 160.318 261.601 160.27 261.395C160.27 261.331 160.222 261.077 160.238 261.331C160.238 261.236 160.222 261.14 160.222 261.045C160.222 260.95 160.222 260.854 160.222 260.759C160.19 260.997 160.238 260.743 160.27 260.648C160.27 260.695 160.158 260.854 160.27 260.648C160.318 260.568 160.366 260.473 160.43 260.393C160.398 260.441 160.254 260.584 160.43 260.425C160.493 260.361 160.573 260.282 160.637 260.218C160.685 260.171 160.829 260.091 160.605 260.218C160.685 260.155 160.765 260.107 160.861 260.044C161.005 259.948 161.149 259.869 161.309 259.789C161.469 259.71 161.629 259.63 161.789 259.551C161.773 259.551 162.125 259.392 161.965 259.471C161.821 259.535 162.125 259.408 162.157 259.408C162.253 259.376 162.349 259.344 162.445 259.328C162.509 259.328 162.556 259.297 162.62 259.297C162.493 259.297 162.477 259.313 162.572 259.297C162.652 259.297 162.732 259.297 162.796 259.297C162.892 259.297 162.876 259.297 162.732 259.297C162.812 259.313 162.876 259.344 162.956 259.36C163.596 259.583 164.412 259.106 164.556 258.454C164.715 257.723 164.332 257.103 163.644 256.865L163.692 256.77Z" fill="black"/>
<path d="M134.857 264.414C132.154 265.225 130.203 267.593 129.852 270.374C129.5 273.155 130.971 275.619 133.338 276.922C135.705 278.225 138.679 278.114 140.838 276.381C142.997 274.649 143.973 271.693 143.237 269.039C142.917 267.911 140.918 267.72 140.726 269.039C139.927 274.411 145.428 278.861 150.434 276.095C155.439 273.33 154.416 266.369 149.33 264.557C147.747 264.001 147.075 266.496 148.643 267.052C151.713 268.133 151.889 272.36 149.122 273.87C146.356 275.38 142.757 272.949 143.237 269.722H140.726C141.718 273.282 137.976 276.509 134.649 274.681C133.162 273.87 132.186 272.345 132.41 270.628C132.634 268.912 133.866 267.386 135.545 266.893C137.224 266.401 136.456 263.921 134.857 264.398V264.414Z" fill="black"/>
<path d="M99.3389 179.658C96.3484 173.317 93.3578 166.96 90.3672 160.619C89.6636 159.109 87.4246 160.428 88.1283 161.922C91.1189 168.263 94.1094 174.62 97.1 180.961C97.8037 182.471 100.043 181.152 99.3389 179.658Z" fill="black"/>
<path d="M105.016 285.154C111.605 285.154 116.946 279.846 116.946 273.298C116.946 266.75 111.605 261.442 105.016 261.442C98.4273 261.442 93.0859 266.75 93.0859 273.298C93.0859 279.846 98.4273 285.154 105.016 285.154Z" fill="#FFD1E9"/>
<path d="M179.475 282.738C186.064 282.738 191.405 277.43 191.405 270.882C191.405 264.335 186.064 259.026 179.475 259.026C172.886 259.026 167.545 264.335 167.545 270.882C167.545 277.43 172.886 282.738 179.475 282.738Z" fill="#FFD1E9"/>
<path d="M87.9837 155.167V154.627C87.9837 154.452 87.9517 154.277 87.8718 154.134C87.8238 153.975 87.7278 153.832 87.5999 153.721C87.4879 153.594 87.344 153.499 87.1841 153.451C87.0242 153.372 86.8642 153.34 86.6883 153.34L86.3365 153.387C86.1126 153.451 85.9207 153.562 85.7608 153.721L85.5529 153.975C85.4409 154.182 85.377 154.389 85.377 154.627V155.167C85.377 155.342 85.4089 155.517 85.4889 155.66C85.5369 155.819 85.6328 155.962 85.7608 156.073C85.8727 156.2 86.0166 156.296 86.1766 156.343C86.3365 156.423 86.4964 156.455 86.6723 156.455L87.0242 156.407C87.2481 156.343 87.44 156.232 87.5999 156.073L87.8078 155.819C87.9197 155.612 87.9837 155.406 87.9837 155.167Z" fill="black"/>
<path d="M82.3212 144.678C79.0588 138.21 76.1802 131.567 73.6854 124.765C73.1256 123.207 70.5988 123.891 71.1746 125.448C73.7333 132.457 76.7079 139.306 80.0663 145.981C80.8179 147.475 83.0569 146.156 82.3052 144.678H82.3212Z" fill="black"/>
<path d="M198.49 186.667C200.201 179.817 202.68 173.19 205.895 166.896C206.646 165.418 204.407 164.115 203.656 165.593C200.345 172.077 197.771 178.911 195.995 185.983C195.596 187.605 198.09 188.288 198.506 186.667H198.49Z" fill="black"/>
<path d="M208.966 162.478V162.065C208.966 161.89 208.934 161.715 208.854 161.572C208.806 161.413 208.71 161.27 208.582 161.159C208.47 161.032 208.326 160.936 208.166 160.889C208.007 160.809 207.847 160.778 207.671 160.778L207.319 160.825C207.095 160.889 206.903 161 206.743 161.159L206.535 161.413C206.423 161.62 206.359 161.826 206.359 162.065V162.478C206.359 162.653 206.391 162.828 206.471 162.971C206.519 163.13 206.615 163.273 206.743 163.384C206.855 163.511 206.999 163.606 207.159 163.654C207.319 163.734 207.479 163.765 207.655 163.765L208.007 163.718C208.23 163.654 208.422 163.543 208.582 163.384L208.79 163.13C208.902 162.923 208.966 162.716 208.966 162.478Z" fill="black"/>
<path d="M167.434 240.146C166.25 239.733 164.907 239.685 163.675 239.844C162.236 240.035 160.653 240.575 159.933 241.942C158.574 244.58 161.916 246.153 163.963 246.662C165.834 247.123 167.833 247.409 169.752 247.123C170.632 246.996 171.56 246.678 172.167 246.026C172.903 245.232 173.111 244.071 172.775 243.054C172.327 241.703 170.808 241.052 169.577 240.607C168.473 240.209 167.274 239.923 166.106 239.86C165.403 239.828 164.811 240.48 164.811 241.147C164.811 241.878 165.403 242.403 166.106 242.434C166.25 242.434 166.378 242.45 166.522 242.466C166.09 242.419 166.698 242.498 166.81 242.514C167.29 242.609 167.753 242.721 168.217 242.848C168.425 242.911 168.633 242.975 168.841 243.054C168.937 243.086 169.033 243.118 169.113 243.15C169.145 243.15 169.497 243.309 169.225 243.197C169.433 243.293 169.625 243.388 169.816 243.483C169.912 243.531 169.992 243.595 170.072 243.642C170.12 243.674 170.184 243.722 170.232 243.754C170.088 243.642 170.072 243.642 170.184 243.722C170.232 243.785 170.312 243.849 170.36 243.897C170.136 243.706 170.28 243.769 170.344 243.897C170.456 244.135 170.184 243.626 170.312 243.849C170.36 243.928 170.312 244.23 170.312 243.849C170.312 243.912 170.36 244.199 170.312 244.23C170.376 244.183 170.36 243.897 170.312 244.167C170.408 243.976 170.232 244.501 170.312 244.167C170.216 244.373 170.36 244.246 170.376 244.119C170.376 244.151 170.264 244.23 170.248 244.262C170.136 244.357 170.024 244.357 170.296 244.23C170.232 244.262 170.184 244.31 170.12 244.342C170.056 244.373 169.992 244.405 169.928 244.437C170.248 244.262 170.056 244.389 169.96 244.421C169.8 244.469 169.656 244.516 169.497 244.548C169.417 244.564 169.321 244.58 169.241 244.596C169.545 244.596 168.937 244.659 169.241 244.596C169.065 244.596 168.873 244.628 168.697 244.628C168.281 244.628 167.865 244.628 167.45 244.596C167.29 244.596 167.13 244.564 166.97 244.548C166.874 244.548 166.266 244.453 166.65 244.516C166.266 244.453 165.882 244.389 165.482 244.326C164.939 244.214 164.411 244.087 163.899 243.912C163.803 243.881 163.691 243.849 163.595 243.801C163.563 243.801 163.228 243.642 163.483 243.754C163.26 243.658 163.052 243.547 162.844 243.436C162.78 243.388 162.332 243.086 162.524 243.245C162.444 243.181 162.364 243.102 162.284 243.022C162.188 242.911 162.188 242.927 162.284 243.054C162.252 243.007 162.22 242.943 162.188 242.895L162.252 243.038C162.22 242.895 162.22 242.927 162.252 243.102C162.252 242.959 162.252 242.975 162.252 243.166C162.3 243.038 162.3 243.038 162.252 243.166C162.412 242.895 162.108 243.261 162.364 243.007C162.428 242.943 162.492 242.879 162.556 242.832C162.428 242.927 162.428 242.927 162.556 242.832C162.652 242.784 162.748 242.721 162.844 242.673C162.988 242.609 162.972 242.609 162.844 242.673C162.924 242.641 162.988 242.609 163.068 242.593C163.308 242.514 163.547 242.466 163.803 242.403C164.203 242.307 163.563 242.403 163.979 242.371C164.155 242.355 164.331 242.339 164.507 242.339C164.811 242.339 165.131 242.339 165.435 242.339C165.562 242.339 165.69 242.355 165.818 242.371C165.546 242.339 166.026 242.403 166.074 242.419C166.314 242.466 166.554 242.53 166.794 242.609C167.45 242.848 168.217 242.339 168.393 241.703C168.585 240.988 168.153 240.353 167.482 240.114L167.434 240.146Z" fill="black"/>
<path d="M118.4 239.86C116.465 239.621 114.066 240.337 112.483 241.465C111.395 242.244 110.611 243.579 111.011 244.946C111.379 246.153 112.563 246.805 113.746 246.996C116.369 247.409 119.375 247.345 121.838 246.233C123.053 245.692 123.997 244.628 124.141 243.277C124.285 241.926 123.421 240.782 122.206 240.273C121.326 239.908 120.303 239.892 119.359 239.844C118.416 239.796 117.504 239.749 116.593 239.908C115.905 240.019 115.505 240.877 115.681 241.497C115.889 242.228 116.593 242.514 117.28 242.403C117.184 242.403 116.816 242.482 117.28 242.403C117.376 242.403 117.504 242.403 117.616 242.403C117.952 242.403 118.288 242.403 118.624 242.403C119.263 242.419 119.887 242.45 120.527 242.514C120.639 242.514 120.735 242.546 120.847 242.546C121.086 242.562 120.719 242.53 120.719 242.53C120.767 242.53 120.879 242.562 120.927 242.562C121.118 242.625 121.166 242.625 121.294 242.705C121.374 242.752 121.486 242.864 121.454 242.816C121.582 242.991 121.534 242.959 121.502 242.895C121.502 242.927 121.518 243.118 121.518 242.991C121.518 243.134 121.518 243.118 121.47 243.213C121.326 243.468 121.166 243.642 120.847 243.817C120.143 244.214 119.199 244.389 118.384 244.501C117.392 244.644 116.385 244.644 115.393 244.58C115.121 244.58 114.865 244.532 114.61 244.516C114.61 244.516 114.274 244.485 114.482 244.516C114.418 244.516 114.338 244.501 114.274 244.485C114.082 244.453 113.906 244.405 113.714 244.342C113.666 244.342 113.57 244.294 113.714 244.342C113.682 244.326 113.378 244.214 113.538 244.246C113.49 244.246 113.458 244.103 113.474 244.183C113.474 244.23 113.474 244.31 113.49 244.183C113.49 244.04 113.49 244.151 113.49 244.199C113.49 244.278 113.49 244.103 113.522 244.087C113.634 243.944 113.762 243.706 113.938 243.579C114.642 243.102 115.249 242.879 116.081 242.657C116.912 242.434 117.504 242.323 118.384 242.434C119.087 242.514 119.679 241.783 119.679 241.147C119.679 240.384 119.087 239.939 118.384 239.86H118.4Z" fill="black"/>
<path d="M106.311 261.712C105.047 260.536 103.32 259.853 101.577 259.948C101.001 259.98 100.458 260.425 100.49 261.029C100.522 261.601 100.969 262.141 101.577 262.11C101.753 262.11 101.913 262.11 102.089 262.11C102.169 262.11 102.265 262.11 102.345 262.126C102.377 262.126 102.441 262.126 102.473 262.126C102.441 262.126 102.217 262.094 102.377 262.126C102.729 262.189 103.064 262.269 103.4 262.38C103.448 262.396 103.704 262.507 103.544 262.428C103.384 262.348 103.624 262.475 103.672 262.491C103.832 262.571 103.976 262.65 104.12 262.73C104.264 262.809 104.408 262.92 104.536 263.016C104.648 263.095 104.36 262.873 104.472 262.968C104.504 263 104.536 263.016 104.568 263.047C104.648 263.111 104.712 263.175 104.776 263.238C105.191 263.635 105.911 263.683 106.327 263.238C106.743 262.793 106.775 262.11 106.327 261.696L106.311 261.712Z" fill="black"/>
<path d="M181.139 262.857C181.235 262.745 181.347 262.65 181.459 262.555C181.507 262.523 181.571 262.475 181.603 262.428C181.459 262.539 181.443 262.555 181.523 262.491C181.555 262.459 181.587 262.443 181.619 262.412C181.843 262.253 182.083 262.11 182.323 261.998C182.387 261.967 182.435 261.951 182.499 261.919C182.69 261.824 182.243 262.014 182.499 261.919C182.627 261.871 182.754 261.824 182.882 261.792C183.17 261.712 183.442 261.649 183.746 261.601L183.458 261.633C183.73 261.601 184.002 261.585 184.274 261.585C184.849 261.585 185.393 261.077 185.361 260.505C185.329 259.932 184.881 259.424 184.274 259.424C182.531 259.392 180.819 260.107 179.604 261.331C179.204 261.728 179.172 262.475 179.604 262.873C180.036 263.27 180.723 263.302 181.155 262.873L181.139 262.857Z" fill="black"/>
<path d="M105.975 265.797C104.296 265.558 102.617 265.622 100.97 266.035C100.41 266.178 100.026 266.83 100.202 267.37C100.378 267.911 100.954 268.276 101.546 268.133C101.897 268.038 102.249 267.974 102.617 267.911C102.665 267.911 102.697 267.911 102.745 267.895C102.825 267.895 102.793 267.895 102.665 267.895C102.665 267.895 102.905 267.863 102.921 267.863C103.097 267.847 103.289 267.831 103.465 267.815C103.817 267.799 104.168 267.799 104.52 267.815C104.696 267.815 104.856 267.831 105.032 267.847C105.112 267.847 105.192 267.847 105.288 267.863C105.352 267.863 105.72 267.911 105.416 267.863C105.72 267.911 105.976 267.911 106.263 267.752C106.487 267.624 106.711 267.354 106.759 267.1C106.871 266.591 106.599 265.844 105.991 265.765L105.975 265.797Z" fill="black"/>
<path d="M181.634 267.481C181.73 267.466 181.826 267.45 181.922 267.434C181.97 267.434 182.002 267.434 182.05 267.418C181.906 267.434 181.89 267.434 181.97 267.418C182.146 267.402 182.338 267.37 182.513 267.37C182.865 267.338 183.217 267.338 183.569 267.338C183.921 267.338 184.273 267.37 184.624 267.402C184.672 267.402 184.96 267.434 184.672 267.402C184.752 267.402 184.832 267.434 184.928 267.434C185.12 267.466 185.312 267.497 185.504 267.545C186.064 267.656 186.719 267.386 186.847 266.782C186.975 266.242 186.687 265.574 186.08 265.447C184.417 265.098 182.737 265.066 181.058 265.368C180.498 265.463 180.131 266.178 180.291 266.703C180.482 267.307 181.026 267.561 181.634 267.466V267.481Z" fill="black"/>
<path d="M214.164 196.139C213.412 196.091 212.645 196.059 211.877 196.059C208.535 196.059 205.304 196.552 202.266 197.474C201.53 194.502 200.378 191.578 198.779 188.796C194.173 180.771 185.793 177.354 177.525 175.129" stroke="#FCA735" stroke-width="2.92814" stroke-miterlimit="10"/>
<path d="M115.219 173.206C105.559 174.731 96.6354 180.485 91.358 189.671C89.6788 192.579 88.4954 195.646 87.7597 198.745C86.3524 198.332 84.8971 198.014 83.4258 197.808" stroke="#FCA735" stroke-width="2.92814" stroke-miterlimit="10"/>
<path d="M214.514 130.025C213.939 125.512 213.715 120.966 213.827 116.421Z" fill="#FCA735"/>
<path d="M215.969 130.025C215.41 125.512 215.17 120.966 215.282 116.421C215.33 114.546 212.403 114.562 212.355 116.421C212.243 120.966 212.467 125.512 213.043 130.025C213.139 130.804 213.65 131.471 214.498 131.471C215.218 131.471 216.049 130.804 215.953 130.025H215.969Z" fill="#FCA735"/>
<path d="M229.164 166.276C222.751 156.916 218.161 146.331 215.65 135.286Z" fill="#FCA735"/>
<path d="M230.427 165.545C224.078 156.232 219.584 145.854 217.058 134.904C216.642 133.092 213.827 133.855 214.243 135.683C216.818 146.871 221.44 157.52 227.9 167.023C228.94 168.565 231.483 167.119 230.427 165.561V165.545Z" fill="#FCA735"/>
<path d="M211.668 158.648C211.94 158.251 212.211 157.853 212.499 157.456C212.643 157.265 212.787 157.075 212.915 156.9C213.011 156.773 212.915 156.916 212.867 156.963C212.915 156.916 212.947 156.852 212.995 156.804C213.075 156.709 213.155 156.614 213.235 156.518C213.843 155.771 214.498 155.056 215.17 154.357C215.65 153.88 215.698 153.006 215.17 152.529C214.642 152.052 213.843 152.021 213.331 152.529C211.876 154.007 210.564 155.628 209.429 157.345C209.061 157.917 209.301 158.791 209.893 159.109C210.548 159.458 211.268 159.252 211.668 158.648Z" fill="black"/>
</g>
</g>
<path d="M85.03 49.4208V56.4408H72.34V62.0208H81.7V68.7258H72.34V81.1458H63.52V49.4208H85.03ZM97.5646 56.4858V61.6608H107.69V68.3658H97.5646V74.0808H109.04V81.1458H88.7446V49.4208H109.04V56.4858H97.5646ZM150.433 49.4208V81.1458H141.613V63.6408L135.628 81.1458H128.248L122.218 63.5058V81.1458H113.398V49.4208H124.063L132.028 70.0308L139.813 49.4208H150.433ZM175.524 75.9708H164.274L162.564 81.1458H153.294L164.859 49.4208H175.029L186.549 81.1458H177.234L175.524 75.9708ZM173.319 69.2208L169.899 58.9608L166.524 69.2208H173.319ZM198.243 74.3958H208.098V81.1458H189.423V49.4208H198.243V74.3958ZM220.348 56.4858V61.6608H230.473V68.3658H220.348V74.0808H231.823V81.1458H211.528V49.4208H231.823V56.4858H220.348Z" fill="#FF8533"/>
<defs>
<clipPath id="clip0_2873_4017">
<rect width="294.5" height="289" fill="white" transform="translate(0.25)"/>
</clipPath>
</defs>
</svg>
