<svg width="31" height="31" viewBox="0 0 31 31" fill="none" xmlns="http://www.w3.org/2000/svg">
<path id="Vector" d="M29.8607 12.3347H28.6546V12.2724H15.1785V18.2724H23.6408C22.4062 21.7652 19.0888 24.2724 15.1785 24.2724C10.2171 24.2724 6.19445 20.2427 6.19445 15.2724C6.19445 10.3022 10.2171 6.27245 15.1785 6.27245C17.4687 6.27245 19.5523 7.13795 21.1387 8.5517L25.3739 4.30896C22.6997 1.81221 19.1225 0.272461 15.1785 0.272461C6.90943 0.272461 0.205078 6.9887 0.205078 15.2724C0.205078 23.5562 6.90943 30.2724 15.1785 30.2724C23.4476 30.2724 30.152 23.5562 30.152 15.2724C30.152 14.2667 30.0486 13.2849 29.8607 12.3347Z" fill="#FFC107"/>
<path id="Vector_2" d="M1.93262 8.2907L6.85214 11.9049C8.18328 8.60345 11.4071 6.27245 15.1796 6.27245C17.4698 6.27245 19.5534 7.13795 21.1398 8.5517L25.375 4.30896C22.7008 1.81221 19.1236 0.272461 15.1796 0.272461C9.42832 0.272461 4.44067 3.52521 1.93262 8.2907Z" fill="#FF3D00"/>
<path id="Vector_3" d="M15.1778 30.2725C19.0454 30.2725 22.5597 28.7897 25.2167 26.3785L20.5824 22.45C19.0286 23.6338 17.1299 24.274 15.1778 24.2725C11.2832 24.2725 7.97628 21.7847 6.73049 18.313L1.84766 22.0817C4.32576 26.9395 9.35833 30.2725 15.1778 30.2725Z" fill="#4CAF50"/>
<path id="Vector_4" d="M29.8609 12.3347H28.6548V12.2725H15.1787V18.2725H23.641C23.0504 19.9348 21.9867 21.3873 20.5811 22.4507L20.5834 22.4492L25.2177 26.3777C24.8897 26.6762 30.1521 22.7724 30.1521 15.2725C30.1521 14.2667 30.0488 13.285 29.8609 12.3347Z" fill="#1976D2"/>
</svg>
