<svg width="81" height="80" viewBox="0 0 81 80" fill="none" xmlns="http://www.w3.org/2000/svg">
<g id="Layer_1" clip-path="url(#clip0_2087_3869)">
<path id="Vector" d="M60.4984 12.5028V14.0664H80.5005V26.3607H60.5013V27.9185H80.5005V39.9986H40.5049V0H80.5005V12.5028H60.4984Z" fill="#FF8533"/>
<path id="Vector_2" d="M80.4056 59.9445C80.4056 48.9623 71.5028 40.0596 60.5206 40.0596C49.5385 40.0596 40.6357 48.9623 40.6357 59.9445C40.6357 70.9266 49.5385 79.8294 60.5206 79.8294C71.5028 79.8294 80.4056 70.9266 80.4056 59.9445Z" fill="#FFD55F"/>
<path id="Vector_3" d="M40.5024 0V39.9986H0.498047V0H11.5994L20.4944 19.9964L29.401 0H40.5024Z" fill="#FFD55F"/>
<path id="Vector_4" d="M40.5053 39.9985V80H0.498047V39.9985H11.6023L20.4973 60.0007L29.4039 39.9985H40.5053Z" fill="#FF8533"/>
</g>
<defs>
<clipPath id="clip0_2087_3869">
<rect width="80.0029" height="80" fill="white" transform="translate(0.498047)"/>
</clipPath>
</defs>
</svg>
