<svg width="295" height="291" viewBox="0 0 295 291" fill="none" xmlns="http://www.w3.org/2000/svg">
<rect x="0.5" y="0.895477" width="293.717" height="288.345" rx="21.4915" fill="#5441D8"/>
<g clip-path="url(#clip0_2873_4016)">
<mask id="mask0_2873_4016" style="mask-type:luminance" maskUnits="userSpaceOnUse" x="0" y="0" width="295" height="291">
<path d="M268.501 0H26.2167C12.0138 0 0.5 11.3733 0.5 25.4031V264.732C0.5 278.762 12.0138 290.136 26.2167 290.136H268.501C282.704 290.136 294.217 278.762 294.217 264.732V25.4031C294.217 11.3733 282.704 0 268.501 0Z" fill="white"/>
</mask>
<g mask="url(#mask0_2873_4016)">
<path d="M22.6383 234.551C29.0923 239.745 39.7831 253.043 40.1609 261.804C39.9638 257.267 40.9655 252.681 43.0347 248.654C48.1585 258.105 54.5467 268.559 65.0734 270.696C69.3924 271.584 73.8428 271.222 78.1619 270.565C82.5302 269.891 86.8656 268.921 91.2832 268.625C93.8615 268.444 96.4398 268.707 99.0181 268.921C99.1495 268.921 99.2808 268.937 99.3794 268.855C99.4779 268.789 99.5108 268.658 99.5436 268.543C99.7078 267.984 100.102 267.409 100.71 267.277C108.165 265.666 117.756 268.921 124.144 272.57C131.107 276.531 137.43 282.662 141.207 289.78C149.007 304.474 147.94 323.13 139.811 337.644C131.682 352.158 117.066 362.546 101.038 366.984C69.1461 375.811 40.9327 356.826 28.4518 327.782C17.9416 303.34 22.1621 282.646 27.7292 258.023C29.5849 249.805 29.043 240.008 22.6383 234.551Z" fill="#FFE66C"/>
<path d="M259.152 158.99H55.2699C50.599 158.99 46.8125 162.78 46.8125 167.455V370.535C46.8125 375.21 50.599 379 55.2699 379H259.152C263.823 379 267.609 375.21 267.609 370.535V167.455C267.609 162.78 263.823 158.99 259.152 158.99Z" fill="white"/>
<path d="M59.9326 159.319L81.3472 122.106L98.7383 91.878C100.528 88.7714 104.995 88.7714 106.785 91.878L124.176 122.106L145.591 159.319" fill="white"/>
<path d="M166.858 159.319L188.027 122.517L204.827 93.308C206.764 89.9385 211.625 89.9385 213.563 93.308L230.363 122.517L251.531 159.319" fill="white"/>
<path d="M179.586 248.588C183.642 248.325 187.698 248.293 191.755 248.506C192.526 248.539 192.526 247.339 191.755 247.306C187.698 247.109 183.642 247.142 179.586 247.389C178.814 247.438 178.814 248.654 179.586 248.588Z" fill="black"/>
<path d="M179.126 251.827C182.936 252.632 186.68 253.766 190.309 255.196C191.032 255.476 191.344 254.308 190.638 254.029C187.008 252.599 183.28 251.465 179.454 250.659C178.699 250.495 178.37 251.662 179.126 251.827Z" fill="black"/>
<path d="M126.69 248.671C122.847 248.178 118.988 247.898 115.112 247.799C114.34 247.783 114.34 248.983 115.112 248.999C118.988 249.082 122.847 249.377 126.69 249.871C127.462 249.969 127.445 248.753 126.69 248.671Z" fill="black"/>
<path d="M126.493 251.136C123.028 252.122 119.563 253.109 116.098 254.095C115.359 254.309 115.671 255.476 116.426 255.262C119.892 254.276 123.357 253.289 126.822 252.303C127.561 252.09 127.249 250.922 126.493 251.136Z" fill="black"/>
<path d="M141.994 221.402C141.403 219.758 140.467 218.246 139.219 217.013C138.036 215.846 136.279 214.482 134.505 215.123C133.635 215.435 133.06 216.142 132.945 217.079C132.83 218.016 133.175 218.854 133.553 219.659C134.259 221.155 135.458 222.454 137.002 223.078C138.545 223.703 140.762 223.522 141.534 221.829C141.698 221.467 141.633 221.04 141.271 220.826C140.959 220.646 140.434 220.728 140.27 221.089C139.843 222.01 138.677 222.108 137.79 221.829C136.64 221.467 135.721 220.53 135.113 219.511C134.702 218.805 133.75 217.046 134.883 216.536C136.016 216.027 137.379 217.292 138.135 218.016C139.219 219.068 140.073 220.383 140.582 221.813C140.713 222.174 141.074 222.437 141.468 222.322C141.83 222.223 142.109 221.796 141.978 221.435L141.994 221.402Z" fill="black"/>
<path d="M165.282 222.174C165.676 220.695 166.316 219.298 167.187 218.032C167.614 217.424 168.074 216.832 168.632 216.339C169.059 215.961 169.667 215.566 170.274 215.747C171.309 216.076 171.555 217.522 171.391 218.443C171.161 219.725 170.356 220.876 169.207 221.5C167.827 222.24 166.119 222.076 164.855 221.221C164.067 220.695 163.344 221.96 164.116 222.47C165.627 223.473 167.647 223.703 169.338 223.012C171.03 222.322 172.212 220.941 172.688 219.265C173.132 217.703 172.853 215.797 171.506 214.777C170.8 214.252 169.88 214.12 169.059 214.416C168.156 214.745 167.45 215.419 166.842 216.142C165.446 217.785 164.444 219.725 163.886 221.813C163.64 222.717 165.052 223.111 165.282 222.207V222.174Z" fill="black"/>
<path d="M126.541 245.367C126.344 245.301 126.163 245.235 125.966 245.153C123.848 244.265 122.074 242.819 120.301 241.373C119.25 240.518 118.215 239.647 117.164 238.792L111.613 218.574C114.356 219.281 117.082 220.037 119.792 220.843L126.541 245.367Z" fill="white"/>
<path d="M111.614 218.574L117.165 238.792C116.36 238.118 115.539 237.444 114.735 236.754C107.345 230.524 100.135 224.081 93.1064 217.424C92.8765 217.21 92.7616 216.964 92.7287 216.701C92.5809 216.405 92.5317 216.043 92.6138 215.731C92.8108 214.991 93.5334 214.695 94.2396 214.81C98.4437 215.55 102.631 216.405 106.786 217.375C108.396 217.753 110.005 218.147 111.614 218.558V218.574Z" fill="black"/>
<path d="M134.194 244.068C133.636 244.413 133.061 244.742 132.47 245.022C131.862 245.301 131.255 245.498 130.631 245.63L124.177 222.191C125.655 222.651 127.116 223.127 128.578 223.637L134.194 244.068Z" fill="white"/>
<path d="M124.178 222.191L130.632 245.63C129.285 245.909 127.906 245.827 126.559 245.367L119.81 220.843C121.271 221.27 122.733 221.714 124.178 222.191Z" fill="black"/>
<path d="M187.502 240.666C186.763 241.274 186.024 241.866 185.285 242.457C184.021 243.46 182.658 244.446 181.163 245.087L175.53 224.607C177.829 223.801 180.128 223.012 182.444 222.289L187.502 240.666Z" fill="white"/>
<path d="M175.53 224.607L181.163 245.087C180.621 245.334 180.063 245.515 179.472 245.646C177.123 246.156 175.005 245.433 172.985 244.216C171.195 243.131 169.421 242.03 167.598 240.978C164.166 239.006 160.685 237.132 157.302 235.044H149.649C145.806 237.411 141.815 239.532 137.923 241.8C137.037 242.31 136.15 242.835 135.279 243.394C134.918 243.624 134.557 243.838 134.195 244.068L128.579 223.637C128.661 223.67 128.76 223.703 128.842 223.719C135.427 225.955 141.898 228.502 148.269 231.313H158.648C161.916 229.867 165.233 228.502 168.567 227.187C170.866 226.283 173.182 225.429 175.514 224.607H175.53Z" fill="black"/>
<path d="M194.005 235.209C192.921 236.129 191.854 237.033 190.77 237.937L186.155 221.122C187.387 220.744 188.619 220.383 189.85 220.037L194.022 235.192L194.005 235.209Z" fill="white"/>
<path d="M186.122 221.139L190.736 237.954C189.653 238.858 188.569 239.778 187.485 240.666L182.427 222.289C183.658 221.895 184.874 221.517 186.105 221.139H186.122Z" fill="black"/>
<path d="M214.205 216.717C214.172 216.964 214.057 217.21 213.827 217.44C209.853 221.188 205.829 224.886 201.74 228.502C199.178 230.771 196.6 233.006 194.005 235.225L189.834 220.07C190.031 220.004 190.228 219.955 190.425 219.906C197.766 217.851 205.189 216.158 212.694 214.843C213.4 214.712 214.106 215.024 214.32 215.764C214.402 216.076 214.352 216.438 214.205 216.734V216.717Z" fill="black"/>
<path d="M60.2773 158.925H145.049" stroke="#FFD55F" stroke-width="2.63271" stroke-miterlimit="10"/>
<path d="M166.842 158.431H251.63" stroke="#FFD55F" stroke-width="2.63271" stroke-miterlimit="10"/>
<path d="M117.69 157.297C114.702 147.32 110.333 137.787 104.717 129.009C103.961 127.826 102.073 128.927 102.828 130.11C108.346 138.74 112.649 148.06 115.588 157.873C115.983 159.22 118.101 158.645 117.69 157.297Z" fill="black"/>
<path d="M106.868 136.011C105.964 136.718 105.242 137.589 104.536 138.493C103.698 139.578 102.86 140.663 102.023 141.748C100.364 143.901 98.7057 146.071 97.047 148.224C96.6858 148.684 96.9813 149.44 97.4412 149.72C97.9995 150.049 98.5743 149.802 98.9356 149.325C100.545 147.238 102.154 145.134 103.764 143.046C105.192 141.173 106.539 139.019 108.411 137.556C108.871 137.195 108.789 136.389 108.411 136.011C107.951 135.551 107.327 135.65 106.868 136.011Z" fill="black"/>
<path d="M199.21 156.919C202.149 147.106 206.452 137.787 211.97 129.157C212.725 127.974 210.837 126.872 210.081 128.056C204.465 136.833 200.096 146.367 197.108 156.344C196.697 157.692 198.799 158.267 199.21 156.919Z" fill="black"/>
<path d="M206.404 136.587C208.276 138.05 209.622 140.219 211.051 142.077C212.661 144.164 214.27 146.268 215.879 148.356C216.241 148.816 216.815 149.079 217.374 148.75C217.834 148.487 218.129 147.731 217.768 147.254C216.109 145.101 214.451 142.931 212.792 140.778C211.987 139.726 211.183 138.674 210.361 137.622C209.639 136.685 208.883 135.765 207.947 135.025C207.488 134.664 206.864 134.581 206.404 135.025C206.026 135.403 205.944 136.209 206.404 136.57V136.587Z" fill="black"/>
<path d="M140.73 244.956C139.991 246.863 140.402 249.098 141.716 250.66C143.226 252.451 145.591 252.846 147.808 252.484C150.419 252.057 152.948 250.807 155.297 249.624C157.875 248.309 160.338 246.78 162.687 245.054C163.442 244.496 162.703 243.23 161.948 243.789C158.253 246.501 154.147 248.934 149.812 250.446C147.825 251.136 145.328 251.679 143.489 250.314C141.945 249.164 141.469 247.076 142.142 245.317C142.487 244.43 141.075 244.052 140.73 244.923V244.956Z" fill="black"/>
</g>
</g>
<path d="M125.555 46.275V78H116.735V60.495L110.75 78H103.37L97.34 60.36V78H88.52V46.275H99.185L107.15 66.885L114.935 46.275H125.555ZM150.646 72.825H139.396L137.686 78H128.416L139.981 46.275H150.151L161.671 78H152.356L150.646 72.825ZM148.441 66.075L145.021 55.815L141.646 66.075H148.441ZM173.365 71.25H183.22V78H164.545V46.275H173.365V71.25ZM195.47 53.34V58.515H205.595V65.22H195.47V70.935H206.945V78H186.65V46.275H206.945V53.34H195.47Z" fill="#FFE66C"/>
<defs>
<clipPath id="clip0_2873_4016">
<rect width="293.717" height="290.136" fill="white" transform="translate(0.5)"/>
</clipPath>
</defs>
</svg>
