<svg width="37" height="36" viewBox="0 0 37 36" fill="none" xmlns="http://www.w3.org/2000/svg">
<rect width="37" height="36" rx="5" fill="white"/>
<path d="M16.1756 25.5287C15.9421 25.5277 15.7142 25.4575 15.5206 25.327C15.327 25.1964 15.1765 25.0114 15.088 24.7954C14.9995 24.5793 14.9772 24.3418 15.0236 24.113C15.0701 23.8842 15.1834 23.6743 15.3492 23.5099L21.5943 17.2648L15.3492 11.0197C15.2386 10.9099 15.1507 10.7794 15.0908 10.6355C15.0309 10.4916 15 10.3373 15 10.1815C15 10.0256 15.0309 9.87134 15.0908 9.72747C15.1507 9.58361 15.2386 9.45304 15.3492 9.3433C15.5704 9.12342 15.8696 9 16.1815 9C16.4934 9 16.7926 9.12342 17.0138 9.3433L24.0971 16.4266C24.2078 16.5364 24.2956 16.6669 24.3555 16.8108C24.4154 16.9546 24.4463 17.1089 24.4463 17.2648C24.4463 17.4206 24.4154 17.5749 24.3555 17.7188C24.2956 17.8627 24.2078 17.9932 24.0971 18.103L17.0138 25.1863C16.9035 25.2957 16.7727 25.3823 16.6288 25.441C16.485 25.4998 16.331 25.5296 16.1756 25.5287Z" fill="#FF8533"/>
</svg>
