<svg width="277" height="385" viewBox="0 0 277 385" fill="none" xmlns="http://www.w3.org/2000/svg">
<path d="M154.606 109.16C169.203 109.16 181.036 97.3269 181.036 82.73C181.036 68.1331 169.203 56.3 154.606 56.3C140.009 56.3 128.176 68.1331 128.176 82.73C128.176 97.3269 140.009 109.16 154.606 109.16Z" fill="white"/>
<path d="M253.615 12.7H95.6953V208.36H253.615V12.7Z" fill="#BBE0FF"/>
<path d="M258.615 215.91H92.125V130.1L253.465 139.63L258.615 215.91Z" fill="#6487F4"/>
<path d="M118.726 161.68C137.023 161.68 151.856 146.847 151.856 128.55C151.856 110.253 137.023 95.42 118.726 95.42C100.429 95.42 85.5957 110.253 85.5957 128.55C85.5957 146.847 100.429 161.68 118.726 161.68Z" fill="#6487F4"/>
<path d="M113.725 67.29C124.533 67.29 133.295 58.6043 133.295 47.89C133.295 37.1757 124.533 28.49 113.725 28.49C102.917 28.49 94.1553 37.1757 94.1553 47.89C94.1553 58.6043 102.917 67.29 113.725 67.29Z" fill="white"/>
<path d="M212.106 201.5C226.609 201.5 238.366 189.743 238.366 175.24C238.366 160.737 226.609 148.98 212.106 148.98C197.603 148.98 185.846 160.737 185.846 175.24C185.846 189.743 197.603 201.5 212.106 201.5Z" fill="#6487F4"/>
<path d="M265.485 119.91V177.35C262.835 180.08 259.805 182.44 256.485 184.35C256.335 184.44 256.185 184.53 256.035 184.61C255.245 185.06 254.435 185.47 253.615 185.86C248.265 188.4 242.285 189.82 235.965 189.82H235.835C235.215 189.82 234.595 189.8 233.975 189.77C232.135 189.69 230.325 189.48 228.555 189.16C220.775 187.75 213.765 184.15 208.165 179.02C207.865 178.75 207.575 178.47 207.285 178.19C204.975 175.95 202.925 173.44 201.185 170.7C198.225 166.05 196.165 160.75 195.275 155.08C194.945 152.98 194.775 150.82 194.775 148.63C194.775 144.33 195.435 140.18 196.655 136.27C196.835 135.71 197.015 135.15 197.225 134.6C197.265 134.48 197.315 134.36 197.355 134.24C199.445 128.63 202.725 123.6 206.885 119.45C208.505 117.84 210.245 116.36 212.115 115.04C217.735 111.04 224.395 108.42 231.625 107.67C233.055 107.52 234.505 107.44 235.965 107.44C236.235 107.44 236.495 107.44 236.765 107.45C242.785 107.56 248.495 108.97 253.615 111.4C254.275 111.71 254.915 112.04 255.545 112.38C259.235 114.38 262.585 116.92 265.485 119.91Z" fill="#6487F4"/>
<path d="M170.395 189.83C189.355 189.83 204.725 174.46 204.725 155.5C204.725 136.54 189.355 121.17 170.395 121.17C151.435 121.17 136.065 136.54 136.065 155.5C136.065 174.46 151.435 189.83 170.395 189.83Z" fill="#6487F4"/>
<path d="M147.902 105.148C149.775 97.8966 145.362 90.4869 138.047 88.5978C130.732 86.7087 123.284 91.0554 121.411 98.3065C119.539 105.558 123.951 112.967 131.266 114.856C138.581 116.745 146.029 112.399 147.902 105.148Z" fill="white"/>
<path d="M107.055 86.84C117.383 86.84 125.755 78.5394 125.755 68.3C125.755 58.0607 117.383 49.76 107.055 49.76C96.7277 49.76 88.3555 58.0607 88.3555 68.3C88.3555 78.5394 96.7277 86.84 107.055 86.84Z" fill="white"/>
<path d="M137.408 112.748C139.197 105.818 134.982 98.7367 127.993 96.9318C121.004 95.1269 113.888 99.2818 112.098 106.212C110.308 113.142 114.523 120.224 121.512 122.028C128.501 123.833 135.618 119.678 137.408 112.748Z" fill="white"/>
<path d="M194.255 222.23C202.501 222.23 209.185 215.604 209.185 207.43C209.185 199.256 202.501 192.63 194.255 192.63C186.01 192.63 179.325 199.256 179.325 207.43C179.325 215.604 186.01 222.23 194.255 222.23Z" fill="#603EF7"/>
<path d="M117.485 165.72C117.485 168.9 116.745 171.9 115.425 174.57C114.965 175.49 114.445 176.37 113.865 177.21C112.265 179.49 110.195 181.42 107.795 182.87C104.785 184.69 101.255 185.73 97.4755 185.73C96.8755 185.73 96.2755 185.7 95.6855 185.65C94.4555 185.54 93.2655 185.32 92.1155 185C91.4355 184.81 90.7755 184.59 90.1255 184.33C87.3455 183.23 84.8655 181.53 82.8555 179.38V152.05C85.0855 149.66 87.8955 147.83 91.0555 146.76C91.4055 146.64 91.7655 146.53 92.1255 146.43C93.2755 146.11 94.4655 145.89 95.6955 145.78C96.2855 145.73 96.8855 145.7 97.4855 145.7C107.135 145.7 115.195 152.54 117.075 161.63C117.345 162.95 117.495 164.32 117.495 165.71L117.485 165.72Z" fill="#603EF7"/>
<path d="M103.475 199.09C110.882 199.09 116.885 193.086 116.885 185.68C116.885 178.274 110.882 172.27 103.475 172.27C96.0693 172.27 90.0654 178.274 90.0654 185.68C90.0654 193.086 96.0693 199.09 103.475 199.09Z" fill="#603EF7"/>
<path d="M123.735 207.28C133.35 207.28 141.145 199.485 141.145 189.87C141.145 180.255 133.35 172.46 123.735 172.46C114.12 172.46 106.325 180.255 106.325 189.87C106.325 199.485 114.12 207.28 123.735 207.28Z" fill="#603EF7"/>
<path d="M217.306 84.96C233.134 84.96 245.966 72.1285 245.966 56.3C245.966 40.4715 233.134 27.64 217.306 27.64C201.477 27.64 188.646 40.4715 188.646 56.3C188.646 72.1285 201.477 84.96 217.306 84.96Z" fill="#F8D45B"/>
<path d="M240.986 188.92C253.998 188.92 264.546 178.466 264.546 165.57C264.546 152.674 253.998 142.22 240.986 142.22C227.974 142.22 217.426 152.674 217.426 165.57C217.426 178.466 227.974 188.92 240.986 188.92Z" fill="#603EF7"/>
<path d="M217.536 212.24C227.864 212.24 236.236 203.939 236.236 193.7C236.236 183.461 227.864 175.16 217.536 175.16C207.208 175.16 198.836 183.461 198.836 193.7C198.836 203.939 207.208 212.24 217.536 212.24Z" fill="#603EF7"/>
<path d="M243.345 220.38C252.353 220.38 259.655 210.544 259.655 198.41C259.655 186.276 252.353 176.44 243.345 176.44C234.337 176.44 227.035 186.276 227.035 198.41C227.035 210.544 234.337 220.38 243.345 220.38Z" fill="#603EF7"/>
<path d="M160.843 111.674C162.765 104.561 158.57 97.241 151.474 95.3236C144.377 93.4062 137.066 97.6175 135.145 104.73C133.223 111.842 137.418 119.163 144.514 121.08C151.611 122.997 158.921 118.786 160.843 111.674Z" fill="white"/>
<path d="M148.595 220.38C157.034 220.38 163.875 213.539 163.875 205.1C163.875 196.661 157.034 189.82 148.595 189.82C140.157 189.82 133.315 196.661 133.315 205.1C133.315 213.539 140.157 220.38 148.595 220.38Z" fill="#603EF7"/>
<path d="M174.855 220.37C182.438 220.37 188.585 214.223 188.585 206.64C188.585 199.057 182.438 192.91 174.855 192.91C167.272 192.91 161.125 199.057 161.125 206.64C161.125 214.223 167.272 220.37 174.855 220.37Z" fill="#603EF7"/>
<path d="M152.357 120.034C154.827 114.015 151.962 107.139 145.959 104.676C139.955 102.212 133.086 105.094 130.616 111.113C128.147 117.132 131.011 124.009 137.015 126.472C143.019 128.936 149.888 126.053 152.357 120.034Z" fill="white"/>
<path d="M239.056 95.42C248.533 95.42 256.216 87.7372 256.216 78.26C256.216 68.7828 248.533 61.1 239.056 61.1C229.578 61.1 221.896 68.7828 221.896 78.26C221.896 87.7372 229.578 95.42 239.056 95.42Z" fill="white"/>
<path d="M220.516 117.06C230.755 117.06 239.056 108.759 239.056 98.52C239.056 88.2806 230.755 79.98 220.516 79.98C210.276 79.98 201.976 88.2806 201.976 98.52C201.976 108.759 210.276 117.06 220.516 117.06Z" fill="white"/>
<path d="M245.916 115.33C255.393 115.33 263.076 107.647 263.076 98.17C263.076 88.6928 255.393 81.01 245.916 81.01C236.439 81.01 228.756 88.6928 228.756 98.17C228.756 107.647 236.439 115.33 245.916 115.33Z" fill="white"/>
<path d="M181.075 12.7H168.235V208.36H181.075V12.7Z" fill="#FCA735"/>
<path d="M253.615 106.19H95.6953V119.45H253.615V106.19Z" fill="#FCA735"/>
<path d="M95.6955 12.7H253.615V208.36H95.6955V12.7ZM82.8555 0V222.09H265.485V0H82.8555Z" fill="#FCA735"/>
<path d="M133.155 81.1C143.483 81.1 151.855 72.7993 151.855 62.56C151.855 52.3206 143.483 44.02 133.155 44.02C122.827 44.02 114.455 52.3206 114.455 62.56C114.455 72.7993 122.827 81.1 133.155 81.1Z" fill="white"/>
<path d="M205.596 307.46C205.756 302.84 202.636 298.49 199.666 294.6C198.576 293.17 197.386 291.66 195.726 291C193.236 290 190.426 291.42 189.426 293.69C188.426 295.97 188.956 298.8 190.206 301.17C191.456 303.55 193.346 305.56 195.206 307.54C189.106 305.97 182.656 306.66 177.456 309.44C176.956 309.71 176.446 310.02 176.196 310.53C175.756 311.43 176.346 312.65 177.236 313.3C178.126 313.95 179.216 314.18 180.266 314.38C183.446 315.01 186.636 315.63 189.816 316.26C185.666 316.21 181.676 317.82 178.946 320.66C177.936 321.71 177.056 323.08 177.346 324.6C177.726 326.61 179.966 327.91 181.996 328.32C188.256 329.56 193.676 325.51 198.236 321.7C196.556 323.57 198.166 327.08 200.676 328.21C203.186 329.34 205.996 328.68 208.306 327.59C209.996 326.79 211.706 325.56 211.896 323.67C212.086 321.78 209.696 319.61 208.166 320.65C211.206 319.91 214.456 319.79 217.356 318.71C220.256 317.63 222.876 315.24 222.856 312.08C222.836 308.92 218.926 305.71 216.256 307.22C217.176 305.96 218.116 304.65 218.386 303.08C218.656 301.51 218.046 299.58 216.556 298.74C215.916 298.38 215.186 298.25 214.476 298.24C210.526 298.21 207.896 301.64 205.826 304.76" fill="#A940F4"/>
<path d="M248.066 314.02C249.476 310.87 248.536 306.99 247.566 303.46C247.216 302.17 246.816 300.79 245.856 299.87C244.406 298.48 242.066 298.68 240.746 299.98C239.426 301.28 238.986 303.38 239.186 305.37C239.386 307.36 240.126 309.29 240.856 311.18C237.076 308.39 232.416 307.07 228.036 307.54C227.616 307.59 227.176 307.66 226.856 307.94C226.296 308.44 226.366 309.45 226.796 310.14C227.226 310.83 227.916 311.3 228.586 311.74C230.616 313.06 232.646 314.39 234.666 315.71C231.806 314.51 228.596 314.52 225.906 315.71C224.916 316.15 223.916 316.86 223.696 317.99C223.396 319.49 224.576 321.01 225.876 321.86C229.856 324.46 234.746 323.18 238.976 321.81C237.286 322.63 237.416 325.51 238.836 326.99C240.256 328.47 242.386 328.8 244.286 328.69C245.676 328.61 247.206 328.23 247.876 326.98C248.546 325.73 247.486 323.55 246.136 323.85C248.446 324.19 250.736 325.01 253.046 325.07C255.356 325.14 257.846 324.21 258.716 322.02C259.586 319.83 257.776 316.51 255.516 316.81C256.506 316.2 257.526 315.55 258.156 314.54C258.786 313.53 258.896 312.03 258.106 311.03C257.766 310.6 257.296 310.31 256.806 310.1C254.076 308.97 251.296 310.61 248.986 312.2" fill="#8A2ADD"/>
<path d="M215.076 316.4C216.286 313.73 215.496 310.46 214.696 307.48C214.396 306.39 214.066 305.23 213.256 304.45C212.036 303.28 210.036 303.46 208.906 304.56C207.776 305.66 207.396 307.44 207.556 309.12C207.716 310.8 208.336 312.42 208.956 314.02C205.756 311.68 201.796 310.58 198.066 311C197.706 311.04 197.326 311.1 197.066 311.34C196.596 311.77 196.646 312.61 197.006 313.2C197.366 313.79 197.956 314.17 198.526 314.54C200.246 315.65 201.966 316.76 203.686 317.87C201.256 316.87 198.526 316.89 196.236 317.91C195.386 318.29 194.546 318.89 194.346 319.84C194.086 321.11 195.086 322.39 196.186 323.1C199.566 325.28 203.726 324.18 207.326 323.01C205.886 323.71 205.986 326.15 207.186 327.39C208.386 328.63 210.196 328.91 211.816 328.81C213.006 328.74 214.306 328.41 214.876 327.35C215.446 326.29 214.566 324.46 213.406 324.71C215.366 324.99 217.306 325.67 219.276 325.72C221.246 325.77 223.356 324.98 224.106 323.12C224.856 321.26 223.336 318.47 221.406 318.73C222.246 318.21 223.116 317.66 223.656 316.8C224.196 315.94 224.296 314.67 223.626 313.83C223.336 313.47 222.936 313.22 222.526 313.05C220.216 312.11 217.836 313.51 215.866 314.85" fill="#8A2ADD"/>
<path d="M233.416 328.05C231.926 307.88 233.866 287.45 239.406 267.98C240.926 262.64 242.726 257.38 244.796 252.23C245.146 251.37 244.416 250.36 243.606 250.13C242.636 249.85 241.846 250.47 241.506 251.32C233.956 270.09 230.086 290.34 229.576 310.54C229.426 316.38 229.576 322.22 230.006 328.05C230.166 330.23 233.586 330.25 233.426 328.05H233.416Z" fill="#F970BE"/>
<path d="M245.836 241.27C243.926 236.56 241.656 231.73 237.596 228.66C233.536 225.6 227.196 224.99 223.646 228.63C221.466 230.87 220.786 234.44 221.986 237.32C223.186 240.2 226.196 242.23 229.326 242.26C226.176 242.93 222.846 242.59 219.796 243.63C216.746 244.67 214.016 247.95 215.246 250.92C215.976 252.68 217.896 253.71 219.786 253.92C221.676 254.13 223.576 253.67 225.426 253.21C223.716 253.68 221.946 254.16 220.536 255.24C219.126 256.32 218.136 258.15 218.576 259.87C219.156 262.16 221.806 263.2 224.146 263.53C230.056 264.37 236.256 262.87 241.126 259.42C239.896 262.62 240.836 266.4 243.006 269.05C245.176 271.7 248.426 273.3 251.776 274.04C254.866 274.72 258.406 274.61 260.816 272.56C264.076 269.78 263.886 264.39 261.496 260.83C266.046 261.18 271.226 261.13 274.346 257.8C276.786 255.21 277.146 250.91 275.176 247.94C273.206 244.97 269.106 243.63 265.776 244.87C267.906 243.96 268.016 240.68 266.436 238.99C264.856 237.3 262.336 236.89 260.026 236.91C255.276 236.95 250.556 238.4 246.606 241.02" fill="#FFAF45"/>
<path d="M197.596 255.21C207.906 269.5 208.546 288.52 209.646 305.45C210.026 311.33 210.346 317.22 210.606 323.11C210.706 325.3 214.126 325.31 214.026 323.11C213.576 312.87 213.026 302.61 212.096 292.4C211.286 283.57 210.076 274.64 207.096 266.25C205.486 261.73 203.376 257.39 200.556 253.49C199.276 251.72 196.316 253.43 197.606 255.22L197.596 255.21Z" fill="#F970BE"/>
<path d="M217.396 271.63C222.026 279.17 223.176 288.07 223.246 296.77C223.316 306.49 222.476 316.25 221.666 325.93C221.516 327.76 224.366 327.75 224.516 325.93C225.186 317.98 225.766 310.01 226.026 302.04C226.246 295.04 226.076 287.91 224.366 281.09C223.406 277.26 221.926 273.56 219.856 270.19C218.896 268.63 216.426 270.06 217.386 271.63H217.396Z" fill="#603EF7"/>
<path d="M248.066 311.96C250.496 313.52 254.506 313.65 258.176 313.7C259.526 313.72 260.966 313.72 262.206 313.26C264.056 312.57 264.756 310.97 264.046 309.82C263.336 308.67 261.516 307.98 259.566 307.72C257.616 307.46 255.526 307.58 253.476 307.7C257.536 305.72 260.546 302.87 261.756 299.86C261.876 299.57 261.976 299.26 261.826 299C261.566 298.53 260.596 298.38 259.776 298.53C258.956 298.68 258.256 299.05 257.596 299.41C255.586 300.5 253.576 301.6 251.566 302.69C253.776 301.01 254.986 298.87 254.876 296.84C254.836 296.09 254.546 295.29 253.576 294.92C252.286 294.42 250.396 294.92 249.116 295.62C245.156 297.77 244.516 301.28 244.196 304.37C244.066 303.08 241.306 302.6 239.376 303.26C237.446 303.92 236.326 305.27 235.706 306.57C235.256 307.52 235.026 308.61 235.956 309.3C236.886 309.99 239.326 309.71 239.556 308.75C238.366 310.23 236.726 311.59 235.786 313.12C234.846 314.65 234.776 316.49 236.506 317.5C238.236 318.51 242.036 317.95 242.616 316.38C242.816 317.16 243.036 317.97 243.756 318.58C244.476 319.19 245.836 319.57 247.076 319.24C247.606 319.1 248.066 318.84 248.436 318.55C250.526 316.95 250.046 314.77 249.426 312.92" fill="#A940F4"/>
<path d="M236.066 259.43C235.716 259.39 235.326 259.39 235.046 259.15C234.596 258.77 234.726 258.07 234.686 257.49C234.606 256.34 233.676 255.39 232.616 254.94C231.556 254.49 230.376 254.44 229.226 254.43C227.526 254.41 225.606 254.54 224.516 255.84C223.636 256.88 222.916 258.69 221.906 259.61L222.026 272.2L222.376 260.09C219.876 257.15 214.806 256.95 212.076 259.68C210.886 260.87 210.136 262.59 210.426 264.25C210.696 265.75 211.966 267.08 213.456 267.25C208.946 267.18 204.526 270.25 203.096 274.54C202.856 275.26 202.696 276.04 202.896 276.77C203.086 277.45 203.576 278.01 204.126 278.45C206.376 280.29 209.816 280.5 212.266 278.94C211.426 280.06 210.576 281.22 210.246 282.57C209.916 283.93 210.246 285.55 211.406 286.33C212.036 286.76 212.816 286.89 213.576 286.92C215.756 287.02 218.006 286.36 219.646 284.92C221.276 283.47 222.216 281.19 221.826 279.04L221.846 278.18C222.716 279.62 223.656 281.05 224.926 282.14C226.226 283.26 227.936 284 229.636 283.79C230.966 283.62 232.176 282.89 233.146 281.96C235.386 279.83 236.376 275.89 234.186 273.7C237.436 272.76 240.386 270.24 241.046 266.92C241.706 263.6 239.406 259.76 236.046 259.43H236.066Z" fill="#FFFF17"/>
<path d="M197.646 233.34C193.676 228.18 186.576 226.43 180.046 225.03C177.646 224.51 175.076 224.01 172.786 224.86C169.336 226.14 167.736 230.35 168.756 233.76C169.776 237.17 172.856 239.74 176.256 241.13C179.656 242.52 183.406 242.92 187.086 243.3C179.436 247.38 173.446 254.26 170.626 262.21C170.356 262.98 170.106 263.8 170.316 264.59C170.676 265.98 172.366 266.74 173.856 266.6C175.346 266.46 176.666 265.67 177.926 264.9C181.746 262.56 185.566 260.21 189.386 257.87C185.086 261.76 182.456 267.29 182.206 272.95C182.116 275.04 182.446 277.37 184.096 278.74C186.286 280.56 189.746 279.85 192.186 278.35C199.696 273.75 201.626 264.22 202.876 255.76C202.826 259.39 207.626 261.66 211.206 260.5C214.786 259.33 217.066 255.96 218.456 252.59C219.476 250.12 220.116 247.16 218.616 244.93C217.116 242.7 212.716 242.62 212.096 245.21C214.546 241.52 217.756 238.3 219.766 234.38C221.766 230.46 222.316 225.38 219.456 221.98C216.596 218.58 209.716 218.81 208.346 222.98C208.156 220.74 207.956 218.43 206.816 216.47C205.676 214.51 203.336 213 201.056 213.5C200.076 213.71 199.206 214.27 198.476 214.94C194.406 218.65 194.786 224.87 195.466 230.22" fill="#603EF7"/>
<path d="M224.049 274.07C227.422 272.369 229.314 269.319 228.275 267.258C227.235 265.197 223.658 264.905 220.285 266.606C216.912 268.306 215.02 271.356 216.06 273.418C217.099 275.479 220.676 275.771 224.049 274.07Z" fill="#F970BE"/>
<path d="M246.056 282.54C248.136 285.77 249.006 289.52 249.496 293.29C250.046 297.54 250.276 301.84 250.236 306.12C250.206 310.36 249.906 314.61 249.316 318.81C249.016 320.91 248.646 323 248.216 325.07C247.986 326.15 247.746 327.22 247.486 328.29C247.376 328.75 247.256 329.2 247.136 329.66C247.056 329.96 246.976 330.27 246.896 330.57C246.626 331.2 246.776 331.21 247.346 330.57L248.666 330.74L248.506 330.67L249.296 331.69L249.166 332.54L247.236 333.33L247.376 333.36C249.516 333.88 250.426 330.59 248.286 330.06L248.146 330.03C247.336 329.83 246.686 330.18 246.216 330.82C245.146 332.25 246.606 334.21 248.256 333.87C250.126 333.48 250.356 330.92 250.726 329.43C251.706 325.47 252.426 321.45 252.926 317.4C253.926 309.27 253.936 300.99 252.866 292.87C252.316 288.65 251.356 284.44 249.016 280.82C247.826 278.98 244.866 280.69 246.066 282.55L246.056 282.54Z" fill="#603EF7"/>
<path d="M266.786 258.84C266.296 258.79 265.756 258.78 265.386 258.46C264.766 257.94 264.946 256.97 264.886 256.17C264.766 254.59 263.496 253.27 262.036 252.65C260.576 252.03 258.946 251.97 257.356 251.95C255.016 251.92 252.366 252.1 250.856 253.89C249.646 255.33 248.646 257.83 247.256 259.09L247.416 276.47L247.896 259.75C244.436 255.7 237.446 255.42 233.676 259.18C232.026 260.82 230.996 263.2 231.406 265.49C231.776 267.56 233.536 269.4 235.596 269.64C229.376 269.54 223.276 273.79 221.296 279.7C220.966 280.69 220.736 281.77 221.026 282.77C221.286 283.71 221.966 284.48 222.726 285.09C225.826 287.63 230.576 287.91 233.966 285.77C232.816 287.31 231.636 288.91 231.176 290.79C230.726 292.66 231.176 294.9 232.776 295.98C233.646 296.57 234.726 296.75 235.776 296.79C238.786 296.92 241.896 296.02 244.146 294.02C246.406 292.02 247.686 288.88 247.156 285.91L247.186 284.72C248.396 286.7 249.686 288.67 251.446 290.19C253.236 291.73 255.606 292.76 257.946 292.47C259.786 292.24 261.446 291.22 262.796 289.95C265.896 287.01 267.246 281.57 264.236 278.55C268.726 277.25 272.796 273.77 273.706 269.19C274.606 264.61 271.446 259.3 266.806 258.84H266.786Z" fill="#F970BE"/>
<path d="M249.076 292.54C248.786 292.41 248.456 292.28 248.296 292.01C248.026 291.56 248.346 291 248.476 290.5C248.746 289.5 248.236 288.42 247.476 287.73C246.706 287.03 245.716 286.65 244.746 286.3C243.316 285.78 241.646 285.33 240.336 286.11C239.286 286.74 238.136 288.06 237.016 288.54L233.406 299.26L237.266 289.08C236.006 285.85 231.766 284.19 228.646 285.7C227.286 286.36 226.136 287.6 225.896 289.1C225.686 290.45 226.376 291.96 227.586 292.54C223.786 291.15 219.126 292.46 216.646 295.68C216.236 296.22 215.866 296.83 215.826 297.51C215.786 298.14 216.046 298.76 216.376 299.3C217.746 301.52 220.606 302.71 223.146 302.11C222.106 302.81 221.036 303.54 220.366 304.6C219.686 305.65 219.496 307.13 220.246 308.13C220.656 308.68 221.276 309.02 221.916 309.27C223.736 309.99 225.846 310.1 227.656 309.36C229.466 308.61 230.936 306.95 231.236 305.02L231.506 304.3C231.826 305.78 232.196 307.26 232.956 308.57C233.726 309.9 234.966 311.04 236.466 311.36C237.646 311.61 238.886 311.34 239.986 310.84C242.516 309.69 244.516 306.64 243.306 304.13C246.336 304.29 249.596 303.02 251.126 300.39C252.656 297.77 251.846 293.83 249.086 292.56L249.076 292.54Z" fill="#FFFF17"/>
<path d="M250.533 250.083C251.01 247.824 248.401 245.36 244.705 244.579C241.009 243.798 237.625 244.996 237.148 247.255C236.671 249.514 239.28 251.978 242.976 252.759C246.672 253.539 250.056 252.341 250.533 250.083Z" fill="#603EF7"/>
<path d="M201.69 245.403C204.272 242.63 205.205 239.303 203.775 237.97C202.344 236.638 199.091 237.805 196.509 240.578C193.927 243.351 192.994 246.679 194.425 248.011C195.855 249.343 199.108 248.176 201.69 245.403Z" fill="#FFFF17"/>

<path d="M267.006 320.45H118.876V383.88H267.006V320.45Z" fill="#9D7DFF"/>
<path d="M121.626 328.05H266.666" stroke="black" stroke-width="1.45" stroke-miterlimit="10"/>
<path d="M228.526 332.22H266.666" stroke="black" stroke-width="1.45" stroke-miterlimit="10"/>
<path d="M112.046 332.22H225.226" stroke="black" stroke-width="1.52" stroke-miterlimit="10"/>
<path d="M97.2353 358.37H71.4053V376.37H97.2353V358.37Z" fill="white"/>
<path d="M151.266 139.56C150.486 152.68 155.506 165.53 162.236 176.81C165.526 182.32 169.416 187.75 174.966 190.99C180.516 194.23 188.076 194.75 193.076 190.72C195.516 188.76 197.116 185.96 198.516 183.16C200.286 179.6 201.836 175.91 202.676 172.02C203.766 166.98 203.646 161.75 203.066 156.63C201.976 147.04 199.206 137.45 193.586 129.61C187.966 121.77 179.236 115.84 169.616 115.05C157.566 114.05 145.946 121.2 138.696 130.87C131.446 140.54 127.886 152.44 125.146 164.22C123.356 171.94 121.846 179.87 122.646 187.76C123.056 191.86 123.796 196.01 126.386 199.21C128.976 202.41 132.516 204.74 136.306 206.37C137.886 207.05 139.526 207.62 141.226 207.92C143.626 208.35 145.666 208.33 148.026 207.7C152.776 197.97 157.756 188.36 162.936 178.85L151.276 139.55L151.266 139.56Z" fill="white"/>
<path d="M71.7656 370.83C78.3056 372.56 85.5256 371.86 91.8656 368.33C94.1356 367.07 96.1256 365.52 97.8456 363.78C99.5056 365.43 101.416 366.9 103.586 368.11C109.326 371.3 115.796 372.17 121.826 371L71.7656 370.83Z" fill="white"/>
<path d="M121.826 363.86C128.976 362.53 135.506 358.46 139.436 352.14C140.746 350.04 141.676 347.83 142.256 345.58C144.546 346.19 146.966 346.52 149.476 346.52C163.956 346.52 175.706 335.61 175.706 322.16C175.706 319.73 175.316 317.39 174.606 315.17C176.916 314.63 179.196 313.8 181.366 312.64C193.906 305.93 198.196 291.04 190.946 279.39C189.636 277.29 188.036 275.44 186.226 273.85C187.946 272.31 189.466 270.54 190.716 268.53C197.956 256.9 193.646 242.02 181.076 235.3C178.806 234.09 176.426 233.23 173.996 232.69C174.656 230.56 175.016 228.32 175.016 226C175.016 212.57 163.256 201.69 148.746 201.69C146.126 201.69 143.596 202.05 141.206 202.71C140.626 200.56 139.726 198.46 138.476 196.45C131.236 184.82 115.176 180.85 102.606 187.57C100.336 188.78 98.3456 190.27 96.6256 191.95C94.9656 190.36 93.0556 188.95 90.8856 187.79C78.3456 181.08 62.2956 185.08 55.0356 196.73C53.7256 198.83 52.7956 201.04 52.2156 203.29C49.9256 202.68 47.5056 202.35 44.9956 202.35C30.5156 202.35 18.7656 213.26 18.7656 226.71C18.7656 229.14 19.1556 231.48 19.8656 233.7C17.5556 234.24 15.2756 235.07 13.1056 236.23C0.565619 242.94 -3.72438 257.83 3.52562 269.48C4.83562 271.58 6.43562 273.43 8.24562 275.02C6.52562 276.56 5.00562 278.33 3.75562 280.34C-3.48438 291.97 0.82562 306.85 13.3956 313.57C15.6656 314.78 18.0456 315.64 20.4756 316.18C19.8156 318.31 19.4556 320.55 19.4556 322.87C19.4556 336.3 31.2156 347.18 45.7256 347.18C48.3456 347.18 50.8756 346.82 53.2656 346.16C53.8456 348.31 54.7456 350.41 55.9956 352.42C59.5856 358.18 65.3356 362.07 71.7656 363.7L121.826 363.86Z" fill="white"/>
<path d="M51.0752 205.83C33.7352 179.63 17.2652 152.54 8.37519 122.78C3.46519 106.34 1.39519 87.29 12.4452 72.59C15.6052 68.39 20.7152 64.43 26.0852 65.2C29.0452 65.63 31.4352 67.43 33.4852 69.32C46.6452 81.47 51.3752 99.08 55.6352 115.88C61.7452 140.01 67.7852 163.12 73.8952 187.25L51.0752 205.83Z" fill="white"/>
<path d="M121.155 365.13L121.025 371.93C119.915 372.35 118.775 372.7 117.615 373C113.995 373.95 110.135 374.6 106.315 374.67C104.365 374.7 102.395 374.56 100.495 374.18C99.3554 373.95 98.1854 373.61 97.2354 373.04V356.9L109.005 364.81L121.155 365.12V365.13Z" fill="#F8D45B"/>
<path d="M71.0059 363.83C77.5459 365.56 84.7659 364.86 91.1059 361.33C93.3759 360.07 95.3659 358.52 97.0859 356.78C98.7459 358.43 100.656 359.9 102.826 361.11C108.746 364.41 114.956 365.15 121.156 363.82" stroke="#FCA735" stroke-width="2.24" stroke-miterlimit="10"/>
<path d="M78.1355 250.33C77.9455 249.4 76.8855 249.19 76.1055 249.39C75.4955 249.55 74.9555 249.87 74.4855 250.27C73.5855 251.04 73.0055 252.3 73.0855 253.48C73.1455 254.32 73.4655 255.01 74.1355 255.53C74.6555 255.93 75.2755 256.22 75.9155 256.36C77.2255 256.64 78.7055 256.38 79.6355 255.35C80.5155 254.37 80.8255 252.99 80.2655 251.78C79.7055 250.57 78.1555 249.65 76.8255 249.72C76.1055 249.76 75.3755 250.05 74.9055 250.62C74.4155 251.23 74.2055 252 74.4455 252.76C74.8955 254.16 76.6855 255.55 78.1255 254.59C78.9055 254.07 79.2955 253.09 79.1155 252.17C78.9355 251.25 78.1055 250.56 77.1755 250.57C76.6555 250.57 76.1455 250.84 75.8755 251.29C75.5655 251.79 75.6355 252.4 75.8755 252.9C76.2155 253.6 76.9055 254.13 77.6555 254.32C78.3255 254.49 78.8955 254 78.9355 253.34C79.0055 252.32 78.2155 251.28 77.2055 251.1C76.6855 251.01 76.0855 251.24 75.9555 251.81C75.8455 252.31 76.1055 252.96 76.6655 253.06C76.7255 253.07 76.7855 253.09 76.8455 253.1C76.9555 253.12 76.7155 253.01 76.8055 253.09C76.8855 253.08 76.9455 253.2 76.8055 253.09C76.8255 253.09 76.9855 253.28 76.8755 253.15C76.7855 253.04 76.8755 253.18 76.8955 253.2C76.8555 253.02 76.9655 253.28 76.8955 253.2C76.8955 253.23 76.9155 253.32 76.9255 253.34C76.9055 253.2 76.9055 253.17 76.9055 253.25C76.9055 253.29 76.9055 253.32 76.9055 253.36L78.1855 252.38C78.1355 252.37 78.0855 252.35 78.0355 252.34C78.0055 252.34 77.9055 252.28 78.0155 252.34C78.1355 252.4 78.0155 252.34 77.9955 252.32C77.9555 252.3 77.9055 252.26 77.8655 252.24C77.8755 252.24 77.9955 252.36 77.9155 252.28C77.8855 252.25 77.8555 252.23 77.8255 252.2C77.7855 252.16 77.7555 252.12 77.7155 252.09C77.7755 252.14 77.7955 252.21 77.7355 252.11C77.7355 252.11 77.6555 252 77.6555 251.97C77.6555 251.97 77.7155 252.15 77.6855 252.03C77.6555 251.91 77.6855 252.13 77.6755 252.17C77.6555 252.27 77.5755 252.41 77.5055 252.49C77.4555 252.54 77.3655 252.6 77.2955 252.61C77.2955 252.61 77.0855 252.62 77.2055 252.62C77.3255 252.62 77.1255 252.61 77.1255 252.61C77.0355 252.55 77.3355 252.64 77.1255 252.61C77.2155 252.67 77.0855 252.57 77.0755 252.56C77.1055 252.6 77.1455 252.63 77.1855 252.67C77.1855 252.67 77.0755 252.53 77.1355 252.62C77.1955 252.71 77.1155 252.58 77.1155 252.56C77.1455 252.76 77.1455 252.56 77.1255 252.53C77.1455 252.56 77.1255 252.62 77.1255 252.65C77.1555 252.78 77.1755 252.5 77.1355 252.63C77.1255 252.68 77.1055 252.74 77.0955 252.79C77.0655 252.92 77.1755 252.67 77.0955 252.77C77.0955 252.77 77.0455 252.87 77.0355 252.87C77.0555 252.87 77.1755 252.67 77.0555 252.84C77.0555 252.85 76.9555 252.96 77.0555 252.86C77.1555 252.76 77.0455 252.86 77.0355 252.87C77.0155 252.9 76.8255 252.96 77.0755 252.87C77.0555 252.87 76.9255 252.9 77.0555 252.88C77.1255 252.88 77.1255 252.88 77.0655 252.88C76.9855 252.88 77.0055 252.88 77.1255 252.89C77.0855 252.88 77.0455 252.86 77.0055 252.86C76.8955 252.83 77.0355 252.86 77.0555 252.88C77.0055 252.85 76.9555 252.82 76.9055 252.79C76.8955 252.79 76.7755 252.7 76.8655 252.77C76.9655 252.84 76.8255 252.73 76.7955 252.71C76.7655 252.68 76.7355 252.65 76.7055 252.62C76.6555 252.58 76.4655 252.34 76.5855 252.5C76.5255 252.42 76.4755 252.34 76.4255 252.25C76.4055 252.21 76.3855 252.18 76.3655 252.14C76.3855 252.18 76.4255 252.32 76.3855 252.14C76.3355 251.95 76.3855 252.28 76.3755 252.08C76.3755 251.86 76.3855 252.11 76.3655 252.12L76.4055 251.98C76.4355 252.01 76.3055 252.16 76.3855 252.02C76.4055 251.99 76.4255 251.96 76.4455 251.93C76.4955 251.83 76.4055 252 76.3955 251.99C76.3955 251.99 76.4855 251.9 76.4955 251.88C76.5055 251.86 76.6055 251.78 76.5055 251.86C76.4055 251.94 76.5255 251.86 76.5555 251.83C76.5855 251.8 76.6155 251.79 76.6555 251.77C76.5455 251.79 76.8155 251.68 76.6555 251.77C76.7055 251.76 76.9455 251.71 76.7455 251.73C76.8355 251.73 76.9255 251.73 77.0155 251.73C77.0555 251.73 77.2055 251.76 77.0155 251.73C77.0655 251.73 77.1055 251.75 77.1555 251.76C77.2755 251.79 77.3955 251.83 77.5055 251.87C77.6155 251.9 77.5055 251.87 77.4755 251.86C77.5355 251.89 77.5855 251.91 77.6455 251.94C77.7355 251.99 77.8255 252.04 77.9155 252.1C77.9655 252.13 78.1755 252.3 78.0155 252.16C78.0855 252.22 78.1655 252.28 78.2255 252.35C78.2855 252.41 78.4255 252.58 78.3055 252.42C78.3655 252.5 78.4155 252.58 78.4555 252.66L78.5155 252.77C78.4955 252.78 78.4455 252.57 78.4955 252.73C78.5055 252.77 78.5855 252.98 78.5655 253C78.5555 253.01 78.5655 252.78 78.5455 252.9C78.5455 252.95 78.5455 252.99 78.5455 253.04C78.5455 253.11 78.5455 253.18 78.5355 253.25C78.5355 253.39 78.5755 253.06 78.5355 253.19C78.5355 253.22 78.5255 253.26 78.5155 253.29C78.5155 253.33 78.4155 253.53 78.4355 253.56C78.4355 253.55 78.5455 253.34 78.4555 253.52C78.4355 253.55 78.4255 253.58 78.4055 253.62C78.3655 253.69 78.3155 253.76 78.2755 253.84C78.1855 254 78.3855 253.73 78.2655 253.87C78.2055 253.94 78.1355 254.01 78.0655 254.08C78.0555 254.08 77.9855 254.17 77.9555 254.18C77.9555 254.18 78.1155 254.07 78.0155 254.13C77.9455 254.17 77.8755 254.22 77.8055 254.26C77.7555 254.29 77.7055 254.31 77.6555 254.34C77.6655 254.34 77.8155 254.28 77.7055 254.32C77.5955 254.36 77.4955 254.39 77.3855 254.42C77.3255 254.43 77.0455 254.47 77.2855 254.45C77.2055 254.45 77.1155 254.47 77.0355 254.47C76.9355 254.47 76.8355 254.47 76.7455 254.47C76.6855 254.47 76.6355 254.47 76.5755 254.46C76.4255 254.46 76.7355 254.5 76.5955 254.46C76.4055 254.41 76.2155 254.38 76.0255 254.31C75.9855 254.3 75.9455 254.28 75.9055 254.27C75.9455 254.28 76.0855 254.36 75.9055 254.27C75.8055 254.22 75.7055 254.17 75.6055 254.11C75.5355 254.07 75.4655 254.03 75.4055 253.98C75.2555 253.88 75.3855 253.97 75.4155 253.99C75.3855 253.96 75.3555 253.94 75.3255 253.91C75.2855 253.87 75.2555 253.83 75.2155 253.8C75.1355 253.73 75.2455 253.83 75.2555 253.85C75.2355 253.82 75.2155 253.77 75.1955 253.75C75.1655 253.69 75.1655 253.7 75.1955 253.79L75.1655 253.7C75.1655 253.7 75.1455 253.61 75.1355 253.56C75.0955 253.46 75.1355 253.69 75.1355 253.51C75.1355 253.41 75.1355 253.31 75.1355 253.21C75.1355 253.17 75.1355 253.14 75.1355 253.1C75.1355 252.97 75.0955 253.3 75.1355 253.11C75.1555 253.01 75.1755 252.92 75.2055 252.82C75.2055 252.79 75.3055 252.55 75.3055 252.54C75.3055 252.54 75.2255 252.71 75.2755 252.61C75.3055 252.56 75.3255 252.5 75.3555 252.44C75.4055 252.35 75.4555 252.27 75.5055 252.18C75.5255 252.15 75.5455 252.12 75.5655 252.09C75.4055 252.27 75.6355 251.97 75.5655 252.09C75.6855 251.95 75.8255 251.83 75.9555 251.7C76.0555 251.6 75.8055 251.8 75.9255 251.72C75.9655 251.69 76.0055 251.66 76.0455 251.64C76.1255 251.59 76.2155 251.54 76.3055 251.49C76.3455 251.47 76.3955 251.45 76.4355 251.43C76.5555 251.37 76.2655 251.48 76.3955 251.45C76.4955 251.42 76.5855 251.39 76.6755 251.36C76.7055 251.36 76.7555 251.36 76.7855 251.34C76.6655 251.41 76.5955 251.36 76.7355 251.36C76.8455 251.36 76.6155 251.35 76.6255 251.35C76.4555 251.3 76.2155 251.07 76.1755 250.9C76.2855 251.42 76.9255 251.77 77.4255 251.61C77.9755 251.43 78.2555 250.92 78.1355 250.36V250.33Z" fill="black"/>
<path d="M111.675 249.16C110.695 248.81 109.655 249.26 108.795 249.73C107.995 250.16 107.245 250.83 107.045 251.76C106.645 253.65 107.975 255.63 109.705 256.3C110.625 256.65 111.605 256.47 112.455 256.03C113.255 255.62 114.025 255.02 114.385 254.17C115.195 252.25 113.195 250.24 111.425 249.84C110.515 249.63 109.475 249.75 108.715 250.32C107.955 250.89 107.425 251.82 107.535 252.8C107.645 253.85 108.315 254.61 109.235 255.07C110.155 255.53 111.325 255.85 112.255 255.2C113.035 254.66 113.505 253.71 113.435 252.76C113.365 251.81 112.865 250.88 111.945 250.5C111.135 250.16 110.075 250.34 109.475 251.01C108.675 251.9 108.845 253.3 109.825 253.99C110.805 254.68 112.275 254.34 112.645 253.18C113.015 252.02 112.055 250.87 110.905 250.77C110.315 250.72 109.695 251.04 109.395 251.56C109.075 252.13 109.125 252.77 109.525 253.28C109.925 253.79 110.565 254.05 111.195 253.97C111.875 253.88 112.345 253.32 112.395 252.65C112.435 252.03 112.035 251.48 111.445 251.3C111.105 251.2 110.705 251.3 110.455 251.56C110.155 251.87 110.005 252.33 110.145 252.76C110.265 253.15 110.595 253.54 111.025 253.61C111.545 253.69 112.145 253.48 112.275 252.9C112.385 252.42 112.125 251.74 111.565 251.65L111.895 252.99L110.905 253.25C110.515 253.13 110.265 252.72 110.415 252.35C110.505 252.14 110.735 251.94 110.975 251.96C111.025 251.96 111.175 251.96 111.005 251.96C111.125 251.96 111.105 252.02 111.025 251.95C111.085 252 111.115 252.02 111.155 252.09C111.265 252.3 111.225 252.58 111.035 252.72C110.985 252.76 110.745 252.82 110.945 252.77C110.855 252.79 110.815 252.79 110.725 252.77C110.795 252.77 110.865 252.85 110.715 252.76C110.895 252.87 110.715 252.76 110.715 252.74L110.765 252.79C110.695 252.69 110.675 252.67 110.715 252.73C110.785 252.85 110.675 252.55 110.705 252.69C110.715 252.76 110.745 252.93 110.705 252.67C110.725 252.83 110.725 252.56 110.765 252.49C110.805 252.42 110.865 252.38 110.925 252.33C110.895 252.36 110.745 252.43 110.955 252.32C110.825 252.39 110.935 252.32 110.995 252.32C110.775 252.35 111.105 252.37 110.995 252.32C110.955 252.3 110.825 252.23 110.935 252.31L110.985 252.33C110.895 252.27 110.895 252.28 111.005 252.35C110.975 252.29 110.945 252.22 111.005 252.38C110.905 252.14 111.055 252.59 110.985 252.34C110.935 252.16 110.985 252.34 110.985 252.38C110.955 252.17 110.965 252.42 110.965 252.42L110.985 252.34C111.015 252.25 111.015 252.24 110.985 252.33L110.965 252.39C111.025 252.3 111.005 252.32 110.915 252.44C110.925 252.44 110.995 252.33 111.005 252.35C111.015 252.37 110.785 252.48 110.955 252.4L111.065 252.34C110.915 252.4 110.895 252.41 111.005 252.37L111.065 252.35C111.235 252.29 111.005 252.38 110.985 252.35C110.985 252.35 111.135 252.35 111.145 252.35C111.255 252.32 110.915 252.28 111.105 252.35C111.115 252.35 111.235 252.38 111.235 252.38C111.235 252.4 111.015 252.25 111.175 252.35C111.195 252.36 111.285 252.4 111.295 252.42L111.205 252.35C111.205 252.35 111.255 252.4 111.285 252.43C111.345 252.43 111.405 252.56 111.285 252.43C111.315 252.43 111.355 252.56 111.375 252.59C111.315 252.36 111.445 252.7 111.375 252.59C111.395 252.68 111.455 252.79 111.445 252.88C111.475 252.67 111.435 252.77 111.435 252.84C111.435 252.9 111.435 252.97 111.435 253.03C111.435 253.17 111.505 252.79 111.435 253.03C111.415 253.09 111.405 253.15 111.385 253.21V253.25C111.335 253.36 111.335 253.35 111.385 253.22C111.385 253.25 111.325 253.34 111.315 253.36C111.285 253.4 111.255 253.44 111.235 253.49C111.345 253.32 111.295 253.42 111.245 253.46C111.235 253.46 111.045 253.62 111.175 253.53C111.305 253.44 111.105 253.58 111.095 253.57C111.105 253.57 111.315 253.48 111.125 253.55L111.035 253.57C111.145 253.56 111.145 253.56 111.025 253.57C110.965 253.57 110.895 253.57 110.835 253.57C111.025 253.6 110.855 253.57 110.825 253.55C110.745 253.52 110.665 253.51 110.595 253.48C110.575 253.48 110.385 253.4 110.485 253.44C110.605 253.49 110.355 253.38 110.355 253.38C110.305 253.36 110.255 253.33 110.205 253.31C110.085 253.25 109.965 253.17 109.845 253.1C109.685 253 109.825 253.08 109.845 253.11C109.795 253.06 109.745 253.02 109.695 252.97C109.675 252.95 109.565 252.81 109.645 252.92C109.735 253.04 109.595 252.83 109.595 252.82C109.505 252.68 109.635 252.85 109.605 252.85C109.605 252.85 109.565 252.72 109.565 252.7C109.505 252.49 109.565 252.75 109.565 252.75C109.535 252.72 109.565 252.57 109.565 252.52C109.515 252.66 109.565 252.28 109.565 252.52C109.585 252.46 109.605 252.39 109.615 252.33C109.635 252.24 109.605 252.23 109.595 252.36C109.595 252.33 109.655 252.24 109.665 252.22C109.695 252.18 109.715 252.13 109.745 252.09C109.615 252.27 109.715 252.13 109.765 252.09C109.785 252.07 109.915 251.94 109.815 252.03C109.715 252.12 109.915 251.96 109.945 251.95C110.005 251.92 110.065 251.88 110.125 251.85C110.085 251.87 109.935 251.91 110.115 251.86C110.225 251.83 110.325 251.8 110.435 251.78C110.215 251.83 110.385 251.78 110.455 251.78C110.515 251.78 110.565 251.78 110.625 251.78C110.695 251.78 110.765 251.78 110.835 251.78C110.655 251.78 110.795 251.78 110.895 251.8C111.005 251.83 111.115 251.86 111.225 251.9C111.255 251.91 111.405 251.96 111.225 251.9C111.285 251.93 111.355 251.96 111.415 252C111.525 252.06 111.635 252.13 111.745 252.2C111.775 252.22 111.905 252.31 111.745 252.2C111.815 252.25 111.875 252.31 111.945 252.37C112.035 252.45 112.115 252.53 112.195 252.61C112.245 252.66 112.295 252.72 112.335 252.77C112.435 252.89 112.225 252.58 112.355 252.81C112.415 252.91 112.475 253.01 112.525 253.11C112.435 252.94 112.505 253.05 112.525 253.11C112.545 253.21 112.565 253.34 112.555 253.17C112.555 253.23 112.555 253.28 112.555 253.34C112.575 253.57 112.605 253.24 112.555 253.36C112.535 253.41 112.465 253.58 112.565 253.38C112.545 253.43 112.515 253.47 112.495 253.52C112.475 253.57 112.435 253.61 112.405 253.65C112.515 253.48 112.445 253.59 112.405 253.63C112.355 253.68 112.315 253.73 112.265 253.77C112.245 253.79 112.045 253.96 112.145 253.88C112.245 253.8 112.105 253.91 112.085 253.92C112.025 253.96 111.975 254 111.915 254.03C111.815 254.1 111.715 254.16 111.605 254.22C111.555 254.25 111.495 254.28 111.435 254.31C111.445 254.31 111.165 254.43 111.305 254.38C111.445 254.33 111.155 254.43 111.165 254.43C111.095 254.45 111.015 254.46 110.945 254.49C110.795 254.54 111.155 254.49 110.925 254.49C110.875 254.49 110.825 254.49 110.775 254.49C110.775 254.49 110.635 254.49 110.625 254.49L110.745 254.51C110.745 254.51 110.675 254.5 110.635 254.49C110.565 254.47 110.355 254.45 110.305 254.4C110.315 254.41 110.515 254.5 110.335 254.41C110.265 254.38 110.195 254.34 110.135 254.3C110.095 254.27 110.045 254.25 110.005 254.22C109.955 254.19 109.795 254.03 109.955 254.19C109.855 254.1 109.755 254.02 109.665 253.92C109.625 253.88 109.595 253.84 109.555 253.8C109.395 253.64 109.635 253.93 109.515 253.75C109.435 253.64 109.365 253.53 109.305 253.41C109.275 253.35 109.245 253.29 109.215 253.23C109.165 253.13 109.155 253.09 109.215 253.22C109.155 253.06 109.105 252.91 109.065 252.75C109.055 252.7 109.025 252.5 109.045 252.7C109.045 252.62 109.035 252.55 109.035 252.47C109.035 252.39 109.035 252.32 109.035 252.24C109.015 252.42 109.055 252.22 109.075 252.15C108.985 252.31 109.075 252.18 109.075 252.15C109.115 252.08 109.155 252.02 109.195 251.95C109.175 251.98 109.055 252.1 109.185 251.98C109.245 251.92 109.295 251.87 109.355 251.82C109.395 251.78 109.505 251.72 109.335 251.83C109.405 251.79 109.465 251.74 109.535 251.7C109.645 251.63 109.765 251.56 109.885 251.5C110.005 251.44 110.135 251.37 110.255 251.31C110.245 251.31 110.525 251.19 110.395 251.24C110.285 251.29 110.515 251.19 110.545 251.19C110.615 251.16 110.695 251.14 110.775 251.12C110.825 251.11 110.865 251.1 110.915 251.09C110.815 251.1 110.795 251.1 110.875 251.09C110.935 251.09 110.995 251.09 111.055 251.09C111.135 251.09 111.115 251.09 111.005 251.09C111.065 251.1 111.125 251.12 111.175 251.15C111.675 251.33 112.305 250.95 112.425 250.44C112.555 249.87 112.255 249.39 111.715 249.19L111.675 249.16Z" fill="black"/>
<path d="M89.1757 255.16C87.0657 255.79 85.5357 257.66 85.2657 259.84C84.9957 262.02 86.1457 263.96 87.9857 264.98C89.8257 266 92.1557 265.92 93.8457 264.56C95.5357 263.2 96.2957 260.88 95.7157 258.79C95.4657 257.9 93.9157 257.75 93.7557 258.79C93.1357 263.01 97.4257 266.51 101.336 264.34C105.106 262.24 104.446 256.7 100.476 255.28C99.2457 254.84 98.7157 256.8 99.9357 257.24C102.336 258.09 102.466 261.4 100.316 262.59C98.1657 263.78 95.3457 261.86 95.7157 259.34H93.7557C94.5357 262.13 91.6157 264.67 89.0057 263.24C87.8557 262.6 87.0857 261.41 87.2657 260.06C87.4457 258.71 88.4057 257.52 89.7057 257.13C91.0057 256.74 90.4257 254.8 89.1657 255.17L89.1757 255.16Z" fill="black"/>
<path d="M61.4552 188.6C59.1252 183.61 56.7852 178.63 54.4552 173.64C53.9052 172.46 52.1552 173.49 52.7052 174.66C55.0352 179.65 57.3752 184.63 59.7052 189.62C60.2552 190.8 62.0052 189.77 61.4552 188.6Z" fill="black"/>
<path d="M65.8959 271.46C71.0377 271.46 75.2059 267.292 75.2059 262.15C75.2059 257.008 71.0377 252.84 65.8959 252.84C60.7542 252.84 56.5859 257.008 56.5859 262.15C56.5859 267.292 60.7542 271.46 65.8959 271.46Z" fill="#FFD1E9"/>
<path d="M124.005 269.56C129.147 269.56 133.315 265.392 133.315 260.25C133.315 255.108 129.147 250.94 124.005 250.94C118.864 250.94 114.695 255.108 114.695 260.25C114.695 265.392 118.864 269.56 124.005 269.56Z" fill="#FFD1E9"/>
<path d="M52.5957 169.36V168.93C52.5957 168.79 52.5757 168.66 52.5057 168.54C52.4657 168.41 52.3957 168.31 52.2957 168.21C52.2057 168.11 52.0957 168.04 51.9657 168C51.8457 167.94 51.7157 167.91 51.5757 167.91L51.3057 167.95C51.1357 168 50.9857 168.09 50.8557 168.21L50.6957 168.42C50.6057 168.58 50.5557 168.75 50.5557 168.93V169.36C50.5557 169.5 50.5757 169.63 50.6457 169.75C50.6857 169.88 50.7557 169.98 50.8557 170.08C50.9457 170.18 51.0557 170.25 51.1857 170.29C51.3057 170.35 51.4357 170.38 51.5757 170.38L51.8457 170.34C52.0157 170.29 52.1657 170.2 52.2957 170.08L52.4557 169.87C52.5457 169.71 52.5957 169.54 52.5957 169.36Z" fill="black"/>
<path d="M48.176 161.12C45.636 156.04 43.386 150.82 41.436 145.48C40.996 144.26 39.036 144.79 39.476 146.02C41.476 151.52 43.796 156.91 46.416 162.15C46.996 163.32 48.756 162.29 48.166 161.13L48.176 161.12Z" fill="black"/>
<path d="M138.846 194.11C140.186 188.73 142.116 183.53 144.626 178.59C145.216 177.43 143.466 176.4 142.876 177.57C140.286 182.67 138.276 188.03 136.896 193.58C136.576 194.85 138.536 195.39 138.856 194.12L138.846 194.11Z" fill="black"/>
<path d="M147.025 175.1V174.77C147.025 174.63 147.005 174.5 146.935 174.38C146.895 174.25 146.825 174.15 146.725 174.05C146.635 173.95 146.525 173.88 146.395 173.84C146.275 173.78 146.145 173.75 146.005 173.75L145.735 173.79C145.565 173.84 145.415 173.93 145.285 174.05L145.125 174.26C145.035 174.42 144.985 174.59 144.985 174.77V175.1C144.985 175.24 145.005 175.37 145.075 175.49C145.115 175.62 145.185 175.72 145.285 175.82C145.375 175.92 145.485 175.99 145.615 176.03C145.735 176.09 145.865 176.12 146.005 176.12L146.275 176.08C146.445 176.03 146.595 175.94 146.725 175.82L146.885 175.61C146.975 175.45 147.025 175.28 147.025 175.1Z" fill="black"/>
<path d="M114.606 236.11C113.686 235.79 112.636 235.75 111.676 235.87C110.546 236.02 109.316 236.44 108.756 237.52C107.686 239.59 110.296 240.82 111.906 241.23C113.356 241.6 114.926 241.81 116.426 241.59C117.116 241.49 117.826 241.25 118.316 240.72C118.886 240.1 119.046 239.18 118.786 238.39C118.436 237.33 117.246 236.81 116.286 236.46C115.426 236.15 114.496 235.92 113.586 235.87C113.036 235.84 112.576 236.36 112.576 236.88C112.576 237.45 113.046 237.87 113.586 237.89C113.696 237.89 113.806 237.91 113.906 237.92C113.566 237.88 114.046 237.95 114.126 237.96C114.496 238.03 114.856 238.12 115.216 238.23C115.376 238.28 115.536 238.33 115.696 238.39C115.766 238.42 115.836 238.44 115.916 238.47C115.936 238.47 116.216 238.6 116.006 238.51C116.166 238.58 116.316 238.65 116.466 238.74C116.536 238.78 116.606 238.82 116.666 238.86C116.706 238.89 116.746 238.92 116.786 238.95C116.676 238.86 116.666 238.86 116.746 238.93C116.786 238.98 116.846 239.03 116.886 239.07C116.716 238.92 116.826 238.97 116.866 239.07C116.956 239.26 116.746 238.86 116.846 239.03C116.856 239.33 116.886 239.1 116.846 239.03C116.846 239.08 116.886 239.3 116.846 239.34C116.886 239.31 116.886 239.08 116.846 239.29C116.786 239.55 116.926 239.14 116.846 239.29C116.766 239.45 116.876 239.35 116.886 239.25C116.886 239.28 116.806 239.34 116.786 239.36C116.706 239.43 116.616 239.44 116.826 239.33C116.776 239.35 116.736 239.39 116.686 239.42C116.636 239.45 116.586 239.47 116.536 239.5C116.796 239.36 116.636 239.46 116.556 239.48C116.436 239.51 116.316 239.55 116.186 239.58C116.126 239.59 116.056 239.6 115.986 239.62C115.756 239.67 116.226 239.61 115.986 239.62C115.846 239.62 115.696 239.64 115.556 239.65C115.226 239.66 114.906 239.65 114.576 239.63C114.446 239.63 114.326 239.61 114.196 239.6C114.116 239.6 113.646 239.53 113.946 239.57C113.646 239.53 113.346 239.48 113.036 239.42C112.616 239.34 112.196 239.24 111.796 239.1C111.716 239.07 111.636 239.04 111.556 239.01C111.536 239.01 111.266 238.89 111.466 238.98C111.296 238.9 111.126 238.82 110.966 238.73C110.906 238.7 110.566 238.45 110.726 238.59C110.656 238.54 110.606 238.47 110.536 238.42C110.456 238.33 110.466 238.34 110.536 238.44C110.506 238.4 110.486 238.36 110.456 238.31L110.506 238.42C110.476 238.31 110.476 238.33 110.506 238.48C110.506 238.37 110.506 238.38 110.506 238.52C110.536 238.41 110.536 238.42 110.506 238.52C110.626 238.3 110.396 238.6 110.596 238.39C110.646 238.34 110.686 238.29 110.746 238.25C110.646 238.32 110.646 238.33 110.746 238.25C110.826 238.21 110.896 238.16 110.976 238.12C111.086 238.07 111.086 238.07 110.976 238.12C111.036 238.1 111.096 238.08 111.156 238.06C111.346 238 111.536 237.96 111.726 237.92C112.036 237.85 111.536 237.92 111.866 237.9C112.006 237.89 112.146 237.88 112.276 237.87C112.516 237.87 112.756 237.87 112.996 237.87C113.096 237.87 113.196 237.89 113.296 237.9C113.086 237.88 113.456 237.93 113.496 237.94C113.686 237.98 113.876 238.03 114.056 238.09C114.576 238.27 115.166 237.88 115.306 237.38C115.456 236.82 115.116 236.31 114.596 236.13L114.606 236.11Z" fill="black"/>
<path d="M76.3358 235.88C74.8258 235.7 72.9458 236.26 71.7258 237.15C70.8758 237.77 70.2558 238.81 70.5758 239.88C70.8558 240.83 71.7858 241.35 72.7058 241.49C74.7558 241.82 77.1058 241.76 79.0158 240.89C79.9658 240.46 80.6958 239.63 80.8058 238.57C80.9158 237.51 80.2458 236.61 79.3058 236.21C78.6158 235.92 77.8258 235.91 77.0858 235.87C76.3458 235.83 75.6358 235.79 74.9258 235.92C74.3858 236.01 74.0858 236.68 74.2158 237.17C74.3758 237.74 74.9258 237.97 75.4658 237.88C75.1058 237.94 75.3858 237.89 75.4658 237.88C75.5458 237.87 75.6458 237.88 75.7258 237.88C75.9858 237.88 76.2558 237.88 76.5158 237.88C77.0058 237.9 77.5058 237.92 77.9958 237.97C78.0758 237.97 78.1658 237.99 78.2458 238C78.4358 238.02 78.1458 237.98 78.1458 237.99C78.1758 237.99 78.2658 238.01 78.3058 238.02C78.4558 238.06 78.4958 238.07 78.5958 238.13C78.6558 238.16 78.7458 238.25 78.7258 238.22C78.8258 238.36 78.7858 238.34 78.7658 238.28C78.7658 238.31 78.7858 238.46 78.7858 238.35C78.7858 238.46 78.7858 238.45 78.7558 238.53C78.6458 238.73 78.5158 238.87 78.2658 239.01C77.7158 239.32 76.9758 239.46 76.3358 239.55C75.5658 239.66 74.7758 239.66 74.0058 239.61C73.7958 239.6 73.5958 239.58 73.3858 239.56C73.3858 239.56 73.1258 239.53 73.2858 239.56C73.2258 239.56 73.1758 239.54 73.1158 239.53C72.9658 239.5 72.8258 239.47 72.6858 239.42C72.5758 239.38 72.6558 239.42 72.6858 239.42C72.6558 239.41 72.4258 239.32 72.5458 239.35C72.5058 239.35 72.4858 239.24 72.4958 239.3C72.4958 239.34 72.4958 239.4 72.5058 239.3C72.5058 239.19 72.5058 239.28 72.5058 239.31C72.5058 239.38 72.5158 239.24 72.5258 239.22C72.6158 239.11 72.7058 238.92 72.8558 238.83C73.4158 238.45 73.8758 238.28 74.5258 238.1C75.1758 237.92 75.6358 237.84 76.3258 237.92C76.8658 237.99 77.3358 237.41 77.3358 236.91C77.3358 236.31 76.8658 235.96 76.3258 235.9L76.3358 235.88Z" fill="black"/>
<path d="M66.9057 253.04C65.9257 252.11 64.5757 251.59 63.2157 251.65C62.7657 251.67 62.3357 252.03 62.3657 252.5C62.3857 252.94 62.7457 253.38 63.2157 253.35C63.3457 253.35 63.4857 253.35 63.6157 253.35C63.6857 253.35 63.7457 253.35 63.8157 253.36C63.8457 253.36 63.8957 253.36 63.9157 253.37C63.8957 253.36 63.7157 253.34 63.8357 253.36C64.1057 253.4 64.3757 253.47 64.6257 253.56C64.6657 253.57 64.8657 253.65 64.7357 253.6C64.6057 253.55 64.8057 253.63 64.8357 253.65C64.9557 253.71 65.0757 253.77 65.1857 253.84C65.2957 253.91 65.4057 253.99 65.5157 254.06C65.6057 254.12 65.3757 253.95 65.4557 254.02C65.4757 254.04 65.5057 254.06 65.5357 254.08C65.5957 254.13 65.6457 254.18 65.7057 254.23C66.0357 254.54 66.5957 254.58 66.9157 254.23C67.2357 253.88 67.2657 253.35 66.9157 253.02L66.9057 253.04Z" fill="black"/>
<path d="M125.296 253.94C125.376 253.86 125.456 253.78 125.546 253.71C125.576 253.68 125.626 253.65 125.656 253.62C125.546 253.7 125.526 253.72 125.596 253.66C125.626 253.64 125.646 253.62 125.676 253.6C125.846 253.48 126.036 253.37 126.226 253.27C126.266 253.25 126.316 253.23 126.356 253.21C126.156 253.29 126.506 253.14 126.356 253.21C126.456 253.17 126.556 253.14 126.656 253.1C126.876 253.03 127.096 252.98 127.326 252.95L127.096 252.98C127.306 252.95 127.516 252.94 127.736 252.94C128.186 252.94 128.616 252.54 128.586 252.09C128.556 251.64 128.206 251.24 127.736 251.24C126.386 251.22 125.036 251.77 124.086 252.73C123.776 253.05 123.746 253.63 124.086 253.94C124.426 254.25 124.956 254.28 125.296 253.94Z" fill="black"/>
<path d="M66.6358 256.25C65.3258 256.07 64.0158 256.11 62.7258 256.44C62.2958 256.55 61.9858 257.06 62.1258 257.49C62.2658 257.92 62.7158 258.2 63.1758 258.09C63.4558 258.02 63.7258 257.96 64.0158 257.92C64.0458 257.92 64.0758 257.92 64.1158 257.91C64.1758 257.91 64.1558 257.91 64.0558 257.91C64.0558 257.91 64.2458 257.89 64.2558 257.89C64.3958 257.88 64.5358 257.86 64.6858 257.86C64.9558 257.85 65.2358 257.84 65.5058 257.86C65.6358 257.86 65.7658 257.87 65.8958 257.88C65.9658 257.88 66.0258 257.89 66.0958 257.9C66.1458 257.9 66.4358 257.94 66.1958 257.91C66.4358 257.94 66.6358 257.95 66.8558 257.82C67.0358 257.72 67.2058 257.51 67.2458 257.31C67.3358 256.91 67.1258 256.32 66.6458 256.26L66.6358 256.25Z" fill="black"/>
<path d="M125.696 257.57C125.776 257.56 125.846 257.54 125.926 257.53C125.956 257.53 125.986 257.53 126.026 257.52C125.916 257.53 125.896 257.54 125.966 257.52C126.106 257.51 126.246 257.49 126.386 257.48C126.656 257.46 126.936 257.45 127.206 257.46C127.476 257.47 127.756 257.48 128.026 257.51C128.066 257.51 128.286 257.53 128.056 257.51C128.116 257.51 128.186 257.53 128.246 257.54C128.396 257.56 128.546 257.59 128.696 257.63C129.136 257.72 129.636 257.5 129.746 257.03C129.846 256.6 129.616 256.08 129.146 255.98C127.846 255.7 126.536 255.69 125.236 255.92C124.796 256 124.506 256.56 124.636 256.97C124.786 257.44 125.216 257.65 125.686 257.57H125.696Z" fill="black"/>
<path d="M96.0853 281.51L97.3453 278.97L95.7853 278.77C96.0653 280.27 97.3653 281.6 98.8853 281.84C100.485 282.1 102.125 281.36 102.945 279.95C103.505 279 102.025 278.14 101.465 279.09C101.225 279.49 100.925 279.77 100.475 279.99C100.355 280.05 100.025 280.15 99.8053 280.19C99.8953 280.18 99.7653 280.19 99.7453 280.19C99.6853 280.19 99.6153 280.19 99.5553 280.19C99.4953 280.19 99.4253 280.19 99.3653 280.19C99.2453 280.19 99.3253 280.19 99.2553 280.18C98.2953 280 97.6253 279.27 97.4453 278.32C97.3153 277.61 96.1953 277.48 95.8853 278.12L94.6253 280.66C94.4253 281.07 94.5153 281.58 94.9353 281.83C95.3153 282.05 95.8953 281.94 96.1053 281.52L96.0853 281.51Z" fill="black"/>
<path d="M102.086 279.57C103.336 280.27 104.806 280.98 106.276 280.57C107.596 280.2 108.366 279.03 108.986 277.89C109.206 277.48 109.086 276.96 108.676 276.72C108.266 276.48 107.726 276.62 107.506 277.03C107.386 277.24 107.276 277.46 107.146 277.67C107.076 277.78 107.006 277.89 106.936 278C106.906 278.05 106.866 278.09 106.836 278.14C106.686 278.36 106.886 278.09 106.786 278.2C106.706 278.3 106.626 278.39 106.536 278.48C106.496 278.52 106.456 278.56 106.416 278.59C106.386 278.62 106.326 278.67 106.396 278.61C106.176 278.78 106.006 278.86 105.816 278.91C105.756 278.93 105.696 278.94 105.626 278.95C105.596 278.95 105.486 278.96 105.576 278.95C105.436 278.96 105.296 278.95 105.146 278.95C104.996 278.95 105.246 278.97 105.086 278.95C105.006 278.94 104.926 278.92 104.846 278.9C104.716 278.87 104.596 278.83 104.466 278.79C103.946 278.62 103.446 278.35 102.936 278.06C102.536 277.83 102.006 277.96 101.766 278.37C101.526 278.78 101.666 279.31 102.076 279.54L102.086 279.57Z" fill="black"/>
<path d="M151.076 201.55C150.486 201.51 149.886 201.49 149.286 201.49C146.676 201.49 144.156 201.88 141.786 202.6C141.206 200.27 140.316 197.98 139.066 195.79C135.466 189.48 128.926 186.8 122.476 185.05" stroke="#FCA735" stroke-width="2.03" stroke-miterlimit="10"/>
<path d="M73.8459 183.53C66.3059 184.73 59.3459 189.25 55.2259 196.46C53.9259 198.75 52.9959 201.15 52.4259 203.59C51.3259 203.27 50.1959 203.02 49.0459 202.85" stroke="#FCA735" stroke-width="2.03" stroke-miterlimit="10"/>
<path d="M151.346 149.61C150.896 146.07 150.716 142.49 150.816 138.92L151.346 149.61Z" fill="#FCA735"/>
<path d="M152.486 149.61C152.046 146.06 151.866 142.49 151.956 138.92C151.996 137.45 149.716 137.45 149.676 138.92C149.586 142.49 149.766 146.06 150.206 149.61C150.286 150.22 150.676 150.75 151.346 150.75C151.906 150.75 152.566 150.23 152.486 149.61Z" fill="#FCA735"/>
<path d="M162.785 178.09C157.775 170.74 154.195 162.42 152.235 153.75L162.785 178.09Z" fill="#FCA735"/>
<path d="M163.765 177.51C158.815 170.19 155.295 162.05 153.335 153.44C153.005 152.01 150.815 152.62 151.135 154.05C153.145 162.83 156.745 171.2 161.795 178.67C162.615 179.88 164.585 178.74 163.765 177.52V177.51Z" fill="#FCA735"/>
<path d="M149.646 285.32H139.016C132.616 285.32 127.436 290.51 127.436 296.9C127.436 303.3 132.626 308.48 139.016 308.48H149.646" stroke="black" stroke-width="2.28" stroke-miterlimit="10"/>
<path d="M149.136 172.1C149.346 171.78 149.556 171.47 149.786 171.17C149.896 171.02 150.006 170.87 150.116 170.73C150.196 170.62 150.116 170.74 150.076 170.78C150.106 170.74 150.146 170.69 150.176 170.65C150.236 170.57 150.296 170.5 150.356 170.42C150.836 169.83 151.336 169.27 151.866 168.73C152.236 168.35 152.276 167.67 151.866 167.3C151.456 166.93 150.826 166.9 150.436 167.3C149.296 168.46 148.276 169.73 147.386 171.08C147.096 171.52 147.286 172.22 147.746 172.47C148.256 172.74 148.826 172.58 149.136 172.11V172.1Z" fill="black"/>
<path d="M127.246 314.23C127.386 314.25 127.516 314.27 127.656 314.29C127.516 314.26 127.386 314.2 127.266 314.13C127.266 314.17 127.266 314.2 127.256 314.24L127.246 314.23Z" fill="#603EF7"/>
<path d="M127.626 314.45L127.056 314.37L127.126 313.86L127.336 313.99C127.446 314.06 127.556 314.11 127.676 314.13L127.616 314.45H127.626Z" fill="#603EF7"/>
<path d="M148.935 356.68L73.2852 345.93L88.6552 269.08L155.595 278.59L148.935 356.68Z" fill="#603EF7"/>
<path d="M208.145 278.02L132.865 331.7L142.465 344.52L213.935 285.75L208.145 278.02Z" fill="#603EF7"/>
<path d="M88.8054 332.99L64.5454 329.54C51.5254 327.69 42.4454 315.47 44.3154 302.29C46.1854 289.12 58.3054 279.91 71.3354 281.76L95.5954 285.21C108.615 287.06 117.695 299.28 115.825 312.46C113.955 325.63 101.835 334.84 88.8054 332.99ZM70.3254 288.86C61.1754 287.56 52.6554 294.03 51.3454 303.29C50.0254 312.55 56.4054 321.13 65.5554 322.44L89.8154 325.89C98.9654 327.19 107.485 320.72 108.795 311.46C110.115 302.2 103.735 293.62 94.5854 292.31L70.3254 288.86Z" fill="#603EF7" stroke="#603EF7" stroke-width="2.28" stroke-miterlimit="10"/>
<path d="M87.165 276.96L154.765 286.08" stroke="black" stroke-width="1.52" stroke-miterlimit="10"/>
<path d="M128.976 286.85L154.386 290.25" stroke="black" stroke-width="1.52" stroke-miterlimit="10"/>
<path d="M86.4053 281.14L126.475 286.51" stroke="black" stroke-width="1.52" stroke-miterlimit="10"/>
<path d="M152.115 317.98L149.835 338.11" stroke="black" stroke-width="1.52" stroke-miterlimit="10"/>
<path d="M86.025 282.66L84.125 291.77" stroke="black" stroke-width="1.52" stroke-miterlimit="10"/>
<path d="M78.0455 323.3L76.1455 332.41" stroke="black" stroke-width="1.52" stroke-miterlimit="10"/>
<path d="M203.955 280.95L210.035 288.92" stroke="black" stroke-width="1.52" stroke-miterlimit="10"/>
<path d="M97.226 370.96V384H46.586C46.366 379.89 46.356 375.27 48.826 371.66C50.106 369.79 52.106 368.48 54.376 367.7C56.856 366.86 59.396 366.64 62.026 366.9C65.006 367.2 67.946 368.05 70.696 369.11C70.846 369.17 70.996 369.21 71.146 369.22C74.176 370.82 77.656 371.72 81.066 372.36C84.886 373.08 88.856 373.39 92.716 372.68C94.286 372.39 95.956 371.91 97.146 370.92C97.176 370.94 97.206 370.96 97.236 370.97L97.226 370.96Z" fill="white"/>
<path d="M145.596 383.99H97.2256V370.95C98.1856 371.59 99.3456 371.97 100.486 372.22C102.386 372.64 104.356 372.8 106.306 372.76C110.126 372.69 113.976 371.96 117.606 370.9C118.766 370.56 119.916 370.17 121.016 369.7C121.746 369.39 122.466 369.04 123.146 368.66C124.986 368.04 126.876 367.53 128.796 367.19C131.296 366.74 133.936 366.62 136.416 367.27C138.836 367.91 141.176 369.01 142.736 370.83C144.156 372.49 144.886 374.54 145.276 376.59C145.746 379.02 145.716 381.53 145.596 383.99Z" fill="#F8D45B"/>
<path d="M39.876 286.08H50.506C56.906 286.08 62.086 291.27 62.086 297.66C62.086 304.06 56.896 309.24 50.506 309.24H39.876" fill="white"/>
<path d="M39.876 286.08H50.506C56.906 286.08 62.086 291.27 62.086 297.66C62.086 304.06 56.896 309.24 50.506 309.24H39.876" stroke="black" stroke-width="2.28" stroke-miterlimit="10"/>
<path d="M233.965 299.56C236.484 299.56 238.525 298.284 238.525 296.71C238.525 295.136 236.484 293.86 233.965 293.86C231.447 293.86 229.405 295.136 229.405 296.71C229.405 298.284 231.447 299.56 233.965 299.56Z" fill="#F970BE"/>
<path d="M249.683 276.562C253.165 274.806 255.255 271.932 254.353 270.142C253.45 268.352 249.896 268.324 246.414 270.079C242.933 271.835 240.842 274.709 241.745 276.499C242.647 278.29 246.202 278.318 249.683 276.562Z" fill="#FFFF17"/>
<path d="M262.955 305.07C266.735 300.51 268.115 295.02 268.575 292.4C268.755 291.38 268.295 291 267.325 291.37C264.845 292.32 259.705 294.69 255.925 299.26C252.025 303.97 250.685 309.66 250.265 312.17C250.125 313.03 250.515 313.35 251.325 313.05C253.715 312.17 259.055 309.78 262.955 305.08V305.07Z" fill="#603EF7"/>

</svg>
