<svg width="286" height="405" viewBox="0 0 286 405" fill="none" xmlns="http://www.w3.org/2000/svg">
<path d="M267.33 4.97H103.16V201.62H267.33V4.97Z" fill="#27115B"/>
<path d="M269.851 116.48V203.82H102.761V127.1C105.191 130.41 108.141 133.3 111.481 135.65V106.98L161.131 109.96L169.141 110.44L219.671 113.47L222.211 113.63L269.851 116.48Z" fill="#180E38"/>
<path d="M165.891 104.66C165.891 106.65 165.741 108.61 165.451 110.52C163.711 121.87 157.001 131.59 147.611 137.37C141.761 140.98 134.861 143.06 127.481 143.06C119.391 143.06 111.871 140.56 105.681 136.28V73.04C111.871 68.76 119.391 66.26 127.481 66.26C147.951 66.26 164.681 82.27 165.831 102.45C165.871 103.19 165.891 103.93 165.891 104.67V104.66Z" fill="#180E38"/>
<path d="M235.751 189.24C252.568 189.24 266.201 175.607 266.201 158.79C266.201 141.973 252.568 128.34 235.751 128.34C218.934 128.34 205.301 141.973 205.301 158.79C205.301 175.607 218.934 189.24 235.751 189.24Z" fill="#180E38"/>
<path d="M269.85 80.62V175.27C267.74 175.56 265.59 175.7 263.41 175.7H263.25C262.53 175.7 261.81 175.68 261.1 175.64C258.96 175.54 256.86 175.3 254.81 174.93C245.79 173.29 237.66 169.12 231.17 163.18C230.82 162.87 230.48 162.55 230.15 162.22C227.46 159.62 225.09 156.71 223.08 153.54C219.64 148.14 217.27 142.01 216.23 135.43C215.85 132.99 215.65 130.5 215.65 127.95C215.65 122.96 216.42 118.15 217.83 113.62C218.04 112.96 218.25 112.32 218.49 111.69C218.54 111.55 218.59 111.41 218.65 111.27C221.08 104.77 224.88 98.93 229.7 94.12C231.57 92.25 233.6 90.54 235.76 89C242.27 84.37 250 81.33 258.37 80.45C260.03 80.28 261.7 80.19 263.4 80.19C263.71 80.19 264.02 80.19 264.32 80.2C266.19 80.23 268.03 80.37 269.84 80.62H269.85Z" fill="#180E38"/>
<path d="M187.391 175.7C209.372 175.7 227.191 157.881 227.191 135.9C227.191 113.919 209.372 96.1 187.391 96.1C165.41 96.1 147.591 113.919 147.591 135.9C147.591 157.881 165.41 175.7 187.391 175.7Z" fill="#180E38"/>
<path d="M235.607 131.743C237.385 124.856 233.192 117.817 226.24 116.022C219.288 114.226 212.211 118.354 210.432 125.242C208.654 132.129 212.847 139.168 219.799 140.963C226.751 142.759 233.828 138.63 235.607 131.743Z" fill="white"/>
<path d="M225.639 138.962C227.339 132.379 223.333 125.653 216.691 123.937C210.05 122.222 203.288 126.168 201.588 132.751C199.888 139.333 203.894 146.06 210.535 147.775C217.177 149.49 223.939 145.545 225.639 138.962Z" fill="white"/>
<path d="M247.896 137.938C249.722 131.177 245.736 124.219 238.991 122.397C232.247 120.575 225.298 124.578 223.472 131.338C221.645 138.099 225.632 145.057 232.376 146.879C239.121 148.701 246.069 144.698 247.896 137.938Z" fill="white"/>
<path d="M151.153 115.884C151.55 108.123 145.527 101.507 137.701 101.107C129.874 100.706 123.207 106.673 122.81 114.433C122.413 122.194 128.436 128.809 136.262 129.21C144.089 129.611 150.756 123.644 151.153 115.884Z" fill="#291C75"/>
<path d="M171.909 114.362C172.406 104.644 164.864 96.3587 155.063 95.857C145.261 95.3553 136.913 102.827 136.415 112.546C135.918 122.264 143.46 130.549 153.261 131.051C163.063 131.553 171.411 124.081 171.909 114.362Z" fill="#291C75"/>
<path d="M131.973 107.654C132.342 100.456 126.805 94.3227 119.607 93.9543C112.409 93.5859 106.276 99.1223 105.907 106.32C105.539 113.518 111.075 119.652 118.273 120.02C125.471 120.389 131.605 114.852 131.973 107.654Z" fill="#291C75"/>
<path d="M239.851 145.881C242.197 140.164 239.472 133.63 233.765 131.288C228.058 128.947 221.53 131.683 219.183 137.4C216.837 143.118 219.562 149.651 225.269 151.993C230.977 154.335 237.505 151.599 239.851 145.881Z" fill="white"/>
<path d="M211.041 169.8C211.041 172.82 210.341 175.68 209.081 178.21C208.651 179.09 208.151 179.92 207.591 180.72C206.071 182.89 204.101 184.72 201.831 186.09C198.971 187.82 195.611 188.81 192.021 188.81C191.451 188.81 190.881 188.78 190.321 188.73C189.151 188.63 188.021 188.42 186.931 188.12C186.281 187.94 185.651 187.73 185.041 187.48C182.391 186.44 180.041 184.82 178.131 182.77V156.8C180.251 154.53 182.921 152.79 185.921 151.77C186.261 151.66 186.591 151.55 186.941 151.46C188.031 151.16 189.171 150.95 190.331 150.85C190.891 150.8 191.461 150.77 192.031 150.77C201.201 150.77 208.861 157.27 210.651 165.91C210.911 167.16 211.051 168.46 211.051 169.79L211.041 169.8Z" fill="#291C75"/>
<path d="M197.731 201.52C204.767 201.52 210.471 195.816 210.471 188.78C210.471 181.744 204.767 176.04 197.731 176.04C190.695 176.04 184.991 181.744 184.991 188.78C184.991 195.816 190.695 201.52 197.731 201.52Z" fill="#291C75"/>
<path d="M216.98 209.3C226.115 209.3 233.52 201.895 233.52 192.76C233.52 183.625 226.115 176.22 216.98 176.22C207.846 176.22 200.44 183.625 200.44 192.76C200.44 201.895 207.846 209.3 216.98 209.3Z" fill="#291C75"/>
<path d="M238.769 171.519C241.115 165.802 238.39 159.268 232.683 156.926C226.976 154.585 220.447 157.321 218.101 163.038C215.755 168.756 218.48 175.289 224.187 177.631C229.895 179.973 236.423 177.237 238.769 171.519Z" fill="#C0B9F9"/>
<path d="M243.611 147.74C258.578 147.74 270.711 135.607 270.711 120.64C270.711 105.673 258.578 93.54 243.611 93.54C228.644 93.54 216.511 105.673 216.511 120.64C216.511 135.607 228.644 147.74 243.611 147.74Z" fill="url(#paint0_linear_2873_4011)"/>
<path d="M251.001 129.99C251.001 132.48 248.981 134.51 246.481 134.51H220.321C219.631 133.35 219.031 132.15 218.531 130.92C217.811 129.16 217.281 127.33 216.951 125.48C216.591 123.46 216.451 121.41 216.551 119.37H232.531C235.721 119.37 238.311 121.96 238.311 125.15C238.311 125.26 238.311 125.37 238.301 125.48H246.501C248.991 125.48 251.021 127.5 251.021 130L251.001 129.99Z" fill="#F7DC60"/>
<path d="M267.8 108.51C268.67 110.27 269.33 112.1 269.8 113.97C270.09 115.15 270.31 116.35 270.44 117.55C270.64 119.36 270.66 121.19 270.49 123.01H252.13C249.64 123.01 247.61 120.99 247.61 118.49C247.61 117.24 248.12 116.11 248.93 115.3C249.74 114.49 250.88 113.98 252.12 113.98H256.41C256.34 113.68 256.31 113.36 256.31 113.04C256.31 111.79 256.82 110.66 257.63 109.85C258.44 109.04 259.58 108.53 260.82 108.53H267.78L267.8 108.51Z" fill="#F7DC60"/>
<path d="M245.081 105.48C245.081 107.97 243.061 110 240.561 110H218.681C220.001 106.9 221.921 104 224.451 101.48C224.621 101.31 224.801 101.14 224.971 100.97H240.551C243.041 100.97 245.071 102.99 245.071 105.49L245.081 105.48Z" fill="#F7DC60"/>
<path d="M262.08 140.25C257.99 144.11 252.99 146.45 247.8 147.28H239.19C233.75 146.41 228.53 143.88 224.33 139.68C223.88 139.23 223.44 138.76 223.03 138.29C223.24 138.26 223.45 138.24 223.67 138.24H258.33C259.89 138.24 261.27 139.04 262.08 140.24V140.25Z" fill="#F7DC60"/>
<path d="M160.421 161.9C174.294 161.9 185.541 150.653 185.541 136.78C185.541 122.907 174.294 111.66 160.421 111.66C146.547 111.66 135.301 122.907 135.301 136.78C135.301 150.653 146.547 161.9 160.421 161.9Z" fill="#C0B9F9"/>
<path d="M240.86 72.87C237.58 77.09 233.14 80.51 227.78 82.57C212.09 88.62 194.48 80.8 188.43 65.12C182.81 50.54 189.18 34.28 202.72 27.21C201.05 34.25 201.42 41.85 204.22 49.11C210.16 64.51 225.23 73.7 240.86 72.87Z" fill="#EAEAEA"/>
<path d="M199.548 74.9473C200.062 74.3256 199.612 73.106 198.543 72.2231C197.474 71.3402 196.191 71.1285 195.678 71.7501C195.164 72.3718 195.614 73.5914 196.683 74.4743C197.752 75.3572 199.035 75.5689 199.548 74.9473Z" fill="#B2B2B2"/>
<path d="M202.2 78.14C202.664 78.14 203.04 77.7639 203.04 77.3C203.04 76.8361 202.664 76.46 202.2 76.46C201.736 76.46 201.36 76.8361 201.36 77.3C201.36 77.7639 201.736 78.14 202.2 78.14Z" fill="#B2B2B2"/>
<path d="M215.16 81.48C215.624 81.48 216 81.1039 216 80.64C216 80.1761 215.624 79.8 215.16 79.8C214.696 79.8 214.32 80.1761 214.32 80.64C214.32 81.1039 214.696 81.48 215.16 81.48Z" fill="#B2B2B2"/>
<path d="M203.87 75.21C204.793 75.21 205.54 74.4623 205.54 73.54C205.54 72.6177 204.793 71.87 203.87 71.87C202.948 71.87 202.2 72.6177 202.2 73.54C202.2 74.4623 202.948 75.21 203.87 75.21Z" fill="#B2B2B2"/>
<path d="M212.433 80.0612C212.894 79.0027 212.15 77.6589 210.773 77.0597C209.395 76.4604 207.905 76.8327 207.445 77.8911C206.985 78.9496 207.728 80.2934 209.106 80.8927C210.483 81.4919 211.973 81.1197 212.433 80.0612Z" fill="#B2B2B2"/>
<path d="M205.97 155.46C205.97 156.23 205.96 157 205.93 157.76C205.85 159.95 205.64 162.1 205.33 164.21C203.96 173.5 200.44 182.1 195.3 189.47C194.63 190.43 193.94 191.36 193.22 192.27C193.13 192.39 193.03 192.51 192.93 192.63C192.45 193.23 191.97 193.81 191.47 194.39C190.82 195.14 190.15 195.88 189.46 196.6C186.32 199.89 182.79 202.82 178.97 205.32H113.86C110.03 202.82 106.51 199.89 103.37 196.6C103.16 196.38 102.95 196.16 102.75 195.94C102.36 195.52 101.99 195.11 101.62 194.68V116.22C102.12 115.65 102.63 115.09 103.15 114.54C103.53 114.14 103.92 113.74 104.31 113.35C104.48 113.18 104.65 113.01 104.82 112.85C104.97 112.71 105.12 112.56 105.26 112.42C105.39 112.29 105.53 112.16 105.67 112.03C105.89 111.82 106.11 111.62 106.34 111.41C107.35 110.49 108.39 109.6 109.47 108.75C110.13 108.23 110.79 107.73 111.47 107.23C112.24 106.67 113.02 106.14 113.81 105.62C113.93 105.54 114.05 105.46 114.17 105.39C117.11 103.49 120.22 101.85 123.48 100.49C123.72 100.39 123.96 100.29 124.2 100.2C124.6 100.04 125.01 99.88 125.42 99.72C127.18 99.06 128.97 98.47 130.81 97.98C131.11 97.9 131.41 97.82 131.71 97.75C131.74 97.74 131.77 97.73 131.8 97.72C131.92 97.69 132.05 97.66 132.17 97.63C132.39 97.57 132.61 97.52 132.84 97.47C133.71 97.27 134.58 97.09 135.46 96.92C135.59 96.89 135.73 96.87 135.86 96.85C136.11 96.81 136.35 96.76 136.6 96.72C136.83 96.68 137.05 96.64 137.28 96.61C137.55 96.57 137.83 96.53 138.11 96.49C138.34 96.46 138.58 96.43 138.82 96.4C139.02 96.37 139.22 96.35 139.42 96.33C139.47 96.33 139.52 96.32 139.57 96.31C139.75 96.29 139.93 96.27 140.1 96.25C140.39 96.22 140.67 96.19 140.96 96.17C141.6 96.11 142.24 96.06 142.89 96.02C143.29 96 143.69 95.98 144.1 95.96C144.19 95.96 144.28 95.96 144.36 95.96C144.62 95.95 144.88 95.94 145.14 95.94C145.27 95.94 145.4 95.94 145.53 95.94C145.82 95.94 146.1 95.94 146.39 95.94C146.93 95.94 147.47 95.94 148 95.96C152.84 96.09 157.53 96.79 162.02 98.01C163.3 98.36 164.57 98.75 165.82 99.18C167.65 99.81 169.43 100.53 171.17 101.32C172.72 102.03 174.23 102.8 175.7 103.64C178.1 105 180.39 106.52 182.56 108.18C182.73 108.31 182.9 108.44 183.07 108.57C187.75 112.23 191.87 116.58 195.27 121.46C200.65 129.18 204.25 138.23 205.47 148.02C205.78 150.47 205.94 152.95 205.94 155.48L205.97 155.46Z" fill="url(#paint1_linear_2873_4011)"/>
<path d="M143.37 181.47C139.49 185.34 133.21 185.34 129.33 181.47L113.81 165.95L103.15 155.29L101.62 153.76V116.24C102.12 115.67 102.63 115.11 103.15 114.56C103.53 114.16 103.92 113.76 104.31 113.37C104.48 113.2 104.65 113.03 104.82 112.87C104.97 112.73 105.12 112.58 105.26 112.44C105.39 112.31 105.53 112.18 105.67 112.05C105.89 111.84 106.11 111.64 106.34 111.43L111.47 116.56L113.81 118.9L130.64 135.73L131.16 136.25C136.12 141.21 136.12 149.24 131.16 154.2C130.99 154.37 130.81 154.54 130.63 154.7L143.36 167.43C147.23 171.31 147.23 177.59 143.36 181.47H143.37Z" fill="#A07EF7"/>
<path d="M202.84 174.2C201.46 178.28 199.65 182.16 197.46 185.78C196.08 188.07 194.55 190.26 192.89 192.33C190.38 195.46 187.57 198.33 184.48 200.89L155.96 172.37C152.09 168.49 152.09 162.21 155.96 158.33C157.9 156.39 160.44 155.42 162.98 155.42C165.52 155.42 168.06 156.39 170 158.33L176.67 165C177.04 164.43 177.47 163.88 177.98 163.38C179.92 161.44 182.46 160.47 185 160.47C187.54 160.47 190.08 161.44 192.02 163.38L202.84 174.2Z" fill="#A07EF7"/>
<path d="M172.25 134.19C168.37 138.06 162.09 138.06 158.21 134.19L124.22 100.2C131.08 97.44 138.58 95.92 146.43 95.92C146.97 95.92 147.51 95.92 148.04 95.94L172.25 120.15C176.12 124.03 176.12 130.31 172.25 134.19Z" fill="#A07EF7"/>
<path d="M141.58 205.33H114.43C113.45 204.71 112.49 204.05 111.55 203.37L104.79 196.61L102.77 194.59L101.64 193.46V165.38L102.77 166.51L103.17 166.91L113.83 177.57L141.59 205.33H141.58Z" fill="#A07EF7"/>
<path d="M255.04 163.63C262.788 163.63 269.07 157.349 269.07 149.6C269.07 141.851 262.788 135.57 255.04 135.57C247.291 135.57 241.01 141.851 241.01 149.6C241.01 157.349 247.291 163.63 255.04 163.63Z" fill="#C0B9F9"/>
<path d="M239.89 181.31C248.257 181.31 255.04 174.527 255.04 166.16C255.04 157.793 248.257 151.01 239.89 151.01C231.523 151.01 224.74 157.793 224.74 166.16C224.74 174.527 231.523 181.31 239.89 181.31Z" fill="#C0B9F9"/>
<path d="M260.65 179.91C268.399 179.91 274.68 173.629 274.68 165.88C274.68 158.131 268.399 151.85 260.65 151.85C252.902 151.85 246.62 158.131 246.62 165.88C246.62 173.629 252.902 179.91 260.65 179.91Z" fill="#C0B9F9"/>
<path d="M146.78 39.25C147.775 39.25 148.58 38.4441 148.58 37.45C148.58 36.4559 147.775 35.65 146.78 35.65C145.786 35.65 144.98 36.4559 144.98 37.45C144.98 38.4441 145.786 39.25 146.78 39.25Z" fill="#C0B9F9"/>
<path d="M166.63 42.86C167.028 42.86 167.35 42.5376 167.35 42.14C167.35 41.7423 167.028 41.42 166.63 41.42C166.233 41.42 165.91 41.7423 165.91 42.14C165.91 42.5376 166.233 42.86 166.63 42.86Z" fill="#C0B9F9"/>
<path d="M173.131 65.59C174.125 65.59 174.931 64.7841 174.931 63.79C174.931 62.7959 174.125 61.99 173.131 61.99C172.137 61.99 171.331 62.7959 171.331 63.79C171.331 64.7841 172.137 65.59 173.131 65.59Z" fill="#C0B9F9"/>
<path d="M218.24 58.02C218.837 58.02 219.32 57.5365 219.32 56.94C219.32 56.3435 218.837 55.86 218.24 55.86C217.644 55.86 217.16 56.3435 217.16 56.94C217.16 57.5365 217.644 58.02 218.24 58.02Z" fill="#C0B9F9"/>
<path d="M245.49 27.7C245.788 27.7 246.03 27.4582 246.03 27.16C246.03 26.8618 245.788 26.62 245.49 26.62C245.192 26.62 244.95 26.8618 244.95 27.16C244.95 27.4582 245.192 27.7 245.49 27.7Z" fill="#C0B9F9"/>
<path d="M254.15 48.27C254.449 48.27 254.69 48.0282 254.69 47.73C254.69 47.4318 254.449 47.19 254.15 47.19C253.852 47.19 253.61 47.4318 253.61 47.73C253.61 48.0282 253.852 48.27 254.15 48.27Z" fill="#C0B9F9"/>
<path d="M218.24 28.42C218.837 28.42 219.32 27.9365 219.32 27.34C219.32 26.7435 218.837 26.26 218.24 26.26C217.644 26.26 217.16 26.7435 217.16 27.34C217.16 27.9365 217.644 28.42 218.24 28.42Z" fill="#C0B9F9"/>
<path d="M248.921 65.23C249.517 65.23 250.001 64.7465 250.001 64.15C250.001 63.5535 249.517 63.07 248.921 63.07C248.324 63.07 247.841 63.5535 247.841 64.15C247.841 64.7465 248.324 65.23 248.921 65.23Z" fill="#C0B9F9"/>
<path d="M186.48 33.48C187.077 33.48 187.56 32.9965 187.56 32.4C187.56 31.8035 187.077 31.32 186.48 31.32C185.884 31.32 185.4 31.8035 185.4 32.4C185.4 32.9965 185.884 33.48 186.48 33.48Z" fill="#C0B9F9"/>
<path d="M115.931 27.34C116.229 27.34 116.471 27.0982 116.471 26.8C116.471 26.5018 116.229 26.26 115.931 26.26C115.632 26.26 115.391 26.5018 115.391 26.8C115.391 27.0982 115.632 27.34 115.931 27.34Z" fill="#C0B9F9"/>
<path d="M142.27 16.15C142.569 16.15 142.81 15.9082 142.81 15.61C142.81 15.3118 142.569 15.07 142.27 15.07C141.972 15.07 141.73 15.3118 141.73 15.61C141.73 15.9082 141.972 16.15 142.27 16.15Z" fill="#C0B9F9"/>
<path d="M156.711 24.81C157.208 24.81 157.611 24.4071 157.611 23.91C157.611 23.413 157.208 23.01 156.711 23.01C156.213 23.01 155.811 23.413 155.811 23.91C155.811 24.4071 156.213 24.81 156.711 24.81Z" fill="#C0B9F9"/>
<path d="M192.08 18.68C192.776 18.68 193.34 18.1159 193.34 17.42C193.34 16.7241 192.776 16.16 192.08 16.16C191.384 16.16 190.82 16.7241 190.82 17.42C190.82 18.1159 191.384 18.68 192.08 18.68Z" fill="#C0B9F9"/>
<path d="M171.15 25.18C171.449 25.18 171.69 24.9382 171.69 24.64C171.69 24.3418 171.449 24.1 171.15 24.1C170.852 24.1 170.61 24.3418 170.61 24.64C170.61 24.9382 170.852 25.18 171.15 25.18Z" fill="#C0B9F9"/>
<path d="M232.501 39.97C232.998 39.97 233.401 39.567 233.401 39.07C233.401 38.5729 232.998 38.17 232.501 38.17C232.004 38.17 231.601 38.5729 231.601 39.07C231.601 39.567 232.004 39.97 232.501 39.97Z" fill="#C0B9F9"/>
<path d="M224.201 15.43C224.3 15.43 224.381 15.3494 224.381 15.25C224.381 15.1506 224.3 15.07 224.201 15.07C224.101 15.07 224.021 15.1506 224.021 15.25C224.021 15.3494 224.101 15.43 224.201 15.43Z" fill="#C0B9F9"/>
<path d="M124.771 42.86C125.168 42.86 125.491 42.5376 125.491 42.14C125.491 41.7423 125.168 41.42 124.771 41.42C124.373 41.42 124.051 41.7423 124.051 42.14C124.051 42.5376 124.373 42.86 124.771 42.86Z" fill="#C0B9F9"/>
<path d="M195.85 13.94H183.46V202.74H195.85V13.94Z" fill="#6861FF"/>
<path d="M265.84 104.15H113.46V116.95H265.84V104.15Z" fill="#6861FF"/>
<path d="M101.62 1.51001V212.54H275.15V1.51001H101.62ZM263.87 199.5H113.82V13.58H263.87V199.5Z" fill="#6861FF"/>
<path d="M167.52 55.85C158.53 56.36 158.12 56.77 157.61 65.76C157.1 56.77 156.69 56.36 147.7 55.85C156.69 55.34 157.1 54.93 157.61 45.94C158.12 54.93 158.53 55.34 167.52 55.85Z" fill="#EAE9FF"/>
<path d="M232.76 53.15C228.27 53.4 228.06 53.61 227.81 58.1C227.56 53.61 227.35 53.4 222.86 53.15C227.35 52.9 227.56 52.69 227.81 48.2C228.06 52.69 228.27 52.9 232.76 53.15Z" fill="#EAE9FF"/>
<path d="M136.32 61.99C136.917 61.99 137.4 61.5065 137.4 60.91C137.4 60.3135 136.917 59.83 136.32 59.83C135.724 59.83 135.24 60.3135 135.24 60.91C135.24 61.5065 135.724 61.99 136.32 61.99Z" fill="#C0B9F9"/>
<path d="M166.95 82.74C167.248 82.74 167.49 82.4982 167.49 82.2C167.49 81.9018 167.248 81.66 166.95 81.66C166.652 81.66 166.41 81.9018 166.41 82.2C166.41 82.4982 166.652 82.74 166.95 82.74Z" fill="#C0B9F9"/>
<path d="M258.121 22.29C258.618 22.29 259.021 21.887 259.021 21.39C259.021 20.8929 258.618 20.49 258.121 20.49C257.624 20.49 257.221 20.8929 257.221 21.39C257.221 21.887 257.624 22.29 258.121 22.29Z" fill="#C0B9F9"/>
<path d="M27.791 1H150.861V31.05C150.861 94.14 99.641 145.36 36.551 145.36H27.801V1H27.791Z" fill="#FFD55F"/>
<path d="M18.7705 2.44H126.101V50.65C126.101 109.89 78.0105 157.98 18.7705 157.98V2.44Z" fill="#FFE66C"/>
<path d="M127.401 286.11H18.7705V137.06H73.5705L127.401 286.11Z" fill="#FFE66C"/>
<path d="M18.7705 142.83H81.2005" stroke="#7500FF" stroke-width="10.11" stroke-miterlimit="10"/>
<path d="M256.071 228.72H182.301C167.892 228.72 156.211 240.401 156.211 254.81V328.58C156.211 342.989 167.892 354.67 182.301 354.67H256.071C270.48 354.67 282.161 342.989 282.161 328.58V254.81C282.161 240.401 270.48 228.72 256.071 228.72Z" fill="#ABDFFF"/>
<path d="M238.681 354.68H199.701V370.92H238.681V354.68Z" fill="#347FD1"/>
<path d="M262.311 370.92H176.061V378.5H262.311V370.92Z" fill="#95D9FC"/>
<path d="M251.491 244.24H192.061C181.264 244.24 172.511 252.993 172.511 263.79V301.2C172.511 311.997 181.264 320.75 192.061 320.75H251.491C262.288 320.75 271.041 311.997 271.041 301.2V263.79C271.041 252.993 262.288 244.24 251.491 244.24Z" fill="#66A4FF"/>
<path d="M271.041 263.79V301.2C271.041 312 262.291 320.75 251.491 320.75H192.061C187.071 320.75 182.511 318.88 179.051 315.79L265.551 250.2C268.951 253.72 271.041 258.51 271.041 263.78V263.79Z" fill="#6669FF"/>
<path d="M0.470586 244.05C5.28059 247.92 13.2406 257.81 13.5306 264.33C13.3806 260.95 14.1306 257.54 15.6706 254.54C19.4806 261.58 24.2406 269.35 32.0906 270.95C35.3106 271.61 38.6206 271.35 41.8406 270.85C45.1006 270.35 48.3206 269.63 51.6206 269.4C53.5406 269.27 55.4606 269.47 57.3806 269.62C57.4706 269.62 57.5706 269.63 57.6506 269.58C57.7206 269.53 57.7506 269.43 57.7706 269.34C57.9006 268.93 58.1906 268.49 58.6406 268.4C64.2006 267.2 71.3406 269.62 76.1006 272.34C81.2906 275.29 86.0006 279.85 88.8106 285.15C94.6206 296.09 93.8306 309.97 87.7706 320.78C81.7106 331.59 70.8306 339.31 58.8906 342.62C35.1406 349.2 14.1106 335.06 4.81059 313.44C-3.01941 295.24 0.130586 279.85 4.27059 261.52C5.65059 255.4 5.25059 248.11 0.480586 244.05H0.470586Z" fill="#6861FF"/>
<path d="M42.6505 378.17C42.3305 371.44 42.6505 363.9 46.6505 359.17C48.6005 356.87 51.2105 355.54 53.8605 354.74C59.3705 353.06 66.6705 355.62 71.9905 358.05L99.3705 360.66V378.52L42.6505 378.17Z" fill="white"/>
<path d="M155.971 378.14C156.291 371.41 155.971 363.87 151.971 359.14C150.021 356.84 147.411 355.51 144.761 354.71C139.251 353.03 131.951 355.59 126.631 358.02L99.251 360.63V378.49L155.971 378.14Z" fill="#6861FF"/>
<path d="M99.2506 349.99H71.1006V378.14H99.2506V349.99Z" fill="white"/>
<path d="M127.041 350.35H99.251V376.7H127.041V350.35Z" fill="#6861FF"/>
<path d="M24.7805 187.81H176.67C180.15 187.81 182.97 190.63 182.97 194.11V345.27C182.97 348.75 180.15 351.57 176.67 351.57H24.7805C21.3005 351.57 18.4805 348.75 18.4805 345.27V194.11C18.4805 190.63 21.3005 187.81 24.7805 187.81Z" fill="white"/>
<path d="M118.47 268.42H80.4404C74.3653 268.42 69.4404 273.345 69.4404 279.42V285.57C69.4404 291.645 74.3653 296.57 80.4404 296.57H118.47C124.546 296.57 129.47 291.645 129.47 285.57V279.42C129.47 273.345 124.546 268.42 118.47 268.42Z" fill="#4097FF"/>
<path d="M28.2607 188.06L44.2107 160.36L57.1707 137.86C58.5007 135.55 61.8307 135.55 63.1607 137.86L76.1207 160.36L92.0707 188.06" fill="white"/>
<path d="M107.91 188.06L123.68 160.67L136.19 138.94C137.63 136.43 141.26 136.43 142.7 138.94L155.21 160.67L170.98 188.06" fill="white"/>
<path d="M91.8101 249.96C90.2501 250.77 88.9401 252.15 88.3501 253.82C87.7601 255.49 88.3501 257.36 90.0001 258.23C91.5401 259.04 93.3201 258.78 94.7701 257.9C96.2201 257.02 97.7501 255.49 98.0701 253.71L96.4301 253.92C97.7101 256.19 99.9601 259.11 102.97 257.92C105.98 256.73 105.96 253.24 104.8 250.8C104.3 249.75 102.75 250.67 103.25 251.71C103.94 253.17 104.15 255.85 102.08 256.33C100.01 256.81 98.7801 254.42 97.9901 253.01C97.6301 252.38 96.4901 252.45 96.3501 253.22C95.9901 255.23 93.2101 257.62 91.1001 256.75C88.2601 255.58 91.1401 252.33 92.7401 251.5C93.7701 250.97 92.8601 249.42 91.8301 249.95L91.8101 249.96Z" fill="black"/>
<path d="M117.39 254.5C120.41 254.3 123.43 254.28 126.45 254.43C127.03 254.46 127.03 253.56 126.45 253.53C123.43 253.38 120.41 253.4 117.39 253.6C116.82 253.64 116.81 254.54 117.39 254.5Z" fill="black"/>
<path d="M117.051 256.91C119.891 257.51 122.681 258.35 125.381 259.41C125.921 259.62 126.151 258.75 125.621 258.54C122.921 257.47 120.131 256.64 117.291 256.04C116.731 255.92 116.481 256.79 117.051 256.91Z" fill="black"/>
<path d="M77.9908 254.56C75.1308 254.2 72.2508 253.98 69.3608 253.91C68.7808 253.9 68.7808 254.8 69.3608 254.81C72.2508 254.88 75.1308 255.09 77.9908 255.46C78.5608 255.53 78.5608 254.63 77.9908 254.56Z" fill="black"/>
<path d="M77.851 256.39C75.271 257.12 72.681 257.86 70.101 258.59C69.541 258.75 69.781 259.62 70.341 259.46C72.921 258.73 75.511 257.99 78.091 257.26C78.651 257.1 78.411 256.23 77.851 256.39Z" fill="black"/>
<path d="M89.3909 234.27C88.9509 233.04 88.2509 231.92 87.3209 231C86.4409 230.14 85.1209 229.11 83.8109 229.59C83.1609 229.83 82.7309 230.35 82.6509 231.04C82.5709 231.73 82.8209 232.37 83.1009 232.96C83.6309 234.07 84.5209 235.04 85.6609 235.51C86.8009 235.98 88.4709 235.84 89.0409 234.58C89.1609 234.31 89.1209 234 88.8509 233.84C88.6209 233.7 88.2309 233.77 88.1109 234.03C87.8009 234.72 86.9209 234.79 86.2609 234.58C85.4009 234.3 84.7209 233.62 84.2709 232.85C83.9609 232.32 83.2609 231.01 84.1009 230.63C84.9409 230.25 85.9609 231.19 86.5209 231.73C87.3309 232.52 87.9609 233.49 88.3409 234.55C88.4409 234.83 88.7109 235.01 89.0109 234.93C89.2809 234.86 89.4909 234.54 89.3909 234.26V234.27Z" fill="black"/>
<path d="M106.74 234.84C107.03 233.73 107.51 232.7 108.16 231.75C108.47 231.3 108.83 230.86 109.24 230.49C109.56 230.21 110.01 229.91 110.46 230.05C111.23 230.29 111.42 231.37 111.29 232.05C111.12 233 110.52 233.86 109.67 234.32C108.65 234.87 107.38 234.75 106.42 234.12C105.84 233.73 105.3 234.67 105.87 235.05C107 235.8 108.5 235.97 109.76 235.46C111.02 234.95 111.9 233.92 112.25 232.67C112.58 231.51 112.37 230.09 111.36 229.32C110.84 228.93 110.15 228.83 109.54 229.05C108.87 229.29 108.34 229.8 107.88 230.33C106.85 231.56 106.09 232.99 105.68 234.55C105.5 235.22 106.55 235.51 106.72 234.84H106.74Z" fill="black"/>
<path d="M77.8807 252.1C77.7407 252.05 77.6007 252 77.4507 251.94C75.8707 251.29 74.5407 250.2 73.2307 249.13C72.4507 248.49 71.6807 247.85 70.9007 247.2L66.7607 232.16C68.8007 232.68 70.8407 233.25 72.8607 233.85L77.8807 252.1Z" fill="white"/>
<path d="M66.7608 232.16L70.9008 247.2C70.3008 246.7 69.6908 246.19 69.0908 245.69C63.5808 241.05 58.2108 236.25 52.9808 231.31C52.8008 231.15 52.7208 230.96 52.7008 230.78C52.5908 230.56 52.5508 230.29 52.6208 230.06C52.7708 229.51 53.3008 229.28 53.8308 229.37C56.9608 229.92 60.0808 230.56 63.1808 231.28C64.3808 231.56 65.5808 231.85 66.7808 232.16H66.7608Z" fill="black"/>
<path d="M83.5811 251.14C83.1611 251.4 82.7411 251.64 82.2911 251.85C81.8411 252.06 81.3811 252.21 80.9211 252.3L76.1211 234.85C77.2211 235.19 78.3111 235.55 79.3911 235.92L83.5811 251.13V251.14Z" fill="white"/>
<path d="M76.1106 234.85L80.9106 252.3C79.9006 252.51 78.8806 252.44 77.8706 252.1L72.8506 233.85C73.9406 234.17 75.0206 234.5 76.1106 234.85Z" fill="black"/>
<path d="M123.291 248.61C122.741 249.06 122.191 249.51 121.641 249.94C120.691 250.68 119.681 251.42 118.571 251.89L114.381 236.65C116.091 236.05 117.801 235.47 119.531 234.92L123.291 248.6V248.61Z" fill="white"/>
<path d="M114.371 236.66L118.561 251.9C118.151 252.08 117.741 252.22 117.301 252.31C115.551 252.69 113.971 252.15 112.471 251.25C111.141 250.44 109.811 249.62 108.461 248.84C105.901 247.37 103.301 245.98 100.791 244.43H95.0906C92.2306 246.19 89.2506 247.77 86.3506 249.46C85.6906 249.84 85.0306 250.24 84.3806 250.64C84.1106 250.81 83.8506 250.97 83.5806 251.14L79.3906 235.93C79.4606 235.95 79.5206 235.97 79.5906 236C84.4906 237.67 89.3206 239.56 94.0706 241.65H101.811C104.251 240.58 106.711 239.55 109.201 238.58C110.911 237.91 112.641 237.27 114.381 236.66H114.371Z" fill="black"/>
<path d="M128.131 244.55C127.331 245.23 126.531 245.91 125.721 246.58L122.281 234.06C123.201 233.78 124.111 233.51 125.041 233.26L128.151 244.54L128.131 244.55Z" fill="white"/>
<path d="M122.271 234.07L125.711 246.59C124.901 247.26 124.101 247.94 123.291 248.61L119.531 234.93C120.441 234.64 121.361 234.35 122.281 234.08L122.271 234.07Z" fill="black"/>
<path d="M143.181 230.77C143.161 230.96 143.071 231.14 142.901 231.3C139.941 234.09 136.941 236.84 133.901 239.54C132.001 241.23 130.071 242.9 128.141 244.54L125.031 233.26C125.181 233.22 125.331 233.17 125.471 233.13C130.931 231.6 136.471 230.34 142.061 229.36C142.591 229.27 143.121 229.49 143.271 230.05C143.331 230.28 143.301 230.55 143.181 230.77Z" fill="black"/>
<path d="M75.6104 285.39H75.6004C72.3143 285.39 69.6504 288.054 69.6504 291.34V301.82C69.6504 305.106 72.3143 307.77 75.6004 307.77H75.6104C78.8965 307.77 81.5604 305.106 81.5604 301.82V291.34C81.5604 288.054 78.8965 285.39 75.6104 285.39Z" fill="#4097FF"/>
<path d="M123.251 285.39H123.241C119.955 285.39 117.291 288.054 117.291 291.34V301.82C117.291 305.106 119.955 307.77 123.241 307.77H123.251C126.537 307.77 129.201 305.106 129.201 301.82V291.34C129.201 288.054 126.537 285.39 123.251 285.39Z" fill="#4097FF"/>
<path d="M117.291 268.42H81.5605V296.57H117.291V268.42Z" fill="#2D2D2D"/>
<path d="M54.7607 278.52H66.2507C72.6007 278.52 77.7407 283.67 77.7407 290.01C77.7407 296.36 72.5907 301.5 66.2507 301.5H54.7607" fill="white"/>
<path d="M54.7607 278.52H66.2507C72.6007 278.52 77.7407 283.67 77.7407 290.01C77.7407 296.36 72.5907 301.5 66.2507 301.5H54.7607" stroke="black" stroke-width="1.6" stroke-miterlimit="10"/>
<path d="M143.84 278.52H132.35C126 278.52 120.86 283.67 120.86 290.01C120.86 296.36 126.01 301.5 132.35 301.5H143.84" fill="white"/>
<path d="M143.84 278.52H132.35C126 278.52 120.86 283.67 120.86 290.01C120.86 296.36 126.01 301.5 132.35 301.5H143.84" stroke="black" stroke-width="1.6" stroke-miterlimit="10"/>
<path d="M28.5107 187.76H91.6707" stroke="#FFD55F" stroke-width="1.8" stroke-miterlimit="10"/>
<path d="M107.91 187.4H171.07" stroke="#FFD55F" stroke-width="1.8" stroke-miterlimit="10"/>
<path d="M71.2911 186.56C69.0611 179.13 65.8111 172.04 61.6211 165.51C61.0611 164.63 59.6511 165.45 60.2211 166.33C64.3311 172.75 67.5311 179.69 69.7211 187C70.0211 188 71.5911 187.57 71.2911 186.57V186.56Z" fill="black"/>
<path d="M63.2202 170.71C62.5502 171.24 62.0002 171.89 61.4802 172.56C60.8502 173.37 60.2302 174.18 59.6102 174.99C58.3702 176.6 57.1402 178.2 55.9002 179.81C55.6302 180.16 55.8502 180.72 56.1902 180.92C56.6102 181.17 57.0302 180.98 57.3002 180.63C58.5002 179.07 59.7002 177.51 60.9002 175.95C61.9702 174.56 62.9702 172.95 64.3602 171.86C64.7102 171.59 64.6402 171 64.3602 170.71C64.0202 170.37 63.5602 170.44 63.2102 170.71H63.2202Z" fill="black"/>
<path d="M132.021 186.27C134.211 178.97 137.411 172.02 141.521 165.6C142.091 164.72 140.681 163.9 140.121 164.78C135.931 171.31 132.681 178.4 130.451 185.83C130.151 186.83 131.721 187.26 132.021 186.26V186.27Z" fill="black"/>
<path d="M137.381 171.14C138.771 172.23 139.771 173.84 140.841 175.23C142.041 176.79 143.241 178.35 144.441 179.91C144.711 180.26 145.141 180.44 145.551 180.2C145.891 180 146.111 179.44 145.841 179.09C144.601 177.48 143.371 175.88 142.131 174.27C141.531 173.49 140.931 172.71 140.321 171.92C139.781 171.22 139.221 170.54 138.521 169.98C138.181 169.71 137.711 169.64 137.371 169.98C137.091 170.26 137.021 170.86 137.371 171.13L137.381 171.14Z" fill="black"/>
<path d="M71.1006 352.51H127.401" stroke="#611AA0" stroke-width="1.8" stroke-miterlimit="10"/>
<path d="M199.581 355.76H238.671" stroke="#111159" stroke-width="1.44" stroke-miterlimit="10"/>
<mask id="mask0_2873_4011" style="mask-type:luminance" maskUnits="userSpaceOnUse" x="169" y="240" width="99" height="78">
<path d="M248.3 240.63H189.46C178.702 240.63 169.98 249.352 169.98 260.11V297.66C169.98 308.419 178.702 317.14 189.46 317.14H248.3C259.059 317.14 267.78 308.419 267.78 297.66V260.11C267.78 249.352 259.059 240.63 248.3 240.63Z" fill="white"/>
</mask>
<g mask="url(#mask0_2873_4011)">
<g style="mix-blend-mode:soft-light">
<path d="M218.741 390.93C255.523 390.93 285.341 360.893 285.341 323.84C285.341 286.787 255.523 256.75 218.741 256.75C181.958 256.75 152.141 286.787 152.141 323.84C152.141 360.893 181.958 390.93 218.741 390.93Z" fill="#FFBCBB"/>
</g>
<g style="mix-blend-mode:soft-light">
<path d="M218.541 388.34C252.462 388.34 279.961 360.635 279.961 326.46C279.961 292.285 252.462 264.58 218.541 264.58C184.62 264.58 157.121 292.285 157.121 326.46C157.121 360.635 184.62 388.34 218.541 388.34Z" fill="#FFA5BB"/>
</g>
<g style="mix-blend-mode:soft-light">
<path d="M218.501 379.65C247.706 379.65 271.381 355.8 271.381 326.38C271.381 296.96 247.706 273.11 218.501 273.11C189.296 273.11 165.621 296.96 165.621 326.38C165.621 355.8 189.296 379.65 218.501 379.65Z" fill="#FF9ABB"/>
</g>
</g>
<path d="M196.331 337.71C199.319 337.71 201.741 335.288 201.741 332.3C201.741 329.312 199.319 326.89 196.331 326.89C193.343 326.89 190.921 329.312 190.921 332.3C190.921 335.288 193.343 337.71 196.331 337.71Z" fill="#2D2D2D"/>
<path d="M110.371 344.58C112.521 352.64 117.241 359.69 123.621 365.03C126.821 367.71 130.361 369.97 134.151 371.72C137.941 373.47 141.941 374.29 145.761 375.86C147.291 376.49 149.051 377.35 149.951 378.81C151.261 380.93 149.751 383.32 148.311 384.94C145.471 388.15 141.471 390.38 139.791 394.5C138.301 398.16 139.471 402.18 143.361 403.63C146.991 404.97 151.261 403.71 154.741 402.48C159.691 400.72 164.651 399.07 169.721 397.68C174.981 396.24 180.331 394.83 185.811 394.8C191.291 394.77 196.631 395.64 202.001 396.17C207.371 396.7 212.651 397.16 217.981 397.48C228.671 398.13 239.431 398.26 250.111 397.23C257.621 396.51 265.461 395.72 272.321 392.37C275.001 391.07 277.591 389.54 279.951 387.73C281.981 386.17 284.071 384.32 285.131 381.93C286.101 379.75 285.771 377.46 284.131 375.7C280.981 372.3 275.611 373.01 271.461 373.18C268.791 373.29 266.131 373.46 263.481 373.75C262.201 373.89 262.181 375.92 263.481 375.78C266.051 375.5 268.631 375.33 271.221 375.22C273.601 375.12 276.121 374.85 278.491 375.19C281.001 375.55 284.291 377.25 283.581 380.27C283.051 382.53 280.971 384.34 279.241 385.74C277.021 387.53 274.521 389.01 271.971 390.29C265.581 393.52 258.331 394.35 251.281 395.09C241.171 396.15 230.981 396.15 220.851 395.62C210.721 395.09 200.451 393.74 190.231 392.96C180.041 392.17 170.111 395.19 160.521 398.33C156.431 399.67 152.261 401.7 147.931 402.09C146.181 402.25 144.221 402.15 142.761 401.04C141.051 399.75 140.841 397.65 141.491 395.73C142.881 391.59 147.151 389.39 149.871 386.23C152.281 383.43 153.681 379.57 150.761 376.61C148.341 374.16 144.611 373.26 141.421 372.31C137.451 371.14 133.671 369.46 130.151 367.28C123.491 363.16 117.841 357.27 114.491 350.15C113.571 348.19 112.871 346.14 112.321 344.05C111.981 342.79 110.031 343.32 110.371 344.59V344.58Z" fill="#2D2D2D"/>
<path d="M106.351 292.88C106.841 301.66 107.331 310.44 107.821 319.21C108.311 327.98 108.271 336.34 110.371 344.57C110.691 345.83 112.651 345.3 112.321 344.03C110.231 335.82 110.291 327.13 109.821 318.71C109.351 310.29 108.861 301.48 108.371 292.87C108.301 291.57 106.271 291.56 106.341 292.87L106.351 292.88Z" fill="#2D2D2D"/>
<path d="M253.18 332.66H209.501C208.407 332.66 207.521 333.546 207.521 334.64V334.65C207.521 335.744 208.407 336.63 209.501 336.63H253.18C254.274 336.63 255.161 335.744 255.161 334.65V334.64C255.161 333.546 254.274 332.66 253.18 332.66Z" fill="#6669FF"/>
<path d="M253.18 327.25H209.501C208.407 327.25 207.521 328.136 207.521 329.23V329.24C207.521 330.334 208.407 331.22 209.501 331.22H253.18C254.274 331.22 255.161 330.334 255.161 329.24V329.23C255.161 328.136 254.274 327.25 253.18 327.25Z" fill="#6669FF"/>
<path d="M106.651 273.47C107.148 273.47 107.551 273.067 107.551 272.57C107.551 272.073 107.148 271.67 106.651 271.67C106.154 271.67 105.751 272.073 105.751 272.57C105.751 273.067 106.154 273.47 106.651 273.47Z" fill="white"/>
<path d="M109.531 273.47C110.028 273.47 110.431 273.067 110.431 272.57C110.431 272.073 110.028 271.67 109.531 271.67C109.034 271.67 108.631 272.073 108.631 272.57C108.631 273.067 109.034 273.47 109.531 273.47Z" fill="white"/>
<path d="M112.421 273.47C112.918 273.47 113.321 273.067 113.321 272.57C113.321 272.073 112.918 271.67 112.421 271.67C111.923 271.67 111.521 272.073 111.521 272.57C111.521 273.067 111.923 273.47 112.421 273.47Z" fill="white"/>
<path d="M18.5908 2.44H274.821" stroke="#1A1A21" stroke-width="4.62" stroke-miterlimit="10"/>
<path d="M55.7206 137.45C62.0006 125.55 66.9106 112.95 70.3406 99.94C70.5206 99.27 69.4706 98.98 69.3006 99.65C65.8906 112.58 61.0306 125.08 54.7906 136.9C54.4706 137.52 55.4006 138.06 55.7206 137.45Z" fill="black"/>
<path d="M70.9408 97.15C71.5808 93.67 72.2208 90.18 72.8608 86.7C72.9908 86.02 71.9408 85.73 71.8208 86.41C71.1808 89.89 70.5408 93.38 69.9008 96.86C69.7708 97.54 70.8208 97.83 70.9408 97.15Z" fill="black"/>
<path d="M69.4903 137.3C72.3203 134.84 74.9503 132.16 77.3403 129.27C77.7803 128.74 77.0203 127.97 76.5703 128.5C74.1803 131.39 71.5603 134.08 68.7203 136.53C68.1903 136.99 68.9603 137.75 69.4903 137.3Z" fill="black"/>
<path d="M78.9806 127.07L79.6105 126.13C79.6505 126.06 79.6805 125.99 79.6805 125.92C79.7005 125.84 79.6905 125.77 79.6705 125.69C79.6305 125.56 79.5305 125.41 79.4005 125.34C79.2705 125.27 79.1005 125.23 78.9505 125.28C78.8005 125.33 78.6905 125.42 78.6005 125.55L77.9705 126.49C77.9305 126.56 77.9005 126.63 77.9005 126.7C77.8805 126.78 77.8906 126.85 77.9106 126.93C77.9506 127.06 78.0505 127.21 78.1805 127.28C78.3105 127.35 78.4805 127.39 78.6305 127.34C78.7805 127.29 78.8906 127.2 78.9806 127.07Z" fill="black"/>
<path d="M81.5904 123.28C84.3104 117.61 87.0404 111.94 89.7604 106.28C90.0604 105.65 89.1304 105.11 88.8304 105.73C86.1104 111.4 83.3804 117.07 80.6604 122.73C80.3604 123.36 81.2904 123.9 81.5904 123.28Z" fill="black"/>
<path d="M37.8609 137.53C35.9709 129.96 35.3209 122.14 35.9409 114.36C35.9909 113.67 34.9109 113.67 34.8609 114.36C34.2409 122.24 34.9109 130.15 36.8209 137.82C36.9909 138.5 38.0309 138.21 37.8609 137.53Z" fill="black"/>
<path d="M35.9506 109.21C36.1506 106.73 36.3606 104.25 36.5606 101.78C36.6206 101.09 35.5306 101.09 35.4806 101.78C35.2806 104.26 35.0706 106.74 34.8706 109.21C34.8106 109.9 35.9006 109.9 35.9506 109.21Z" fill="black"/>
<path d="M25.6409 5.64C24.8609 22.72 24.4609 39.82 24.4609 56.91C24.4609 57.61 25.5409 57.61 25.5409 56.91C25.5409 39.81 25.9309 22.72 26.7209 5.64C26.7509 4.94 25.6709 4.95 25.6409 5.64Z" fill="black"/>
<path d="M24.291 61.3C23.281 79.53 22.971 97.8 23.811 116.05C24.051 121.2 24.381 126.34 24.811 131.47C24.871 132.16 25.951 132.17 25.891 131.47C24.381 113.27 24.111 94.99 24.691 76.74C24.851 71.59 25.091 66.45 25.371 61.3C25.411 60.6 24.331 60.61 24.291 61.3Z" fill="black"/>
<path d="M25.4204 134.66C25.5304 135.56 25.6404 136.46 25.7504 137.36C25.7804 137.64 25.9704 137.92 26.2904 137.9C26.5504 137.89 26.8704 137.66 26.8304 137.36C26.7204 136.46 26.6104 135.56 26.5004 134.66C26.4704 134.38 26.2804 134.1 25.9604 134.12C25.7004 134.13 25.3804 134.36 25.4204 134.66Z" fill="black"/>
<path d="M26.3205 149.19C25.1605 158.59 24.3905 168.03 24.4605 177.51C24.4605 178.21 25.5505 178.21 25.5405 177.51C25.4705 168.04 26.2405 158.59 27.4005 149.19C27.4905 148.5 26.4005 148.51 26.3205 149.19Z" fill="black"/>
<defs>
<linearGradient id="paint0_linear_2873_4011" x1="250.623" y1="146.815" x2="236.594" y2="94.4471" gradientUnits="userSpaceOnUse">
<stop stop-color="#F7DC60"/>
<stop offset="0.85" stop-color="#FFEEA2"/>
</linearGradient>
<linearGradient id="paint1_linear_2873_4011" x1="117.19" y1="207.24" x2="176.7" y2="104.17" gradientUnits="userSpaceOnUse">
<stop stop-color="#A07EF7"/>
<stop offset="0.85" stop-color="#D2C2FF"/>
</linearGradient>
</defs>
</svg>
