<svg width="297" height="445" viewBox="0 0 297 445" fill="none" xmlns="http://www.w3.org/2000/svg">
<path d="M104.94 296.63C130.074 296.63 150.45 276.254 150.45 251.12C150.45 225.986 130.074 205.61 104.94 205.61C79.8052 205.61 59.4297 225.986 59.4297 251.12C59.4297 276.254 79.8052 296.63 104.94 296.63Z" fill="#8A81FC"/>
<path d="M173 305.89C205.695 305.89 232.2 279.385 232.2 246.69C232.2 213.995 205.695 187.49 173 187.49C140.305 187.49 113.8 213.995 113.8 246.69C113.8 279.385 140.305 305.89 173 305.89Z" fill="#8A81FC"/>
<path d="M240.88 334.13C269.278 334.13 292.3 311.108 292.3 282.71C292.3 254.311 269.278 231.29 240.88 231.29C212.481 231.29 189.46 254.311 189.46 282.71C189.46 311.108 212.481 334.13 240.88 334.13Z" fill="#8A81FC"/>
<path d="M159.629 337.97C186.796 337.97 208.819 315.947 208.819 288.78C208.819 261.613 186.796 239.59 159.629 239.59C132.463 239.59 110.439 261.613 110.439 288.78C110.439 315.947 132.463 337.97 159.629 337.97Z" fill="#8A81FC"/>
<mask id="mask0_2873_4009" style="mask-type:luminance" maskUnits="userSpaceOnUse" x="180" y="289" width="97" height="98">
<path d="M228.83 386.1C255.384 386.1 276.91 364.574 276.91 338.02C276.91 311.466 255.384 289.94 228.83 289.94C202.276 289.94 180.75 311.466 180.75 338.02C180.75 364.574 202.276 386.1 228.83 386.1Z" fill="white"/>
</mask>
<g mask="url(#mask0_2873_4009)">
<path d="M194.58 379.69L259.21 393.98L251.3 409.18L194.58 379.69Z" fill="#F7C060"/>
<path d="M190.33 377.48L259.8 392.84L259.21 393.98L194.58 379.69L190.33 377.48Z" fill="#F7C060"/>
<path d="M186.07 375.26L260.39 391.7L259.8 392.84L190.33 377.48L186.07 375.26Z" fill="#F7C061"/>
<path d="M181.811 373.05L260.991 390.56L260.391 391.7L186.071 375.26L181.811 373.05Z" fill="#F7D28E"/>
<path d="M177.551 370.84L261.581 389.42L260.991 390.56L181.811 373.05L177.551 370.84Z" fill="#F7C163"/>
<path d="M173.29 368.62L262.17 388.28L261.58 389.42L177.55 370.84L173.29 368.62Z" fill="#F7C264"/>
<path d="M169.04 366.41L262.77 387.14L262.17 388.28L173.29 368.62L169.04 366.41Z" fill="#F8C265"/>
<path d="M164.78 364.19L263.36 386L262.77 387.14L169.04 366.41L164.78 364.19Z" fill="#F8C366"/>
<path d="M161.23 362.35L161.28 362.15L263.95 384.86L263.36 386L164.78 364.19L161.23 362.35Z" fill="#F8C467"/>
<path d="M161.28 362.15L161.55 360.94L264.54 383.71L263.95 384.86L161.28 362.15Z" fill="#F8C368"/>
<path d="M161.551 360.94L161.811 359.72L265.141 382.57L264.541 383.71L161.551 360.94Z" fill="#F8C369"/>
<path d="M161.811 359.72L162.081 358.51L265.731 381.43L265.141 382.57L161.811 359.72Z" fill="#F8C46A"/>
<path d="M162.08 358.51L162.35 357.3L266.32 380.29L265.73 381.43L162.08 358.51Z" fill="#F8C873"/>
<path d="M162.351 357.3L162.621 356.08L266.921 379.15L266.321 380.29L162.351 357.3Z" fill="#F8C56C"/>
<path d="M162.62 356.08L162.89 354.87L267.51 378.01L266.92 379.15L162.62 356.08Z" fill="#F9C66D"/>
<path d="M162.891 354.87L163.161 353.66L268.101 376.87L267.511 378.01L162.891 354.87Z" fill="#F9C66E"/>
<path d="M163.16 353.66L163.42 352.45L268.7 375.73L268.1 376.87L163.16 353.66Z" fill="#F9C66F"/>
<path d="M163.421 352.45L163.691 351.23L269.291 374.59L268.701 375.73L163.421 352.45Z" fill="#F9C66B"/>
<path d="M163.69 351.23L163.96 350.02L269.88 373.45L269.29 374.59L163.69 351.23Z" fill="#F9C871"/>
<path d="M163.961 350.02L164.231 348.81L270.481 372.31L269.881 373.45L163.961 350.02Z" fill="#F9C872"/>
<path d="M164.23 348.81L164.5 347.6L271.07 371.16L270.48 372.31L164.23 348.81Z" fill="#F9C973"/>
<path d="M164.5 347.6L164.59 347.17L164.98 346.43L271.66 370.02L271.07 371.16L164.5 347.6Z" fill="#FACA75"/>
<path d="M165.57 345.29L272.26 368.88L271.66 370.02L164.98 346.43L165.57 345.29Z" fill="#FACA75"/>
<path d="M166.16 344.15L272.85 367.74L272.26 368.88L165.57 345.29L166.16 344.15Z" fill="#FAC976"/>
<path d="M166.75 343.01L273.44 366.6L272.85 367.74L166.16 344.15L166.75 343.01Z" fill="#FAC977"/>
<path d="M167.35 341.87L274.04 365.46L273.44 366.6L166.75 343.01L167.35 341.87Z" fill="#FACC78"/>
<path d="M167.941 340.72L274.631 364.32L274.041 365.46L167.351 341.87L167.941 340.72Z" fill="#FACC79"/>
<path d="M168.53 339.58L275.22 363.18L274.63 364.32L167.94 340.72L168.53 339.58Z" fill="#FACB7A"/>
<path d="M169.13 338.44L275.82 362.04L275.22 363.18L168.53 339.58L169.13 338.44Z" fill="#FACC7B"/>
<path d="M169.721 337.3L276.411 360.9L275.821 362.04L169.131 338.44L169.721 337.3Z" fill="#FAC96F"/>
<path d="M170.311 336.16L277.001 359.75L276.411 360.9L169.721 337.3L170.311 336.16Z" fill="#FBCD7D"/>
<path d="M170.911 335.02L277.601 358.61L277.001 359.75L170.311 336.16L170.911 335.02Z" fill="#FBCD7E"/>
<path d="M171.5 333.88L278.19 357.47L277.6 358.61L170.91 335.02L171.5 333.88Z" fill="#FBCE7F"/>
<path d="M172.09 332.74L278.78 356.33L278.19 357.47L171.5 333.88L172.09 332.74Z" fill="#FBCF80"/>
<path d="M172.691 331.6L279.371 355.19L278.781 356.33L172.091 332.74L172.691 331.6Z" fill="#FBCF82"/>
<path d="M173.28 330.46L279.97 354.05L279.37 355.19L172.69 331.6L173.28 330.46Z" fill="#FBCE83"/>
<path d="M173.87 329.31L280.56 352.91L279.97 354.05L173.28 330.46L173.87 329.31Z" fill="#FBD084"/>
<path d="M174.47 328.17L281.15 351.77L280.56 352.91L173.87 329.31L174.47 328.17Z" fill="#FBD185"/>
<path d="M175.061 327.03L281.751 350.63L281.151 351.77L174.471 328.17L175.061 327.03Z" fill="#FCD186"/>
<path d="M175.651 325.89L282.341 349.49L281.751 350.63L175.061 327.03L175.651 325.89Z" fill="#FCD287"/>
<path d="M176.25 324.75L282.93 348.35L282.34 349.49L175.65 325.89L176.25 324.75Z" fill="#FCD288"/>
<path d="M176.84 323.61L283.53 347.2L282.93 348.35L176.25 324.75L176.84 323.61Z" fill="#FCD289"/>
<path d="M177.431 322.47L284.121 346.06L283.531 347.2L176.841 323.61L177.431 322.47Z" fill="#FCD28A"/>
<path d="M178.031 321.33L284.711 344.92L284.121 346.06L177.431 322.47L178.031 321.33Z" fill="#FCD38B"/>
<path d="M178.62 320.19L285.31 343.78L284.71 344.92L178.03 321.33L178.62 320.19Z" fill="#FCD48C"/>
<path d="M179.21 319.05L285.9 342.64L285.31 343.78L178.62 320.19L179.21 319.05Z" fill="#FCD48D"/>
<path d="M179.811 317.91L286.491 341.5L285.901 342.64L179.211 319.05L179.811 317.91Z" fill="#FDD48E"/>
<path d="M180.401 316.76L287.091 340.36L286.491 341.5L179.811 317.91L180.401 316.76Z" fill="#FDD58F"/>
<path d="M180.99 315.62L287.68 339.22L287.09 340.36L180.4 316.76L180.99 315.62Z" fill="#FDD590"/>
<path d="M181.58 314.48L288.27 338.08L287.68 339.22L180.99 315.62L181.58 314.48Z" fill="#FDD591"/>
<path d="M182.18 313.34L288.87 336.94L288.27 338.08L181.58 314.48L182.18 313.34Z" fill="#FDD792"/>
<path d="M182.771 312.2L289.461 335.8L288.871 336.94L182.181 313.34L182.771 312.2Z" fill="#FDD793"/>
<path d="M183.361 311.06L290.05 334.65L289.46 335.8L182.771 312.2L183.361 311.06Z" fill="#FDD794"/>
<path d="M183.96 309.92L290.65 333.51L290.05 334.65L183.36 311.06L183.96 309.92Z" fill="#FDD795"/>
<path d="M184.551 308.78L291.241 332.37L290.651 333.51L183.961 309.92L184.551 308.78Z" fill="#FED896"/>
<path d="M185.141 307.64L291.831 331.23L291.241 332.37L184.551 308.78L185.141 307.64Z" fill="#FED897"/>
<path d="M185.741 306.5L292.421 330.09L291.831 331.23L185.141 307.64L185.741 306.5Z" fill="#FED898"/>
<path d="M186.33 305.36L293.02 328.95L292.42 330.09L185.74 306.5L186.33 305.36Z" fill="#FEDA99"/>
<path d="M186.92 304.21L293.31 327.74L293.06 328.87L293.02 328.95L186.33 305.36L186.92 304.21Z" fill="#FEDA9A"/>
<path d="M187.521 303.07L293.581 326.53L293.311 327.74L186.921 304.21L187.521 303.07Z" fill="#FEDA9B"/>
<path d="M188.111 301.93L293.851 325.32L293.58 326.53L187.521 303.07L188.111 301.93Z" fill="#FEDA9C"/>
<path d="M188.7 300.79L294.11 324.1L293.85 325.32L188.11 301.93L188.7 300.79Z" fill="#FFDB9E"/>
<path d="M189.3 299.65L294.38 322.89L294.11 324.1L188.7 300.79L189.3 299.65Z" fill="#FFDB9E"/>
<path d="M189.891 298.51L294.651 321.68L294.381 322.89L189.301 299.65L189.891 298.51Z" fill="#FFDB9F"/>
<path d="M190.481 297.37L294.921 320.47L294.651 321.68L189.891 298.51L190.481 297.37Z" fill="#FFDCA0"/>
<path d="M191.08 296.23L295.19 319.25L294.92 320.47L190.48 297.37L191.08 296.23Z" fill="#FFDDA1"/>
<path d="M191.67 295.09L295.46 318.04L295.19 319.25L191.08 296.23L191.67 295.09Z" fill="#FFDDA2"/>
<path d="M296.421 313.68L295.461 318.04L191.671 295.09L206.351 266.85L296.421 313.68Z" fill="#FFDDA2"/>
</g>
<path d="M232.8 358.78C230.76 362.7 225.92 364.23 221.99 362.19L180.82 340.78C180.68 338.39 180.72 336.01 180.94 333.66C181.25 330.29 181.91 326.99 182.9 323.8C183.98 320.33 185.44 316.99 187.27 313.86L212.42 326.94C217.44 329.55 219.39 335.74 216.78 340.76C216.69 340.94 216.59 341.11 216.49 341.28L229.39 347.99C233.31 350.03 234.84 354.87 232.8 358.8V358.78Z" fill="#F7C060"/>
<path d="M276.82 338.73C276.75 342.21 276.3 345.63 275.5 348.96C275 351.06 274.35 353.11 273.57 355.11C272.4 358.13 270.93 361.02 269.18 363.74L240.29 348.72C236.37 346.68 234.84 341.84 236.88 337.91C237.9 335.95 239.62 334.58 241.58 333.97C243.54 333.36 245.73 333.48 247.69 334.5L254.45 338.01C254.59 337.48 254.8 336.96 255.06 336.45C256.08 334.49 257.8 333.12 259.76 332.51C261.72 331.89 263.91 332.02 265.87 333.04L276.83 338.74L276.82 338.73Z" fill="#F4C171"/>
<path d="M243.53 315.36C241.49 319.28 236.65 320.81 232.72 318.77L198.29 300.87C202.9 297.07 208.3 294.08 214.34 292.17C214.75 292.04 215.17 291.91 215.58 291.8L240.11 304.55C244.03 306.59 245.56 311.43 243.52 315.36H243.53Z" fill="#F4C57F"/>
<path d="M241.85 384C232.26 386.72 222.469 386.32 213.619 383.39L200.059 376.34C192.209 370.52 186.059 362.26 182.889 352.23C182.549 351.15 182.249 350.06 181.979 348.97C182.329 349.09 182.68 349.24 183.02 349.42L237.57 377.78C240.03 379.06 241.549 381.44 241.839 384H241.85Z" fill="#F7C060"/>
<path d="M190.729 355.18C209.501 355.18 224.719 339.962 224.719 321.19C224.719 302.418 209.501 287.2 190.729 287.2C171.957 287.2 156.739 302.418 156.739 321.19C156.739 339.962 171.957 355.18 190.729 355.18Z" fill="#F4F3FF"/>
<path d="M168.25 380.3C186.448 380.3 201.2 365.548 201.2 347.35C201.2 329.152 186.448 314.4 168.25 314.4C150.052 314.4 135.3 329.152 135.3 347.35C135.3 365.548 150.052 380.3 168.25 380.3Z" fill="#F4F3FF"/>
<path d="M135.299 377.83C148.361 377.83 158.949 367.242 158.949 354.18C158.949 341.118 148.361 330.53 135.299 330.53C122.238 330.53 111.649 341.118 111.649 354.18C111.649 367.242 122.238 377.83 135.299 377.83Z" fill="#F4F3FF"/>
<path d="M179.6 342.57C179.24 344.52 179.05 346.53 179.05 348.59C179.05 366.79 193.8 381.54 212 381.54C230.2 381.54 244.95 366.79 244.95 348.59C244.95 330.39 230.2 315.64 212 315.64C210.26 315.64 208.54 315.78 206.87 316.04" fill="#F4F3FF"/>
<path d="M224.27 316.99C220.73 316.22 217.14 315.65 213.54 315.25C212.66 315.15 212.67 316.53 213.54 316.62C217.02 317 220.48 317.56 223.91 318.31C224.77 318.5 225.14 317.17 224.27 316.99Z" fill="#C0B9F9"/>
<path d="M111.87 353.94C111.87 364.75 119.14 373.85 129.05 376.63C121.81 372.61 116.92 364.89 116.92 356.02C116.92 355.85 116.92 355.69 116.92 355.53C117.18 342.75 127.63 332.46 140.47 332.46C141.96 332.46 143.42 332.6 144.83 332.87C148.68 326.18 154.82 320.96 162.18 318.32C164.53 301.91 178.64 289.3 195.7 289.3C199.29 289.3 202.76 289.86 206.01 290.9C201.4 288.54 196.18 287.22 190.65 287.22C173.59 287.22 159.48 299.83 157.13 316.24C149.77 318.89 143.63 324.1 139.78 330.79C138.36 330.53 136.91 330.38 135.42 330.38C122.57 330.38 112.13 340.66 111.87 353.45C111.87 353.62 111.87 353.78 111.87 353.94Z" fill="white"/>
<path d="M148.58 335.84C146.71 333.13 143.849 331.17 140.619 330.48C139.759 330.29 139.389 331.62 140.259 331.8C143.129 332.42 145.719 334.11 147.399 336.53C147.609 336.83 148 336.97 148.34 336.78C148.64 336.6 148.8 336.15 148.59 335.84H148.58Z" fill="#C0B9F9"/>
<path d="M158.069 316.99C164.499 313.89 172.689 313.17 179.039 316.84C179.809 317.28 180.499 316.1 179.729 315.66C172.929 311.73 164.249 312.49 157.369 315.81C156.569 316.19 157.269 317.38 158.059 316.99H158.069Z" fill="#C0B9F9"/>
<path d="M181.3 318.05C182.18 318.05 182.18 316.68 181.3 316.68C180.42 316.68 180.42 318.05 181.3 318.05Z" fill="#C0B9F9"/>
<path d="M111.65 354.25C111.65 367.31 122.24 377.9 135.3 377.9C140.21 377.9 144.78 376.4 148.55 373.83C154.05 377.93 160.86 380.36 168.25 380.36C176.32 380.36 183.7 377.46 189.43 372.65C195.33 378.2 203.27 381.61 212.01 381.61C230.21 381.61 244.96 366.86 244.96 348.66C244.96 340.24 241.8 332.55 236.6 326.73C236.93 328.49 237.1 330.3 237.1 332.15C237.1 348.2 224.09 361.22 208.03 361.22C200.32 361.22 193.32 358.21 188.11 353.31C183.06 357.55 176.54 360.11 169.43 360.11C162.92 360.11 156.9 357.97 152.06 354.35C148.73 356.61 144.7 357.94 140.37 357.94C128.85 357.94 119.51 348.6 119.51 337.08C119.51 336.93 119.51 336.79 119.51 336.65C114.68 340.98 111.64 347.26 111.64 354.25H111.65Z" fill="#C0B9F9"/>
<path d="M251.6 169.98L266.64 173.14C275.69 175.04 281.489 183.92 279.589 192.96C277.689 202.01 268.809 207.81 259.769 205.91L244.729 202.75" fill="#F9C5F9"/>
<path d="M251.6 169.98L266.64 173.14C275.69 175.04 281.489 183.92 279.589 192.96C277.689 202.01 268.809 207.81 259.769 205.91L244.729 202.75" stroke="#4317E5" stroke-width="1.8" stroke-miterlimit="10"/>
<path d="M201.18 233.8C206.67 233.52 211.98 231.13 215.56 226.79C216.75 225.34 217.67 223.78 218.33 222.15C219.99 222.84 221.77 223.33 223.65 223.58C234.51 225.04 244.41 218.04 245.76 207.96C246 206.14 245.95 204.34 245.64 202.61C247.43 202.44 249.22 202.04 250.96 201.39C261.04 197.62 265.75 186.89 261.48 177.42C260.71 175.71 259.7 174.16 258.5 172.79C259.94 171.81 261.26 170.63 262.4 169.25C269 161.26 267.26 149.67 258.51 143.37C256.93 142.23 255.23 141.35 253.47 140.7C254.18 139.17 254.67 137.53 254.9 135.79C256.25 125.72 248.52 116.38 237.65 114.92C235.69 114.66 233.75 114.67 231.9 114.92C231.68 113.25 231.22 111.58 230.48 109.95C226.22 100.5 214.58 95.91 204.48 99.69C202.66 100.37 201.01 101.28 199.56 102.37C198.48 101.01 197.18 99.76 195.67 98.67C186.94 92.38 174.51 93.76 167.89 101.77C166.7 103.22 165.78 104.78 165.12 106.41C163.46 105.72 161.68 105.23 159.8 104.98C148.94 103.52 139.04 110.52 137.69 120.6C137.45 122.42 137.5 124.22 137.81 125.95C136.02 126.12 134.23 126.52 132.49 127.17C122.41 130.94 117.7 141.67 121.97 151.14C122.74 152.85 123.75 154.4 124.95 155.77C123.51 156.75 122.19 157.93 121.05 159.31C114.45 167.3 116.19 178.89 124.94 185.19C126.52 186.33 128.22 187.21 129.98 187.86C129.27 189.39 128.78 191.03 128.55 192.77C127.2 202.84 134.93 212.18 145.8 213.64C147.76 213.9 149.7 213.89 151.55 213.64C151.77 215.31 152.23 216.98 152.97 218.61C155.08 223.29 159.01 226.78 163.66 228.65L201.17 233.8H201.18Z" fill="white"/>
<path d="M245.8 68.61C243.9 78.37 246.37 88.5 250.28 97.64C252.19 102.1 254.57 106.56 258.4 109.55C262.23 112.53 267.85 113.68 272 111.17C274.03 109.95 275.51 108.01 276.84 106.05C278.53 103.56 280.06 100.95 281.08 98.12C282.4 94.45 282.84 90.52 282.92 86.62C283.07 79.32 281.95 71.86 278.53 65.41C275.11 58.96 269.15 53.65 262.02 52.08C253.09 50.12 243.66 54.31 237.25 60.83C230.84 67.35 226.98 75.92 223.74 84.47C221.62 90.08 219.69 95.87 219.5 101.87C219.4 104.98 219.53 108.17 221.15 110.83C222.77 113.49 225.19 115.59 227.86 117.19C228.98 117.86 230.15 118.45 231.39 118.85C233.15 119.42 234.68 119.6 236.51 119.37C241.05 112.56 245.75 105.85 250.59 99.24L245.8 68.61Z" fill="white"/>
<path d="M164.02 108.22C153.65 86.83 144.03 64.87 140.35 41.67C138.32 28.85 138.68 14.36 148.45 4.45001C151.24 1.62001 155.47 -0.839992 159.42 0.280008C161.6 0.900008 163.2 2.49001 164.55 4.11001C173.19 14.54 174.97 28.22 176.47 41.24C178.63 59.94 180.83 77.87 182.99 96.58L164.02 108.22Z" fill="white"/>
<path d="M173.58 96.43C172.33 92.46 171.08 88.49 169.84 84.51C169.55 83.57 168.06 83.97 168.36 84.92L172.1 96.84C172.39 97.78 173.88 97.38 173.58 96.43Z" fill="black"/>
<path d="M169.47 158.97C173.358 158.97 176.51 155.818 176.51 151.93C176.51 148.042 173.358 144.89 169.47 144.89C165.582 144.89 162.43 148.042 162.43 151.93C162.43 155.818 165.582 158.97 169.47 158.97Z" fill="#FFD1E9"/>
<path d="M213.229 163.39C217.118 163.39 220.269 160.238 220.269 156.35C220.269 152.462 217.118 149.31 213.229 149.31C209.341 149.31 206.189 152.462 206.189 156.35C206.189 160.238 209.341 163.39 213.229 163.39Z" fill="#FFD1E9"/>
<path d="M168.84 80.93L168.88 80.61C168.88 80.5 168.86 80.41 168.81 80.31C168.78 80.21 168.73 80.13 168.65 80.06C168.58 79.99 168.5 79.93 168.4 79.9C168.31 79.85 168.21 79.83 168.1 79.83L167.9 79.86C167.77 79.9 167.66 79.96 167.56 80.06L167.44 80.22C167.37 80.34 167.34 80.47 167.34 80.61L167.3 80.93C167.3 81.04 167.32 81.13 167.37 81.23C167.4 81.33 167.45 81.41 167.53 81.48C167.6 81.55 167.68 81.61 167.78 81.64C167.87 81.69 167.97 81.71 168.08 81.71L168.28 81.68C168.41 81.64 168.52 81.58 168.62 81.48L168.74 81.32C168.81 81.2 168.84 81.07 168.84 80.93Z" fill="black"/>
<path d="M166.38 74.5C164.96 70.37 163.78 66.17 162.85 61.9C162.64 60.94 161.16 61.34 161.37 62.31C162.3 66.57 163.48 70.78 164.9 74.91C165.22 75.84 166.7 75.44 166.38 74.5Z" fill="black"/>
<path d="M231.04 108.16C232.58 104.27 234.58 100.56 236.96 97.11C237.52 96.29 236.19 95.53 235.63 96.34C233.18 99.9 231.15 103.73 229.56 107.75C229.2 108.67 230.68 109.07 231.04 108.16Z" fill="black"/>
<path d="M239.05 94.72L239.08 94.47C239.08 94.36 239.06 94.27 239.01 94.17C238.98 94.07 238.93 93.99 238.85 93.92C238.78 93.85 238.7 93.79 238.6 93.76C238.51 93.71 238.41 93.69 238.3 93.69L238.1 93.72C237.97 93.76 237.86 93.82 237.76 93.92L237.64 94.08C237.57 94.2 237.54 94.33 237.54 94.47L237.51 94.72C237.51 94.83 237.53 94.92 237.58 95.02C237.61 95.12 237.66 95.2 237.74 95.27C237.81 95.34 237.89 95.4 237.99 95.43C238.08 95.48 238.18 95.5 238.29 95.5L238.49 95.47C238.62 95.43 238.73 95.37 238.83 95.27L238.95 95.11C239.02 94.99 239.05 94.86 239.05 94.72Z" fill="black"/>
<path d="M239.43 115.06C238.99 114.97 238.55 114.9 238.1 114.84C236.14 114.58 234.22 114.62 232.36 114.92C232.16 113.11 231.72 111.31 231.01 109.54C228.95 104.45 224.31 101.78 219.66 99.82" stroke="#FFD1E9" stroke-width="1.54" stroke-miterlimit="10"/>
<path d="M183.34 93.79C177.57 93.93 171.89 96.62 168.08 101.62C166.87 103.2 165.94 104.91 165.26 106.69C164.47 106.34 163.65 106.04 162.8 105.79" stroke="#FFD1E9" stroke-width="1.54" stroke-miterlimit="10"/>
<path d="M244.85 76.15C244.87 73.45 245.09 70.75 245.52 68.08L244.85 76.15Z" fill="#FCA735"/>
<path d="M245.71 76.15C245.73 73.53 245.94 70.9 246.35 68.31C246.42 67.85 246.229 67.38 245.749 67.25C245.339 67.14 244.759 67.39 244.689 67.85C244.249 70.6 244.009 73.37 243.979 76.15C243.979 77.26 245.689 77.26 245.699 76.15H245.71Z" fill="#FFD1E9"/>
<path d="M250.561 98.65C247.541 92.63 245.691 86.04 245.101 79.34L250.561 98.65Z" fill="#FCA735"/>
<path d="M251.31 98.21C248.38 92.31 246.57 85.89 245.97 79.33C245.87 78.23 244.14 78.22 244.25 79.33C244.88 86.21 246.75 92.89 249.83 99.08C250.32 100.07 251.81 99.2 251.32 98.21H251.31Z" fill="#FFD1E9"/>
<path d="M240.869 92.86C241.629 91.98 242.479 91.18 243.389 90.47C243.529 90.36 243.609 90.1 243.609 89.93C243.609 89.74 243.529 89.52 243.389 89.39C243.249 89.26 243.049 89.16 242.849 89.17C242.629 89.17 242.479 89.26 242.309 89.39C241.389 90.1 240.549 90.9 239.789 91.78C239.659 91.94 239.569 92.11 239.569 92.32C239.569 92.51 239.649 92.73 239.789 92.86C240.079 93.13 240.589 93.18 240.879 92.86H240.869Z" fill="black"/>
<path d="M210.62 139.9C210.49 139.23 209.83 138.82 209.27 138.53C208.76 138.27 208.18 138.04 207.62 137.94C207.62 137.94 207.6 137.94 207.59 137.94C207.15 137.82 206.69 137.77 206.25 137.78C205.54 137.8 204.77 138.05 204.39 138.69C203.74 139.77 205.02 140.66 205.87 141.03C206.74 141.41 207.72 141.67 208.67 141.71C209.14 141.73 209.67 141.67 210.06 141.39C210.53 141.06 210.73 140.46 210.63 139.9H210.62Z" fill="black"/>
<path d="M182.749 138.36C182.829 137.71 182.369 137.11 181.759 136.82C181.369 136.63 180.909 136.58 180.499 136.52C180.079 136.45 179.639 136.37 179.219 136.4C179.199 136.4 179.179 136.4 179.159 136.41C178.959 136.42 178.759 136.44 178.559 136.48C178.059 136.57 177.569 136.71 177.139 136.97C176.689 137.25 176.399 137.79 176.529 138.35C176.699 139.09 177.459 139.43 178.139 139.58C179.259 139.82 180.479 139.91 181.539 139.61C182.149 139.44 182.659 139.01 182.739 138.37L182.749 138.36Z" fill="black"/>
<path d="M169.979 145.79C169.429 145.12 168.609 144.7 167.749 144.64L169.979 145.79Z" fill="#FFD1E9"/>
<path d="M170.519 145.43C169.859 144.63 168.909 144.08 167.869 144C167.689 143.99 167.539 144 167.389 144.1C167.249 144.19 167.129 144.36 167.109 144.52C167.059 144.84 167.259 145.26 167.629 145.28C167.839 145.3 168.049 145.33 168.249 145.39C168.279 145.39 168.299 145.4 168.329 145.41C168.399 145.43 168.379 145.43 168.279 145.39C168.309 145.41 168.359 145.42 168.389 145.43C168.489 145.47 168.589 145.51 168.679 145.56C168.769 145.61 168.859 145.68 168.959 145.72C168.879 145.66 168.849 145.65 168.899 145.68C168.919 145.69 168.929 145.7 168.949 145.71C168.989 145.74 169.039 145.77 169.079 145.8C169.159 145.87 169.239 145.93 169.319 146.01C169.359 146.05 169.399 146.08 169.429 146.12C169.449 146.14 169.469 146.16 169.479 146.18C169.409 146.1 169.399 146.08 169.439 146.14C169.559 146.28 169.679 146.39 169.859 146.42C170.009 146.45 170.209 146.42 170.339 146.32C170.599 146.13 170.759 145.7 170.529 145.42L170.519 145.43Z" fill="black"/>
<path d="M214.21 151C214.88 150.46 215.78 150.22 216.63 150.34L214.21 151Z" fill="#FFD1E9"/>
<path d="M214.57 151.55C214.75 151.41 214.94 151.29 215.14 151.19L214.99 151.26C215.24 151.14 215.51 151.05 215.78 150.99L215.62 151.02C215.88 150.97 216.15 150.95 216.42 150.96H216.25C216.34 150.96 216.42 150.96 216.51 150.98C216.85 151.03 217.22 150.82 217.27 150.46C217.32 150.13 217.11 149.75 216.75 149.7C215.73 149.56 214.66 149.81 213.85 150.45C213.71 150.56 213.6 150.69 213.57 150.87C213.54 151.02 213.57 151.22 213.67 151.35C213.86 151.62 214.29 151.76 214.57 151.54V151.55Z" fill="black"/>
<path d="M169.739 148.4C168.889 148.17 167.989 148.11 167.109 148.22L169.739 148.4Z" fill="#FFD1E9"/>
<path d="M169.87 147.76C168.97 147.52 168 147.45 167.07 147.57C166.73 147.61 166.42 147.9 166.46 148.26C166.5 148.59 166.79 148.91 167.15 148.87C167.57 148.82 167.98 148.8 168.4 148.83H168.23C168.7 148.85 169.16 148.92 169.61 149.04C169.94 149.13 170.32 148.85 170.37 148.52C170.42 148.15 170.21 147.85 169.85 147.76H169.87Z" fill="black"/>
<path d="M214.479 153.65C215.359 153.6 216.259 153.73 217.089 154.02L214.479 153.65Z" fill="#FFD1E9"/>
<path d="M214.52 154.3C214.73 154.29 214.95 154.29 215.16 154.3C215.19 154.3 215.21 154.3 215.24 154.3C215.33 154.3 215.21 154.3 215.19 154.3C215.25 154.3 215.3 154.3 215.36 154.31C215.47 154.32 215.57 154.33 215.68 154.35C215.89 154.38 216.09 154.42 216.29 154.47C216.39 154.49 216.5 154.52 216.6 154.55C216.65 154.57 216.71 154.58 216.76 154.6C216.78 154.6 216.87 154.64 216.76 154.6C216.65 154.56 216.77 154.6 216.79 154.61C216.96 154.67 217.11 154.7 217.28 154.64C217.43 154.59 217.6 154.46 217.66 154.31C217.72 154.16 217.75 153.98 217.69 153.82C217.63 153.66 217.52 153.5 217.36 153.44C216.41 153.11 215.43 152.95 214.42 153.01C214.08 153.03 213.78 153.36 213.81 153.7C213.84 154.04 214.14 154.33 214.5 154.31L214.52 154.3Z" fill="black"/>
<path d="M173.71 143.1C174.01 142.86 174.44 142.93 174.82 143.01C177.92 143.74 180.91 144.98 183.61 146.68C183.59 146.54 183.42 146.44 183.28 146.48L173.71 143.1Z" fill="#FFD1E9"/>
<path d="M174.13 143.75C174.34 143.61 174.79 143.81 175.01 143.86C175.41 143.96 175.81 144.07 176.21 144.18C177.02 144.42 177.83 144.7 178.61 145.01C180.23 145.66 181.78 146.45 183.26 147.37C183.81 147.71 184.59 147.02 184.33 146.43C184.12 145.96 183.75 145.67 183.22 145.71C182.23 145.79 182.33 147.33 183.32 147.25H183.43C183.3 147.22 183.17 147.19 183.04 147.17C182.97 147.05 182.89 146.94 182.82 146.83L182.86 146.93L183.93 145.99C182.25 144.94 180.47 144.06 178.61 143.37C177.69 143.03 176.75 142.73 175.8 142.47C174.97 142.25 174.04 141.93 173.26 142.45C172.43 143 173.28 144.29 174.11 143.74L174.13 143.75Z" fill="black"/>
<path d="M200.94 148.71C204.21 147.74 207.66 147.38 211.06 147.66C211.01 147.73 210.97 147.81 210.92 147.88L200.93 148.71H200.94Z" fill="#FFD1E9"/>
<path d="M201.179 149.44C204.329 148.52 207.639 148.16 210.909 148.41L210.359 147.31C210.309 147.38 210.269 147.46 210.219 147.53C209.999 147.89 210.229 148.4 210.579 148.56C210.989 148.76 211.389 148.56 211.609 148.2C211.659 148.13 211.699 148.05 211.749 147.98C211.999 147.58 211.669 146.92 211.199 146.88C207.649 146.6 204.099 146.95 200.689 147.96C199.729 148.24 200.229 149.71 201.179 149.43V149.44Z" fill="black"/>
<path d="M185.199 152.29C189.139 151.75 193.199 152.12 196.969 153.37L185.199 152.29Z" fill="#FFD1E9"/>
<path d="M185.259 153.06C189.149 152.54 193.099 152.9 196.829 154.13C197.229 154.26 197.659 153.89 197.739 153.52C197.829 153.07 197.519 152.74 197.129 152.61C193.289 151.35 189.169 150.98 185.159 151.52C184.179 151.65 184.269 153.2 185.259 153.06Z" fill="black"/>
<path d="M184.36 152.52C185.91 157.8 187.179 163.17 188.149 168.59C188.279 169.3 189.269 169.64 189.619 168.87C191.889 163.94 194.389 159.12 197.109 154.42C197.609 153.56 196.21 152.89 195.72 153.75C193 158.45 190.499 163.27 188.229 168.2L189.699 168.48C188.709 162.93 187.42 157.43 185.83 152.02C185.55 151.06 184.08 151.56 184.36 152.51V152.52Z" fill="black"/>
<path d="M216.98 251.29L180.72 246.43L181.82 238.22L182.03 236.65L182.75 231.27L183.18 228.1L183.44 226.13L184.48 227.01L189.02 230.87L190.79 232.37H190.85L191.02 232.4L192.74 232.65L199.82 233.67H199.83L200.61 233.79H200.68L200.64 234.09L200.45 235.33L200.03 238.1C200.6 237.95 201.16 237.75 201.7 237.54C203.14 237.26 204.61 237.07 206.08 237C208 236.92 209.99 237.09 211.78 237.83C213.53 238.55 215.17 239.61 216.16 241.13C217.06 242.51 217.4 244.13 217.48 245.7C217.59 247.58 217.32 249.45 216.97 251.28L216.98 251.29Z" fill="#6861FF"/>
<path d="M183.469 226.25L183.359 227.11L182.929 230.51L182.209 236.16L181.669 240.42L180.899 246.42L142.939 241.08C143.189 237.82 143.649 234.19 145.849 231.6C146.999 230.26 148.629 229.45 150.409 229.08C152.349 228.68 154.289 228.77 156.229 229.26C158.429 229.8 160.549 230.79 162.499 231.91C162.599 231.97 162.709 232.02 162.819 232.04C162.879 232.09 162.939 232.13 162.999 232.17L163.319 229.65L163.549 227.84L163.579 227.62L164.099 223.54L181.659 226.01L183.459 226.26L183.469 226.25Z" fill="#F9C5F9"/>
<path d="M262.399 169.26C265.899 165.02 267.059 159.76 266.059 154.82C264.399 157.08 262.17 159.04 259.45 160.5C257.77 161.4 256.009 162.04 254.219 162.46C254.77 164.17 255.07 165.99 255.07 167.87C255.07 178.29 245.979 186.73 234.759 186.73C232.819 186.73 230.949 186.47 229.169 186C228.719 187.74 227.999 189.45 226.989 191.08C221.369 200.1 208.949 203.2 199.229 198C197.549 197.1 196.069 196.01 194.779 194.78C193.449 196.08 191.909 197.23 190.149 198.17C180.419 203.38 167.989 200.3 162.379 191.3C161.409 189.74 160.709 188.11 160.269 186.45C158.419 186.96 156.459 187.24 154.429 187.24C143.199 187.24 134.089 178.81 134.089 168.42C134.089 166.62 134.369 164.89 134.879 163.24C132.999 162.83 131.159 162.16 129.399 161.22C127.149 160.02 125.249 158.48 123.719 156.71C122.759 157.48 121.859 158.35 121.059 159.32C114.459 167.31 116.199 178.9 124.949 185.2C126.529 186.34 128.229 187.22 129.989 187.87C129.279 189.4 128.789 191.04 128.559 192.78C127.209 202.85 134.939 212.19 145.809 213.65C147.769 213.91 149.709 213.9 151.559 213.65C151.779 215.32 152.239 216.99 152.979 218.62C155.089 223.3 159.019 226.79 163.669 228.66L173.379 229.48L183.219 226.49L191.719 232.52L201.169 233.82C206.659 233.54 211.969 231.15 215.549 226.81C216.739 225.36 217.659 223.8 218.319 222.17C219.979 222.86 221.759 223.35 223.639 223.6C234.499 225.06 244.399 218.06 245.749 207.98C245.99 206.16 245.939 204.36 245.63 202.63C247.419 202.46 249.209 202.06 250.949 201.41C261.029 197.64 265.74 186.91 261.469 177.44C260.699 175.73 259.689 174.18 258.489 172.81C259.929 171.83 261.25 170.65 262.39 169.27L262.399 169.26Z" fill="#FFDCFE"/>
<path d="M125.54 156.93L111.75 150.93C103.45 147.32 99.65 137.67 103.26 129.37C106.87 121.07 116.52 117.27 124.82 120.88L138.61 126.88" fill="white"/>
<path d="M125.54 156.93L111.75 150.93C103.45 147.32 99.6499 137.67 103.26 129.37C106.87 121.07 116.52 117.27 124.82 120.88L138.61 126.88" stroke="#6861FF" stroke-width="1.8" stroke-miterlimit="10"/>
<path d="M200.76 233.14L200.57 234.38C200.07 234.42 199.57 234.43 199.08 234.43C194.93 234.43 191.1 233.27 187.64 230.97C187.32 230.76 187.01 230.54 186.71 230.32C185.45 229.39 184.31 228.33 183.3 227.15C183.28 227.13 183.26 227.11 183.23 227.08C183.2 227.05 183.18 227.01 183.15 226.98C181.76 227.97 180.24 228.78 178.63 229.41C178.42 229.49 178.2 229.57 177.98 229.65C173.18 231.35 167.98 231.29 163.19 229.48L163.42 227.76C166.61 229.03 170.01 229.45 173.33 229.01H173.35C174.93 228.81 176.5 228.41 178.01 227.83C179.25 227.34 180.43 226.74 181.53 226.02C181.96 225.75 182.37 225.45 182.77 225.14L183.45 224.62L183.96 225.3C184.17 225.56 184.36 225.81 184.59 226.06C185.51 227.14 186.55 228.1 187.7 228.96C188.16 229.31 188.64 229.63 189.13 229.92C190.3 230.65 191.52 231.24 192.79 231.68C192.8 231.68 192.82 231.69 192.84 231.69C195.07 232.48 197.44 232.82 199.92 232.71H199.93C200.03 232.71 200.14 232.71 200.25 232.7C200.4 232.7 200.54 232.69 200.69 232.67V232.76L200.7 232.83L200.72 233.13L200.76 233.14Z" fill="#3232F9"/>
<path d="M169.9 400.92C193.665 400.92 212.93 381.655 212.93 357.89C212.93 334.125 193.665 314.86 169.9 314.86C146.135 314.86 126.87 334.125 126.87 357.89C126.87 381.655 146.135 400.92 169.9 400.92Z" fill="#FFFAF3"/>
<path d="M198.37 432.71C221.406 432.71 240.08 414.036 240.08 391C240.08 367.964 221.406 349.29 198.37 349.29C175.334 349.29 156.66 367.964 156.66 391C156.66 414.036 175.334 432.71 198.37 432.71Z" fill="#FFFAF3"/>
<path d="M240.08 429.59C256.615 429.59 270.02 416.185 270.02 399.65C270.02 383.115 256.615 369.71 240.08 369.71C223.544 369.71 210.14 383.115 210.14 399.65C210.14 416.185 223.544 429.59 240.08 429.59Z" fill="#FFFAF3"/>
<path d="M183.99 384.95C184.45 387.42 184.68 389.97 184.68 392.57C184.68 415.61 166 434.28 142.97 434.28C119.94 434.28 101.26 415.6 101.26 392.57C101.26 369.54 119.94 350.86 142.97 350.86C145.18 350.86 147.35 351.03 149.46 351.36" fill="#FFFAF3"/>
<path d="M145.25 351.21C161.62 353.8 174.63 366.69 177.63 383.12" stroke="#F9E1BA" stroke-width="1.74" stroke-miterlimit="10" stroke-linecap="round"/>
<path d="M127.899 354.24C132.239 353.3 136.619 352.58 141.029 352.11C142.129 351.99 142.139 350.25 141.029 350.37C136.469 350.87 131.929 351.59 127.439 352.57C126.349 352.81 126.809 354.48 127.899 354.24Z" fill="#F9E1BA"/>
<path d="M269.74 399.35C269.74 413.03 260.34 424.55 247.52 428.08C256.88 422.99 263.21 413.22 263.21 401.99C263.21 401.78 263.21 401.58 263.21 401.37C262.88 385.19 249.36 372.17 232.74 372.17C230.81 372.17 228.92 372.35 227.09 372.69C222.11 364.22 214.17 357.62 204.65 354.26C201.61 333.49 183.36 317.52 161.29 317.52C156.64 317.52 152.16 318.23 147.95 319.55C153.92 316.57 160.67 314.89 167.82 314.89C189.89 314.89 208.14 330.86 211.18 351.63C220.7 354.98 228.65 361.58 233.62 370.06C235.45 369.73 237.33 369.54 239.27 369.54C255.89 369.54 269.4 382.56 269.74 398.74C269.74 398.95 269.74 399.15 269.74 399.36V399.35Z" fill="white"/>
<path d="M224.77 377.31C226.89 374.24 230.17 372.1 233.8 371.32C234.89 371.08 234.43 369.41 233.34 369.65C229.25 370.53 225.64 373.01 223.27 376.44C223 376.83 223.2 377.4 223.58 377.63C224.01 377.88 224.5 377.71 224.77 377.32V377.31Z" fill="#F9E1BA"/>
<path d="M212.129 351.07C203.429 346.87 192.419 345.9 183.829 350.89C182.859 351.45 183.739 352.95 184.709 352.39C192.739 347.73 203.129 348.65 211.259 352.57C212.259 353.05 213.139 351.56 212.139 351.07H212.129Z" fill="#F9E1BA"/>
<path d="M181.84 353.91C182.96 353.91 182.96 352.17 181.84 352.17C180.72 352.17 180.72 353.91 181.84 353.91Z" fill="#F9E1BA"/>
<path d="M270.02 399.74C270.02 416.27 256.61 429.68 240.08 429.68C233.86 429.68 228.08 427.78 223.3 424.53C216.34 429.72 207.71 432.8 198.36 432.8C188.15 432.8 178.8 429.13 171.55 423.04C164.08 430.07 154.03 434.39 142.97 434.39C119.93 434.39 101.26 415.71 101.26 392.67C101.26 382.01 105.27 372.27 111.84 364.9C111.42 367.12 111.2 369.42 111.2 371.77C111.2 392.09 127.67 408.57 148 408.57C157.76 408.57 166.62 404.76 173.21 398.56C179.61 403.93 187.85 407.17 196.86 407.17C205.1 407.17 212.72 404.45 218.85 399.88C223.07 402.75 228.17 404.42 233.65 404.42C248.23 404.42 260.06 392.6 260.06 378.01C260.06 377.82 260.06 377.65 260.06 377.46C266.17 382.94 270.02 390.89 270.02 399.74Z" fill="#F9E1BA"/>
<path d="M9.33008 330.03C13.8801 333.04 21.7101 341.07 22.5101 346.79C22.1001 343.83 22.4701 340.77 23.5801 338C27.5201 343.87 32.3501 350.31 39.3901 351.07C42.2801 351.38 45.1601 350.87 47.9601 350.17C50.7801 349.46 53.5601 348.56 56.4401 348.08C58.1201 347.8 59.8301 347.82 61.5201 347.8C61.6001 347.8 61.6901 347.8 61.7501 347.74C61.8101 347.69 61.8201 347.6 61.8401 347.52C61.9201 347.15 62.1401 346.74 62.5201 346.62C67.3101 345.1 73.7901 346.64 78.2101 348.63C83.0201 350.79 87.5401 354.41 90.4601 358.84C96.4801 367.98 96.9401 380.25 92.5201 390.27C88.0901 400.28 79.1601 407.98 68.9301 411.89C48.5801 419.65 28.9101 408.97 18.9301 390.73C10.5301 375.37 12.0101 361.57 14.1201 345.1C14.8201 339.61 13.8701 333.22 9.33008 330.05V330.03Z" fill="#6861FF"/>
<path d="M107.53 440.09L57.6098 444.5C56.7698 438.6 56.4198 431.94 59.5398 427.46C61.0598 425.27 63.2598 423.89 65.5098 422.96C69.9698 421.14 76.1498 422.49 80.9198 424.09L80.2798 417.34L105.05 414.99L105.94 424.37H106.04L107.53 440.09Z" fill="#D5D2FC"/>
<path d="M157.29 435.04C157.01 429.09 156.1 422.48 152.19 418.66C150.28 416.8 147.88 415.85 145.48 415.36C140.49 414.35 134.28 417.2 129.81 419.78L105.94 424.36L107.43 440.07L157.3 435.03L157.29 435.04Z" fill="#6861FF"/>
<path d="M129.52 412.995L105.069 415.31L107.264 438.486L131.715 436.171L129.52 412.995Z" fill="#6861FF"/>
<path d="M26.0188 278.53L159.641 265.875C162.697 265.586 165.421 267.829 165.711 270.896L178.305 403.871C178.594 406.927 176.351 409.65 173.285 409.941L39.6624 422.595C36.6061 422.885 33.8824 420.642 33.592 417.575L20.9988 284.6C20.7093 281.544 22.9525 278.82 26.0188 278.53Z" fill="white"/>
<path d="M29.0996 278.46L40.8196 252.76L50.3396 231.88C51.3196 229.74 54.2496 229.46 55.6096 231.38L68.8796 250.1L85.2196 273.14" fill="white"/>
<path d="M99.1797 271.82L110.77 246.41L119.97 226.25C121.03 223.92 124.22 223.62 125.7 225.71L138.52 243.79L154.67 266.57" fill="white"/>
<path d="M113.06 329.48C115.7 329.06 118.36 328.79 121.03 328.67C121.54 328.65 121.46 327.86 120.96 327.88C118.29 328 115.63 328.27 112.99 328.69C112.49 328.77 112.56 329.56 113.06 329.48Z" fill="black"/>
<path d="M112.96 331.63C115.51 331.92 118.03 332.43 120.49 333.14C120.98 333.28 121.11 332.5 120.63 332.36C118.16 331.65 115.64 331.14 113.1 330.85C112.59 330.79 112.45 331.57 112.96 331.63Z" fill="black"/>
<path d="M78.3997 332.81C75.8497 332.73 73.2997 332.78 70.7497 332.96C70.2397 333 70.3097 333.79 70.8197 333.75C73.3597 333.57 75.9197 333.52 78.4697 333.6C78.9797 333.62 78.8997 332.83 78.3997 332.81Z" fill="black"/>
<path d="M78.4299 334.44C76.2199 335.3 74.0099 336.16 71.7999 337.02C71.3199 337.21 71.5999 337.95 72.0799 337.76C74.2899 336.9 76.4999 336.04 78.7099 335.18C79.1899 334.99 78.9099 334.25 78.4299 334.44Z" fill="black"/>
<path d="M85.5999 313.9C85.3799 314.54 84.6199 314.68 84.0099 314.55C83.2299 314.38 82.5799 313.83 82.1199 313.2C81.7999 312.77 81.0799 311.67 81.7899 311.26C82.5099 310.85 83.4799 311.59 84.0099 312.03C84.6599 312.55 85.1999 313.18 85.6099 313.91L85.5999 313.9Z" fill="black"/>
<path d="M86.73 314.01C86.24 312.96 85.54 312.03 84.64 311.3C83.79 310.61 82.56 309.82 81.44 310.35C80.89 310.61 80.56 311.11 80.54 311.72C80.54 312.32 80.81 312.87 81.1 313.37C81.66 314.3 82.53 315.08 83.57 315.4C84.49 315.68 85.75 315.51 86.29 314.65C86.34 314.65 86.41 314.63 86.46 314.61C86.69 314.53 86.85 314.23 86.73 314V314.01ZM84.01 314.55C83.23 314.38 82.58 313.83 82.12 313.2C81.8 312.77 81.08 311.67 81.79 311.26C82.51 310.85 83.48 311.59 84.01 312.03C84.66 312.55 85.2 313.18 85.61 313.91C85.39 314.55 84.63 314.69 84.02 314.56L84.01 314.55Z" fill="black"/>
<path d="M105.82 310.24C105.76 311.1 105.3 311.9 104.58 312.38C103.86 312.86 102.94 312.93 102.14 312.66C102.31 311.81 102.62 311 103.04 310.24C103.28 309.82 103.55 309.4 103.89 309.04C104.14 308.76 104.52 308.46 104.92 308.55C105.62 308.69 105.88 309.62 105.82 310.24Z" fill="black"/>
<path d="M105.66 307.84C105.16 307.53 104.56 307.51 104.04 307.75C103.46 308.02 103.04 308.51 102.69 309.01C101.94 310.07 101.43 311.29 101.17 312.56C101.03 312.72 101 312.99 101.14 313.18C101.21 313.34 101.37 313.42 101.54 313.44C102.54 313.89 103.77 313.86 104.75 313.36C105.77 312.83 106.5 311.84 106.71 310.7C106.9 309.65 106.6 308.42 105.65 307.83L105.66 307.84ZM105.82 310.24C105.76 311.1 105.3 311.9 104.58 312.38C103.86 312.86 102.94 312.93 102.14 312.66C102.31 311.81 102.62 311 103.04 310.24C103.28 309.82 103.55 309.4 103.89 309.04C104.14 308.76 104.52 308.46 104.92 308.55C105.62 308.69 105.88 309.62 105.82 310.24Z" fill="black"/>
<path d="M78.1004 330.66C77.9704 330.63 77.8404 330.59 77.7104 330.56C76.2704 330.12 75.0104 329.27 73.7604 328.44C73.0204 327.94 72.2904 327.44 71.5504 326.94L66.6504 314.05C68.4904 314.34 70.3304 314.67 72.1504 315.03L78.0904 330.67L78.1004 330.66Z" fill="white"/>
<path d="M66.6502 314.05L71.5502 326.94C70.9802 326.55 70.4002 326.16 69.8302 325.76C64.6002 322.14 59.4702 318.36 54.4502 314.45C54.2802 314.32 54.1902 314.17 54.1602 314C54.0402 313.81 53.9902 313.58 54.0302 313.37C54.1102 312.88 54.5702 312.63 55.0302 312.67C57.8302 312.89 60.6302 313.19 63.4102 313.57C64.4902 313.72 65.5702 313.88 66.6502 314.05Z" fill="black"/>
<path d="M83.0306 329.34C82.6806 329.6 82.3306 329.85 81.9506 330.07C81.5706 330.29 81.1806 330.46 80.7806 330.58L75.1006 315.63C76.0906 315.84 77.0806 316.07 78.0706 316.3L83.0206 329.33L83.0306 329.34Z" fill="white"/>
<path d="M75.1004 315.63L80.7804 330.58C79.9104 330.85 79.0104 330.88 78.0904 330.66L72.1504 315.02C73.1304 315.21 74.1204 315.41 75.1004 315.63Z" fill="black"/>
<path d="M117.75 323.8C117.31 324.24 116.86 324.68 116.41 325.11C115.64 325.84 114.81 326.57 113.87 327.09L108.91 314.03C110.36 313.36 111.82 312.71 113.3 312.08L117.75 323.8Z" fill="white"/>
<path d="M108.91 314.03L113.87 327.09C113.53 327.28 113.17 327.44 112.79 327.56C111.28 328.04 109.84 327.7 108.45 327.03C107.21 326.43 105.97 325.82 104.72 325.25C102.35 324.17 99.9401 323.16 97.6101 322.01L92.5901 322.49C90.2201 324.28 87.7301 325.91 85.3201 327.65C84.7701 328.04 84.2201 328.44 83.6901 328.85C83.4701 329.02 83.2501 329.19 83.0301 329.35L78.0801 316.32C78.1401 316.33 78.2001 316.35 78.2601 316.36C82.7101 317.42 87.1201 318.68 91.4701 320.12L98.2801 319.48C100.33 318.33 102.42 317.23 104.52 316.17C105.97 315.44 107.44 314.73 108.92 314.05L108.91 314.03Z" fill="black"/>
<path d="M121.68 319.83C121.03 320.5 120.38 321.16 119.73 321.82L115.66 311.1C116.44 310.78 117.23 310.47 118.02 310.16L121.69 319.83H121.68Z" fill="white"/>
<path d="M115.651 311.1L119.721 321.82C119.071 322.48 118.411 323.15 117.761 323.8L113.311 312.08C114.091 311.75 114.871 311.42 115.651 311.1Z" fill="black"/>
<path d="M133.77 306.46C133.77 306.62 133.71 306.79 133.56 306.95C131.19 309.65 128.78 312.32 126.33 314.95C124.8 316.59 123.24 318.22 121.68 319.83L118.01 310.16C118.14 310.11 118.26 310.06 118.39 310.01C123.07 308.21 127.83 306.64 132.67 305.31C133.13 305.18 133.61 305.34 133.79 305.81C133.87 306.01 133.86 306.25 133.77 306.45V306.46Z" fill="black"/>
<path d="M31.2 374.81L14.44 371.08C5.17999 369.02 -0.650006 359.84 1.40999 350.59C3.46999 341.33 12.65 335.5 21.9 337.56L38.66 341.29" fill="white"/>
<path d="M31.2 374.81L14.44 371.08C5.17999 369.02 -0.650006 359.84 1.40999 350.59C3.46999 341.33 12.65 335.5 21.9 337.56L38.66 341.29" stroke="#6861FF" stroke-width="2.01" stroke-miterlimit="10"/>
<path d="M167.69 351.29L183.84 345.89C192.76 342.91 197.57 333.26 194.59 324.35C191.61 315.43 181.96 310.62 173.05 313.6L156.9 319" fill="white"/>
<path d="M167.69 351.29L183.84 345.89C192.76 342.91 197.57 333.26 194.59 324.35C191.61 315.43 181.96 310.62 173.05 313.6L156.9 319" stroke="#6861FF" stroke-width="1.8" stroke-miterlimit="10"/>
<path d="M84.785 272.123L29.2236 277.385L29.3735 278.968L84.9349 273.706L84.785 272.123Z" fill="#FFD55F"/>
<path d="M154.6 265.191L99.0391 270.453L99.189 272.036L154.75 266.774L154.6 265.191Z" fill="#FFD55F"/>
<path d="M66.8403 273.55C64.2603 267.2 60.8103 261.23 56.5803 255.83C56.0103 255.11 54.8403 255.94 55.4103 256.67C59.5603 261.97 62.9603 267.82 65.4903 274.06C65.8403 274.91 67.1803 274.41 66.8303 273.55H66.8403Z" fill="black"/>
<path d="M58.4104 260.29C57.8604 260.81 57.4404 261.43 57.0304 262.06C56.5504 262.82 56.0704 263.59 55.5904 264.35C54.6404 265.87 53.6804 267.38 52.7304 268.9C52.5204 269.23 52.7604 269.7 53.0804 269.85C53.4704 270.03 53.8304 269.83 54.0304 269.5C54.9604 268.03 55.8804 266.56 56.8104 265.08C57.6304 263.77 58.3804 262.27 59.5104 261.19C59.7904 260.92 59.6904 260.41 59.4104 260.18C59.0804 259.91 58.6804 260.01 58.4004 260.28L58.4104 260.29Z" fill="black"/>
<path d="M120.24 268.23C121.56 261.62 123.79 255.25 126.88 249.26C127.3 248.44 126 247.84 125.58 248.66C122.44 254.75 120.17 261.26 118.83 267.99C118.65 268.9 120.06 269.14 120.24 268.24V268.23Z" fill="black"/>
<path d="M123.69 254.48C125.01 255.32 126.02 256.66 127.08 257.79C128.27 259.06 129.45 260.33 130.64 261.61C130.9 261.89 131.3 262.02 131.64 261.77C131.92 261.57 132.07 261.05 131.8 260.77C130.58 259.46 129.36 258.15 128.14 256.84C127.55 256.2 126.95 255.56 126.36 254.93C125.82 254.36 125.28 253.8 124.61 253.38C124.28 253.17 123.87 253.15 123.6 253.48C123.38 253.75 123.37 254.28 123.7 254.49L123.69 254.48Z" fill="black"/>
<path d="M129.941 414.085L80.4131 418.776L80.563 420.359L130.091 415.668L129.941 414.085Z" fill="#6861FF"/>
<path d="M87.9401 333.75C87.4301 335.41 87.0201 337.4 88.3501 338.81C89.6801 340.22 91.4901 339.48 92.8701 338.51C96.6401 335.85 100.4 333.18 104.17 330.52C104.92 329.99 104.2 328.75 103.45 329.28C100.44 331.41 97.4401 333.53 94.4301 335.66C93.7101 336.17 92.9901 336.68 92.2701 337.19C91.6901 337.6 90.9001 338.28 90.1401 338.21C88.2301 338.03 88.9901 335.21 89.3201 334.14C89.5901 333.26 88.2101 332.88 87.9401 333.76V333.75Z" fill="black"/>
<path d="M174.08 359.19C158.29 382.82 130.93 384.37 100.44 387.26C73.4102 389.82 48.5802 388.15 29.2402 372.05L33.5602 417.62C33.8502 420.68 36.5702 422.93 39.6302 422.64L173.25 409.98C176.31 409.69 178.56 406.97 178.27 403.91L174.08 359.19Z" fill="#EAE6FF"/>
<path d="M215.68 270.34L214.04 286.51C213.98 287.09 214.25 287.66 214.73 287.98L228.22 296.86C229.38 297.62 229.04 299.41 227.68 299.72L211.87 303.24C211.3 303.37 210.84 303.8 210.69 304.37L206.37 320.05C206 321.4 204.2 321.64 203.5 320.44L195.37 306.45C195.08 305.95 194.53 305.65 193.95 305.68L177.79 306.49C176.4 306.56 175.63 304.92 176.55 303.87L187.34 291.7C187.73 291.26 187.84 290.64 187.64 290.1L181.98 274.92C181.49 273.62 182.81 272.36 184.08 272.91L198.88 279.38C199.41 279.61 200.03 279.53 200.49 279.16L213.15 268.97C214.24 268.1 215.83 268.96 215.69 270.35L215.68 270.34Z" fill="#FFE66C"/>
<path d="M100.26 89.13L109.35 99.89C109.68 100.28 110.19 100.45 110.69 100.34L124.38 97.28C125.56 97.02 126.47 98.31 125.84 99.33L118.48 111.31C118.21 111.74 118.21 112.29 118.47 112.72L125.63 124.86C126.25 125.9 125.31 127.17 124.14 126.88L110.5 123.52C110.01 123.4 109.49 123.56 109.16 123.94L99.8996 134.5C99.0996 135.41 97.6096 134.9 97.5196 133.69L96.4496 119.64C96.4096 119.13 96.0996 118.69 95.6296 118.49L82.7396 112.88C81.6296 112.4 81.6496 110.82 82.7596 110.36L95.7296 105.03C96.1996 104.84 96.5196 104.4 96.5696 103.89L97.8696 89.86C97.9796 88.66 99.4796 88.18 100.26 89.11V89.13Z" fill="#FFE66C"/>
<path d="M197.53 251.09L200.81 254.35C200.93 254.47 201.1 254.51 201.26 254.46L205.65 253.07C206.03 252.95 206.36 253.35 206.19 253.7L204.13 257.83C204.06 257.98 204.07 258.16 204.17 258.29L206.86 262.05C207.09 262.37 206.82 262.81 206.43 262.75L201.88 262.04C201.72 262.01 201.55 262.08 201.45 262.22L198.72 265.94C198.49 266.26 197.98 266.14 197.92 265.74L197.17 261.18C197.14 261.02 197.03 260.88 196.87 260.83L192.5 259.36C192.12 259.23 192.08 258.72 192.43 258.54L196.52 256.43C196.67 256.35 196.76 256.2 196.76 256.03L196.78 251.41C196.78 251.01 197.26 250.82 197.54 251.1L197.53 251.09Z" fill="#FFE66C"/>
<path d="M108.43 182.11C101.83 187.28 93.7901 190.77 84.8601 191.86C58.7301 195.07 34.9401 176.48 31.7401 150.35C28.7601 126.05 44.6301 103.78 67.8901 98.2C62.6701 108.26 60.3301 119.94 61.8201 132.04C64.9701 157.7 84.3601 177.4 108.43 182.1V182.11Z" fill="#EAEAEA"/>
<path d="M44.8722 169.484C45.8907 168.734 45.6732 166.709 44.3864 164.961C43.0996 163.213 41.2308 162.404 40.2123 163.154C39.1938 163.904 39.4113 165.928 40.6981 167.676C41.9849 169.424 43.8537 170.233 44.8722 169.484Z" fill="#B2B2B2"/>
<path d="M48.0102 175.42C48.7337 175.42 49.3202 174.834 49.3202 174.11C49.3202 173.387 48.7337 172.8 48.0102 172.8C47.2867 172.8 46.7002 173.387 46.7002 174.11C46.7002 174.834 47.2867 175.42 48.0102 175.42Z" fill="#B2B2B2"/>
<path d="M66.4203 185.43C67.1438 185.43 67.7304 184.843 67.7304 184.12C67.7304 183.397 67.1438 182.81 66.4203 182.81C65.6969 182.81 65.1104 183.397 65.1104 184.12C65.1104 184.843 65.6969 185.43 66.4203 185.43Z" fill="#B2B2B2"/>
<path d="M51.9804 171.65C53.4273 171.65 54.6003 170.477 54.6003 169.03C54.6003 167.583 53.4273 166.41 51.9804 166.41C50.5334 166.41 49.3604 167.583 49.3604 169.03C49.3604 170.477 50.5334 171.65 51.9804 171.65Z" fill="#B2B2B2"/>
<path d="M62.4879 182.167C63.5896 180.736 62.9749 178.415 61.1149 176.984C59.255 175.552 56.8542 175.551 55.7525 176.982C54.6509 178.413 55.2656 180.734 57.1255 182.166C58.9854 183.598 61.3862 183.598 62.4879 182.167Z" fill="#B2B2B2"/>
<path d="M296.06 136.79C281.45 137.62 280.78 138.29 279.95 152.9C279.12 138.29 278.45 137.62 263.84 136.79C278.45 135.96 279.12 135.29 279.95 120.68C280.78 135.29 281.45 135.96 296.06 136.79Z" fill="#EAE9FF"/>
<path d="M293.52 174.11C288.63 174.39 288.41 174.61 288.13 179.5C287.85 174.61 287.63 174.39 282.74 174.11C287.63 173.83 287.85 173.61 288.13 168.72C288.41 173.61 288.63 173.83 293.52 174.11Z" fill="#EAE9FF"/>
<path d="M240.29 268.45C231.05 268.97 230.63 269.4 230.1 278.64C229.58 269.4 229.15 268.98 219.91 268.45C229.15 267.93 229.57 267.5 230.1 258.26C230.62 267.5 231.05 267.92 240.29 268.45Z" fill="#EAE9FF"/>
<path d="M91.6 125.51C87.22 125.76 87.02 125.96 86.78 130.33C86.53 125.95 86.33 125.75 81.96 125.51C86.34 125.26 86.54 125.06 86.78 120.69C87.03 125.07 87.23 125.27 91.6 125.51Z" fill="#EAE9FF"/>
<path d="M139.88 94.69C134.4 95 134.14 95.25 133.83 100.74C133.52 95.26 133.27 95 127.78 94.69C133.26 94.38 133.52 94.13 133.83 88.64C134.14 94.12 134.39 94.38 139.88 94.69Z" fill="#EAE9FF"/>
<path d="M290.75 155.08C292.197 155.08 293.37 153.907 293.37 152.46C293.37 151.013 292.197 149.84 290.75 149.84C289.303 149.84 288.13 151.013 288.13 152.46C288.13 153.907 289.303 155.08 290.75 155.08Z" fill="#EAE9FF"/>
<path d="M278.64 165.19C279.364 165.19 279.95 164.603 279.95 163.88C279.95 163.157 279.364 162.57 278.64 162.57C277.917 162.57 277.33 163.157 277.33 163.88C277.33 164.603 277.917 165.19 278.64 165.19Z" fill="#EAE9FF"/>
</svg>
