<svg width="20" height="18" viewBox="0 0 20 18" fill="none" xmlns="http://www.w3.org/2000/svg">
<path id="Vector" d="M7 16.0869V10.0869C7 9.8217 6.89464 9.56734 6.70711 9.37981C6.51957 9.19227 6.26522 9.08691 6 9.08691H2C1.73478 9.08691 1.48043 9.19227 1.29289 9.37981C1.10536 9.56734 1 9.8217 1 10.0869V16.0869C1 16.3521 1.10536 16.6065 1.29289 16.794C1.48043 16.9816 1.73478 17.0869 2 17.0869M7 16.0869C7 16.3521 6.89464 16.6065 6.70711 16.794C6.51957 16.9816 6.26522 17.0869 6 17.0869H2M7 16.0869C7 16.3521 7.10536 16.6065 7.29289 16.794C7.48043 16.9816 7.73478 17.0869 8 17.0869H12C12.2652 17.0869 12.5196 16.9816 12.7071 16.794C12.8946 16.6065 13 16.3521 13 16.0869M7 16.0869V6.08691C7 5.8217 7.10536 5.56734 7.29289 5.37981C7.48043 5.19227 7.73478 5.08691 8 5.08691H12C12.2652 5.08691 12.5196 5.19227 12.7071 5.37981C12.8946 5.56734 13 5.8217 13 6.08691V16.0869M2 17.0869H16M13 16.0869C13 16.3521 13.1054 16.6065 13.2929 16.794C13.4804 16.9816 13.7348 17.0869 14 17.0869H18C18.2652 17.0869 18.5196 16.9816 18.7071 16.794C18.8946 16.6065 19 16.3521 19 16.0869V2.08691C19 1.8217 18.8946 1.56734 18.7071 1.37981C18.5196 1.19227 18.2652 1.08691 18 1.08691H14C13.7348 1.08691 13.4804 1.19227 13.2929 1.37981C13.1054 1.56734 13 1.8217 13 2.08691V16.0869Z" stroke="black" stroke-width="1.5" stroke-linecap="round" stroke-linejoin="round"/>
</svg>
