<svg width="18" height="19" viewBox="0 0 18 19" fill="none" xmlns="http://www.w3.org/2000/svg">
<g clip-path="url(#clip0_2952_4513)">
<path d="M9 6.0874C8.40666 6.0874 7.82664 6.26335 7.33329 6.59299C6.83994 6.92264 6.45543 7.39117 6.22836 7.93935C6.0013 8.48753 5.94189 9.09073 6.05765 9.67267C6.1734 10.2546 6.45912 10.7892 6.87868 11.2087C7.29824 11.6283 7.83279 11.914 8.41473 12.0298C8.99667 12.1455 9.59987 12.0861 10.1481 11.859C10.6962 11.632 11.1648 11.2475 11.4944 10.7541C11.8241 10.2608 12 9.68075 12 9.0874C12 8.29175 11.6839 7.52869 11.1213 6.96608C10.5587 6.40347 9.79565 6.0874 9 6.0874V6.0874ZM9 10.5874C8.70333 10.5874 8.41332 10.4994 8.16665 10.3346C7.91997 10.1698 7.72771 9.93552 7.61418 9.66143C7.50065 9.38734 7.47095 9.08574 7.52882 8.79477C7.5867 8.5038 7.72956 8.23652 7.93934 8.02674C8.14912 7.81696 8.41639 7.6741 8.70737 7.61622C8.99834 7.55835 9.29994 7.58805 9.57403 7.70158C9.84812 7.81511 10.0824 8.00737 10.2472 8.25405C10.412 8.50072 10.5 8.79073 10.5 9.0874C10.5 9.48523 10.342 9.86676 10.0607 10.1481C9.77936 10.4294 9.39783 10.5874 9 10.5874Z" fill="#00164A"/>
<path d="M15.9704 10.5119L15.6374 10.3199C15.7873 9.50425 15.7873 8.66808 15.6374 7.85241L15.9704 7.66041C16.2264 7.51268 16.4509 7.31595 16.6309 7.08146C16.811 6.84697 16.9431 6.57932 17.0197 6.29378C17.0963 6.00824 17.1159 5.7104 17.0774 5.41728C17.0389 5.12416 16.9431 4.84149 16.7954 4.58541C16.6476 4.32934 16.4509 4.10487 16.2164 3.92482C15.9819 3.74477 15.7143 3.61267 15.4287 3.53606C15.1432 3.45945 14.8453 3.43984 14.5522 3.47833C14.2591 3.51682 13.9764 3.61268 13.7204 3.76041L13.3866 3.95316C12.7563 3.4146 12.0318 2.9971 11.2498 2.72166V2.33691C11.2498 1.74018 11.0128 1.16788 10.5908 0.745924C10.1689 0.323967 9.59659 0.0869141 8.99985 0.0869141C8.40311 0.0869141 7.83082 0.323967 7.40886 0.745924C6.9869 1.16788 6.74985 1.74018 6.74985 2.33691V2.72166C5.96789 2.99809 5.24374 3.41661 4.61385 3.95616L4.2786 3.76191C3.76143 3.46355 3.14691 3.38284 2.57024 3.53756C1.99356 3.69228 1.50197 4.06974 1.2036 4.58691C0.905231 5.10409 0.824528 5.7186 0.979246 6.29528C1.13396 6.87195 1.51143 7.36355 2.0286 7.66191L2.3616 7.85391C2.21168 8.66958 2.21168 9.50575 2.3616 10.3214L2.0286 10.5134C1.51143 10.8118 1.13396 11.3034 0.979246 11.8801C0.824528 12.4567 0.905231 13.0712 1.2036 13.5884C1.50197 14.1056 1.99356 14.4831 2.57024 14.6378C3.14691 14.7925 3.76143 14.7118 4.2786 14.4134L4.61235 14.2207C5.24292 14.7593 5.96758 15.1768 6.74985 15.4522V15.8369C6.74985 16.4337 6.9869 17.0059 7.40886 17.4279C7.83082 17.8499 8.40311 18.0869 8.99985 18.0869C9.59659 18.0869 10.1689 17.8499 10.5908 17.4279C11.0128 17.0059 11.2498 16.4337 11.2498 15.8369V15.4522C12.0318 15.1757 12.756 14.7572 13.3858 14.2177L13.7211 14.4112C14.2383 14.7095 14.8528 14.7902 15.4295 14.6355C16.0061 14.4808 16.4977 14.1033 16.7961 13.5862C17.0945 13.069 17.1752 12.4545 17.0205 11.8778C16.8657 11.3011 16.4883 10.8095 15.9711 10.5112L15.9704 10.5119ZM14.0594 7.67991C14.3133 8.60021 14.3133 9.57212 14.0594 10.4924C14.015 10.6526 14.0251 10.823 14.0881 10.9768C14.1511 11.1306 14.2634 11.2591 14.4073 11.3422L15.2204 11.8117C15.3927 11.9111 15.5185 12.075 15.57 12.2672C15.6216 12.4594 15.5947 12.6642 15.4952 12.8365C15.3958 13.0089 15.2319 13.1347 15.0397 13.1862C14.8475 13.2378 14.6427 13.2109 14.4704 13.1114L13.6558 12.6404C13.5118 12.557 13.344 12.5238 13.179 12.5462C13.014 12.5686 12.8612 12.6453 12.7446 12.7642C12.077 13.4457 11.236 13.9319 10.3123 14.1704C10.1511 14.2119 10.0083 14.3058 9.90629 14.4374C9.80432 14.5689 9.74902 14.7307 9.7491 14.8972V15.8369C9.7491 16.0358 9.67008 16.2266 9.52943 16.3672C9.38878 16.5079 9.19801 16.5869 8.9991 16.5869C8.80019 16.5869 8.60942 16.5079 8.46877 16.3672C8.32812 16.2266 8.2491 16.0358 8.2491 15.8369V14.8979C8.24918 14.7314 8.19388 14.5697 8.0919 14.4381C7.98993 14.3065 7.84707 14.2126 7.68585 14.1712C6.76211 13.9317 5.92135 13.4444 5.25435 12.7619C5.13774 12.6431 4.9849 12.5664 4.81992 12.544C4.65493 12.5216 4.48718 12.5547 4.3431 12.6382L3.5301 13.1084C3.44477 13.1584 3.35039 13.1911 3.25239 13.2045C3.15439 13.2179 3.05471 13.2118 2.95909 13.1865C2.86346 13.1612 2.77379 13.1173 2.69521 13.0572C2.61664 12.9971 2.55073 12.9221 2.50128 12.8364C2.45182 12.7508 2.4198 12.6562 2.40705 12.5581C2.3943 12.46 2.40108 12.3604 2.42699 12.2649C2.45291 12.1694 2.49745 12.0801 2.55805 12.0019C2.61865 11.9237 2.69411 11.8583 2.7801 11.8094L3.5931 11.3399C3.73706 11.2569 3.84936 11.1283 3.91234 10.9745C3.97533 10.8207 3.98545 10.6503 3.9411 10.4902C3.68712 9.56987 3.68712 8.59796 3.9411 7.67766C3.98465 7.51783 3.97405 7.34806 3.91096 7.19488C3.84787 7.0417 3.73584 6.91372 3.59235 6.83091L2.77935 6.36141C2.60699 6.26196 2.4812 6.09811 2.42965 5.90591C2.3781 5.7137 2.40502 5.5089 2.50447 5.33654C2.60393 5.16418 2.76778 5.03839 2.95998 4.98684C3.15218 4.93529 3.35699 4.96221 3.52935 5.06166L4.34385 5.53266C4.48753 5.6163 4.65493 5.64982 4.81974 5.62797C4.98455 5.60611 5.13743 5.53011 5.25435 5.41191C5.92191 4.73042 6.76292 4.24418 7.6866 4.00566C7.84832 3.96409 7.99155 3.86973 8.09358 3.73754C8.1956 3.60535 8.2506 3.4429 8.24985 3.27591V2.33691C8.24985 2.138 8.32887 1.94724 8.46952 1.80658C8.61017 1.66593 8.80094 1.58691 8.99985 1.58691C9.19876 1.58691 9.38953 1.66593 9.53018 1.80658C9.67083 1.94724 9.74985 2.138 9.74985 2.33691V3.27591C9.74977 3.44238 9.80507 3.60415 9.90705 3.73572C10.009 3.8673 10.1519 3.96121 10.3131 4.00266C11.2371 4.24203 12.0781 4.72933 12.7453 5.41191C12.862 5.53076 13.0148 5.60743 13.1798 5.62984C13.3448 5.65224 13.5125 5.61911 13.6566 5.53566L14.4696 5.06541C14.5549 5.01539 14.6493 4.98274 14.7473 4.96934C14.8453 4.95594 14.945 4.96206 15.0406 4.98734C15.1362 5.01262 15.2259 5.05657 15.3045 5.11665C15.3831 5.17673 15.449 5.25176 15.4984 5.33742C15.5479 5.42308 15.5799 5.51767 15.5927 5.61576C15.6054 5.71384 15.5986 5.81348 15.5727 5.90893C15.5468 6.00439 15.5023 6.09377 15.4417 6.17194C15.381 6.25012 15.3056 6.31553 15.2196 6.36441L14.4066 6.83391C14.2634 6.91694 14.1517 7.04502 14.0889 7.19818C14.026 7.35135 14.0157 7.52099 14.0594 7.68066V7.67991Z" fill="#00164A"/>
</g>
</svg>
