<svg width="18" height="19" viewBox="0 0 18 19" fill="none" xmlns="http://www.w3.org/2000/svg">
<path d="M15.7495 9.40491V8.33691C15.7495 6.5467 15.0384 4.82981 13.7725 3.56394C12.5066 2.29807 10.7897 1.58691 8.99954 1.58691C7.20932 1.58691 5.49243 2.29807 4.22656 3.56394C2.96069 4.82981 2.24954 6.5467 2.24954 8.33691V9.40491C1.4629 9.75129 0.819136 10.3574 0.426002 11.1217C0.0328677 11.886 -0.0857686 12.7622 0.0899539 13.6036C0.265676 14.445 0.725091 15.2004 1.39129 15.7435C2.05749 16.2866 2.89003 16.5843 3.74954 16.5869C4.14736 16.5869 4.52889 16.4289 4.8102 16.1476C5.0915 15.8663 5.24954 15.4847 5.24954 15.0869V10.5869C5.24954 10.1891 5.0915 9.80756 4.8102 9.52625C4.52889 9.24495 4.14736 9.08691 3.74954 9.08691V8.33691C3.74954 6.94453 4.30266 5.60917 5.28722 4.6246C6.27179 3.64004 7.60715 3.08691 8.99954 3.08691C10.3919 3.08691 11.7273 3.64004 12.7118 4.6246C13.6964 5.60917 14.2495 6.94453 14.2495 8.33691V9.08691C13.8517 9.08691 13.4702 9.24495 13.1889 9.52625C12.9076 9.80756 12.7495 10.1891 12.7495 10.5869V15.0869H10.4995C10.3006 15.0869 10.1099 15.1659 9.96921 15.3066C9.82855 15.4472 9.74954 15.638 9.74954 15.8369C9.74954 16.0358 9.82855 16.2266 9.96921 16.3672C10.1099 16.5079 10.3006 16.5869 10.4995 16.5869H14.2495C15.109 16.5843 15.9416 16.2866 16.6078 15.7435C17.274 15.2004 17.7334 14.445 17.9091 13.6036C18.0848 12.7622 17.9662 11.886 17.5731 11.1217C17.1799 10.3574 16.5362 9.75129 15.7495 9.40491ZM3.74954 15.0869C3.1528 15.0869 2.5805 14.8499 2.15855 14.4279C1.73659 14.0059 1.49954 13.4337 1.49954 12.8369C1.49954 12.2402 1.73659 11.6679 2.15855 11.2459C2.5805 10.824 3.1528 10.5869 3.74954 10.5869V15.0869ZM14.2495 15.0869V10.5869C14.8463 10.5869 15.4186 10.824 15.8405 11.2459C16.2625 11.6679 16.4995 12.2402 16.4995 12.8369C16.4995 13.4337 16.2625 14.0059 15.8405 14.4279C15.4186 14.8499 14.8463 15.0869 14.2495 15.0869Z" fill="#00164A"/>
</svg>
