<svg width="25" height="24" viewBox="0 0 25 24" fill="none" xmlns="http://www.w3.org/2000/svg">
<g id="icon">
<path id="Vector" d="M17.25 2C17.25 2.50986 17.25 2.76479 17.3177 3.00236C17.3549 3.13286 17.407 3.25864 17.473 3.37723C17.5931 3.59309 17.7734 3.77336 18.1339 4.13388L20.1161 6.11612C20.4766 6.47664 20.6569 6.65691 20.8728 6.77701C20.9914 6.84298 21.1171 6.89509 21.2476 6.93228C21.4852 7 21.7401 7 22.25 7" stroke="#FF8533" stroke-width="1.5" stroke-linecap="round" stroke-linejoin="round"/>
<path id="Vector_2" d="M11.9431 7L7.01525 11.9278C5.95048 12.9926 5.4181 13.525 5.2912 14.163C5.23627 14.4391 5.23627 14.7234 5.2912 14.9996C5.4181 15.6376 5.95049 16.17 7.01525 17.2348C8.08001 18.2995 8.6124 18.8319 9.25037 18.9588" stroke="#FF8533" stroke-width="1.5" stroke-linecap="round" stroke-linejoin="round"/>
<path id="Vector_3" d="M11.25 6L17.25 12" stroke="#FF8533" stroke-width="1.5" stroke-linecap="round" stroke-linejoin="round"/>
<path id="Vector_4" d="M8.25 18.6372L7.08054 19.4725C6.60987 19.8087 6.37454 19.9768 6.11646 19.9971C6.01637 20.005 5.91567 19.9967 5.81824 19.9724C5.56702 19.91 5.36252 19.7055 4.95352 19.2965C4.54453 18.8875 4.34003 18.683 4.27756 18.4318C4.25333 18.3343 4.245 18.2336 4.25288 18.1335C4.2732 17.8755 4.4413 17.6401 4.77749 17.1695L5.61282 16" stroke="#FF8533" stroke-width="1.5" stroke-linecap="round" stroke-linejoin="round"/>
<path id="Vector_5" d="M13.75 8L18.75 4M16.25 10.5L20.25 5.5" stroke="#FF8533" stroke-width="1.5" stroke-linejoin="round"/>
<path id="Vector_6" d="M4.75 19.5L2.25 22" stroke="#FF8533" stroke-width="1.5" stroke-linecap="round" stroke-linejoin="round"/>
<path id="Vector_7" d="M13.65 18L14.2306 18.5806C14.5202 18.8702 14.665 19.015 14.8412 19.007C15.0175 18.999 15.1486 18.8417 15.4108 18.527L16.85 16.8M19.25 18C19.25 20.2091 17.4591 22 15.25 22C13.0409 22 11.25 20.2091 11.25 18C11.25 15.7909 13.0409 14 15.25 14C17.4591 14 19.25 15.7909 19.25 18Z" stroke="#FF8533" stroke-width="1.5" stroke-linecap="round" stroke-linejoin="round"/>
</g>
</svg>
