<svg width="25" height="25" viewBox="0 0 25 25" fill="none" xmlns="http://www.w3.org/2000/svg">
<g id="icon">
<path id="Vector" d="M21 17.4286V10.5C21 6.72876 21 4.84315 19.8284 3.67157C18.6569 2.5 16.7712 2.5 13 2.5H12C8.22876 2.5 6.34315 2.5 5.17157 3.67157C4 4.84315 4 6.72876 4 10.5V20" stroke="#FF8533" stroke-width="1.5" stroke-linecap="round"/>
<path id="Vector_2" d="M21 17.5H6.5C5.11929 17.5 4 18.6193 4 20C4 21.3807 5.11929 22.5 6.5 22.5H21" stroke="#FF8533" stroke-width="1.5" stroke-linecap="round"/>
<path id="Vector_3" d="M21 22.5C19.6193 22.5 18.5 21.3807 18.5 20C18.5 18.6193 19.6193 17.5 21 17.5" stroke="#FF8533" stroke-width="1.5" stroke-linecap="round"/>
<path id="Vector_4" d="M15.5 7.5H9.5" stroke="#FF8533" stroke-width="1.5" stroke-linecap="round" stroke-linejoin="round"/>
<path id="Vector_5" d="M12.5 11.5H9.5" stroke="#FF8533" stroke-width="1.5" stroke-linecap="round" stroke-linejoin="round"/>
</g>
</svg>
