<svg width="25" height="25" viewBox="0 0 25 25" fill="none" xmlns="http://www.w3.org/2000/svg">
<g id="icon">
<path id="Vector" d="M7.75 6.5V5.5C7.75 4.08579 7.75 3.37868 8.18934 2.93934C8.62868 2.5 9.33579 2.5 10.75 2.5H14.75C16.1642 2.5 16.8713 2.5 17.3107 2.93934C17.75 3.37868 17.75 4.08579 17.75 5.5V6.5C17.75 7.91421 17.75 8.62132 17.3107 9.06066C16.8713 9.5 16.1642 9.5 14.75 9.5H13.75L10.75 11.5V9.5C9.33579 9.5 8.62868 9.5 8.18934 9.06066C7.75 8.62132 7.75 7.91421 7.75 6.5Z" stroke="#FF8533" stroke-width="1.5" stroke-linejoin="round"/>
<path id="Vector_2" d="M4.34003 19.2408C3.71125 19.662 2.06261 20.5221 3.06674 21.5983C3.55725 22.124 4.10355 22.5 4.79039 22.5H6.75H8.70961C9.39645 22.5 9.94275 22.124 10.4333 21.5983C11.4374 20.5221 9.78875 19.662 9.15997 19.2408C7.68547 18.2531 5.81453 18.2531 4.34003 19.2408Z" stroke="#FF8533" stroke-width="1.5"/>
<path id="Vector_3" d="M16.34 19.2408C15.7112 19.662 14.0626 20.5221 15.0667 21.5983C15.5572 22.124 16.1036 22.5 16.7904 22.5H18.75H20.7096C21.3964 22.5 21.9428 22.124 22.4333 21.5983C23.4374 20.5221 21.7888 19.662 21.16 19.2408C19.6855 18.2531 17.8145 18.2531 16.34 19.2408Z" stroke="#FF8533" stroke-width="1.5"/>
<path id="Vector_4" d="M8.75 14C8.75 15.1046 7.85457 16 6.75 16C5.64543 16 4.75 15.1046 4.75 14C4.75 12.8954 5.64543 12 6.75 12C7.85457 12 8.75 12.8954 8.75 14Z" stroke="#FF8533" stroke-width="1.5"/>
<path id="Vector_5" d="M20.75 14C20.75 15.1046 19.8546 16 18.75 16C17.6454 16 16.75 15.1046 16.75 14C16.75 12.8954 17.6454 12 18.75 12C19.8546 12 20.75 12.8954 20.75 14Z" stroke="#FF8533" stroke-width="1.5"/>
</g>
</svg>
