<svg width="169" height="192" viewBox="0 0 169 192" fill="none" xmlns="http://www.w3.org/2000/svg">
<g opacity="0.5">
<rect x="0.5" y="0.5" width="168" height="191" fill="#ABABAB"/>
<rect x="0.5" y="0.5" width="168" height="191" stroke="black"/>
<path d="M73.333 97.6663C73.333 96.7823 73.6842 95.9344 74.3093 95.3093C74.9344 94.6842 75.7823 94.333 76.6663 94.333H93.333C94.2171 94.333 95.0649 94.6842 95.69 95.3093C96.3152 95.9344 96.6663 96.7823 96.6663 97.6663V107.666C96.6663 108.55 96.3152 109.398 95.69 110.023C95.0649 110.648 94.2171 111 93.333 111H76.6663C75.7823 111 74.9344 110.648 74.3093 110.023C73.6842 109.398 73.333 108.55 73.333 107.666V97.6663Z" stroke="black" stroke-width="2" stroke-linecap="round" stroke-linejoin="round"/>
<path d="M78.333 94.3333V87.6667C78.333 85.8986 79.0354 84.2029 80.2856 82.9526C81.5359 81.7024 83.2316 81 84.9997 81C86.7678 81 88.4635 81.7024 89.7137 82.9526C90.964 84.2029 91.6663 85.8986 91.6663 87.6667V94.3333M83.333 102.667C83.333 103.109 83.5086 103.533 83.8212 103.845C84.1337 104.158 84.5576 104.333 84.9997 104.333C85.4417 104.333 85.8656 104.158 86.1782 103.845C86.4907 103.533 86.6663 103.109 86.6663 102.667C86.6663 102.225 86.4907 101.801 86.1782 101.488C85.8656 101.176 85.4417 101 84.9997 101C84.5576 101 84.1337 101.176 83.8212 101.488C83.5086 101.801 83.333 102.225 83.333 102.667Z" stroke="black" stroke-width="2" stroke-linecap="round" stroke-linejoin="round"/>
</g>
</svg>
