<svg width="24" height="25" viewBox="0 0 24 25" fill="none" xmlns="http://www.w3.org/2000/svg">
<g id="trailing-icon">
<path id="Vector" d="M4.35218 7.85218C4.57776 7.62668 4.88366 7.5 5.20262 7.5C5.52157 7.5 5.82747 7.62668 6.05305 7.85218L12.0073 13.8064L17.9615 7.85218C18.1883 7.63307 18.4922 7.51183 18.8076 7.51457C19.123 7.51731 19.4247 7.64382 19.6477 7.86684C19.8707 8.08986 19.9972 8.39155 20 8.70694C20.0027 9.02233 19.8815 9.32618 19.6623 9.55305L12.8577 16.3577C12.6321 16.5832 12.3262 16.7099 12.0073 16.7099C11.6883 16.7099 11.3824 16.5832 11.1568 16.3577L4.35218 9.55305C4.12668 9.32747 4 9.02157 4 8.70262C4 8.38366 4.12668 8.07776 4.35218 7.85218Z" fill="#2E2E2E"/>
</g>
</svg>
