<svg width="24" height="24" viewBox="0 0 24 24" fill="none" xmlns="http://www.w3.org/2000/svg">
<g id="trailing-icon">
<path id="Vector" d="M4.35218 15.8577C4.57776 16.0832 4.88366 16.2099 5.20262 16.2099C5.52157 16.2099 5.82747 16.0832 6.05305 15.8577L12.0073 9.90348L17.9615 15.8577C18.1883 16.0768 18.4922 16.198 18.8076 16.1953C19.123 16.1926 19.4247 16.0661 19.6477 15.843C19.8707 15.62 19.9972 15.3183 20 15.0029C20.0027 14.6875 19.8815 14.3837 19.6623 14.1568L12.8577 7.35218C12.6321 7.12668 12.3262 7 12.0073 7C11.6883 7 11.3824 7.12668 11.1568 7.35218L4.35218 14.1568C4.12668 14.3824 4 14.6883 4 15.0073C4 15.3262 4.12668 15.6321 4.35218 15.8577Z" fill="#2E2E2E"/>
</g>
</svg>
