<svg width="321" height="171" viewBox="0 0 321 171" fill="none" xmlns="http://www.w3.org/2000/svg">
<path d="M58.6873 170.336C84.1392 170.336 104.772 165.628 104.772 159.822C104.772 154.015 84.1392 149.308 58.6873 149.308C33.2354 149.308 12.6025 154.015 12.6025 159.822C12.6025 165.628 33.2354 170.336 58.6873 170.336Z" fill="#F8D45B"/>
<path d="M58.7101 143.65H43.2568V154.416H58.7101V143.65Z" fill="white"/>
<path d="M43.4629 151.095C47.3835 152.126 51.6939 151.713 55.477 149.606C56.8298 148.85 58.022 147.934 59.0537 146.88C60.0396 147.865 61.186 148.736 62.4929 149.469C65.9321 151.37 69.8069 151.897 73.4065 151.187L43.4629 151.095Z" fill="white"/>
<path d="M73.4071 146.926C77.6946 146.125 81.5923 143.697 83.9539 139.917C84.7334 138.657 85.2837 137.329 85.6276 136C87.0033 136.367 88.4477 136.573 89.938 136.573C98.6047 136.573 105.621 130.045 105.621 122.005C105.621 120.562 105.391 119.142 104.956 117.836C106.331 117.515 107.707 117.011 108.991 116.324C116.488 112.316 119.056 103.405 114.723 96.4419C113.943 95.1821 112.98 94.0826 111.903 93.1206C112.935 92.2043 113.829 91.1507 114.585 89.9367C118.919 82.9962 116.328 74.0859 108.808 70.0774C107.455 69.3444 106.033 68.8405 104.566 68.5198C104.956 67.26 105.162 65.9085 105.162 64.5113C105.162 56.4943 98.1232 49.989 89.4336 49.989C87.8745 49.989 86.3613 50.1952 84.9168 50.6075C84.5729 49.3248 84.0227 48.0649 83.289 46.8738C78.9556 39.9334 69.3489 37.5512 61.8286 41.5597C60.4759 42.2927 59.2836 43.1631 58.2519 44.171C57.266 43.2318 56.1196 42.3843 54.8127 41.6743C47.3153 37.6658 37.7086 40.0479 33.3753 47.0113C32.5957 48.2711 32.0455 49.5996 31.7015 50.9282C30.3259 50.5617 28.8814 50.3555 27.3911 50.3555C18.7244 50.3555 11.7086 56.8837 11.7086 64.9236C11.7086 66.3667 11.9378 67.7868 12.3735 69.0924C10.9978 69.4131 9.62213 69.917 8.33817 70.6042C0.840801 74.6127 -1.72711 83.5231 2.60624 90.4864C3.38578 91.7462 4.34875 92.8457 5.42636 93.8078C4.39461 94.724 3.50042 95.7776 2.74381 96.9916C-1.58954 103.932 1.0013 112.842 8.5216 116.851C9.87434 117.584 11.2959 118.088 12.7632 118.409C12.3735 119.668 12.1671 121.02 12.1671 122.417C12.1671 130.434 19.2059 136.939 27.8955 136.939C29.4546 136.939 30.9679 136.733 32.4123 136.321C32.7562 137.604 33.3065 138.863 34.0402 140.054C36.1954 143.49 39.6346 145.827 43.4635 146.789L73.4071 146.88V146.926Z" fill="white"/>
<path d="M31.3343 52.4168C31.3343 52.4168 24.7081 42.0634 24.2037 41.2617C19.9163 34.3213 16.0415 26.3042 16.0873 17.9665C16.0873 16.6609 16.179 15.3324 16.3395 14.0268C16.6605 11.2781 17.3483 8.50646 18.8157 6.14717C20.2831 3.81078 22.5071 1.90961 25.0979 0.855946C27.2531 -0.0373786 29.7523 -0.335149 31.9304 0.466552C33.3061 0.970479 34.4754 2.00124 35.1632 3.26106C35.7364 4.33763 36.2408 5.71197 36.5847 6.90306C37.5935 10.6138 38.4877 14.3474 39.4507 18.0582C41.3766 25.5254 43.3026 32.9698 45.1826 40.4371C45.2514 40.712 45.3202 40.9639 45.389 41.2388L31.3343 52.4397V52.4168Z" fill="white"/>
<path d="M73.0169 147.704L72.9481 151.759C72.2832 152.011 71.5954 152.217 70.9075 152.4C68.7294 152.973 66.4366 153.362 64.1438 153.385C62.9745 153.385 61.8052 153.316 60.6588 153.087C59.971 152.95 59.2832 152.744 58.71 152.4V142.757L65.7488 147.475L73.0169 147.659V147.704Z" fill="#FCA735"/>
<path d="M47.2 148.14C45.7556 148.14 44.2882 147.957 42.8438 147.568L43.1877 146.285C47.1083 147.316 51.1894 146.812 54.7203 144.865C55.9813 144.155 57.1277 143.284 58.1366 142.253L58.618 141.772L59.0995 142.253C60.0625 143.216 61.1859 144.063 62.3782 144.727C65.6569 146.56 69.1877 147.064 72.8791 146.285L73.1542 147.591C69.1419 148.461 65.29 147.888 61.7362 145.896C60.6128 145.277 59.581 144.521 58.641 143.651C57.6551 144.567 56.5775 145.369 55.3852 146.033C52.8632 147.43 50.066 148.163 47.2229 148.163L47.2 148.14Z" fill="#FCA735"/>
<path d="M53.896 81.9656C52.6349 82.3321 51.7178 83.4545 51.5573 84.7602C51.3968 86.0658 52.0847 87.234 53.1852 87.8295C54.2857 88.4251 55.6843 88.4022 56.6931 87.5776C57.702 86.7529 58.1605 85.3786 57.8166 84.1188C57.679 83.592 56.739 83.5003 56.6473 84.1188C56.2805 86.6384 58.8483 88.7228 61.187 87.4401C63.5256 86.1574 63.0441 82.8819 60.6597 82.0344C59.926 81.7824 59.605 82.9506 60.3387 83.2025C61.7831 83.7065 61.8519 85.6993 60.5679 86.4094C59.284 87.1194 57.5873 85.9741 57.8166 84.4624H56.6473C57.1059 86.1345 55.3633 87.6463 53.8043 86.7988C53.1164 86.4094 52.6579 85.6993 52.7496 84.8976C52.8413 84.0959 53.4374 83.3858 54.217 83.1338C54.9965 82.8819 54.6526 81.7366 53.896 81.9656Z" fill="black"/>
<path d="M37.204 42.2469L34.2922 36.3601C34.017 35.7875 33.1687 36.2914 33.4438 36.8641L36.3557 42.7508C36.6308 43.3235 37.4791 42.8196 37.204 42.2469Z" fill="black"/>
<path d="M39.9562 91.723C43.0332 91.723 45.5276 89.231 45.5276 86.1569C45.5276 83.0829 43.0332 80.5908 39.9562 80.5908C36.8792 80.5908 34.3848 83.0829 34.3848 86.1569C34.3848 89.231 36.8792 91.723 39.9562 91.723Z" fill="#FFD1E9"/>
<path d="M74.714 90.5775C77.791 90.5775 80.2855 88.0855 80.2855 85.0114C80.2855 81.9374 77.791 79.4453 74.714 79.4453C71.637 79.4453 69.1426 81.9374 69.1426 85.0114C69.1426 88.0855 71.637 90.5775 74.714 90.5775Z" fill="#FFD1E9"/>
<path d="M33.3299 34.2069V33.9549C33.3299 33.9549 33.3299 33.7946 33.284 33.7259C33.2611 33.6571 33.2153 33.5884 33.1465 33.5197C33.1006 33.451 33.0318 33.4281 32.9401 33.3822C32.8713 33.3364 32.7796 33.3364 32.7108 33.3364H32.5504C32.5504 33.3364 32.3669 33.451 32.2752 33.5197L32.1835 33.6342C32.1835 33.6342 32.0918 33.8404 32.0918 33.9549V34.2069C32.0918 34.2069 32.0918 34.3672 32.1377 34.4359C32.1606 34.5046 32.2064 34.5734 32.2752 34.6421C32.3211 34.7108 32.3899 34.7337 32.4816 34.7795C32.5504 34.8253 32.6421 34.8253 32.7108 34.8253H32.8713C32.8713 34.8253 33.0548 34.7108 33.1465 34.6421L33.2382 34.5275C33.2382 34.5275 33.3299 34.3214 33.3299 34.2069Z" fill="black"/>
<path d="M32.2982 31.4808C31.083 29.259 30.0054 26.9913 29.0883 24.632C28.9966 24.3801 28.7673 24.2197 28.4922 24.2884C28.2629 24.3571 28.0566 24.6549 28.1483 24.884C29.1112 27.312 30.2118 29.6713 31.4728 31.9619C31.7708 32.5116 32.6192 32.0306 32.3211 31.4579L32.2982 31.4808Z" fill="black"/>
<path d="M88.7915 52.8063C91.5657 48.8895 94.2483 44.9268 96.9308 40.9641C101.379 34.3672 104.635 26.6022 104.451 18.4477C104.428 17.1192 104.314 15.7906 104.13 14.485C103.74 11.7134 102.984 8.94182 101.356 6.53672C99.7739 4.15452 97.3665 2.23043 94.5922 1.13096C92.2765 0.214728 89.6169 -0.151767 87.3241 0.627029C85.8797 1.10805 84.6416 2.11593 83.9308 3.37575C83.3347 4.45232 82.8073 5.82663 82.4864 6.99483C81.4546 10.6827 80.5834 14.4392 79.6204 18.15C77.6945 25.6172 75.7685 33.0616 73.8655 40.5289C73.7967 40.8038 73.728 41.0557 73.6592 41.3306L88.7686 52.8063H88.7915Z" fill="white"/>
<path d="M82.3029 42.7503C83.2659 40.7804 84.2518 38.8335 85.2147 36.8636C85.4899 36.2909 84.6415 35.787 84.3664 36.3596C83.4034 38.3295 82.4175 40.2765 81.4546 42.2464C81.1794 42.8191 82.0278 43.323 82.3029 42.7503Z" fill="black"/>
<path d="M86.5672 34.2069V33.9549C86.5672 33.9549 86.5672 33.7946 86.5214 33.7259C86.4984 33.6571 86.4526 33.5884 86.3838 33.5197C86.3379 33.451 86.2691 33.4281 86.1774 33.3822C86.1087 33.3364 86.0169 33.3364 85.9482 33.3364H85.7877C85.7877 33.3364 85.6042 33.451 85.5125 33.5197L85.4208 33.6342C85.4208 33.6342 85.3291 33.8404 85.3291 33.9549V34.2069C85.3291 34.2069 85.3291 34.3672 85.375 34.4359C85.3979 34.5046 85.4437 34.5734 85.5125 34.6421C85.5584 34.7108 85.6272 34.7337 85.7189 34.7795C85.7877 34.8253 85.8794 34.8253 85.9482 34.8253H86.1087C86.1087 34.8253 86.2921 34.7108 86.3838 34.6421L86.4755 34.5275C86.4755 34.5275 86.5672 34.3214 86.5672 34.2069Z" fill="black"/>
<path d="M87.2097 31.9849C88.4707 29.6943 89.5712 27.335 90.5342 24.907C90.7635 24.3115 89.8234 24.0595 89.5712 24.655C88.6312 26.9914 87.5536 29.282 86.3613 31.5039C86.0633 32.0536 86.9116 32.5576 87.2097 32.0078V31.9849Z" fill="black"/>
<path d="M69.097 70.5812C68.5468 70.3979 67.9277 70.3521 67.3316 70.4438C66.6667 70.5354 65.9101 70.7873 65.5891 71.4287C64.9471 72.6656 66.5062 73.3986 67.4692 73.6506C68.3404 73.8796 69.2804 73.9941 70.1746 73.8567C70.5873 73.788 71.0229 73.6506 71.2981 73.3299C71.642 72.9634 71.7337 72.4136 71.5732 71.9326C71.3669 71.2913 70.6561 70.9935 70.0829 70.7873C69.5785 70.6041 69.0053 70.4667 68.455 70.4438C68.1341 70.4438 67.8589 70.7415 67.8589 71.0393C67.8589 71.3829 68.1341 71.6348 68.455 71.6348C68.5238 71.6348 68.5926 71.6348 68.6385 71.6348C68.4321 71.6348 68.7302 71.6349 68.776 71.6578C69.0053 71.7036 69.2117 71.7494 69.4409 71.8181C69.5327 71.841 69.6244 71.8868 69.739 71.9097C69.7848 71.9097 69.8307 71.9326 69.8766 71.9555C69.8766 71.9555 70.06 72.0242 69.9224 71.9555C70.0141 72.0013 70.1058 72.0472 70.1975 72.093C70.2434 72.1159 70.2893 72.1388 70.3122 72.1617C70.3351 72.1617 70.358 72.1846 70.381 72.2075C70.3122 72.1617 70.3122 72.1617 70.381 72.2075C70.4039 72.2304 70.4268 72.2762 70.4727 72.2991C70.358 72.2075 70.4268 72.2304 70.4727 72.2991C70.4039 72.1846 70.5185 72.4137 70.4727 72.2991C70.4727 72.4824 70.4956 72.3449 70.4727 72.2991C70.4727 72.322 70.4956 72.4595 70.4727 72.4824C70.4956 72.4824 70.4956 72.322 70.4727 72.4594C70.4268 72.6198 70.5185 72.3678 70.4727 72.4594C70.4268 72.5511 70.4727 72.4824 70.4956 72.4366C70.4956 72.4366 70.4497 72.4824 70.4268 72.5053C70.381 72.5511 70.3351 72.5511 70.4497 72.5053C70.4268 72.5053 70.4039 72.5511 70.358 72.5511C70.3351 72.5511 70.2892 72.574 70.2663 72.5969C70.3351 72.574 70.4268 72.5053 70.2663 72.5969C70.1975 72.5969 70.1288 72.6427 70.037 72.6656C69.9912 72.6656 69.9683 72.6656 69.9224 72.6656C69.7849 72.6885 70.06 72.6656 69.9224 72.6656C69.8307 72.6656 69.7619 72.6656 69.6702 72.6656C69.4639 72.6656 69.2804 72.6656 69.0741 72.6656C69.0053 72.6656 68.9136 72.6656 68.8448 72.6656C68.799 72.6656 68.5238 72.6198 68.6843 72.6656C68.5009 72.6427 68.3175 72.6198 68.134 72.574C67.8818 72.5282 67.6296 72.4594 67.4004 72.3907C67.3545 72.3907 67.3086 72.3678 67.2628 72.3449C67.2628 72.3449 67.0794 72.2762 67.2169 72.3449C67.1252 72.2991 67.0106 72.2533 66.9189 72.1846C66.8959 72.1846 66.6896 72.0243 66.7813 72.093C66.7355 72.0701 66.7125 72.0242 66.6667 72.0013C66.6208 71.9555 66.6208 71.9555 66.6667 72.0013C66.6667 71.9784 66.6437 71.9555 66.6208 71.9326V72.0013C66.6208 72.0013 66.6208 71.9555 66.6438 72.0243C66.6438 71.9555 66.6438 71.9555 66.6438 72.0472C66.6438 71.9784 66.6438 71.9784 66.6438 72.0472C66.7125 71.9097 66.575 72.093 66.6896 71.9784C66.7125 71.9555 66.7355 71.9097 66.7813 71.8868C66.7125 71.9326 66.7125 71.9326 66.7813 71.8868C66.8272 71.8639 66.873 71.841 66.9189 71.8181C66.9877 71.7952 66.9877 71.7952 66.9189 71.8181C66.9647 71.8181 66.9877 71.7952 67.0335 71.7723C67.1482 71.7265 67.2628 71.7036 67.3774 71.6807C67.5609 71.6348 67.2628 71.6807 67.4692 71.6807C67.5609 71.6807 67.6296 71.6807 67.7214 71.6807C67.8589 71.6807 68.0194 71.6807 68.157 71.6807C68.2258 71.6807 68.2716 71.6807 68.3404 71.6807C68.2028 71.6807 68.4321 71.6807 68.455 71.6807C68.5697 71.6807 68.6843 71.7265 68.7989 71.7723C69.097 71.8868 69.4639 71.6578 69.5556 71.36C69.6473 71.0164 69.4409 70.7186 69.1429 70.6041L69.097 70.5812Z" fill="black"/>
<path d="M46.2147 70.4438C45.3205 70.3292 44.197 70.6728 43.4633 71.1997C42.9589 71.5662 42.5921 72.1846 42.7755 72.826C42.936 73.3986 43.5092 73.6964 44.0595 73.788C45.2746 73.9712 46.6962 73.9483 47.8425 73.4215C48.4157 73.1695 48.8514 72.6656 48.9201 72.0472C48.9889 71.4287 48.5762 70.879 48.026 70.627C47.6133 70.4438 47.1318 70.4437 46.6962 70.4208C46.2605 70.3979 45.8249 70.3751 45.4122 70.4438C45.0912 70.4896 44.9078 70.9019 44.9995 71.1997C45.0912 71.5433 45.4122 71.6807 45.7561 71.612C45.5498 71.6578 45.7103 71.612 45.7561 71.612C45.802 71.612 45.8708 71.612 45.9166 71.612C46.0771 71.612 46.2376 71.612 46.3981 71.612C46.6962 71.612 46.9942 71.6349 47.2923 71.6578C47.3381 71.6578 47.384 71.6578 47.4528 71.6578C47.5674 71.6578 47.384 71.6578 47.384 71.6578C47.384 71.6578 47.4528 71.6578 47.4757 71.6578C47.5674 71.6807 47.5903 71.6807 47.6591 71.7265C47.682 71.7265 47.7508 71.7952 47.7279 71.7723C47.7967 71.8639 47.7738 71.841 47.7508 71.8181C47.7508 71.8181 47.7508 71.9326 47.7508 71.8639C47.7508 71.9326 47.7508 71.9326 47.7508 71.9785C47.6821 72.093 47.6133 72.1846 47.4528 72.2533C47.1318 72.4366 46.6732 72.5282 46.3064 72.574C45.8478 72.6427 45.3663 72.6427 44.9078 72.6198C44.7932 72.6198 44.6556 72.6198 44.5409 72.5969C44.5409 72.5969 44.3805 72.5969 44.4722 72.5969C44.4492 72.5969 44.4034 72.5969 44.3805 72.5969C44.2887 72.5969 44.197 72.5511 44.1282 72.5282C44.1282 72.5282 43.9678 72.4595 44.0365 72.4824C44.0136 72.4824 43.9907 72.4136 44.0136 72.4595C44.0136 72.4824 44.0136 72.5282 44.0136 72.4595C44.0136 72.5053 44.0136 72.4137 44.0136 72.4137C44.0595 72.345 44.1282 72.2304 44.22 72.1846C44.5409 71.9555 44.839 71.8639 45.2288 71.7494C45.6185 71.6349 45.8937 71.589 46.3064 71.6348C46.6274 71.6807 46.9025 71.3371 46.9025 71.0393C46.9025 70.6728 46.6274 70.4667 46.3064 70.4438H46.2147Z" fill="black"/>
<path d="M40.5517 80.7054C39.9555 80.1557 39.1531 79.835 38.3506 79.8808C38.0754 79.8808 37.8233 80.1099 37.8462 80.3847C37.8462 80.6596 38.0754 80.9116 38.3506 80.8887C38.4194 80.8887 38.5111 80.8887 38.5799 80.8887C38.6257 80.8887 38.6486 80.8887 38.6945 80.8887C38.6945 80.8887 38.7404 80.8887 38.7633 80.8887C38.7633 80.8887 38.6486 80.8887 38.7174 80.8887C38.8779 80.9116 39.0384 80.9574 39.1989 81.0032C39.1989 81.0032 39.3365 81.049 39.2677 81.0261C39.1989 81.0032 39.3135 81.0261 39.3365 81.049C39.4053 81.0948 39.474 81.1177 39.5428 81.1635C39.6116 81.2093 39.6804 81.2551 39.7492 81.3009C39.795 81.3468 39.6575 81.2322 39.7263 81.278C39.7263 81.278 39.7492 81.301 39.7721 81.3239C39.795 81.3468 39.8409 81.3926 39.8638 81.4155C40.0472 81.5987 40.3912 81.6216 40.5975 81.4155C40.8039 81.2093 40.8039 80.8887 40.5975 80.6825L40.5517 80.7054Z" fill="black"/>
<path d="M75.4938 81.2553C75.4938 81.2553 75.5855 81.1636 75.6543 81.1178C75.6543 81.1178 75.7001 81.072 75.7231 81.072C75.6543 81.1178 75.6543 81.1407 75.7001 81.0949C75.7001 81.0949 75.7231 81.072 75.746 81.072C75.8606 81.0033 75.9523 80.9346 76.067 80.8659C76.0899 80.8659 76.1128 80.843 76.1358 80.8201C76.0211 80.8659 76.2275 80.7743 76.1358 80.8201C76.2045 80.7972 76.2504 80.7743 76.3192 80.7514C76.4567 80.7055 76.5943 80.6826 76.7089 80.6597H76.5714C76.7089 80.6597 76.8236 80.6597 76.9612 80.6597C77.2363 80.6597 77.4885 80.4307 77.4656 80.1558C77.4426 79.8809 77.2363 79.6519 76.9612 79.6519C76.1587 79.6519 75.3562 79.9725 74.783 80.5452C74.5996 80.7284 74.5767 81.072 74.783 81.2782C74.9894 81.4843 75.3103 81.4843 75.5167 81.2782L75.4938 81.2553Z" fill="black"/>
<path d="M40.4144 82.6291C39.6348 82.5146 38.8553 82.5375 38.0758 82.7437C37.8235 82.8124 37.6401 83.1102 37.7089 83.3621C37.7777 83.6141 38.0528 83.7973 38.328 83.7286C38.4885 83.6828 38.649 83.6599 38.8324 83.637C38.8324 83.637 38.8782 83.637 38.9012 83.637C38.947 83.637 38.9241 83.637 38.8553 83.637H38.9699C39.0616 83.637 39.1304 83.637 39.2221 83.637C39.3826 83.637 39.5431 83.637 39.7036 83.637C39.7724 83.637 39.8641 83.637 39.9329 83.637C39.9788 83.637 40.0017 83.637 40.0475 83.637C40.0705 83.637 40.2539 83.6599 40.1163 83.637C40.2539 83.637 40.3915 83.6599 40.5061 83.5912C40.6207 83.5224 40.7124 83.4079 40.7354 83.2934C40.7812 83.0414 40.6666 82.6978 40.3685 82.6749L40.4144 82.6291Z" fill="black"/>
<path d="M75.7233 83.4082C75.7233 83.4082 75.815 83.4082 75.8608 83.4082C75.8608 83.4082 75.9067 83.4082 75.9296 83.4082C75.8608 83.4082 75.8608 83.4082 75.8838 83.4082C75.9755 83.4082 76.0442 83.4082 76.136 83.3853C76.2965 83.3853 76.4569 83.3853 76.6174 83.3853C76.7779 83.3853 76.9384 83.3853 77.0989 83.4082C77.1448 83.4082 77.1677 83.4082 77.2136 83.4082C77.3053 83.4082 77.397 83.4311 77.4887 83.454C77.7409 83.4998 78.0619 83.3853 78.1077 83.0875C78.1765 82.8355 78.039 82.5149 77.7409 82.4691C76.9613 82.3087 76.1818 82.2858 75.4023 82.4232C75.1271 82.4691 74.9666 82.8127 75.0354 83.0417C75.1271 83.3166 75.3793 83.454 75.6545 83.4082H75.7233Z" fill="black"/>
<path d="M55.6604 98.6174L55.775 98.6632C55.775 98.6632 55.8896 98.7319 55.9584 98.7319C56.0272 98.7319 56.096 98.7319 56.1648 98.7319C56.2336 98.7319 56.2794 98.6861 56.3482 98.6403C56.394 98.5945 56.4399 98.5487 56.4858 98.5029L56.5316 98.3884C56.5316 98.3884 56.5545 98.2051 56.5316 98.1135L56.4858 97.999C56.4858 97.999 56.3711 97.8615 56.3023 97.8157L56.1877 97.7699C56.1877 97.7699 56.0731 97.7012 56.0043 97.7012C55.9355 97.7012 55.8667 97.7012 55.7979 97.7012C55.7291 97.7012 55.6833 97.747 55.6145 97.7928C55.5686 97.8386 55.5228 97.8844 55.4769 97.9302L55.4311 98.0447C55.4311 98.0447 55.4082 98.228 55.4311 98.3196L55.4769 98.4342C55.4769 98.4342 55.5916 98.5716 55.6604 98.6174Z" fill="black"/>
<path d="M58.0225 97.7244L58.7791 96.2127L57.8391 96.0981C57.9995 96.9914 58.7791 97.7932 59.6962 97.9306C60.6592 98.0909 61.6221 97.6328 62.1265 96.8082C62.4705 96.2355 61.5763 95.7316 61.2324 96.2814C61.0948 96.5333 60.9114 96.6937 60.6362 96.8082C60.5675 96.854 60.3611 96.8998 60.2235 96.9227C60.2694 96.9227 60.2006 96.9227 60.1777 96.9227C60.1318 96.9227 60.1089 96.9227 60.063 96.9227C60.0172 96.9227 59.9943 96.9227 59.9484 96.9227C59.8796 96.9227 59.9255 96.9227 59.8796 96.9227C59.3064 96.8082 58.8937 96.373 58.802 95.8003C58.7332 95.388 58.0683 95.2964 57.862 95.6858L57.1054 97.1976C56.9907 97.4496 57.0366 97.7473 57.2888 97.9077C57.5181 98.0451 57.862 97.9764 57.9995 97.7244H58.0225Z" fill="black"/>
<path d="M61.5992 96.556C62.3558 96.9683 63.2271 97.4035 64.0983 97.1515C64.8779 96.9225 65.3594 96.2353 65.7262 95.5481C65.8638 95.2962 65.795 94.9984 65.5428 94.8381C65.2906 94.6777 64.9696 94.7694 64.832 95.0213C64.7632 95.1588 64.6944 95.2733 64.6257 95.4107C64.5798 95.4794 64.534 95.5481 64.511 95.6169C64.511 95.6398 64.4652 95.6627 64.4422 95.7085C64.3505 95.8459 64.4652 95.6856 64.4193 95.7543C64.3735 95.823 64.3276 95.8688 64.2588 95.9146C64.2359 95.9375 64.213 95.9604 64.19 95.9834C64.0525 96.075 63.9608 96.1208 63.8461 96.1666C63.8003 96.1666 63.7773 96.1666 63.7315 96.1895C63.7315 96.1895 63.6398 96.1895 63.7086 96.1895C63.6168 96.1895 63.5481 96.1895 63.4564 96.1895C63.3646 96.1895 63.5251 96.1895 63.4105 96.1895C63.3646 96.1895 63.3188 96.1895 63.2729 96.1666C63.2041 96.1666 63.1124 96.1208 63.0437 96.0979C62.7227 96.0063 62.4246 95.8459 62.1265 95.6627C61.8973 95.5252 61.5763 95.594 61.4158 95.8459C61.2553 96.0979 61.347 96.4186 61.5992 96.556Z" fill="black"/>
<path d="M84.9172 51.3174L84.7567 50.6989C84.4128 49.3246 83.8854 47.996 83.1976 46.782C81.0882 43.0942 77.1905 41.6053 73.6367 40.6433L73.9577 39.4751C77.7408 40.5059 81.9136 42.1092 84.2523 46.1865C84.8943 47.3318 85.4216 48.5458 85.7884 49.8056C87.4622 49.3704 89.2276 49.2101 90.9472 49.3246L90.8555 50.5386C89.0671 50.4241 87.2329 50.6073 85.5133 51.1341L84.8942 51.3174H84.9172Z" fill="#FCA735"/>
<path d="M32.3433 51.9126L31.7242 51.7294C31.0823 51.5461 30.4174 51.4087 29.7754 51.2942L29.9588 50.1031C30.4632 50.1718 30.9676 50.2863 31.4491 50.4008C31.816 49.0723 32.3433 47.7896 33.0311 46.5756C35.5073 42.2464 39.726 39.3144 44.6096 38.5356L44.7931 39.7268C40.2763 40.4368 36.3786 43.1626 34.0858 47.1482C33.3521 48.431 32.8019 49.8053 32.4809 51.2483L32.3433 51.8668V51.9126Z" fill="#FCA735"/>
<path d="M58.7107 151.186V158.974H28.4231C28.2856 156.523 28.2856 153.751 29.753 151.598C30.5096 150.476 31.7247 149.697 33.0775 149.239C34.5678 148.735 36.081 148.597 37.6401 148.758C39.4285 148.941 41.171 149.445 42.8218 150.086C42.9135 150.132 43.0052 150.132 43.0969 150.155C44.9082 151.117 46.9946 151.644 49.0352 152.033C51.328 152.469 53.6895 152.652 56.0052 152.217C56.9453 152.033 57.9311 151.758 58.6648 151.163C58.6648 151.163 58.6878 151.186 58.7107 151.186Z" fill="white"/>
<path d="M87.6448 158.974H58.71V151.186C59.2832 151.576 59.971 151.805 60.6588 151.942C61.8052 152.194 62.9745 152.286 64.1438 152.263C66.4366 152.217 68.7294 151.782 70.9075 151.163C71.5954 150.957 72.2832 150.728 72.9481 150.453C73.3837 150.27 73.8193 150.064 74.232 149.835C75.3326 149.468 76.456 149.148 77.6024 148.965C79.0927 148.69 80.6747 148.621 82.165 149.01C83.6095 149.4 85.0081 150.041 85.9481 151.141C86.7964 152.126 87.2321 153.362 87.4613 154.576C87.7365 156.02 87.7365 157.531 87.6448 158.997V158.974Z" fill="#FCA735"/>
<path d="M79.1611 117.057C79.1611 117.057 79.3221 117.08 79.414 117.103C79.3221 117.103 79.2531 117.057 79.1841 117.011C79.1841 117.011 79.1841 117.057 79.1841 117.08L79.1611 117.057Z" fill="#603EF7"/>
<path d="M79.3898 117.171L79.0459 117.125L79.0918 116.828L79.2064 116.896C79.2064 116.896 79.344 116.965 79.4128 116.988L79.3669 117.171H79.3898Z" fill="#603EF7"/>
<path d="M92.1383 142.413L46.8789 135.999L56.0729 90.0503L96.1277 95.7538L92.1383 142.413Z" fill="#603EF7"/>
<path d="M127.564 95.4111L82.5107 127.479L88.2656 135.153L131.026 100.015L127.564 95.4111Z" fill="#603EF7"/>
<path d="M56.1647 128.257L41.6514 126.196C33.856 125.096 28.4221 117.789 29.5456 109.91C30.669 102.03 37.9142 96.5327 45.7096 97.6322L60.2229 99.6937C68.0183 100.793 73.4522 108.1 72.3287 115.98C71.2053 123.859 63.9601 129.357 56.1647 128.257ZM45.1135 101.893C39.6338 101.114 34.5438 104.985 33.7643 110.505C32.9847 116.048 36.7907 121.179 42.2705 121.958L56.7837 124.02C62.2634 124.798 67.3534 120.927 68.1329 115.407C68.9125 109.887 65.1065 104.733 59.6267 103.954L45.1135 101.893Z" fill="#603EF7"/>
<path d="M58.1826 129.081C57.4948 129.081 56.784 129.036 56.0732 128.944L41.56 126.882C33.3977 125.714 27.7116 118.064 28.8809 109.818C30.0503 101.572 37.6393 95.8223 45.8016 96.9676L60.3149 99.0291C64.2584 99.6017 67.7664 101.686 70.1509 104.893C72.5354 108.123 73.5442 112.085 72.9939 116.071C72.4207 120.057 70.3572 123.584 67.1473 126.012C64.5107 128.005 61.3925 129.059 58.1597 129.059L58.1826 129.081ZM56.2567 127.593C59.8334 128.096 63.4101 127.157 66.3219 124.958C69.2338 122.737 71.1138 119.53 71.6412 115.911C72.1685 112.292 71.2514 108.672 69.0733 105.74C66.8951 102.809 63.7311 100.907 60.1314 100.403L45.6182 98.3419C38.1896 97.2882 31.2883 102.534 30.2337 110.024C29.179 117.514 34.3377 124.477 41.7663 125.531L56.2796 127.593H56.2567ZM58.1826 124.798C57.6782 124.798 57.1738 124.752 56.6693 124.684L42.1561 122.622C36.3095 121.797 32.2284 116.323 33.0767 110.413C33.925 104.504 39.3589 100.381 45.2055 101.205L59.7187 103.267C62.5389 103.679 65.0609 105.168 66.7805 107.481C68.5001 109.795 69.2108 112.635 68.7981 115.498C68.3854 118.362 66.9181 120.881 64.6253 122.622C62.7452 124.042 60.4983 124.798 58.1826 124.798ZM43.7152 102.465C39.1296 102.465 35.1173 105.878 34.4294 110.596C33.6958 115.75 37.2496 120.538 42.3624 121.271L56.8757 123.332C59.329 123.676 61.8052 123.034 63.7999 121.523C65.7946 120.011 67.1015 117.789 67.4683 115.292C67.8122 112.795 67.1932 110.299 65.7029 108.283C64.2126 106.267 62.0115 104.962 59.5582 104.618L45.045 102.557C44.6094 102.488 44.1737 102.465 43.7381 102.465H43.7152Z" fill="#603EF7"/>
<path d="M55.2495 94.3268L55.127 95.2349L95.5723 100.684L95.6948 99.7757L55.2495 94.3268Z" fill="black"/>
<path d="M80.2409 100.189L80.1191 101.097L95.322 103.131L95.4438 102.223L80.2409 100.189Z" fill="black"/>
<path d="M54.8016 96.8487L54.6797 97.7568L78.6537 100.97L78.7757 100.062L54.8016 96.8487Z" fill="black"/>
<path d="M93.5927 119.254L92.2197 131.293L93.1309 131.397L94.5039 119.358L93.5927 119.254Z" fill="black"/>
<path d="M54.0544 98.0824L52.917 103.531L53.8148 103.718L54.9522 98.2694L54.0544 98.0824Z" fill="black"/>
<path d="M49.2917 122.363L48.1543 127.812L49.0521 127.999L50.1895 122.55L49.2917 122.363Z" fill="black"/>
<path d="M128.319 102.191L124.696 97.4267L125.407 96.877L129.053 101.641L128.319 102.191Z" fill="black"/>
<path d="M24.3877 100.45H30.7387C34.5676 100.45 37.6629 103.542 37.6629 107.367C37.6629 111.193 34.5676 114.285 30.7387 114.285H24.3877" fill="white"/>
<path d="M30.7616 114.972H24.3877V113.621H30.7616C34.2008 113.621 37.0209 110.826 37.0209 107.367C37.0209 103.909 34.2237 101.114 30.7616 101.114H24.3877V99.7627H30.7616C34.9574 99.7627 38.3736 103.176 38.3736 107.367C38.3736 111.559 34.9574 114.972 30.7616 114.972Z" fill="black"/>
<path d="M43.2804 79.0557C43.2804 79.0557 43.8765 79.0786 43.9911 79.1015C44.3351 79.1473 44.656 79.1931 45 79.2619C45.619 79.3764 46.261 79.5138 46.8571 79.6742C48.1411 80.0178 49.3792 80.453 50.5714 81.0027C51.0987 81.2547 51.7407 80.7278 51.3968 80.1781C51.1904 79.8116 50.8465 79.6971 50.4338 79.7887C49.6772 79.9491 49.9982 81.1172 50.7548 80.9569H50.8465C50.8465 80.9569 50.6402 80.9569 50.5255 80.9569L50.365 80.8195L51.1904 79.9949C49.7689 79.3306 48.2786 78.8037 46.7425 78.4373C45.9858 78.254 45.2063 78.1166 44.4268 78.002C43.716 77.9104 43.0052 77.7501 42.4091 78.254C41.813 78.7579 42.6613 79.6055 43.2574 79.1015L43.2804 79.0557Z" fill="black"/>
<path d="M64.8779 80.8887C67.2394 79.8809 69.7844 79.3082 72.3523 79.1937L71.825 78.2775C71.825 78.2775 71.7792 78.392 71.7333 78.4607C71.5957 78.7585 71.6416 79.1021 71.9396 79.2853C72.1918 79.4457 72.6275 79.354 72.765 79.0792C72.788 79.0104 72.8109 78.9647 72.8568 78.8959C73.0402 78.5066 72.8338 77.9568 72.3294 77.9797C69.5322 78.0942 66.8038 78.7356 64.2359 79.858C63.9379 79.9954 63.8691 80.4306 64.0296 80.6826C64.213 81.0033 64.5569 81.0262 64.855 80.8887H64.8779Z" fill="black"/>
<path d="M162.159 137.672C165.438 135.588 167.387 132.427 168.212 130.892C168.533 130.296 168.327 129.953 167.639 129.999C165.896 130.09 162.205 130.548 158.949 132.633C155.579 134.786 153.584 138.062 152.828 139.55C152.575 140.054 152.736 140.329 153.309 140.306C154.983 140.238 158.789 139.825 162.159 137.672Z" fill="#603EF7"/>
<path d="M155.144 119.736C152.324 130.204 151.155 141.061 151.751 151.896C151.843 153.499 154.365 153.522 154.273 151.896C153.7 141.267 154.801 130.685 157.575 120.4C157.987 118.843 155.58 118.178 155.144 119.736Z" fill="#603EF7"/>
<path d="M176.651 109.429C176.33 109.246 175.986 109.085 175.826 108.765C175.574 108.238 175.963 107.642 176.17 107.07C176.56 105.97 176.101 104.71 175.299 103.863C174.496 103.015 173.419 102.488 172.341 102.007C170.782 101.297 168.925 100.633 167.389 101.389C166.15 102.007 164.729 103.382 163.422 103.817L158.378 115.568L163.651 104.458C162.528 100.702 157.896 98.457 154.228 99.8772C152.623 100.496 151.224 101.801 150.835 103.45C150.468 104.962 151.11 106.703 152.417 107.482C148.244 105.581 142.879 106.634 139.806 110.024C139.279 110.597 138.821 111.261 138.706 112.017C138.614 112.727 138.843 113.437 139.164 114.079C140.494 116.713 143.612 118.293 146.547 117.858C145.309 118.545 144.048 119.278 143.177 120.401C142.306 121.523 141.962 123.172 142.718 124.363C143.131 125.028 143.796 125.463 144.507 125.807C146.501 126.791 148.863 127.089 150.972 126.425C153.082 125.738 154.893 124.02 155.397 121.844L155.764 121.042C155.993 122.737 156.269 124.455 157.002 125.99C157.759 127.547 159.043 128.945 160.717 129.449C162.023 129.838 163.445 129.655 164.729 129.174C167.687 128.097 170.209 124.844 169.085 121.913C172.501 122.371 176.262 121.225 178.233 118.408C180.205 115.591 179.632 111.078 176.651 109.406V109.429Z" fill="#F970BE"/>
<path d="M167.539 114.201C167.706 112.311 164.753 110.506 160.944 110.17C157.135 109.833 153.911 111.093 153.744 112.983C153.577 114.873 156.529 116.678 160.339 117.015C164.148 117.351 167.372 116.091 167.539 114.201Z" fill="#FFFF17"/>
<path d="M164.292 166.854L144.184 166.831L140.447 144.292L168.098 144.315L164.292 166.854Z" fill="#FF8533"/>
<path d="M169.795 143.238H138.751V146.628H169.795V143.238Z" fill="#FCA735"/>
<path d="M167.48 148.025H141.067V148.483H167.48V148.025Z" fill="black"/>
<path d="M167.228 149.193H157.323V149.652H167.228V149.193Z" fill="black"/>
<path d="M155.946 149.193H141.295V149.652H155.946V149.193Z" fill="black"/>
<path d="M164.842 163.212H143.68V163.67H164.842V163.212Z" fill="black"/>
<path d="M200.081 114.767C204.3 121.753 205.332 129.839 205.377 137.856C205.4 146.514 204.667 155.196 203.956 163.831C203.818 165.48 206.409 165.48 206.547 163.831C207.326 154.669 208.152 145.392 207.968 136.184C207.785 128.259 206.501 120.333 202.351 113.461C201.503 112.041 199.256 113.347 200.127 114.767H200.081Z" fill="#603EF7"/>
<path d="M215.604 102.031C215.283 102.008 214.939 101.985 214.686 101.779C214.274 101.435 214.411 100.817 214.365 100.29C214.297 99.2594 213.448 98.389 212.508 97.9767C211.545 97.5644 210.491 97.5186 209.436 97.5186C207.9 97.5186 206.157 97.6102 205.171 98.8013C204.369 99.7404 203.727 101.39 202.81 102.214L202.924 113.598L203.245 102.649C200.976 99.9924 196.39 99.8091 193.937 102.283C192.859 103.36 192.171 104.917 192.446 106.406C192.699 107.757 193.845 108.971 195.198 109.109C191.117 109.04 187.127 111.835 185.82 115.706C185.614 116.347 185.454 117.057 185.637 117.721C185.82 118.34 186.256 118.844 186.76 119.233C188.801 120.905 191.896 121.089 194.12 119.668C193.364 120.676 192.584 121.73 192.286 122.944C191.988 124.181 192.286 125.624 193.341 126.334C193.914 126.723 194.625 126.838 195.312 126.861C197.284 126.952 199.325 126.357 200.792 125.051C202.26 123.746 203.108 121.684 202.764 119.737V118.958C203.566 120.264 204.415 121.547 205.584 122.532C206.753 123.539 208.312 124.204 209.849 124.021C211.064 123.86 212.141 123.196 213.036 122.371C215.076 120.447 215.947 116.897 213.976 114.904C216.91 114.057 219.593 111.766 220.189 108.765C220.785 105.765 218.699 102.283 215.672 101.985L215.604 102.031Z" fill="#FFFF17"/>
<path d="M204.735 115.273C207.788 113.735 209.5 110.977 208.559 109.114C207.618 107.25 204.381 106.986 201.328 108.523C198.276 110.061 196.563 112.819 197.504 114.683C198.445 116.547 201.682 116.811 204.735 115.273Z" fill="#F970BE"/>
<path d="M214.849 137.672C218.127 135.587 220.076 132.426 220.901 130.892C221.222 130.296 221.016 129.952 220.328 129.998C218.586 130.09 214.894 130.548 211.639 132.632C208.383 134.717 206.274 138.061 205.517 139.55C205.265 140.054 205.425 140.329 205.998 140.306C207.672 140.237 211.478 139.825 214.849 137.672Z" fill="#603EF7"/>
<path d="M216.957 166.854L196.85 166.831L193.112 144.292L220.763 144.314L216.957 166.854Z" fill="#FF8533"/>
<path d="M222.46 143.238H191.416V146.628H222.46V143.238Z" fill="#FCA735"/>
<path d="M220.144 148.024H193.731V148.483H220.144V148.024Z" fill="black"/>
<path d="M219.891 149.193H209.986V149.651H219.891V149.193Z" fill="black"/>
<path d="M208.613 149.193H193.962V149.652H208.613V149.193Z" fill="black"/>
<path d="M217.508 163.211H196.346V163.67H217.508V163.211Z" fill="black"/>
<path d="M302.196 3.94824H146.952C137.038 3.94824 129 11.9781 129 21.8834V44.9953C129 54.9007 137.038 62.9306 146.952 62.9306H302.196C312.111 62.9306 320.149 54.9007 320.149 44.9953V21.8834C320.149 11.9781 312.111 3.94824 302.196 3.94824Z" fill="white"/>
<path d="M274.369 54.318C274.621 55.3716 274.69 56.494 274.552 57.5935C274.369 59.0824 273.796 60.5025 273.177 61.8769C270.058 68.7944 265.45 73.9482 260.475 79.4914C261.162 78.7355 262.607 79.0104 263.501 78.8042C264.762 78.5294 266.046 77.9796 267.215 77.4757C269.646 76.4449 271.938 75.1393 274.071 73.5817C278.244 70.5582 281.775 66.6184 284.251 62.083C285.26 60.2506 286.085 58.5098 284.319 56.9522C282.99 55.784 281.568 54.6616 279.894 54.066C278.221 53.4705 276.295 53.5163 274.85 54.5699C273.406 55.6236 272.718 57.7768 273.589 59.3343" fill="white"/>
</svg>
