<svg width="166" height="159" viewBox="0 0 166 159" fill="none" xmlns="http://www.w3.org/2000/svg">
<g clip-path="url(#clip0_2954_6107)">
<rect x="166" y="0.361328" width="295" height="166" rx="10" transform="rotate(90 166 0.361328)" fill="#FF8DD4"/>
<path d="M150.168 132.543C145.769 129.097 143.137 123.903 142.045 121.36C141.617 120.373 141.906 119.827 142.816 119.886C145.149 120.041 150.093 120.789 154.492 124.236C159.03 127.79 161.684 133.209 162.712 135.657C163.065 136.489 162.819 136.953 162.059 136.917C159.822 136.798 154.706 136.109 150.168 132.555V132.543Z" fill="#FFD1E9"/>
<path d="M156.922 104.009C160.583 121.028 162.006 138.546 161.235 156.016C161.128 158.524 164.628 158.512 164.746 156.016C165.527 138.213 164.029 120.315 160.304 102.975C159.78 100.538 156.398 101.572 156.922 104.009Z" fill="#FFD1E9"/>
<path d="M163.226 85.516C163.408 79.1458 159.545 73.4292 155.884 68.3188C154.536 66.441 153.07 64.4682 151.036 63.6838C147.975 62.5072 144.54 64.694 143.319 67.9147C142.11 71.1236 142.774 74.9743 144.315 78.1356C145.856 81.2969 148.178 83.9234 150.48 86.4905C142.988 84.8267 135.078 86.3123 128.721 90.5789C128.111 90.9949 127.479 91.4584 127.18 92.1833C126.645 93.455 127.372 95.0832 128.464 95.9032C129.556 96.7233 130.894 96.9491 132.189 97.1393C136.095 97.7335 140.012 98.3396 143.919 98.9338C138.824 99.2072 133.933 101.751 130.605 105.875C129.374 107.396 128.304 109.357 128.657 111.425C129.128 114.158 131.889 115.763 134.383 116.143C142.067 117.319 148.703 111.318 154.279 105.696C152.224 108.406 154.215 113.1 157.308 114.443C160.401 115.786 163.836 114.657 166.662 112.97C168.738 111.734 170.825 109.892 171.05 107.277C171.275 104.662 168.332 101.869 166.459 103.438C170.183 102.166 174.175 101.727 177.729 100.003C181.282 98.2802 184.493 94.7742 184.439 90.4363C184.396 86.0865 179.58 81.9981 176.316 84.2919C177.44 82.4854 178.585 80.6076 178.906 78.4208C179.227 76.234 178.467 73.6432 176.637 72.6092C175.845 72.1576 174.946 72.0506 174.079 72.0982C169.231 72.3834 166.02 77.3155 163.494 81.7842" fill="#603EF7"/>
<path d="M159.466 99.8174C164.137 97.7982 167.095 93.7962 166.072 90.8785C165.049 87.9609 160.433 87.2325 155.762 89.2517C151.091 91.2709 148.134 95.2729 149.157 98.1906C150.179 101.108 154.795 101.837 159.466 99.8174Z" fill="#FFE66C"/>
<path d="M147.311 180.677L174.314 180.641L179.344 143.454L142.217 143.513L147.311 180.677Z" fill="#FF8533"/>
<path d="M139.948 147.305H181.624V141.707H139.948V147.305Z" fill="#FCA735"/>
<path d="M178.51 150.002H143.062" stroke="black" stroke-width="0.61" stroke-miterlimit="10"/>
<path d="M156.676 151.916H143.373" stroke="black" stroke-width="0.61" stroke-miterlimit="10"/>
<path d="M178.199 151.916H158.538" stroke="black" stroke-width="0.61" stroke-miterlimit="10"/>
</g>
<defs>
<clipPath id="clip0_2954_6107">
<rect y="0.361328" width="166" height="158" rx="17" fill="white"/>
</clipPath>
</defs>
</svg>
