<svg width="166" height="159" viewBox="0 0 166 159" fill="none" xmlns="http://www.w3.org/2000/svg">

<rect x="166" y="0.361328" width="295" height="166" rx="10" transform="rotate(90 166 0.361328)" fill="#FF8DD4"/>
<path d="M150.168 132.543C145.769 129.097 143.137 123.903 142.045 121.36C141.617 120.373 141.906 119.827 142.816 119.886C145.149 120.041 150.093 120.789 154.492 124.236C159.03 127.79 161.684 133.209 162.712 135.657C163.065 136.489 162.819 136.953 162.059 136.917C159.822 136.798 154.706 136.109 150.168 132.555V132.543Z" fill="#FFD1E9"/>
<path d="M156.922 104.009C160.583 121.028 162.006 138.546 161.235 156.016C161.128 158.524 164.628 158.512 164.746 156.016C165.527 138.213 164.029 120.315 160.304 102.975C159.78 100.538 156.398 101.572 156.922 104.009Z" fill="#FFD1E9"/>
<path d="M163.226 85.516C163.408 79.1458 159.545 73.4292 155.884 68.3188C154.536 66.441 153.07 64.4682 151.036 63.6838C147.975 62.5072 144.54 64.694 143.319 67.9147C142.11 71.1236 142.774 74.9743 144.315 78.1356C145.856 81.2969 148.178 83.9234 150.48 86.4905C142.988 84.8267 135.078 86.3123 128.721 90.5789C128.111 90.9949 127.479 91.4584 127.18 92.1833C126.645 93.455 127.372 95.0832 128.464 95.9032C129.556 96.7233 130.894 96.9491 132.189 97.1393C136.095 97.7335 140.012 98.3396 143.919 98.9338C138.824 99.2072 133.933 101.751 130.605 105.875C129.374 107.396 128.304 109.357 128.657 111.425C129.128 114.158 131.889 115.763 134.383 116.143C142.067 117.319 148.703 111.318 154.279 105.696C152.224 108.406 154.215 113.1 157.308 114.443C160.401 115.786 163.836 114.657 166.662 112.97C168.738 111.734 170.825 109.892 171.05 107.277C171.275 104.662 168.332 101.869 166.459 103.438C170.183 102.166 174.175 101.727 177.729 100.003C181.282 98.2802 184.493 94.7742 184.439 90.4363C184.396 86.0865 179.58 81.9981 176.316 84.2919C177.44 82.4854 178.585 80.6076 178.906 78.4208C179.227 76.234 178.467 73.6432 176.637 72.6092C175.845 72.1576 174.946 72.0506 174.079 72.0982C169.231 72.3834 166.02 77.3155 163.494 81.7842" fill="#603EF7"/>
<path d="M159.466 99.8174C164.137 97.7982 167.095 93.7962 166.072 90.8785C165.049 87.9609 160.433 87.2325 155.762 89.2517C151.091 91.2709 148.134 95.2729 149.157 98.1906C150.179 101.108 154.795 101.837 159.466 99.8174Z" fill="#FFE66C"/>
<path d="M147.311 180.677L174.314 180.641L179.344 143.454L142.217 143.513L147.311 180.677Z" fill="#FF8533"/>
<path d="M139.948 147.305H181.624V141.707H139.948V147.305Z" fill="#FCA735"/>
<path d="M178.51 150.002H143.062" stroke="black" stroke-width="0.61" stroke-miterlimit="10"/>
<path d="M156.676 151.916H143.373" stroke="black" stroke-width="0.61" stroke-miterlimit="10"/>
<path d="M178.199 151.916H158.538" stroke="black" stroke-width="0.61" stroke-miterlimit="10"/>
<path d="M24.67 34.3721C24.67 34.9321 24.535 35.4571 24.265 35.9471C24.005 36.4371 23.59 36.8321 23.02 37.1321C22.46 37.4321 21.75 37.5821 20.89 37.5821H19.135V41.6021H17.035V31.1321H20.89C21.7 31.1321 22.39 31.2721 22.96 31.5521C23.53 31.8321 23.955 32.2171 24.235 32.707C24.525 33.1971 24.67 33.7521 24.67 34.3721ZM20.8 35.8871C21.38 35.8871 21.81 35.7571 22.09 35.4971C22.37 35.2271 22.51 34.8521 22.51 34.3721C22.51 33.3521 21.94 32.8421 20.8 32.8421H19.135V35.8871H20.8ZM33.886 37.2671C33.886 37.5671 33.866 37.8371 33.826 38.0771H27.751C27.801 38.6771 28.011 39.1471 28.381 39.4871C28.751 39.8271 29.206 39.9971 29.746 39.9971C30.526 39.9971 31.081 39.6621 31.411 38.9921H33.676C33.436 39.7921 32.976 40.4521 32.296 40.9721C31.616 41.4821 30.781 41.7371 29.791 41.7371C28.991 41.7371 28.271 41.5621 27.631 41.2121C27.001 40.8521 26.506 40.3471 26.146 39.6971C25.796 39.0471 25.621 38.2971 25.621 37.4471C25.621 36.5871 25.796 35.8321 26.146 35.1821C26.496 34.5321 26.986 34.0321 27.616 33.6821C28.246 33.3321 28.971 33.1571 29.791 33.1571C30.581 33.1571 31.286 33.3271 31.906 33.6671C32.536 34.0071 33.021 34.4921 33.361 35.1221C33.711 35.7421 33.886 36.4571 33.886 37.2671ZM31.711 36.6671C31.701 36.1271 31.506 35.6971 31.126 35.3771C30.746 35.0471 30.281 34.8821 29.731 34.8821C29.211 34.8821 28.771 35.0421 28.411 35.3621C28.061 35.6721 27.846 36.1071 27.766 36.6671H31.711ZM37.5188 34.5821C37.7888 34.1421 38.1388 33.7971 38.5688 33.5471C39.0088 33.2971 39.5088 33.1721 40.0688 33.1721V35.3771H39.5138C38.8538 35.3771 38.3538 35.5321 38.0138 35.8421C37.6838 36.1521 37.5188 36.6921 37.5188 37.4621V41.6021H35.4188V33.2921H37.5188V34.5821ZM42.5482 32.3021C42.1782 32.3021 41.8682 32.1871 41.6182 31.9571C41.3782 31.7171 41.2582 31.4221 41.2582 31.0721C41.2582 30.7221 41.3782 30.4321 41.6182 30.2021C41.8682 29.9621 42.1782 29.8421 42.5482 29.8421C42.9182 29.8421 43.2232 29.9621 43.4632 30.2021C43.7132 30.4321 43.8382 30.7221 43.8382 31.0721C43.8382 31.4221 43.7132 31.7171 43.4632 31.9571C43.2232 32.1871 42.9182 32.3021 42.5482 32.3021ZM43.5832 33.2921V41.6021H41.4832V33.2921H43.5832ZM49.348 41.7371C48.548 41.7371 47.828 41.5621 47.188 41.2121C46.548 40.8521 46.043 40.3471 45.673 39.6971C45.313 39.0471 45.133 38.2971 45.133 37.4471C45.133 36.5971 45.318 35.8471 45.688 35.1971C46.068 34.5471 46.583 34.0471 47.233 33.6971C47.883 33.3371 48.608 33.1571 49.408 33.1571C50.208 33.1571 50.933 33.3371 51.583 33.6971C52.233 34.0471 52.743 34.5471 53.113 35.1971C53.493 35.8471 53.683 36.5971 53.683 37.4471C53.683 38.2971 53.488 39.0471 53.098 39.6971C52.718 40.3471 52.198 40.8521 51.538 41.2121C50.888 41.5621 50.158 41.7371 49.348 41.7371ZM49.348 39.9071C49.728 39.9071 50.083 39.8171 50.413 39.6371C50.753 39.4471 51.023 39.1671 51.223 38.7971C51.423 38.4271 51.523 37.9771 51.523 37.4471C51.523 36.6571 51.313 36.0521 50.893 35.6321C50.483 35.2021 49.978 34.9871 49.378 34.9871C48.778 34.9871 48.273 35.2021 47.863 35.6321C47.463 36.0521 47.263 36.6571 47.263 37.4471C47.263 38.2371 47.458 38.8471 47.848 39.2771C48.248 39.6971 48.748 39.9071 49.348 39.9071ZM54.6835 37.4171C54.6835 36.5771 54.8485 35.8321 55.1785 35.1821C55.5185 34.5321 55.9785 34.0321 56.5585 33.6821C57.1385 33.3321 57.7835 33.1571 58.4935 33.1571C59.0335 33.1571 59.5485 33.2771 60.0385 33.5171C60.5285 33.7471 60.9185 34.0571 61.2085 34.4471V30.5021H63.3385V41.6021H61.2085V40.3721C60.9485 40.7821 60.5835 41.1121 60.1135 41.3621C59.6435 41.6121 59.0985 41.7371 58.4785 41.7371C57.7785 41.7371 57.1385 41.5571 56.5585 41.1971C55.9785 40.8371 55.5185 40.3321 55.1785 39.6821C54.8485 39.0221 54.6835 38.2671 54.6835 37.4171ZM61.2235 37.4471C61.2235 36.9371 61.1235 36.5021 60.9235 36.1421C60.7235 35.7721 60.4535 35.4921 60.1135 35.3021C59.7735 35.1021 59.4085 35.0021 59.0185 35.0021C58.6285 35.0021 58.2685 35.0971 57.9385 35.2871C57.6085 35.4771 57.3385 35.7571 57.1285 36.1271C56.9285 36.4871 56.8285 36.9171 56.8285 37.4171C56.8285 37.9171 56.9285 38.3571 57.1285 38.7371C57.3385 39.1071 57.6085 39.3921 57.9385 39.5921C58.2785 39.7921 58.6385 39.8921 59.0185 39.8921C59.4085 39.8921 59.7735 39.7971 60.1135 39.6071C60.4535 39.4071 60.7235 39.1271 60.9235 38.7671C61.1235 38.3971 61.2235 37.9571 61.2235 37.4471ZM66.3195 41.7071C65.9395 41.7071 65.6245 41.5921 65.3745 41.3621C65.1345 41.1221 65.0145 40.8271 65.0145 40.4771C65.0145 40.1271 65.1345 39.8371 65.3745 39.6071C65.6245 39.3671 65.9395 39.2471 66.3195 39.2471C66.6895 39.2471 66.9945 39.3671 67.2345 39.6071C67.4745 39.8371 67.5945 40.1271 67.5945 40.4771C67.5945 40.8271 67.4745 41.1221 67.2345 41.3621C66.9945 41.5921 66.6895 41.7071 66.3195 41.7071ZM66.3195 35.4971C65.9395 35.4971 65.6245 35.3821 65.3745 35.1521C65.1345 34.9121 65.0145 34.6171 65.0145 34.2671C65.0145 33.9171 65.1345 33.6271 65.3745 33.3971C65.6245 33.1571 65.9395 33.0371 66.3195 33.0371C66.6895 33.0371 66.9945 33.1571 67.2345 33.3971C67.4745 33.6271 67.5945 33.9171 67.5945 34.2671C67.5945 34.6171 67.4745 34.9121 67.2345 35.1521C66.9945 35.3821 66.6895 35.4971 66.3195 35.4971Z" fill="white"/>
<path d="M25.39 78.8998C27.59 78.8998 29.52 79.3298 31.18 80.1898C32.86 81.0498 34.15 82.2798 35.05 83.8798C35.97 85.4598 36.43 87.2998 36.43 89.3998C36.43 91.4998 35.97 93.3398 35.05 94.9198C34.15 96.4798 32.86 97.6898 31.18 98.5498C29.52 99.4098 27.59 99.8398 25.39 99.8398H18.07V78.8998H25.39ZM25.24 96.2698C27.44 96.2698 29.14 95.6698 30.34 94.4698C31.54 93.2698 32.14 91.5798 32.14 89.3998C32.14 87.2198 31.54 85.5198 30.34 84.2998C29.14 83.0598 27.44 82.4398 25.24 82.4398H22.27V96.2698H25.24ZM38.4939 91.4698C38.4939 89.7898 38.8239 88.2998 39.4839 86.9998C40.1639 85.6998 41.0739 84.6998 42.2139 83.9998C43.3739 83.2998 44.6639 82.9498 46.0839 82.9498C47.3239 82.9498 48.4039 83.1998 49.3239 83.6998C50.2639 84.1998 51.0139 84.8298 51.5739 85.5898V83.2198H55.8039V99.8398H51.5739V97.4098C51.0339 98.1898 50.2839 98.8398 49.3239 99.3598C48.3839 99.8598 47.2939 100.11 46.0539 100.11C44.6539 100.11 43.3739 99.7498 42.2139 99.0298C41.0739 98.3098 40.1639 97.2998 39.4839 95.9998C38.8239 94.6798 38.4939 93.1698 38.4939 91.4698ZM51.5739 91.5298C51.5739 90.5098 51.3739 89.6398 50.9739 88.9198C50.5739 88.1798 50.0339 87.6198 49.3539 87.2398C48.6739 86.8398 47.9439 86.6398 47.1639 86.6398C46.3839 86.6398 45.6639 86.8298 45.0039 87.2098C44.3439 87.5898 43.8039 88.1498 43.3839 88.8898C42.9839 89.6098 42.7839 90.4698 42.7839 91.4698C42.7839 92.4698 42.9839 93.3498 43.3839 94.1098C43.8039 94.8498 44.3439 95.4198 45.0039 95.8198C45.6839 96.2198 46.4039 96.4198 47.1639 96.4198C47.9439 96.4198 48.6739 96.2298 49.3539 95.8498C50.0339 95.4498 50.5739 94.8898 50.9739 94.1698C51.3739 93.4298 51.5739 92.5498 51.5739 91.5298ZM75.8059 83.2198L65.5159 107.7H61.0459L64.6459 99.4198L57.9859 83.2198H62.6959L66.9859 94.8298L71.3359 83.2198H75.8059ZM99.4384 81.5998H89.7184V86.7298C90.1384 86.2098 90.7384 85.7898 91.5184 85.4698C92.2984 85.1298 93.1284 84.9598 94.0084 84.9598C95.6084 84.9598 96.9184 85.3098 97.9384 86.0098C98.9584 86.7098 99.6984 87.6098 100.158 88.7098C100.618 89.7898 100.848 90.9498 100.848 92.1898C100.848 94.4898 100.188 96.3398 98.8684 97.7398C97.5684 99.1398 95.7084 99.8398 93.2884 99.8398C91.0084 99.8398 89.1884 99.2698 87.8284 98.1298C86.4684 96.9898 85.6984 95.4998 85.5184 93.6598H89.5984C89.7784 94.4598 90.1784 95.0998 90.7984 95.5798C91.4384 96.0598 92.2484 96.2998 93.2284 96.2998C94.4084 96.2998 95.2984 95.9298 95.8984 95.1898C96.4984 94.4498 96.7984 93.4698 96.7984 92.2498C96.7984 91.0098 96.4884 90.0698 95.8684 89.4298C95.2684 88.7698 94.3784 88.4398 93.1984 88.4398C92.3584 88.4398 91.6584 88.6498 91.0984 89.0698C90.5384 89.4898 90.1384 90.0498 89.8984 90.7498H85.8784V77.9098H99.4384V81.5998Z" fill="white"/>

</svg>
