<svg width="355" height="117" viewBox="0 0 355 117" fill="none" xmlns="http://www.w3.org/2000/svg">
<rect x="0.260742" y="0.335449" width="354.478" height="116.026" rx="11.3256" fill="#FCA735"/>
<path d="M35.273 26.336C34.543 26.336 33.883 26.211 33.293 25.961C32.713 25.711 32.253 25.351 31.913 24.881C31.573 24.411 31.398 23.856 31.388 23.216H33.638C33.668 23.646 33.818 23.986 34.088 24.236C34.368 24.486 34.748 24.611 35.228 24.611C35.718 24.611 36.103 24.496 36.383 24.266C36.663 24.026 36.803 23.716 36.803 23.336C36.803 23.026 36.708 22.771 36.518 22.571C36.328 22.371 36.088 22.216 35.798 22.106C35.518 21.986 35.128 21.856 34.628 21.716C33.948 21.516 33.393 21.321 32.963 21.131C32.543 20.931 32.178 20.636 31.868 20.246C31.568 19.846 31.418 19.316 31.418 18.656C31.418 18.036 31.573 17.496 31.883 17.036C32.193 16.576 32.628 16.226 33.188 15.986C33.748 15.736 34.388 15.611 35.108 15.611C36.188 15.611 37.063 15.876 37.733 16.406C38.413 16.926 38.788 17.656 38.858 18.596H36.548C36.528 18.236 36.373 17.941 36.083 17.711C35.803 17.471 35.428 17.351 34.958 17.351C34.548 17.351 34.218 17.456 33.968 17.666C33.728 17.876 33.608 18.181 33.608 18.581C33.608 18.861 33.698 19.096 33.878 19.286C34.068 19.466 34.298 19.616 34.568 19.736C34.848 19.846 35.238 19.976 35.738 20.126C36.418 20.326 36.973 20.526 37.403 20.726C37.833 20.926 38.203 21.226 38.513 21.626C38.823 22.026 38.978 22.551 38.978 23.201C38.978 23.761 38.833 24.281 38.543 24.761C38.253 25.241 37.828 25.626 37.268 25.916C36.708 26.196 36.043 26.336 35.273 26.336ZM43.2437 19.646V23.666C43.2437 23.946 43.3087 24.151 43.4387 24.281C43.5787 24.401 43.8087 24.461 44.1287 24.461H45.1037V26.231H43.7837C42.0137 26.231 41.1287 25.371 41.1287 23.651V19.646H40.1387V17.921H41.1287V15.866H43.2437V17.921H45.1037V19.646H43.2437ZM46.0741 22.046C46.0741 21.206 46.2391 20.461 46.5691 19.811C46.9091 19.161 47.3641 18.661 47.9341 18.311C48.5141 17.961 49.1591 17.786 49.8691 17.786C50.4891 17.786 51.0291 17.911 51.4891 18.161C51.9591 18.411 52.3341 18.726 52.6141 19.106V17.921H54.7291V26.231H52.6141V25.016C52.3441 25.406 51.9691 25.731 51.4891 25.991C51.0191 26.241 50.4741 26.366 49.8541 26.366C49.1541 26.366 48.5141 26.186 47.9341 25.826C47.3641 25.466 46.9091 24.961 46.5691 24.311C46.2391 23.651 46.0741 22.896 46.0741 22.046ZM52.6141 22.076C52.6141 21.566 52.5141 21.131 52.3141 20.771C52.1141 20.401 51.8441 20.121 51.5041 19.931C51.1641 19.731 50.7991 19.631 50.4091 19.631C50.0191 19.631 49.6591 19.726 49.3291 19.916C48.9991 20.106 48.7291 20.386 48.5191 20.756C48.3191 21.116 48.2191 21.546 48.2191 22.046C48.2191 22.546 48.3191 22.986 48.5191 23.366C48.7291 23.736 48.9991 24.021 49.3291 24.221C49.6691 24.421 50.0291 24.521 50.4091 24.521C50.7991 24.521 51.1641 24.426 51.5041 24.236C51.8441 24.036 52.1141 23.756 52.3141 23.396C52.5141 23.026 52.6141 22.586 52.6141 22.076ZM59.2251 19.646V23.666C59.2251 23.946 59.2901 24.151 59.4201 24.281C59.5601 24.401 59.7901 24.461 60.1101 24.461H61.0851V26.231H59.7651C57.9951 26.231 57.1101 25.371 57.1101 23.651V19.646H56.1201V17.921H57.1101V15.866H59.2251V17.921H61.0851V19.646H59.2251ZM63.6605 16.931C63.2905 16.931 62.9805 16.816 62.7305 16.586C62.4905 16.346 62.3705 16.051 62.3705 15.701C62.3705 15.351 62.4905 15.061 62.7305 14.831C62.9805 14.591 63.2905 14.471 63.6605 14.471C64.0305 14.471 64.3355 14.591 64.5755 14.831C64.8255 15.061 64.9505 15.351 64.9505 15.701C64.9505 16.051 64.8255 16.346 64.5755 16.586C64.3355 16.816 64.0305 16.931 63.6605 16.931ZM64.6955 17.921V26.231H62.5955V17.921H64.6955ZM69.9504 26.366C69.2704 26.366 68.6604 26.246 68.1204 26.006C67.5804 25.756 67.1504 25.421 66.8304 25.001C66.5204 24.581 66.3504 24.116 66.3204 23.606H68.4354C68.4754 23.926 68.6304 24.191 68.9004 24.401C69.1804 24.611 69.5254 24.716 69.9354 24.716C70.3354 24.716 70.6454 24.636 70.8654 24.476C71.0954 24.316 71.2104 24.111 71.2104 23.861C71.2104 23.591 71.0704 23.391 70.7904 23.261C70.5204 23.121 70.0854 22.971 69.4854 22.811C68.8654 22.661 68.3554 22.506 67.9554 22.346C67.5654 22.186 67.2254 21.941 66.9354 21.611C66.6554 21.281 66.5154 20.836 66.5154 20.276C66.5154 19.816 66.6454 19.396 66.9054 19.016C67.1754 18.636 67.5554 18.336 68.0454 18.116C68.5454 17.896 69.1304 17.786 69.8004 17.786C70.7904 17.786 71.5804 18.036 72.1704 18.536C72.7604 19.026 73.0854 19.691 73.1454 20.531H71.1354C71.1054 20.201 70.9654 19.941 70.7154 19.751C70.4754 19.551 70.1504 19.451 69.7404 19.451C69.3604 19.451 69.0654 19.521 68.8554 19.661C68.6554 19.801 68.5554 19.996 68.5554 20.246C68.5554 20.526 68.6954 20.741 68.9754 20.891C69.2554 21.031 69.6904 21.176 70.2804 21.326C70.8804 21.476 71.3754 21.631 71.7654 21.791C72.1554 21.951 72.4904 22.201 72.7704 22.541C73.0604 22.871 73.2104 23.311 73.2204 23.861C73.2204 24.341 73.0854 24.771 72.8154 25.151C72.5554 25.531 72.1754 25.831 71.6754 26.051C71.1854 26.261 70.6104 26.366 69.9504 26.366ZM77.3892 19.646V23.666C77.3892 23.946 77.4542 24.151 77.5842 24.281C77.7242 24.401 77.9542 24.461 78.2742 24.461H79.2492V26.231H77.9292C76.1592 26.231 75.2742 25.371 75.2742 23.651V19.646H74.2842V17.921H75.2742V15.866H77.3892V17.921H79.2492V19.646H77.3892ZM81.8246 16.931C81.4546 16.931 81.1446 16.816 80.8946 16.586C80.6546 16.346 80.5346 16.051 80.5346 15.701C80.5346 15.351 80.6546 15.061 80.8946 14.831C81.1446 14.591 81.4546 14.471 81.8246 14.471C82.1946 14.471 82.4996 14.591 82.7396 14.831C82.9896 15.061 83.1146 15.351 83.1146 15.701C83.1146 16.051 82.9896 16.346 82.7396 16.586C82.4996 16.816 82.1946 16.931 81.8246 16.931ZM82.8596 17.921V26.231H80.7596V17.921H82.8596ZM84.3944 22.076C84.3944 21.216 84.5694 20.466 84.9194 19.826C85.2694 19.176 85.7544 18.676 86.3744 18.326C86.9944 17.966 87.7044 17.786 88.5044 17.786C89.5344 17.786 90.3844 18.046 91.0544 18.566C91.7344 19.076 92.1894 19.796 92.4194 20.726H90.1544C90.0344 20.366 89.8294 20.086 89.5394 19.886C89.2594 19.676 88.9094 19.571 88.4894 19.571C87.8894 19.571 87.4144 19.791 87.0644 20.231C86.7144 20.661 86.5394 21.276 86.5394 22.076C86.5394 22.866 86.7144 23.481 87.0644 23.921C87.4144 24.351 87.8894 24.566 88.4894 24.566C89.3394 24.566 89.8944 24.186 90.1544 23.426H92.4194C92.1894 24.326 91.7344 25.041 91.0544 25.571C90.3744 26.101 89.5244 26.366 88.5044 26.366C87.7044 26.366 86.9944 26.191 86.3744 25.841C85.7544 25.481 85.2694 24.981 84.9194 24.341C84.5694 23.691 84.3944 22.936 84.3944 22.076Z" fill="white"/>
<path d="M47.6927 51.2602C47.6927 46.5456 43.8715 42.7236 39.1579 42.7236C34.4442 42.7236 30.623 46.5456 30.623 51.2602V143.38C30.623 148.094 34.4442 151.916 39.1579 151.916C43.8715 151.916 47.6927 148.094 47.6927 143.38V51.2602Z" fill="#FFE66C"/>
<path d="M71.2752 76.8501H68.3609C64.452 76.8501 61.2832 80.0159 61.2832 83.921V144.845C61.2832 148.751 64.452 151.916 68.3609 151.916H71.2752C75.1841 151.916 78.3529 148.751 78.3529 144.845V83.921C78.3529 80.0159 75.1841 76.8501 71.2752 76.8501Z" fill="#FFE66C"/>
<path d="M101.321 63.1836H99.6356C95.3873 63.1836 91.9434 66.6242 91.9434 70.8685V144.231C91.9434 148.475 95.3873 151.916 99.6356 151.916H101.321C105.569 151.916 109.013 148.475 109.013 144.231V70.8685C109.013 66.6242 105.569 63.1836 101.321 63.1836Z" fill="#FFE66C"/>
<path d="M139.674 51.2602C139.674 46.5456 135.853 42.7236 131.139 42.7236C126.426 42.7236 122.604 46.5456 122.604 51.2602V143.38C122.604 148.094 126.426 151.916 131.139 151.916C135.853 151.916 139.674 148.094 139.674 143.38V51.2602Z" fill="#FFE66C"/>
<path d="M163.415 80.2568H160.184C156.362 80.2568 153.265 83.3516 153.265 87.1692V145.004C153.265 148.821 156.362 151.916 160.184 151.916H163.415C167.237 151.916 170.334 148.821 170.334 145.004V87.1692C170.334 83.3516 167.237 80.2568 163.415 80.2568Z" fill="#FFE66C"/>
<path d="M193.005 56.3701H191.914C187.502 56.3701 183.925 59.9438 183.925 64.3521V143.934C183.925 148.342 187.502 151.916 191.914 151.916H193.005C197.417 151.916 200.994 148.342 200.994 143.934V64.3521C200.994 59.9438 197.417 56.3701 193.005 56.3701Z" fill="#FFE66C"/>
<path d="M224.26 70.0166H221.98C217.896 70.0166 214.585 73.3242 214.585 77.4044V144.528C214.585 148.608 217.896 151.916 221.98 151.916H224.26C228.344 151.916 231.655 148.608 231.655 144.528V77.4044C231.655 73.3242 228.344 70.0166 224.26 70.0166Z" fill="#FFE66C"/>
<path d="M254.187 52.9634H253.374C248.885 52.9634 245.246 56.5991 245.246 61.084V143.795C245.246 148.28 248.885 151.916 253.374 151.916H254.187C258.677 151.916 262.316 148.28 262.316 143.795V61.084C262.316 56.5991 258.677 52.9634 254.187 52.9634Z" fill="#FFE66C"/>
<path d="M292.976 51.2602C292.976 46.5456 289.155 42.7236 284.441 42.7236C279.727 42.7236 275.906 46.5456 275.906 51.2602V143.38C275.906 148.094 279.727 151.916 284.441 151.916C289.155 151.916 292.976 148.094 292.976 143.38V51.2602Z" fill="#FFE66C"/>
<path d="M315.944 63.1836H314.259C310.01 63.1836 306.566 66.6242 306.566 70.8685V144.231C306.566 148.475 310.01 151.916 314.259 151.916H315.944C320.192 151.916 323.636 148.475 323.636 144.231V70.8685C323.636 66.6242 320.192 63.1836 315.944 63.1836Z" fill="#FFE66C"/>
<line x1="30.4287" y1="41.8956" x2="324.894" y2="41.8956" stroke="white" stroke-width="0.566279"/>
<line x1="30.4287" y1="52.6548" x2="324.894" y2="52.6549" stroke="white" stroke-width="0.566279"/>
<line x1="30.4287" y1="63.4141" x2="324.894" y2="63.4141" stroke="white" stroke-width="0.566279"/>
<line x1="30.4287" y1="74.1734" x2="324.894" y2="74.1734" stroke="white" stroke-width="0.566279"/>
<line x1="30.4287" y1="84.9327" x2="324.894" y2="84.9327" stroke="white" stroke-width="0.566279"/>
<line x1="30.4287" y1="95.692" x2="324.894" y2="95.692" stroke="white" stroke-width="0.566279"/>
<line x1="30.4287" y1="106.451" x2="324.894" y2="106.451" stroke="white" stroke-width="0.566279"/>
</svg>
