<svg width="171" height="159" viewBox="0 0 171 159" fill="none" xmlns="http://www.w3.org/2000/svg">
<g clip-path="url(#clip0_2954_6078)">
<rect y="0.361328" width="171" height="158" rx="17" fill="#603EF7"/>
<g clip-path="url(#clip1_2954_6078)">
<path d="M151.95 177.961C155.44 176.161 158.17 173.041 159.22 169.161C159.57 167.871 159.701 166.581 159.65 165.331C160.93 165.291 162.23 165.081 163.52 164.691C171 162.431 175.37 154.971 173.27 148.021C172.89 146.771 172.33 145.621 171.61 144.581C172.72 143.941 173.77 143.161 174.71 142.221C180.14 136.801 180.04 128.441 174.48 123.551C173.48 122.671 172.36 121.961 171.18 121.421C171.83 120.361 172.34 119.211 172.67 117.971C174.6 110.841 170.05 103.821 162.51 102.301C161.15 102.031 159.78 101.951 158.45 102.051C158.45 100.851 158.29 99.6414 157.93 98.4414C155.84 91.5014 148.07 87.7114 140.57 89.9714C139.22 90.3814 137.97 90.9614 136.84 91.6714C136.21 90.6514 135.41 89.7014 134.46 88.8614C128.91 83.9814 119.99 84.4314 114.55 89.8614C113.57 90.8414 112.771 91.9214 112.14 93.0514C111.041 92.4914 109.83 92.0614 108.53 91.8014C101.01 90.2914 93.3405 94.8514 91.4005 102.001C91.0505 103.291 90.9205 104.581 90.9705 105.831C89.6905 105.871 88.3905 106.081 87.1005 106.471C79.6205 108.731 75.2505 116.191 77.3505 123.141C77.7305 124.391 78.2905 125.541 79.0105 126.581C77.9005 127.221 76.8505 128.001 75.9105 128.941C70.4805 134.361 70.5805 142.721 76.1405 147.611C77.1405 148.491 78.2605 149.201 79.4405 149.741C78.7905 150.801 78.2805 151.951 77.9505 153.191C76.0205 160.321 80.5705 167.341 88.1105 168.861C89.4705 169.131 90.8405 169.211 92.1705 169.111C92.1705 170.311 92.3305 171.521 92.6905 172.721C94.7805 179.661 102.55 183.451 110.05 181.191C111.4 180.781 112.65 180.201 113.78 179.491C114.41 180.511 115.21 181.461 116.16 182.301C118.91 184.721 122.49 185.831 126.06 185.671L151.94 177.961H151.95Z" fill="white"/>
<path d="M91.0005 107.232C91.0005 107.232 82.5805 100.002 81.9405 99.4415C76.4205 94.5715 70.9805 88.6315 68.8605 81.4115C68.5205 80.2715 68.2505 79.1115 68.0505 77.9415C67.6205 75.4815 67.4805 72.9115 68.1405 70.4815C68.7905 68.0715 70.2305 65.8615 72.1905 64.2715C73.8205 62.9415 75.8905 62.0215 77.9805 62.1615C79.3005 62.2515 80.5805 62.8115 81.5005 63.7415C82.2705 64.5315 83.0805 65.5715 83.6705 66.5115C85.5105 69.4415 87.2605 72.4415 89.0505 75.4115C92.6505 81.3615 96.2605 87.3015 99.8405 93.2715C99.9705 93.4815 100.09 93.6915 100.22 93.9015L91.0105 107.242L91.0005 107.232Z" fill="white"/>
<path d="M118.18 126.892C117.2 127.542 116.69 128.702 116.86 129.862C117.03 131.022 117.93 131.912 119.06 132.152C120.19 132.392 121.4 131.992 122.06 130.992C122.72 129.992 122.72 128.732 122.11 127.772C121.76 127.222 121.02 127.602 121.11 128.192C121.26 129.232 122.03 130.092 123 130.452C123.97 130.812 125.12 130.512 125.85 129.752C126.58 128.992 126.85 127.862 126.42 126.872C125.99 125.882 125.07 125.252 124.02 125.192C123.32 125.162 123.32 126.252 124.02 126.282C124.65 126.312 125.22 126.762 125.45 127.352C125.68 127.942 125.47 128.622 124.99 129.052C123.92 130.052 122.35 129.222 122.16 127.892L121.16 128.312C121.99 129.622 120.92 131.412 119.34 131.082C118.64 130.942 118.05 130.442 117.93 129.712C117.81 128.982 118.11 128.222 118.72 127.822C119.33 127.422 118.76 126.492 118.17 126.872L118.18 126.892Z" fill="black"/>
<path d="M93.4206 96.9211C92.0706 95.4811 90.7206 94.0311 89.3806 92.5911C88.9906 92.1711 88.3606 92.8011 88.7506 93.2211C90.1006 94.6611 91.4506 96.1111 92.7906 97.5511C93.1806 97.9711 93.8106 97.3411 93.4206 96.9211Z" fill="black"/>
<path d="M107.22 139.161C109.993 139.161 112.24 136.914 112.24 134.141C112.24 131.369 109.993 129.121 107.22 129.121C104.448 129.121 102.2 131.369 102.2 134.141C102.2 136.914 104.448 139.161 107.22 139.161Z" fill="#FFD1E9"/>
<path d="M136.951 129.122C139.723 129.122 141.971 126.874 141.971 124.102C141.971 121.329 139.723 119.082 136.951 119.082C134.178 119.082 131.931 121.329 131.931 124.102C131.931 126.874 134.178 129.122 136.951 129.122Z" fill="#FFD1E9"/>
<path d="M87.9704 90.9812L87.9004 90.7612C87.8804 90.6912 87.8504 90.6312 87.8004 90.5712C87.7604 90.5112 87.7104 90.4612 87.6404 90.4312C87.5804 90.3912 87.5104 90.3712 87.4304 90.3612C87.3604 90.3412 87.2804 90.3512 87.2104 90.3612L87.0804 90.4212C87.0004 90.4712 86.9304 90.5412 86.8804 90.6212L86.8204 90.7512C86.7904 90.8512 86.7904 90.9512 86.8204 91.0412L86.8904 91.2612C86.9104 91.3312 86.9404 91.3912 86.9904 91.4512C87.0304 91.5112 87.0804 91.5612 87.1504 91.5912C87.2104 91.6312 87.2804 91.6512 87.3604 91.6612C87.4304 91.6812 87.5104 91.6712 87.5804 91.6612L87.7104 91.6012C87.7904 91.5512 87.8604 91.4812 87.9104 91.4012L87.9704 91.2712C88.0004 91.1712 88.0004 91.0712 87.9704 90.9812Z" fill="black"/>
<path d="M86.3804 88.8911C84.7304 87.2611 83.1804 85.5411 81.7404 83.7311C81.5904 83.5411 81.2704 83.5711 81.1104 83.7311C80.9204 83.9211 80.9604 84.1711 81.1104 84.3611C82.5504 86.1711 84.1004 87.9011 85.7504 89.5211C86.1604 89.9211 86.7904 89.2911 86.3804 88.8911Z" fill="black"/>
<path d="M140.71 92.6013C142.08 88.4913 143.38 84.3713 144.65 80.2413C146.76 73.3813 147.55 65.8213 145.27 58.8313C144.9 57.7013 144.46 56.5813 143.95 55.4913C142.89 53.2013 141.51 50.9913 139.49 49.3313C137.5 47.6913 134.92 46.6513 132.24 46.4113C130 46.2113 127.62 46.6013 125.84 47.8713C124.72 48.6713 123.9 49.8613 123.63 51.1413C123.4 52.2213 123.3 53.5413 123.33 54.6513C123.41 58.1113 123.62 61.5813 123.76 65.0413C124.04 71.9913 124.32 78.9413 124.63 85.8813C124.64 86.1313 124.65 86.3713 124.66 86.6213L140.7 92.6013H140.71Z" fill="white"/>
<path d="M132.481 85.6111C132.811 83.6611 133.131 81.7111 133.461 79.7711C133.551 79.2111 132.701 78.9711 132.601 79.5311C132.271 81.4811 131.951 83.4311 131.621 85.3711C131.531 85.9311 132.381 86.1711 132.481 85.6111Z" fill="black"/>
<path d="M133.93 77.1213L133.86 76.9013C133.84 76.8313 133.81 76.7713 133.76 76.7113C133.72 76.6513 133.67 76.6013 133.6 76.5713C133.54 76.5313 133.47 76.5113 133.39 76.5013C133.32 76.4813 133.24 76.4913 133.17 76.5013L133.04 76.5613C132.96 76.6113 132.89 76.6813 132.84 76.7613L132.78 76.8913C132.75 76.9913 132.75 77.0913 132.78 77.1813L132.85 77.4013C132.87 77.4713 132.9 77.5313 132.95 77.5913C132.99 77.6513 133.04 77.7013 133.11 77.7313C133.17 77.7713 133.24 77.7913 133.32 77.8013C133.39 77.8213 133.47 77.8113 133.54 77.8013L133.67 77.7413C133.75 77.6913 133.82 77.6213 133.87 77.5413L133.93 77.4113C133.96 77.3113 133.96 77.2113 133.93 77.1213Z" fill="black"/>
<path d="M133.911 75.0315C134.391 72.7315 134.731 70.3915 134.931 68.0515C134.981 67.4815 134.091 67.4815 134.041 68.0515C133.851 70.3215 133.511 72.5715 133.051 74.8015C132.931 75.3615 133.791 75.6015 133.911 75.0415V75.0315Z" fill="black"/>
<path d="M125.741 114.551C125.191 114.761 124.691 115.121 124.301 115.561C123.911 116.001 123.561 116.641 123.741 117.261C124.051 118.361 125.391 118.031 126.161 117.701C126.871 117.391 127.571 116.951 128.121 116.411C128.431 116.111 128.701 115.741 128.761 115.301C128.831 114.811 128.581 114.321 128.151 114.071C127.671 113.781 127.051 113.931 126.561 114.111C126.101 114.281 125.611 114.491 125.211 114.791C124.971 114.971 124.851 115.261 125.011 115.541C125.151 115.771 125.521 115.921 125.761 115.741C126.021 115.541 126.321 115.401 126.621 115.261C126.641 115.261 126.661 115.241 126.681 115.231C126.581 115.281 126.651 115.241 126.681 115.231C126.721 115.211 126.761 115.201 126.811 115.181C126.911 115.141 127.021 115.111 127.121 115.081C127.211 115.061 127.291 115.041 127.381 115.021C127.281 115.021 127.481 115.001 127.381 115.021C127.431 115.021 127.471 115.021 127.521 115.021C127.541 115.021 127.681 115.021 127.581 115.021C127.491 115.021 127.581 115.031 127.611 115.031C127.661 115.031 127.551 115.001 127.541 115.001C127.551 115.001 127.571 115.021 127.591 115.031C127.491 114.951 127.561 115.011 127.611 115.051L127.681 115.121C127.591 115.011 127.691 115.111 127.681 115.121C127.741 115.191 127.671 115.081 127.681 115.091C127.681 115.111 127.711 115.241 127.701 115.131C127.691 115.021 127.701 115.131 127.701 115.161C127.701 115.271 127.681 115.131 127.701 115.121C127.701 115.121 127.681 115.201 127.681 115.211C127.651 115.321 127.651 115.211 127.681 115.201C127.651 115.201 127.591 115.361 127.571 115.391C127.551 115.421 127.531 115.441 127.511 115.471C127.581 115.371 127.531 115.441 127.491 115.491C127.381 115.621 127.251 115.741 127.121 115.851C127.091 115.871 127.061 115.901 127.031 115.921C126.961 115.981 127.111 115.861 127.001 115.941C126.931 115.991 126.851 116.051 126.781 116.101C126.511 116.291 126.221 116.461 125.931 116.611C125.821 116.661 125.711 116.711 125.611 116.761C125.781 116.681 125.631 116.761 125.551 116.781C125.471 116.801 125.401 116.831 125.321 116.861C125.241 116.891 125.171 116.901 125.091 116.921C125.051 116.921 125.011 116.931 124.971 116.941C124.911 116.961 125.031 116.941 125.031 116.941C125.011 116.941 124.981 116.941 124.961 116.941C124.921 116.941 124.881 116.941 124.841 116.941C124.821 116.941 124.811 116.941 124.791 116.941C124.711 116.941 124.811 116.901 124.841 116.941C124.841 116.941 124.761 116.921 124.751 116.921C124.661 116.921 124.831 116.901 124.801 116.951C124.801 116.951 124.751 116.931 124.751 116.921C124.691 116.881 124.841 117.021 124.751 116.921C124.751 116.921 124.831 117.021 124.791 116.971C124.771 116.891 124.771 116.951 124.791 116.971C124.811 117.061 124.791 116.971 124.791 116.961C124.781 116.891 124.791 117.071 124.791 116.991C124.791 116.931 124.791 116.871 124.791 116.811C124.791 116.741 124.791 116.841 124.791 116.851C124.791 116.821 124.801 116.791 124.811 116.771C124.821 116.751 124.831 116.721 124.841 116.691C124.811 116.751 124.831 116.741 124.841 116.691C124.871 116.631 124.901 116.581 124.931 116.521C124.941 116.501 124.961 116.481 124.971 116.461C124.971 116.461 125.031 116.371 125.001 116.411C124.961 116.461 125.031 116.381 125.041 116.371C125.061 116.341 125.091 116.321 125.111 116.291C125.161 116.241 125.211 116.191 125.261 116.141C125.301 116.101 125.351 116.061 125.401 116.011C125.421 116.001 125.561 115.881 125.491 115.931C125.591 115.851 125.711 115.781 125.821 115.711C125.871 115.681 125.911 115.661 125.961 115.631C125.991 115.621 126.011 115.611 126.041 115.591C125.921 115.641 126.111 115.551 126.041 115.591C126.321 115.491 126.511 115.221 126.421 114.921C126.351 114.651 126.021 114.431 125.751 114.541L125.741 114.551Z" fill="black"/>
<path d="M110.28 121.022C109.84 121.012 109.38 121.122 108.97 121.272C108.53 121.442 108.1 121.662 107.74 121.982C107.32 122.362 107.1 123.002 107.36 123.532C107.61 124.032 108.16 124.192 108.67 124.222C109.72 124.282 110.9 124.132 111.83 123.632C112.33 123.372 112.73 122.892 112.76 122.312C112.79 121.732 112.37 121.232 111.82 121.052C111.46 120.942 111.05 120.972 110.68 120.982C110.31 120.992 109.89 121.002 109.52 121.092C108.84 121.272 109.13 122.322 109.81 122.152C109.85 122.152 109.88 122.142 109.92 122.132C109.95 122.132 110.02 122.132 109.88 122.132C109.91 122.132 109.94 122.132 109.96 122.132C110.09 122.122 110.22 122.112 110.35 122.102C110.62 122.082 110.89 122.072 111.16 122.082C111.25 122.082 111.34 122.082 111.42 122.082C111.34 122.072 111.55 122.122 111.51 122.112C111.57 122.132 111.6 122.152 111.64 122.202C111.66 122.222 111.66 122.282 111.65 122.332C111.63 122.422 111.55 122.522 111.45 122.592C111.16 122.812 110.77 122.902 110.42 122.992C110.03 123.082 109.64 123.122 109.25 123.142C109.06 123.142 108.88 123.142 108.69 123.142C108.65 123.142 108.61 123.142 108.57 123.142C108.47 123.132 108.63 123.152 108.54 123.142C108.51 123.142 108.48 123.132 108.45 123.122C108.44 123.122 108.3 123.062 108.37 123.092C108.36 123.092 108.28 123.052 108.35 123.082C108.32 123.072 108.33 123.042 108.32 123.052C108.31 123.062 108.32 123.142 108.33 123.052C108.35 122.952 108.41 122.872 108.51 122.782C108.6 122.702 108.71 122.632 108.87 122.542C109.02 122.462 109.16 122.392 109.29 122.342C109.47 122.272 109.65 122.222 109.84 122.182C109.88 122.182 109.92 122.162 109.96 122.162C110.02 122.152 109.92 122.162 110.02 122.162C110.12 122.162 110.2 122.152 110.28 122.162C110.58 122.162 110.83 121.902 110.83 121.612C110.83 121.312 110.58 121.072 110.28 121.062V121.022Z" fill="black"/>
<path d="M106.34 129.281C105.68 128.951 104.91 128.881 104.21 129.131C103.98 129.211 103.81 129.451 103.89 129.701C103.96 129.921 104.21 130.111 104.46 130.021C104.53 129.991 104.6 129.971 104.67 129.951C104.7 129.951 104.74 129.931 104.77 129.931C104.8 129.931 104.86 129.931 104.89 129.911C104.82 129.911 104.81 129.921 104.84 129.911C104.85 129.911 104.87 129.911 104.88 129.911C104.92 129.911 104.96 129.911 105 129.911C105.07 129.911 105.14 129.911 105.21 129.911C105.24 129.911 105.28 129.911 105.31 129.911C105.43 129.921 105.23 129.891 105.32 129.911C105.39 129.921 105.46 129.941 105.52 129.951C105.58 129.961 105.65 129.991 105.72 130.011C105.74 130.011 105.76 130.021 105.78 130.031C105.83 130.051 105.82 130.041 105.75 130.021C105.75 130.021 105.85 130.071 105.86 130.071C106.08 130.181 106.37 130.131 106.49 129.901C106.6 129.691 106.56 129.381 106.32 129.271L106.34 129.281Z" fill="black"/>
<path d="M136.62 120.662C136.68 120.552 136.75 120.442 136.82 120.342L136.75 120.432C136.87 120.272 137.01 120.142 137.16 120.022L137.07 120.092C137.23 119.972 137.39 119.872 137.58 119.792L137.47 119.842C137.55 119.812 137.64 119.782 137.73 119.752C137.96 119.682 138.13 119.422 138.05 119.182C137.97 118.942 137.73 118.792 137.48 118.862C136.78 119.062 136.16 119.552 135.83 120.192C135.72 120.402 135.77 120.702 136 120.822C136.21 120.932 136.51 120.882 136.63 120.652L136.62 120.662Z" fill="black"/>
<path d="M106.581 130.991C105.921 131.091 105.281 131.331 104.711 131.671C104.501 131.791 104.411 132.091 104.541 132.301C104.671 132.511 104.951 132.601 105.171 132.471C105.301 132.391 105.441 132.311 105.581 132.251C105.621 132.231 105.661 132.211 105.691 132.201H105.721C105.721 132.201 105.761 132.171 105.701 132.201C105.761 132.161 105.851 132.141 105.921 132.121C106.211 132.021 106.511 131.941 106.811 131.891C106.921 131.871 107.031 131.771 107.091 131.681C107.151 131.581 107.171 131.441 107.141 131.321C107.111 131.201 107.031 131.101 106.931 131.041C106.811 130.981 106.701 130.971 106.571 130.991H106.581Z" fill="black"/>
<path d="M137.391 122.471C137.461 122.441 137.531 122.401 137.591 122.371C137.611 122.371 137.631 122.351 137.651 122.341C137.591 122.371 137.581 122.371 137.631 122.341C137.661 122.331 137.691 122.321 137.721 122.301C137.861 122.251 138.001 122.201 138.151 122.161C138.301 122.121 138.441 122.081 138.591 122.061C138.621 122.061 138.651 122.051 138.691 122.041C138.711 122.041 138.731 122.041 138.751 122.041C138.801 122.041 138.791 122.041 138.721 122.041C138.781 122.021 138.881 122.021 138.951 122.021C139.191 122.001 139.421 121.821 139.411 121.561C139.401 121.331 139.211 121.081 138.951 121.101C138.241 121.161 137.561 121.351 136.921 121.671C136.701 121.781 136.631 122.101 136.751 122.301C136.891 122.521 137.151 122.581 137.381 122.471H137.391Z" fill="black"/>
<path d="M136.97 92.3316L136.68 91.8316C136.03 90.7316 135.23 89.7316 134.31 88.8516C131.53 86.2116 127.77 85.9416 124.47 86.0416L124.44 84.9416C128 84.8416 132 85.1416 135.07 88.0516C135.93 88.8616 136.69 89.7816 137.33 90.7816C138.38 90.1416 139.51 89.6316 140.7 89.2716C141.02 89.1716 141.34 89.0916 141.67 89.0116L141.91 90.0816C141.61 90.1516 141.31 90.2316 141.01 90.3216C139.75 90.7016 138.55 91.2616 137.45 91.9916L136.97 92.3116V92.3316Z" fill="#603EF7"/>
<path d="M89.3709 106.682L89.2109 105.602C89.6609 105.532 90.1209 105.492 90.5809 105.472C90.5509 104.222 90.6709 102.972 90.9509 101.762C91.9609 97.3815 94.8309 93.7515 98.8509 91.8115L99.3309 92.8015C95.6209 94.6015 92.9609 97.9515 92.0209 102.012C91.7209 103.312 91.6109 104.642 91.7009 105.972L91.7309 106.552H91.1509C90.5509 106.562 89.9509 106.612 89.3609 106.702L89.3709 106.682Z" fill="#603EF7"/>
<path d="M112.44 125.281C112.18 124.891 111.7 124.901 111.35 125.151C111.11 125.331 110.91 125.551 110.77 125.811C110.49 126.361 110.45 127.001 110.7 127.571C110.86 127.921 111.14 128.171 111.5 128.291C111.78 128.381 112.1 128.401 112.39 128.361C113.01 128.281 113.65 127.961 113.93 127.371C114.21 126.781 114.17 126.091 113.73 125.591C113.29 125.091 112.43 124.911 111.81 125.141C111.45 125.271 111.18 125.521 111.03 125.871C110.89 126.201 110.91 126.601 111.13 126.901C111.53 127.471 112.54 127.831 113.09 127.261C113.41 126.931 113.45 126.411 113.26 126.011C113.07 125.611 112.58 125.351 112.14 125.471C111.89 125.541 111.66 125.721 111.58 125.981C111.5 126.241 111.6 126.521 111.78 126.731C111.93 126.891 112.13 127.001 112.33 127.071C112.55 127.141 112.76 127.131 112.98 127.101C113.09 127.091 113.23 126.971 113.28 126.871C113.34 126.761 113.37 126.621 113.33 126.491C113.16 125.941 112.61 125.641 112.05 125.751C111.8 125.801 111.63 126.111 111.71 126.361C111.8 126.631 112.05 126.761 112.32 126.701C112.21 126.731 112.43 126.681 112.32 126.701C112.38 126.681 112.32 126.711 112.28 126.701L112.37 126.731C112.34 126.731 112.28 126.681 112.35 126.731C112.43 126.781 112.34 126.731 112.35 126.721C112.35 126.721 112.4 126.771 112.41 126.781C112.45 126.821 112.35 126.691 112.4 126.771C112.37 126.671 112.45 126.851 112.4 126.771L112.74 126.161C112.87 126.141 112.73 126.161 112.69 126.161C112.61 126.161 112.71 126.161 112.71 126.161L112.64 126.141L112.57 126.121C112.57 126.121 112.67 126.181 112.59 126.121C112.57 126.111 112.55 126.101 112.53 126.081C112.46 126.041 112.54 126.091 112.54 126.091C112.54 126.091 112.49 126.051 112.49 126.041C112.5 126.071 112.53 126.091 112.54 126.131C112.57 126.241 112.51 126.381 112.41 126.431C112.44 126.411 112.47 126.411 112.38 126.431C112.46 126.411 112.35 126.431 112.35 126.431H112.42H112.36C112.3 126.431 112.36 126.431 112.38 126.441C112.43 126.461 112.35 126.421 112.35 126.411C112.35 126.411 112.4 126.451 112.4 126.461L112.36 126.421L112.38 126.451L112.4 126.481L112.38 126.431C112.38 126.431 112.4 126.491 112.4 126.501C112.43 126.581 112.4 126.471 112.4 126.471C112.41 126.471 112.4 126.551 112.4 126.561C112.4 126.631 112.43 126.471 112.4 126.531C112.4 126.551 112.39 126.571 112.38 126.601C112.37 126.661 112.43 126.531 112.38 126.581L112.35 126.621C112.34 126.581 112.42 126.561 112.36 126.601C112.46 126.521 112.4 126.581 112.38 126.581L112.43 126.561H112.4C112.4 126.561 112.35 126.581 112.4 126.581C112.44 126.581 112.44 126.581 112.41 126.581C112.39 126.581 112.36 126.581 112.34 126.581C112.27 126.581 112.43 126.601 112.36 126.581C112.31 126.561 112.26 126.561 112.21 126.541C112.09 126.501 112.26 126.571 112.18 126.531C112.13 126.501 112.08 126.481 112.03 126.451C112.02 126.451 111.99 126.411 111.97 126.411C111.97 126.411 112.04 126.471 112 126.431C111.99 126.411 111.97 126.401 111.95 126.381C111.93 126.361 111.91 126.311 111.94 126.371C111.97 126.431 111.94 126.371 111.94 126.351C111.92 126.301 111.92 126.301 111.94 126.331V126.361C111.94 126.361 111.94 126.331 111.94 126.311C111.92 126.271 111.94 126.421 111.94 126.331C111.94 126.321 111.94 126.271 111.94 126.271C111.94 126.291 111.91 126.381 111.94 126.301L111.96 126.241C111.96 126.241 111.92 126.331 111.94 126.281C111.95 126.261 111.96 126.241 111.97 126.221C111.98 126.201 112.01 126.141 111.97 126.201C111.94 126.261 111.97 126.201 111.98 126.191C111.98 126.191 112.03 126.131 112.04 126.131C112.04 126.131 111.95 126.181 112.02 126.151C112.04 126.141 112.07 126.121 112.09 126.111C112.11 126.101 112.16 126.061 112.08 126.111C112.1 126.101 112.13 126.091 112.15 126.081C112.19 126.071 112.24 126.061 112.28 126.051C112.35 126.031 112.19 126.051 112.26 126.051C112.29 126.051 112.33 126.051 112.36 126.051C112.41 126.051 112.46 126.051 112.52 126.051C112.62 126.051 112.52 126.051 112.51 126.051C112.53 126.051 112.57 126.061 112.58 126.061C112.63 126.071 112.68 126.081 112.73 126.101C112.75 126.101 112.78 126.121 112.8 126.121C112.87 126.141 112.8 126.111 112.79 126.121C112.81 126.121 112.91 126.181 112.92 126.191C112.94 126.201 112.96 126.221 112.98 126.231C112.9 126.161 112.95 126.211 112.97 126.231C112.99 126.251 113 126.261 113.01 126.271C113.06 126.321 112.98 126.271 112.99 126.241C112.99 126.241 113.06 126.341 113.06 126.361C113.12 126.461 113.04 126.271 113.07 126.381C113.08 126.411 113.09 126.451 113.1 126.481C113.1 126.481 113.1 126.541 113.11 126.541C113.09 126.521 113.11 126.431 113.11 126.501C113.11 126.551 113.11 126.591 113.11 126.641C113.11 126.661 113.11 126.681 113.11 126.701C113.11 126.771 113.13 126.601 113.11 126.661C113.11 126.701 113.09 126.741 113.08 126.781C113.08 126.821 113.06 126.851 113.05 126.891C113.02 126.971 113.05 126.871 113.06 126.861C113.04 126.881 113.03 126.921 113.02 126.941C113 126.971 112.98 127.001 112.96 127.031C112.93 127.081 113.03 126.961 112.98 127.011C112.96 127.031 112.95 127.041 112.93 127.061C112.9 127.091 112.86 127.121 112.83 127.161C112.79 127.201 112.86 127.141 112.86 127.141C112.84 127.141 112.8 127.191 112.78 127.201C112.74 127.221 112.7 127.251 112.66 127.271C112.64 127.271 112.63 127.281 112.61 127.291C112.55 127.321 112.7 127.261 112.63 127.291C112.54 127.321 112.44 127.351 112.35 127.371C112.33 127.371 112.29 127.371 112.28 127.381C112.28 127.381 112.4 127.371 112.31 127.381C112.26 127.381 112.22 127.381 112.17 127.381C112.13 127.381 112.09 127.381 112.05 127.381C112.03 127.381 112 127.381 111.98 127.381C111.9 127.381 111.95 127.361 111.98 127.381C111.95 127.361 111.87 127.361 111.83 127.351C111.8 127.351 111.78 127.341 111.75 127.331C111.67 127.331 111.72 127.331 111.75 127.331C111.73 127.331 111.7 127.301 111.68 127.291C111.61 127.261 111.68 127.301 111.68 127.291C111.68 127.291 111.65 127.261 111.64 127.251C111.64 127.251 111.56 127.111 111.55 127.091C111.53 127.051 111.55 127.031 111.56 127.121C111.56 127.101 111.54 127.081 111.54 127.061C111.52 127.011 111.51 126.961 111.5 126.911C111.5 126.891 111.5 126.861 111.49 126.851C111.49 126.871 111.5 126.961 111.49 126.891C111.49 126.791 111.49 126.691 111.49 126.591C111.49 126.541 111.49 126.641 111.49 126.641C111.49 126.611 111.5 126.581 111.51 126.551C111.52 126.501 111.53 126.461 111.55 126.411C111.55 126.391 111.55 126.381 111.56 126.361C111.56 126.341 111.57 126.331 111.58 126.321C111.59 126.291 111.58 126.301 111.56 126.361C111.56 126.361 111.62 126.241 111.62 126.231C111.64 126.191 111.67 126.151 111.7 126.111C111.71 126.091 111.73 126.081 111.74 126.061C111.72 126.101 111.68 126.131 111.74 126.071C111.77 126.031 111.8 126.001 111.84 125.971C111.86 125.961 111.87 125.941 111.89 125.931C111.96 125.871 111.83 125.971 111.88 125.931C111.9 125.921 111.91 125.911 111.93 125.901C111.99 125.861 111.94 125.901 111.9 125.901C111.94 125.891 111.97 125.901 111.85 125.901H111.88C111.75 125.901 111.65 125.841 111.58 125.731C111.72 125.951 112.02 126.061 112.26 125.911C112.48 125.771 112.59 125.471 112.44 125.231V125.281Z" fill="black"/>
<path d="M127.41 118.641C126.92 118.661 126.55 118.971 126.24 119.321C125.9 119.711 125.66 120.151 125.74 120.681C125.81 121.131 126.13 121.511 126.47 121.781C126.81 122.051 127.22 122.211 127.65 122.221C128.11 122.231 128.54 122.031 128.85 121.701C129.16 121.371 129.49 120.881 129.48 120.391C129.46 119.341 128.18 118.871 127.29 119.001C126.85 119.071 126.44 119.341 126.2 119.721C125.94 120.121 125.93 120.631 126.14 121.061C126.37 121.531 126.86 121.711 127.35 121.761C127.8 121.801 128.33 121.731 128.63 121.351C128.93 120.971 128.99 120.451 128.8 119.991C128.61 119.531 128.21 119.201 127.71 119.191C127.25 119.181 126.76 119.501 126.64 119.961C126.51 120.481 126.85 121.071 127.4 121.161C127.7 121.211 127.99 121.141 128.22 120.941C128.44 120.751 128.55 120.441 128.48 120.161C128.34 119.591 127.7 119.311 127.18 119.551C126.92 119.671 126.75 119.941 126.74 120.231C126.72 120.551 126.92 120.821 127.21 120.941C127.46 121.041 127.76 121.051 127.99 120.911C128.26 120.751 128.39 120.431 128.31 120.131C128.23 119.861 127.97 119.631 127.68 119.651C127.44 119.671 127.29 119.791 127.2 120.011C127.12 120.211 127.2 120.451 127.34 120.601C127.5 120.761 127.71 120.801 127.92 120.761C128.17 120.711 128.34 120.401 128.26 120.151C128.17 119.881 127.92 119.751 127.65 119.811H127.62C127.71 119.811 127.79 119.811 127.88 119.811L128.13 120.271L127.65 120.631L127.57 120.611L127.36 120.451C127.36 120.451 127.32 120.351 127.32 120.311C127.32 120.201 127.38 120.111 127.47 120.061L127.53 120.021C127.63 120.021 127.46 120.001 127.55 120.021C127.62 120.031 127.53 119.981 127.56 120.021C127.59 120.061 127.62 120.071 127.65 120.131C127.69 120.201 127.7 120.241 127.68 120.311V120.271C127.68 120.271 127.66 120.351 127.62 120.371L127.57 120.421C127.57 120.421 127.62 120.391 127.58 120.421C127.57 120.421 127.46 120.431 127.52 120.441C127.59 120.441 127.44 120.411 127.51 120.441C127.58 120.471 127.44 120.391 127.5 120.441C127.56 120.491 127.45 120.381 127.5 120.431C127.47 120.331 127.54 120.481 127.5 120.431L127.48 120.381C127.48 120.341 127.48 120.301 127.49 120.261C127.49 120.251 127.56 120.171 127.52 120.211C127.47 120.261 127.59 120.161 127.52 120.211C127.45 120.261 127.59 120.191 127.52 120.211C127.44 120.231 127.64 120.181 127.52 120.211C127.59 120.191 127.54 120.261 127.53 120.211C127.53 120.241 127.63 120.211 127.53 120.211L127.56 120.241C127.56 120.241 127.52 120.201 127.54 120.241C127.58 120.281 127.54 120.221 127.52 120.211C127.48 120.151 127.55 120.281 127.52 120.211C127.49 120.141 127.52 120.311 127.52 120.211C127.52 120.231 127.49 120.311 127.52 120.241V120.271C127.52 120.271 127.53 120.231 127.5 120.281L127.55 120.231C127.5 120.271 127.51 120.271 127.55 120.231C127.58 120.211 127.65 120.201 127.55 120.231C127.56 120.231 127.62 120.211 127.62 120.211H127.59H127.61C127.61 120.211 127.63 120.211 127.57 120.211C127.59 120.211 127.63 120.231 127.65 120.231C127.69 120.241 127.7 120.271 127.64 120.231C127.66 120.241 127.69 120.261 127.71 120.271C127.63 120.231 127.7 120.261 127.73 120.291C127.75 120.311 127.77 120.331 127.78 120.351C127.73 120.271 127.77 120.331 127.78 120.351C127.79 120.371 127.81 120.401 127.82 120.421C127.84 120.451 127.84 120.501 127.82 120.421C127.83 120.471 127.85 120.521 127.86 120.571C127.83 120.481 127.86 120.521 127.86 120.551C127.86 120.591 127.86 120.631 127.86 120.671C127.86 120.651 127.88 120.571 127.86 120.651C127.86 120.671 127.85 120.701 127.84 120.721C127.84 120.761 127.8 120.781 127.84 120.711C127.83 120.731 127.81 120.761 127.8 120.781C127.83 120.721 127.83 120.741 127.8 120.771C127.75 120.831 127.79 120.791 127.8 120.771C127.78 120.791 127.75 120.801 127.73 120.811C127.81 120.761 127.71 120.811 127.69 120.811C127.67 120.811 127.63 120.821 127.6 120.831C127.62 120.831 127.7 120.811 127.6 120.831C127.54 120.831 127.48 120.831 127.42 120.831C127.36 120.831 127.3 120.831 127.24 120.821C127.26 120.821 127.33 120.821 127.24 120.821C127.2 120.821 127.15 120.801 127.11 120.791C127.08 120.791 127.05 120.771 127.03 120.761C127.04 120.761 127.11 120.801 127.03 120.761C126.95 120.711 127.01 120.751 127.03 120.761C127.01 120.741 126.99 120.721 126.97 120.711C126.91 120.651 126.97 120.711 126.97 120.721C126.95 120.691 126.94 120.661 126.92 120.641C126.88 120.581 126.94 120.721 126.92 120.651C126.92 120.621 126.9 120.591 126.89 120.561C126.87 120.471 126.89 120.561 126.89 120.581C126.89 120.551 126.89 120.531 126.89 120.501C126.89 120.471 126.89 120.451 126.89 120.421C126.89 120.451 126.89 120.531 126.89 120.421C126.89 120.401 126.91 120.321 126.89 120.391C126.87 120.461 126.89 120.371 126.91 120.361C126.92 120.341 126.94 120.321 126.95 120.291C126.97 120.241 126.9 120.341 126.95 120.281C126.97 120.261 126.99 120.241 127 120.221C127 120.221 127.1 120.131 127.04 120.181C126.99 120.221 127.06 120.171 127.07 120.161C127.09 120.151 127.12 120.131 127.14 120.121C127.16 120.111 127.19 120.101 127.21 120.081C127.14 120.101 127.27 120.051 127.21 120.081C127.24 120.081 127.26 120.061 127.29 120.061C127.3 120.061 127.43 120.031 127.38 120.041C127.32 120.051 127.42 120.041 127.43 120.041C127.46 120.041 127.49 120.041 127.52 120.041C127.55 120.041 127.58 120.041 127.61 120.041C127.62 120.041 127.72 120.051 127.66 120.041C127.6 120.031 127.7 120.041 127.71 120.051C127.75 120.051 127.79 120.071 127.83 120.081C127.86 120.081 127.89 120.101 127.92 120.111C127.93 120.111 128.05 120.161 127.99 120.141C127.94 120.121 128.02 120.151 128.03 120.161C128.05 120.171 128.08 120.181 128.1 120.201C128.15 120.231 128.2 120.261 128.25 120.301C128.17 120.241 128.28 120.331 128.3 120.351C128.32 120.371 128.35 120.421 128.3 120.351C128.32 120.381 128.33 120.411 128.35 120.431C128.39 120.481 128.33 120.351 128.35 120.421C128.35 120.441 128.37 120.531 128.36 120.441C128.36 120.471 128.36 120.501 128.36 120.531C128.36 120.511 128.38 120.441 128.36 120.531C128.36 120.561 128.34 120.591 128.34 120.621C128.34 120.631 128.3 120.711 128.34 120.631C128.31 120.701 128.27 120.771 128.22 120.841C128.19 120.891 128.15 120.941 128.11 120.991C128.17 120.921 128.05 121.051 128.04 121.071C128 121.111 127.96 121.161 127.91 121.201C127.84 121.261 127.89 121.221 127.91 121.201C127.87 121.221 127.84 121.251 127.8 121.271C127.78 121.281 127.72 121.301 127.81 121.271C127.79 121.271 127.76 121.291 127.74 121.291C127.72 121.291 127.69 121.301 127.67 121.311C127.59 121.331 127.69 121.311 127.69 121.311C127.69 121.331 127.55 121.311 127.54 121.311C127.51 121.311 127.49 121.311 127.46 121.311C127.34 121.311 127.56 121.341 127.44 121.311C127.38 121.291 127.31 121.271 127.25 121.261C127.16 121.221 127.23 121.261 127.25 121.261C127.22 121.251 127.19 121.231 127.16 121.221C127.11 121.191 127.05 121.161 127 121.131C126.98 121.121 126.96 121.101 126.93 121.081C127.02 121.141 126.93 121.081 126.9 121.061C126.85 121.021 126.8 120.971 126.76 120.921C126.74 120.901 126.72 120.871 126.7 120.851C126.74 120.901 126.7 120.851 126.68 120.821C126.66 120.791 126.64 120.751 126.62 120.721C126.57 120.651 126.62 120.741 126.61 120.691C126.61 120.661 126.59 120.631 126.58 120.611C126.57 120.561 126.58 120.521 126.58 120.591C126.58 120.561 126.58 120.531 126.58 120.501C126.58 120.551 126.57 120.561 126.58 120.521C126.58 120.501 126.58 120.481 126.59 120.461C126.59 120.431 126.61 120.411 126.62 120.381C126.59 120.481 126.64 120.361 126.64 120.341C126.67 120.281 126.71 120.231 126.75 120.171C126.7 120.221 126.79 120.111 126.75 120.171C126.78 120.141 126.81 120.101 126.84 120.071C126.93 119.971 127.03 119.861 127.13 119.771C127.06 119.821 127.11 119.781 127.13 119.771C127.17 119.751 127.2 119.731 127.24 119.711C127.15 119.741 127.22 119.711 127.24 119.711C127.34 119.681 127.16 119.711 127.28 119.711C127.54 119.711 127.79 119.491 127.77 119.221C127.75 118.951 127.55 118.721 127.28 118.731L127.41 118.641Z" fill="black"/>
<path d="M69.86 128.391C67.86 131.771 67.86 132.881 69.86 136.251C66.48 134.251 65.37 134.251 62 136.251C64 132.871 64 131.761 62 128.391C65.38 130.391 66.49 130.391 69.86 128.391Z" fill="#FFFF17"/>
<path d="M74.4204 114.531C71.8004 118.941 71.8004 120.391 74.4204 124.801C70.0104 122.181 68.5604 122.181 64.1504 124.801C66.7704 120.391 66.7704 118.941 64.1504 114.531C68.5604 117.151 70.0104 117.151 74.4204 114.531Z" fill="#FFFF17"/>
</g>
</g>
<defs>
<clipPath id="clip0_2954_6078">
<rect y="0.361328" width="171" height="158" rx="17" fill="white"/>
</clipPath>
<clipPath id="clip1_2954_6078">
<rect width="116.74" height="139.33" fill="white" transform="translate(62 46.3613)"/>
</clipPath>
</defs>
</svg>
