<svg width="166" height="99" viewBox="0 0 166 99" fill="none" xmlns="http://www.w3.org/2000/svg">

<path id="Vector" d="M31.9391 58.2096C36.3891 55.3596 39.0591 51.0796 40.1691 48.9796C40.5991 48.1596 40.3191 47.7096 39.3891 47.7596C37.0191 47.8896 32.0091 48.5096 27.5591 51.3496C22.9691 54.2896 20.2691 58.7496 19.2291 60.7696C18.8691 61.4596 19.1191 61.8396 19.8891 61.7996C22.1591 61.6996 27.3391 61.1296 31.9391 58.1996V58.2096Z" fill="#603EF7"/>
<path id="Vector_2" d="M22.3796 33.79C18.5196 48.02 16.9396 62.85 17.7596 77.58C17.8796 79.77 21.3096 79.78 21.1796 77.58C20.3796 63.14 21.8896 48.67 25.6796 34.7C26.2596 32.57 22.9596 31.66 22.3796 33.79Z" fill="#603EF7"/>
<path id="Vector_3" d="M51.6396 19.7398C51.2096 19.4998 50.7196 19.2698 50.5096 18.8298C50.1596 18.0998 50.7096 17.2898 50.9796 16.5298C51.5096 15.0298 50.8696 13.3098 49.7796 12.1498C48.6896 10.9898 47.2196 10.2798 45.7696 9.61977C43.6296 8.64977 41.1296 7.74977 39.0296 8.77977C37.3396 9.60977 35.4196 11.4998 33.6296 12.0998L26.7796 28.0998L33.9496 12.9698C32.4096 7.85977 26.1196 4.78977 21.1396 6.71977C18.9696 7.55977 17.0596 9.32977 16.5096 11.5898C16.0096 13.6398 16.8896 16.0298 18.6796 17.0798C13.0196 14.4798 5.7096 15.9198 1.5096 20.5498C0.809597 21.3198 0.169597 22.2198 0.0195969 23.2598C-0.120403 24.2298 0.199597 25.2098 0.639597 26.0798C2.4596 29.6598 6.6996 31.8298 10.6696 31.2298C8.9896 32.1798 7.2596 33.1698 6.0896 34.7098C4.9196 36.2398 4.4396 38.4798 5.4696 40.1098C6.0296 40.9998 6.9496 41.5998 7.8896 42.0598C10.5996 43.3898 13.8096 43.8198 16.6796 42.8998C19.5496 41.9798 21.9996 39.6098 22.7096 36.6798L23.2196 35.5998C23.5296 37.8998 23.9196 40.2298 24.9196 42.3298C25.9396 44.4698 27.6996 46.3598 29.9696 47.0398C31.7496 47.5698 33.6796 47.3098 35.4296 46.6798C39.4596 45.2298 42.8896 40.7998 41.3396 36.7998C45.9696 37.4198 51.1196 35.8698 53.7896 32.0298C56.4596 28.1898 55.6996 22.0598 51.6296 19.7598L51.6396 19.7398Z" fill="#F970BE"/>
<path id="Vector_4" d="M39.2857 26.2869C39.5132 23.7122 35.4921 21.2534 30.3042 20.795C25.1164 20.3365 20.7264 22.0521 20.4989 24.6267C20.2714 27.2014 24.2925 29.6602 29.4803 30.1187C34.6681 30.5771 39.0581 28.8616 39.2857 26.2869Z" fill="#FFFF17"/>

<path id="Vector_5" d="M34.8396 97.9197L7.48965 97.8897L2.38965 67.2197L39.9996 67.2597L34.8396 97.9197Z" fill="#FF8533"/>
<path id="Vector_6" d="M42.3001 65.7695H0.0800781V70.3895H42.3001V65.7695Z" fill="#FCA735"/>
<path id="Vector_7" d="M3.22949 72.6196H39.1495" stroke="black" stroke-width="0.63" stroke-miterlimit="10"/>
<path id="Vector_8" d="M25.3496 74.1997H38.8296" stroke="black" stroke-width="0.63" stroke-miterlimit="10"/>
<path id="Vector_9" d="M3.54004 74.1997H23.47" stroke="black" stroke-width="0.63" stroke-miterlimit="10"/>
<path id="Vector_10" d="M6.7998 93.2798H35.5798" stroke="black" stroke-width="0.63" stroke-miterlimit="10"/>

<path id="Vector_11" d="M78.5396 26.8101C87.6796 41.6601 86.0196 60.3401 84.9996 76.9801C84.6596 82.5301 84.2496 88.0801 83.7896 93.6201C83.5996 95.8701 87.1096 95.8601 87.2996 93.6201C88.1296 83.8301 88.8496 74.0001 89.1596 64.1801C89.4296 55.5301 89.2096 46.7301 87.0896 38.3001C85.9096 33.6401 84.0996 29.1301 81.5796 25.0301C80.3996 23.1101 77.3596 24.8701 78.5496 26.8001L78.5396 26.8101Z" fill="#603EF7"/>
<path id="Vector_12" d="M99.6494 9.46986C99.2094 9.42986 98.7394 9.40986 98.3994 9.12986C97.8494 8.65986 98.0094 7.80986 97.9594 7.08986C97.8594 5.67986 96.7194 4.50986 95.4194 3.94986C94.1194 3.38986 92.6594 3.33986 91.2494 3.31986C89.1594 3.29986 86.7994 3.45986 85.4494 5.04986C84.3694 6.32986 83.4794 8.55986 82.2394 9.67986L82.3894 25.1699L82.8194 10.2699C79.7394 6.65986 73.5094 6.40986 70.1494 9.75986C68.6794 11.2199 67.7594 13.3499 68.1194 15.3899C68.4494 17.2399 70.0194 18.8799 71.8494 19.0799C66.2994 18.9899 60.8694 22.7799 59.0994 28.0499C58.7994 28.9299 58.5994 29.8899 58.8594 30.7899C59.0994 31.6299 59.6994 32.3099 60.3694 32.8599C63.1394 35.1199 67.3694 35.3799 70.3894 33.4599C69.3594 34.8399 68.3094 36.2599 67.8994 37.9299C67.4994 39.5999 67.8994 41.5899 69.3294 42.5499C70.0994 43.0699 71.0694 43.2299 71.9994 43.2699C74.6794 43.3899 77.4494 42.5899 79.4594 40.8099C81.4694 39.0299 82.6194 36.2299 82.1394 33.5799L82.1694 32.5199C83.2394 34.2899 84.3994 36.0399 85.9594 37.3899C87.5594 38.7599 89.6594 39.6799 91.7594 39.4199C93.3994 39.2099 94.8794 38.3099 96.0794 37.1699C98.8394 34.5499 100.049 29.6999 97.3594 27.0099C101.359 25.8599 104.989 22.7499 105.799 18.6699C106.609 14.5899 103.789 9.85986 99.6494 9.44986V9.46986Z" fill="#FFFF17"/>
<path id="Vector_13" d="M84.883 27.4534C89.0303 25.3621 91.3562 21.612 90.078 19.0773C88.7999 16.5426 84.4017 16.1831 80.2544 18.2744C76.1071 20.3657 73.7813 24.1158 75.0594 26.6505C76.3376 29.1853 80.7358 29.5447 84.883 27.4534Z" fill="#F970BE"/>

<path id="Vector_14" d="M98.5993 58.0099C103.049 55.1599 105.719 50.8799 106.829 48.7799C107.259 47.9599 106.979 47.5099 106.049 47.5599C103.679 47.6899 98.6693 48.3099 94.2193 51.1499C89.6293 54.0899 86.9293 58.5499 85.8893 60.5699C85.5293 61.2599 85.7793 61.6399 86.5493 61.5999C88.8193 61.4999 93.9993 60.9299 98.5993 57.9999V58.0099Z" fill="#603EF7"/>
<path id="Vector_15" d="M101.499 97.7198L74.1388 97.6898L69.0488 67.0098L106.659 67.0598L101.499 97.7198Z" fill="#FF8533"/>
<path id="Vector_16" d="M108.959 65.5698H66.7393V70.1898H108.959V65.5698Z" fill="#FCA735"/>
<path id="Vector_17" d="M69.8896 72.4199H105.81" stroke="black" stroke-width="0.63" stroke-miterlimit="10"/>
<path id="Vector_18" d="M92.0088 73.9897H105.489" stroke="black" stroke-width="0.63" stroke-miterlimit="10"/>
<path id="Vector_19" d="M70.1992 73.9897H90.1292" stroke="black" stroke-width="0.63" stroke-miterlimit="10"/>
<path id="Vector_20" d="M73.459 93.0801H102.229" stroke="black" stroke-width="0.63" stroke-miterlimit="10"/>

<path id="Vector_21" d="M133.859 58.2098C129.749 55.3098 127.289 50.9398 126.269 48.7998C125.869 47.9698 126.139 47.5098 126.989 47.5598C129.169 47.6898 133.789 48.3198 137.899 51.2198C142.139 54.2098 144.619 58.7698 145.579 60.8298C145.909 61.5298 145.679 61.9198 144.969 61.8898C142.879 61.7898 138.099 61.2098 133.859 58.2198V58.2098Z" fill="#FFD1E9"/>
<path id="Vector_22" d="M140.17 34.1999C143.59 48.5199 144.92 63.2599 144.2 77.9599C144.1 80.0699 147.37 80.0599 147.48 77.9599C148.21 62.9799 146.81 47.9199 143.33 33.3299C142.84 31.2799 139.68 32.1499 140.17 34.1999Z" fill="#FFD1E9"/>
<path id="Vector_23" d="M146.06 18.6399C146.23 13.2799 142.62 8.46986 139.2 4.16986C137.94 2.58986 136.57 0.929855 134.67 0.269855C131.81 -0.720145 128.6 1.11986 127.46 3.82986C126.33 6.52986 126.95 9.76986 128.39 12.4299C129.83 15.0899 132 17.2999 134.15 19.4599C127.15 18.0599 119.76 19.3099 113.82 22.8999C113.25 23.2499 112.66 23.6399 112.38 24.2499C111.88 25.3199 112.56 26.6899 113.58 27.3799C114.6 28.0699 115.85 28.2599 117.06 28.4199C120.71 28.9199 124.37 29.4299 128.02 29.9299C123.26 30.1599 118.69 32.2999 115.58 35.7699C114.43 37.0499 113.43 38.6999 113.76 40.4399C114.2 42.7399 116.78 44.0899 119.11 44.4099C126.29 45.3999 132.49 40.3499 137.7 35.6199C135.78 37.8999 137.64 41.8499 140.53 42.9799C143.42 44.1099 146.63 43.1599 149.27 41.7399C151.21 40.6999 153.16 39.1499 153.37 36.9499C153.58 34.7499 150.83 32.3999 149.08 33.7199C152.56 32.6499 156.29 32.2799 159.61 30.8299C162.93 29.3799 165.93 26.4299 165.88 22.7799C165.84 19.1199 161.34 15.6799 158.29 17.6099C159.34 16.0899 160.41 14.5099 160.71 12.6699C161.01 10.8299 160.3 8.64986 158.59 7.77986C157.85 7.39986 157.01 7.30985 156.2 7.34985C151.67 7.58985 148.67 11.7399 146.31 15.4999" fill="#603EF7"/>
<path id="Vector_24" d="M142.547 30.6733C146.911 28.9743 149.674 25.6069 148.719 23.152C147.763 20.697 143.45 20.0842 139.086 21.7831C134.722 23.4821 131.958 26.8495 132.914 29.3044C133.87 31.7594 138.182 32.3722 142.547 30.6733Z" fill="#FFE66C"/>
<path id="Vector_25" d="M131.19 98.7096L156.42 98.6796L161.12 67.3896L126.43 67.4397L131.19 98.7096Z" fill="#FF8533"/>
<path id="Vector_26" d="M124.31 70.6299H163.25V65.9199H124.31V70.6299Z" fill="#FCA735"/>
<path id="Vector_27" d="M160.34 72.8999H127.22" stroke="black" stroke-width="0.61" stroke-miterlimit="10"/>
<path id="Vector_28" d="M139.94 74.5098H127.51" stroke="black" stroke-width="0.61" stroke-miterlimit="10"/>
<path id="Vector_29" d="M160.05 74.5098H141.68" stroke="black" stroke-width="0.61" stroke-miterlimit="10"/>
<path id="Vector_30" d="M130.46 93.7598H157.05" stroke="black" stroke-width="0.66" stroke-miterlimit="10"/>

</svg>
