<svg width="179" height="218" viewBox="0 0 179 218" fill="none" xmlns="http://www.w3.org/2000/svg">
<mask id="mask0_2954_5829" style="mask-type:luminance" maskUnits="userSpaceOnUse" x="0" y="0" width="179" height="218">
<path d="M161.269 0.725586H17.7326C8.21584 0.725586 0.500977 8.426 0.500977 17.925V200.697C0.500977 210.196 8.21584 217.896 17.7326 217.896H161.269C170.786 217.896 178.501 210.196 178.501 200.697V17.925C178.501 8.426 170.786 0.725586 161.269 0.725586Z" fill="white"/>
</mask>
<g mask="url(#mask0_2954_5829)">
<path d="M127.566 73.2643C126.978 83.2183 130.792 92.964 135.907 101.535C138.412 105.721 141.372 109.841 145.585 112.294C149.798 114.747 155.548 115.145 159.353 112.095C161.204 110.609 162.428 108.487 163.481 106.356C164.828 103.657 166.005 100.853 166.641 97.9079C167.466 94.0816 167.381 90.1132 166.935 86.2301C166.109 78.9564 164.003 71.6826 159.724 65.7254C155.444 59.7681 148.811 55.2788 141.505 54.6727C132.348 53.915 123.514 59.3419 118.001 66.6819C112.488 74.022 109.784 83.0479 107.706 91.9885C106.34 97.8511 105.201 103.865 105.799 109.851C106.112 112.957 106.672 116.111 108.636 118.536C110.6 120.96 113.295 122.731 116.17 123.963C117.375 124.484 118.618 124.91 119.909 125.147C121.73 125.478 123.287 125.459 125.08 124.976C128.695 117.598 132.472 110.296 136.419 103.089L127.557 73.2738L127.566 73.2643Z" fill="white"/>
<path d="M105.182 243.449C110.619 242.445 115.582 239.358 118.571 234.556C119.567 232.955 120.269 231.279 120.715 229.574C122.461 230.038 124.302 230.284 126.2 230.284C137.207 230.284 146.135 222.007 146.135 211.806C146.135 209.959 145.841 208.188 145.3 206.503C147.056 206.095 148.792 205.461 150.434 204.58C159.97 199.485 163.225 188.186 157.712 179.349C156.715 177.749 155.501 176.347 154.125 175.144C155.425 173.979 156.583 172.634 157.541 171.109C163.044 162.282 159.761 150.993 150.216 145.888C148.489 144.969 146.676 144.316 144.836 143.909C145.338 142.299 145.604 140.594 145.604 138.832C145.604 128.641 136.666 120.383 125.63 120.383C123.638 120.383 121.721 120.657 119.899 121.159C119.463 119.53 118.779 117.93 117.821 116.405C112.317 107.578 100.105 104.566 90.5502 109.671C88.8232 110.59 87.305 111.717 86.0051 112.995C84.7431 111.792 83.2913 110.722 81.6402 109.841C72.104 104.746 59.9015 107.786 54.3885 116.623C53.3922 118.223 52.69 119.9 52.244 121.604C50.4981 121.14 48.6573 120.894 46.7595 120.894C35.7525 120.894 26.8236 129.172 26.8236 139.372C26.8236 141.219 27.1177 142.99 27.6586 144.676C25.9032 145.083 24.1667 145.718 22.5252 146.598C12.9889 151.694 9.73428 162.993 15.2473 171.829C16.2436 173.43 17.4581 174.831 18.834 176.034C17.5341 177.199 16.3764 178.544 15.4181 180.069C9.91457 188.896 13.1977 200.185 22.7434 205.29C24.4704 206.209 26.2827 206.862 28.1235 207.27C27.6206 208.88 27.3549 210.585 27.3549 212.346C27.3549 222.537 36.2934 230.796 47.3288 230.796C49.3215 230.796 51.2382 230.521 53.06 230.019C53.4965 231.648 54.1797 233.249 55.1381 234.774C57.8709 239.149 62.2452 242.095 67.1224 243.335L105.172 243.458L105.182 243.449Z" fill="white"/>
<path d="M51.3999 123.536C38.22 103.657 25.6948 83.1045 18.9388 60.5255C15.2097 48.0522 13.6346 33.5994 22.0322 22.4426C24.4328 19.2509 28.3232 16.2485 32.4034 16.8357C34.6522 17.1578 36.4646 18.5311 38.0302 19.9612C48.0314 29.1765 51.6277 42.5401 54.8633 55.2881C59.5128 73.5956 64.0959 91.1264 68.7454 109.434L51.3999 123.536Z" fill="white"/>
<path d="M71.971 157.31C71.8192 156.609 71.0221 156.439 70.4243 156.6C69.9594 156.713 69.5513 156.959 69.1908 157.272C68.5076 157.859 68.0711 158.806 68.128 159.715C68.1755 160.35 68.4222 160.88 68.9251 161.269C69.3236 161.572 69.7981 161.79 70.282 161.894C71.2783 162.102 72.4075 161.913 73.1096 161.127C73.7738 160.378 74.0206 159.337 73.5936 158.418C73.1666 157.499 71.99 156.798 70.9747 156.855C70.4243 156.884 69.874 157.102 69.5134 157.537C69.1338 158.001 68.982 158.579 69.1718 159.166C69.5134 160.227 70.8798 161.278 71.9615 160.558C72.5593 160.161 72.8534 159.422 72.7111 158.721C72.5688 158.02 71.9425 157.499 71.2403 157.509C70.8418 157.509 70.4623 157.717 70.2535 158.049C70.0163 158.427 70.0732 158.892 70.2535 159.27C70.5097 159.801 71.0316 160.199 71.6009 160.35C72.1133 160.483 72.5403 160.113 72.5783 159.611C72.6352 158.835 72.0279 158.049 71.2593 157.907C70.8608 157.831 70.4053 158.011 70.3104 158.446C70.225 158.825 70.4243 159.318 70.8513 159.393C70.8987 159.393 70.9367 159.412 70.9841 159.422C71.0695 159.441 70.8893 159.356 70.9557 159.412C71.0126 159.403 71.0601 159.498 70.9557 159.412C70.9747 159.412 71.0885 159.554 71.0126 159.46C70.9462 159.375 71.0126 159.479 71.0316 159.498C71.0031 159.356 71.0885 159.564 71.0316 159.498C71.0316 159.517 71.0411 159.592 71.0601 159.602C71.0506 159.498 71.0411 159.479 71.0411 159.536C71.0411 159.564 71.0411 159.592 71.0411 159.621L72.0184 158.882C72.0184 158.882 71.9425 158.863 71.9046 158.854C71.8856 158.854 71.8002 158.806 71.8856 158.854C71.971 158.901 71.8856 158.854 71.8666 158.844C71.8381 158.825 71.8002 158.797 71.7622 158.778C71.7622 158.778 71.8666 158.863 71.8002 158.806C71.7812 158.787 71.7527 158.768 71.7338 158.749C71.7053 158.721 71.6768 158.693 71.6484 158.664C71.6958 158.702 71.7053 158.759 71.6578 158.674C71.6578 158.674 71.6009 158.588 71.6009 158.57C71.6009 158.57 71.6389 158.702 71.6199 158.617C71.6009 158.532 71.6199 158.693 71.6199 158.721C71.6009 158.797 71.544 158.901 71.4871 158.958C71.4491 158.996 71.3827 159.034 71.3352 159.053C71.3352 159.053 71.1739 159.062 71.2688 159.062C71.3637 159.062 71.2119 159.053 71.2024 159.053C71.136 159.015 71.3637 159.071 71.2024 159.053C71.2688 159.09 71.1739 159.024 71.1644 159.015C71.1929 159.043 71.2214 159.071 71.2498 159.1C71.2498 159.1 71.1644 158.996 71.2119 159.062C71.2593 159.128 71.1929 159.034 71.1929 159.015C71.2119 159.166 71.2119 159.015 71.2024 158.996C71.2119 159.015 71.2024 159.062 71.2024 159.09C71.2214 159.195 71.2403 158.977 71.2024 159.071C71.1929 159.109 71.1739 159.157 71.1739 159.195C71.1549 159.299 71.2403 159.109 71.1739 159.185C71.1739 159.185 71.136 159.261 71.1265 159.261C71.136 159.261 71.2309 159.109 71.136 159.242C71.136 159.251 71.0601 159.337 71.136 159.261C71.2119 159.185 71.136 159.261 71.1265 159.261C71.1075 159.28 70.9652 159.327 71.1549 159.261C71.136 159.261 71.0411 159.289 71.1455 159.27C71.2024 159.27 71.2024 159.27 71.1549 159.27C71.098 159.27 71.1075 159.27 71.2024 159.28C71.1739 159.27 71.136 159.261 71.1075 159.251C71.0221 159.232 71.1265 159.251 71.1455 159.261C71.1075 159.232 71.0695 159.214 71.0316 159.195C71.0316 159.195 70.9367 159.128 71.0031 159.176C71.079 159.232 70.9652 159.147 70.9557 159.128C70.9272 159.109 70.9082 159.081 70.8893 159.062C70.8513 159.024 70.6995 158.854 70.7944 158.977C70.7469 158.92 70.709 158.854 70.671 158.787C70.652 158.759 70.6426 158.731 70.6236 158.702C70.6331 158.731 70.671 158.844 70.6331 158.702C70.5951 158.56 70.6331 158.806 70.6331 158.655C70.6331 158.484 70.6331 158.674 70.6236 158.683L70.652 158.579C70.6805 158.607 70.5761 158.712 70.6425 158.617C70.652 158.598 70.671 158.57 70.69 158.551C70.728 158.475 70.6615 158.598 70.652 158.598C70.652 158.598 70.7185 158.532 70.728 158.513C70.7374 158.503 70.8134 158.437 70.728 158.503C70.6426 158.569 70.7374 158.503 70.7659 158.484C70.7944 158.465 70.8133 158.456 70.8418 158.446C70.7564 158.465 70.9652 158.371 70.8418 158.446C70.8798 158.446 71.0695 158.399 70.9082 158.418C70.9747 158.418 71.0506 158.418 71.117 158.418C71.1455 158.418 71.2688 158.437 71.117 158.418C71.1549 158.418 71.1834 158.427 71.2214 158.437C71.3163 158.456 71.4017 158.494 71.4871 158.522C71.5724 158.551 71.4871 158.522 71.4681 158.513C71.506 158.532 71.5535 158.551 71.5914 158.579C71.6578 158.617 71.7243 158.655 71.7907 158.702C71.8286 158.731 71.99 158.854 71.8666 158.749C71.9235 158.797 71.9805 158.844 72.0279 158.892C72.0659 158.929 72.1797 159.071 72.0943 158.948C72.1323 159.005 72.1797 159.071 72.2082 159.128C72.2082 159.128 72.2556 159.214 72.2462 159.214C72.2367 159.223 72.1987 159.062 72.2272 159.176C72.2272 159.204 72.2936 159.365 72.2746 159.384C72.2651 159.384 72.2746 159.214 72.2651 159.308C72.2651 159.346 72.2651 159.384 72.2651 159.412C72.2651 159.469 72.2651 159.517 72.2651 159.573C72.2651 159.678 72.3031 159.422 72.2651 159.526C72.2651 159.554 72.2556 159.583 72.2462 159.602C72.2462 159.63 72.1702 159.782 72.1797 159.81C72.1797 159.801 72.2651 159.64 72.1892 159.772C72.1797 159.801 72.1608 159.82 72.1513 159.848C72.1228 159.905 72.0848 159.962 72.0564 160.009C71.9805 160.132 72.1418 159.924 72.0469 160.028C71.9994 160.085 71.952 160.132 71.8951 160.189C71.8951 160.189 71.8287 160.255 71.8097 160.265C71.8097 160.265 71.933 160.18 71.8571 160.227C71.8002 160.265 71.7527 160.293 71.6958 160.331C71.6578 160.35 71.6199 160.369 71.5819 160.388C71.5914 160.388 71.7053 160.35 71.6199 160.369C71.5345 160.388 71.4586 160.426 71.3827 160.445C71.3352 160.454 71.1265 160.483 71.3068 160.464C71.2403 160.464 71.1834 160.473 71.117 160.473C71.0411 160.473 70.9652 160.473 70.8893 160.473C70.8418 160.473 70.8039 160.473 70.7659 160.464C70.652 160.464 70.8893 160.492 70.7754 160.464C70.6331 160.426 70.4812 160.397 70.3389 160.35C70.3104 160.341 70.282 160.331 70.244 160.312C70.2725 160.322 70.3769 160.378 70.244 160.312C70.1681 160.274 70.0922 160.236 70.0163 160.199C69.9594 160.17 69.9119 160.132 69.8645 160.104C69.7506 160.028 69.855 160.104 69.8645 160.113C69.8455 160.094 69.817 160.075 69.798 160.056C69.7696 160.028 69.7411 160 69.7127 159.971C69.6557 159.914 69.7316 160 69.7411 160.009C69.7316 159.99 69.7126 159.952 69.6937 159.933C69.6747 159.886 69.6747 159.895 69.6937 159.962L69.6747 159.895C69.6747 159.895 69.6652 159.82 69.6462 159.791C69.6178 159.715 69.6462 159.895 69.6462 159.753C69.6462 159.678 69.6462 159.602 69.6462 159.526C69.6462 159.498 69.6462 159.469 69.6462 159.441C69.6462 159.346 69.6178 159.592 69.6462 159.45C69.6652 159.375 69.6747 159.308 69.6937 159.232C69.6937 159.214 69.7696 159.024 69.7696 159.015C69.7696 159.015 69.7032 159.147 69.7506 159.071C69.7696 159.034 69.7886 158.986 69.817 158.948C69.855 158.882 69.8929 158.816 69.9309 158.759C69.9499 158.74 69.9688 158.712 69.9783 158.693C69.855 158.825 70.0353 158.607 69.9783 158.693C70.0732 158.588 70.1776 158.494 70.282 158.39C70.3579 158.314 70.1681 158.465 70.263 158.409C70.2915 158.39 70.3199 158.361 70.3579 158.342C70.4243 158.304 70.4812 158.266 70.5572 158.229C70.5951 158.21 70.6236 158.2 70.6615 158.181C70.7564 158.134 70.5287 158.219 70.6331 158.191C70.709 158.172 70.7754 158.143 70.8513 158.124C70.8703 158.124 70.9177 158.124 70.9367 158.105C70.8418 158.162 70.7944 158.115 70.8988 158.124C70.9841 158.124 70.8133 158.115 70.8133 158.115C70.69 158.077 70.5002 157.907 70.4718 157.774C70.5572 158.172 71.0411 158.437 71.4206 158.314C71.8381 158.181 72.0469 157.793 71.9615 157.367L71.971 157.31Z" fill="black"/>
<path d="M97.4772 156.42C96.7275 156.155 95.94 156.496 95.2852 156.846C94.678 157.177 94.1086 157.679 93.9568 158.39C93.6532 159.82 94.659 161.326 95.9779 161.837C96.6706 162.102 97.4202 161.96 98.0655 161.629C98.6727 161.316 99.261 160.862 99.5362 160.218C100.153 158.759 98.6253 157.234 97.2874 156.931C96.5947 156.78 95.8071 156.865 95.2283 157.301C94.6495 157.736 94.251 158.437 94.3269 159.185C94.4123 159.981 94.9152 160.559 95.6268 160.909C96.3385 161.259 97.221 161.506 97.9231 161.004C98.5114 160.587 98.872 159.877 98.8151 159.147C98.7581 158.418 98.3786 157.727 97.6764 157.433C97.0597 157.177 96.2531 157.31 95.7976 157.821C95.1904 158.503 95.3232 159.564 96.0633 160.085C96.8035 160.606 97.9231 160.35 98.2078 159.469C98.4925 158.589 97.7618 157.717 96.8889 157.642C96.4429 157.604 95.9684 157.85 95.7407 158.248C95.5035 158.674 95.5414 159.166 95.8356 159.555C96.1298 159.943 96.6232 160.142 97.1071 160.076C97.629 160.009 97.9801 159.583 98.018 159.072C98.056 158.598 97.7428 158.191 97.2969 158.049C97.0407 157.973 96.7275 158.049 96.5473 158.248C96.3195 158.484 96.2057 158.835 96.31 159.157C96.4049 159.45 96.6516 159.754 96.9742 159.801C97.3728 159.858 97.8188 159.697 97.9231 159.261C98.0085 158.892 97.8093 158.38 97.3823 158.314L97.629 159.337L96.8794 159.536C96.5757 159.441 96.3954 159.138 96.5093 158.854C96.5757 158.693 96.7465 158.541 96.9363 158.56C96.9742 158.56 97.0881 158.56 96.9553 158.56C97.0502 158.56 97.0312 158.598 96.9648 158.56C97.0122 158.598 97.0312 158.608 97.0597 158.664C97.1451 158.825 97.1166 159.034 96.9648 159.138C96.9268 159.166 96.7465 159.214 96.8983 159.176C96.8319 159.185 96.8035 159.195 96.7275 159.176C96.775 159.176 96.8319 159.233 96.7181 159.166C96.8509 159.242 96.7181 159.166 96.7181 159.157L96.756 159.195C96.6991 159.119 96.6896 159.1 96.7181 159.147C96.7655 159.242 96.6896 159.015 96.7086 159.119C96.7086 159.166 96.737 159.299 96.7086 159.1C96.7275 159.223 96.7181 159.015 96.756 158.958C96.794 158.901 96.8319 158.873 96.8794 158.835C96.8509 158.854 96.737 158.911 96.9078 158.825C96.8035 158.882 96.8888 158.825 96.9363 158.825C96.775 158.844 97.0217 158.863 96.9363 158.825C96.9078 158.816 96.8129 158.759 96.8889 158.816L96.9268 158.835C96.8509 158.788 96.8604 158.797 96.9363 158.854C96.9173 158.806 96.8888 158.759 96.9363 158.873C96.8604 158.693 96.9743 159.034 96.9173 158.844C96.8794 158.712 96.9173 158.844 96.9173 158.873C96.8983 158.712 96.9078 158.901 96.9078 158.901V158.844C96.9458 158.769 96.9458 158.769 96.9173 158.844L96.8983 158.892C96.9458 158.825 96.9268 158.835 96.8604 158.93C96.8604 158.93 96.9173 158.854 96.9268 158.863C96.9268 158.882 96.756 158.958 96.8889 158.901L96.9742 158.854C96.8604 158.901 96.8509 158.911 96.9268 158.882H96.9742C97.1071 158.825 96.9268 158.882 96.9173 158.882C96.9173 158.882 97.0312 158.882 97.0407 158.882C97.1261 158.854 96.8604 158.835 97.0027 158.882C97.0122 158.882 97.0976 158.901 97.0976 158.911C97.0976 158.93 96.9268 158.806 97.0502 158.892C97.0596 158.892 97.1356 158.93 97.1356 158.949L97.0691 158.901C97.0691 158.901 97.1071 158.939 97.1261 158.958C97.1735 158.958 97.221 159.053 97.1261 158.958C97.1545 158.958 97.183 159.053 97.1925 159.081C97.145 158.911 97.2494 159.166 97.1925 159.081C97.2115 159.147 97.2494 159.233 97.2494 159.299C97.2684 159.138 97.2494 159.214 97.2399 159.261C97.2399 159.308 97.2399 159.356 97.2399 159.403C97.2399 159.517 97.2874 159.223 97.2399 159.403C97.2304 159.45 97.221 159.498 97.202 159.545V159.574C97.164 159.659 97.164 159.649 97.202 159.555C97.202 159.574 97.1545 159.649 97.145 159.659C97.1261 159.697 97.1071 159.725 97.0786 159.754C97.164 159.621 97.1261 159.697 97.0881 159.735C97.0881 159.735 96.9363 159.858 97.0407 159.791C97.145 159.725 96.9837 159.829 96.9742 159.82C96.9837 159.82 97.145 159.754 97.0027 159.81L96.9363 159.829C97.0217 159.829 97.0217 159.829 96.9363 159.829C96.8888 159.829 96.8414 159.829 96.794 159.829C96.9363 159.848 96.8035 159.829 96.7845 159.82C96.7275 159.801 96.6611 159.782 96.6042 159.763C96.5852 159.763 96.4429 159.706 96.5188 159.735C96.6137 159.772 96.4144 159.687 96.4144 159.687C96.3765 159.668 96.3385 159.649 96.3005 159.63C96.2057 159.583 96.1203 159.526 96.0254 159.469C95.902 159.394 96.0064 159.46 96.0254 159.469C95.9874 159.432 95.9495 159.403 95.9115 159.365C95.8925 159.346 95.8166 159.242 95.8736 159.327C95.94 159.422 95.8356 159.261 95.8356 159.252C95.7692 159.147 95.8641 159.271 95.8356 159.28C95.8356 159.28 95.8071 159.185 95.8071 159.166C95.7597 159.005 95.8071 159.204 95.8071 159.204C95.7787 159.176 95.8071 159.072 95.8071 159.034C95.7692 159.138 95.8071 158.854 95.8071 159.034C95.8261 158.986 95.8356 158.939 95.8451 158.892C95.8641 158.816 95.8356 158.816 95.8356 158.911C95.8356 158.892 95.883 158.816 95.8925 158.806C95.9115 158.769 95.9305 158.74 95.9589 158.712C95.8641 158.854 95.94 158.74 95.9684 158.712C95.9874 158.693 96.0823 158.598 96.0064 158.664C95.9305 158.731 96.0823 158.617 96.1108 158.598C96.1582 158.57 96.2057 158.551 96.2531 158.522C96.2246 158.532 96.1108 158.57 96.2436 158.522C96.329 158.503 96.4049 158.475 96.4903 158.456C96.3195 158.494 96.4524 158.456 96.5093 158.456C96.5473 158.456 96.5947 158.456 96.6327 158.456C96.6896 158.456 96.737 158.456 96.794 158.456C96.6516 158.456 96.7655 158.456 96.8414 158.466C96.9268 158.484 97.0122 158.513 97.0881 158.541C97.1166 158.541 97.221 158.589 97.0881 158.541C97.1356 158.56 97.183 158.589 97.2304 158.617C97.3158 158.664 97.4012 158.721 97.4772 158.769C97.5056 158.788 97.591 158.854 97.4772 158.769C97.5246 158.806 97.5815 158.854 97.629 158.892C97.6954 158.949 97.7523 159.015 97.8187 159.072C97.8567 159.11 97.8947 159.157 97.9231 159.195C97.999 159.28 97.8377 159.053 97.9421 159.223C97.9896 159.299 98.0275 159.375 98.075 159.45C98.0085 159.318 98.056 159.413 98.075 159.45C98.0939 159.526 98.1034 159.63 98.1034 159.498C98.1034 159.536 98.1034 159.583 98.1034 159.621C98.1129 159.801 98.1414 159.545 98.1034 159.63C98.0844 159.668 98.037 159.801 98.1034 159.64C98.0844 159.678 98.0655 159.706 98.0465 159.744C98.0275 159.782 97.999 159.81 97.9801 159.848C98.0655 159.725 98.018 159.81 97.9801 159.829C97.9421 159.867 97.9042 159.905 97.8757 159.943C97.8567 159.962 97.7049 160.085 97.7903 160.028C97.8757 159.971 97.7618 160.047 97.7428 160.066C97.7049 160.095 97.6574 160.123 97.61 160.151C97.5341 160.199 97.4582 160.246 97.3728 160.293C97.3348 160.312 97.2874 160.341 97.2494 160.36C97.2494 160.36 97.0502 160.454 97.145 160.407C97.2399 160.36 97.0312 160.445 97.0407 160.445C96.9837 160.464 96.9268 160.473 96.8699 160.492C96.756 160.53 97.0312 160.492 96.8509 160.492C96.8129 160.492 96.775 160.492 96.737 160.492C96.737 160.492 96.6327 160.492 96.6232 160.492H96.7181C96.7181 160.492 96.6611 160.492 96.6327 160.492C96.5757 160.483 96.4239 160.464 96.3859 160.417C96.3859 160.417 96.5473 160.492 96.4144 160.426C96.3575 160.398 96.31 160.369 96.2626 160.341C96.2246 160.322 96.1962 160.303 96.1582 160.274C96.1203 160.256 95.9969 160.132 96.1203 160.256C96.0443 160.189 95.9684 160.123 95.902 160.047C95.8736 160.019 95.8451 159.99 95.8166 159.962C95.6933 159.839 95.8736 160.057 95.7882 159.924C95.7312 159.839 95.6743 159.754 95.6268 159.668C95.5984 159.621 95.5794 159.583 95.5604 159.536C95.5225 159.432 95.5225 159.46 95.5604 159.536C95.513 159.413 95.475 159.299 95.4466 159.176C95.4466 159.138 95.4181 158.986 95.4276 159.138C95.4276 159.081 95.4181 159.024 95.4181 158.967C95.4181 158.911 95.4181 158.854 95.4181 158.797C95.3991 158.939 95.4276 158.788 95.4466 158.731C95.3801 158.854 95.4466 158.759 95.4466 158.731C95.475 158.683 95.5035 158.627 95.5414 158.579C95.5225 158.608 95.4371 158.693 95.5414 158.598C95.5794 158.56 95.6268 158.513 95.6648 158.475C95.6933 158.447 95.7787 158.399 95.6458 158.475C95.6933 158.437 95.7407 158.409 95.7976 158.371C95.883 158.314 95.9684 158.267 96.0633 158.219C96.1582 158.172 96.2531 158.125 96.348 158.077C96.3385 158.077 96.5473 157.982 96.4524 158.03C96.367 158.068 96.5473 157.992 96.5662 157.992C96.6232 157.973 96.6801 157.954 96.737 157.945C96.775 157.945 96.8035 157.926 96.8414 157.926C96.7655 157.926 96.756 157.935 96.8129 157.926C96.8604 157.926 96.9078 157.926 96.9458 157.926C97.0027 157.926 96.9932 157.926 96.9078 157.926C96.9553 157.935 96.9932 157.954 97.0407 157.964C97.4202 158.096 97.9041 157.812 97.9895 157.424C98.0844 156.988 97.8567 156.619 97.4487 156.477L97.4772 156.42Z" fill="black"/>
<path d="M80.3689 160.975C78.7653 161.458 77.6076 162.869 77.3989 164.527C77.1901 166.184 78.0631 167.652 79.4674 168.429C80.8718 169.206 82.6367 169.139 83.9177 168.107C85.1987 167.075 85.7775 165.313 85.341 163.731C85.1512 163.059 83.9651 162.945 83.8513 163.731C83.3768 166.933 86.641 169.584 89.611 167.936C92.5809 166.288 91.9737 162.14 88.9562 161.06C88.0168 160.729 87.6183 162.216 88.5482 162.547C90.3701 163.191 90.4744 165.711 88.8329 166.611C87.1913 167.51 85.0563 166.061 85.341 164.139H83.8513C84.4396 166.26 82.2192 168.183 80.2455 167.094C79.3631 166.611 78.7843 165.701 78.9171 164.678C79.0499 163.656 79.7806 162.746 80.7769 162.453C81.7732 162.159 81.3178 160.682 80.3689 160.966V160.975Z" fill="black"/>
<path d="M59.2943 110.466C57.5199 106.687 55.7455 102.899 53.9711 99.1201C53.5536 98.2203 52.2252 99.0064 52.6427 99.8967C54.4171 103.676 56.1915 107.464 57.9659 111.243C58.3834 112.143 59.7118 111.357 59.2943 110.466Z" fill="black"/>
<path d="M62.6626 173.335C66.572 173.335 69.7412 170.172 69.7412 166.269C69.7412 162.367 66.572 159.204 62.6626 159.204C58.7532 159.204 55.584 162.367 55.584 166.269C55.584 170.172 58.7532 173.335 62.6626 173.335Z" fill="#FFD1E9"/>
<path d="M106.842 171.895C110.752 171.895 113.921 168.732 113.921 164.83C113.921 160.927 110.752 157.764 106.842 157.764C102.933 157.764 99.7637 160.927 99.7637 164.83C99.7637 168.732 102.933 171.895 106.842 171.895Z" fill="#FFD1E9"/>
<path d="M52.5574 95.8714V95.5494C52.5574 95.4452 52.5384 95.341 52.491 95.2558C52.4625 95.1611 52.4056 95.0758 52.3297 95.0095C52.2633 94.9338 52.1779 94.8769 52.083 94.8485C51.9881 94.8012 51.8932 94.7822 51.7888 94.7822L51.5801 94.8106C51.4472 94.8485 51.3334 94.9148 51.2385 95.0095L51.1151 95.1611C51.0487 95.2842 51.0107 95.4073 51.0107 95.5494V95.8714C51.0107 95.9756 51.0297 96.0798 51.0772 96.165C51.1056 96.2597 51.1626 96.3449 51.2385 96.4112C51.3049 96.487 51.3903 96.5438 51.4852 96.5722C51.5801 96.6196 51.675 96.6385 51.7793 96.6385L51.9881 96.6101C52.1209 96.5722 52.2348 96.506 52.3297 96.4112L52.453 96.2597C52.5195 96.1366 52.5574 96.0135 52.5574 95.8714Z" fill="black"/>
<path d="M49.1981 89.6202C47.2624 85.7655 45.5544 81.8066 44.0742 77.753C43.7421 76.8249 42.2429 77.2321 42.5844 78.1603C44.1027 82.337 45.8676 86.419 47.8602 90.3968C48.3062 91.2871 49.6346 90.501 49.1886 89.6202H49.1981Z" fill="black"/>
<path d="M118.124 114.643C119.139 110.561 120.61 106.612 122.517 102.861C122.963 101.98 121.635 101.204 121.189 102.084C119.225 105.949 117.697 110.021 116.644 114.236C116.407 115.202 117.887 115.609 118.134 114.643H118.124Z" fill="black"/>
<path d="M124.34 100.228V99.982C124.34 99.8778 124.321 99.7736 124.273 99.6884C124.245 99.5937 124.188 99.5085 124.112 99.4422C124.045 99.3664 123.96 99.3096 123.865 99.2811C123.77 99.2338 123.675 99.2148 123.571 99.2148L123.362 99.2433C123.229 99.2811 123.116 99.3474 123.021 99.4422L122.897 99.5937C122.831 99.7168 122.793 99.8399 122.793 99.982V100.228C122.793 100.332 122.812 100.437 122.859 100.522C122.888 100.617 122.945 100.702 123.021 100.768C123.087 100.844 123.173 100.901 123.267 100.929C123.362 100.976 123.457 100.995 123.562 100.995L123.77 100.967C123.903 100.929 124.017 100.863 124.112 100.768L124.235 100.617C124.302 100.493 124.34 100.37 124.34 100.228Z" fill="black"/>
<path d="M99.6973 146.513C98.9951 146.267 98.1981 146.239 97.4674 146.333C96.6134 146.447 95.674 146.769 95.247 147.584C94.4405 149.156 96.4237 150.093 97.6382 150.396C98.7484 150.671 99.9345 150.842 101.073 150.671C101.595 150.595 102.145 150.406 102.506 150.018C102.942 149.544 103.066 148.853 102.867 148.247C102.601 147.441 101.699 147.053 100.969 146.788C100.314 146.551 99.6024 146.381 98.9097 146.343C98.4922 146.324 98.1411 146.712 98.1411 147.11C98.1411 147.546 98.4922 147.858 98.9097 147.877C98.9951 147.877 99.071 147.887 99.1564 147.896C98.9002 147.868 99.2608 147.915 99.3272 147.925C99.6119 147.981 99.8871 148.048 100.162 148.123C100.286 148.161 100.409 148.199 100.532 148.247C100.589 148.265 100.646 148.284 100.694 148.303C100.713 148.303 100.921 148.398 100.76 148.332C100.883 148.389 100.997 148.445 101.111 148.502C101.168 148.531 101.215 148.569 101.263 148.597C101.291 148.616 101.329 148.644 101.358 148.663C101.272 148.597 101.263 148.597 101.329 148.644C101.358 148.682 101.405 148.72 101.434 148.748C101.301 148.635 101.386 148.673 101.424 148.748C101.491 148.891 101.329 148.587 101.405 148.72C101.405 148.947 101.434 148.767 101.405 148.72C101.405 148.758 101.434 148.928 101.405 148.947C101.443 148.919 101.434 148.748 101.405 148.91C101.358 149.108 101.462 148.796 101.405 148.91C101.348 149.033 101.434 148.957 101.443 148.881C101.443 148.9 101.377 148.947 101.367 148.966C101.301 149.023 101.234 149.023 101.396 148.947C101.358 148.966 101.329 148.995 101.291 149.014C101.253 149.033 101.215 149.052 101.178 149.071C101.367 148.966 101.253 149.042 101.197 149.061C101.102 149.089 101.016 149.118 100.921 149.137C100.874 149.146 100.817 149.156 100.77 149.165C100.589 149.203 100.95 149.165 100.77 149.165C100.665 149.165 100.551 149.184 100.447 149.184C100.2 149.184 99.9535 149.184 99.7068 149.165C99.6119 149.165 99.517 149.146 99.4221 149.137C99.3652 149.137 99.0046 149.08 99.2323 149.118C99.0046 149.08 98.7769 149.042 98.5397 149.004C98.217 148.938 97.9039 148.862 97.6003 148.758C97.5433 148.739 97.4769 148.72 97.42 148.692C97.401 148.692 97.2017 148.597 97.3536 148.663C97.2207 148.606 97.0974 148.54 96.974 148.474C96.936 148.445 96.6704 148.265 96.7842 148.36C96.7368 148.322 96.6893 148.275 96.6419 148.228C96.585 148.161 96.585 148.171 96.6419 148.247C96.6229 148.218 96.6039 148.18 96.585 148.152L96.6229 148.237C96.6039 148.152 96.6039 148.171 96.6229 148.275C96.6229 148.19 96.6229 148.199 96.6229 148.313C96.6514 148.237 96.6514 148.237 96.6229 148.313C96.7178 148.152 96.5375 148.37 96.6893 148.218C96.7273 148.18 96.7653 148.142 96.8032 148.114C96.7273 148.171 96.7273 148.171 96.8032 148.114C96.8601 148.086 96.9171 148.048 96.974 148.019C97.0499 147.981 97.0594 147.981 96.974 148.019C97.0214 148 97.0594 147.981 97.1068 147.972C97.2492 147.925 97.3915 147.896 97.5433 147.858C97.7805 147.801 97.401 147.858 97.6477 147.839C97.7521 147.83 97.8565 147.82 97.9608 147.82C98.1411 147.82 98.3309 147.82 98.5112 147.82C98.5871 147.82 98.663 147.83 98.7389 147.839C98.5776 147.82 98.8623 147.858 98.8907 147.868C99.0331 147.896 99.1754 147.934 99.3177 147.981C99.7068 148.123 100.162 147.82 100.267 147.441C100.38 147.015 100.124 146.636 99.7258 146.494L99.6973 146.513Z" fill="black"/>
<path d="M70.6049 146.342C69.4568 146.2 68.0335 146.627 67.0941 147.299C66.4488 147.763 65.9839 148.559 66.2211 149.373C66.4393 150.093 67.1415 150.481 67.8437 150.595C69.3998 150.841 71.1837 150.803 72.645 150.14C73.3661 149.818 73.926 149.184 74.0114 148.379C74.0968 147.574 73.5844 146.892 72.8632 146.589C72.3414 146.371 71.7341 146.361 71.1742 146.333C70.6144 146.305 70.0735 146.276 69.5327 146.371C69.1247 146.437 68.8874 146.949 68.9918 147.318C69.1152 147.754 69.5327 147.924 69.9407 147.858C69.6655 147.905 69.8838 147.858 69.9407 147.858C69.9976 147.858 70.0735 147.858 70.14 147.858C70.3392 147.858 70.5385 147.858 70.7378 147.858C71.1173 147.867 71.4874 147.886 71.8669 147.924C71.9333 147.924 71.9903 147.943 72.0567 147.943C72.199 147.953 71.9808 147.934 71.9808 147.934C72.0093 147.934 72.0757 147.953 72.1041 147.953C72.218 147.99 72.2465 147.99 72.3224 148.038C72.3698 148.066 72.4362 148.132 72.4173 148.104C72.4932 148.208 72.4647 148.189 72.4457 148.151C72.4457 148.17 72.4552 148.284 72.4552 148.208C72.4552 148.293 72.4552 148.284 72.4268 148.341C72.3414 148.492 72.2465 148.597 72.0567 148.701C71.6392 148.937 71.0794 149.042 70.5954 149.108C70.0071 149.193 69.4093 149.193 68.821 149.155C68.6597 149.155 68.5079 149.127 68.3561 149.117C68.3561 149.117 68.1568 149.098 68.2802 149.117C68.2422 149.117 68.1948 149.108 68.1568 149.099C68.0429 149.08 67.9386 149.051 67.8247 149.013C67.7393 148.985 67.7962 149.013 67.8247 149.013C67.8057 149.004 67.6254 148.937 67.7203 148.956C67.6919 148.956 67.6729 148.871 67.6824 148.919C67.6824 148.947 67.6824 148.994 67.6919 148.919C67.6919 148.833 67.6919 148.9 67.6919 148.928C67.6919 148.975 67.6919 148.871 67.7108 148.862C67.7773 148.776 67.8532 148.634 67.9575 148.559C68.375 148.275 68.7356 148.142 69.229 148.009C69.7225 147.877 70.0735 147.81 70.5954 147.877C71.0129 147.924 71.364 147.488 71.364 147.11C71.364 146.655 71.0129 146.39 70.5954 146.342H70.6049Z" fill="black"/>
<path d="M63.4313 159.365C62.6817 158.664 61.6569 158.257 60.6226 158.314C60.281 158.333 59.9584 158.598 59.9774 158.958C59.9963 159.299 60.262 159.621 60.6226 159.602C60.727 159.602 60.8219 159.602 60.9262 159.602C60.9737 159.602 61.0306 159.602 61.0781 159.611C61.097 159.611 61.135 159.611 61.154 159.611C61.135 159.611 61.0021 159.592 61.097 159.611C61.3058 159.649 61.5051 159.697 61.7043 159.763C61.7328 159.772 61.8846 159.839 61.7897 159.791C61.6948 159.744 61.8372 159.82 61.8656 159.829C61.9605 159.877 62.0459 159.924 62.1313 159.971C62.2167 160.019 62.3021 160.085 62.378 160.142C62.4444 160.189 62.2736 160.057 62.3401 160.113C62.359 160.132 62.378 160.142 62.397 160.161C62.4444 160.199 62.4824 160.236 62.5204 160.274C62.7671 160.511 63.1941 160.54 63.4408 160.274C63.6875 160.009 63.7065 159.602 63.4408 159.356L63.4313 159.365Z" fill="black"/>
<path d="M107.829 160.047C107.886 159.981 107.953 159.924 108.019 159.867C108.048 159.848 108.086 159.82 108.105 159.791C108.019 159.857 108.01 159.867 108.057 159.829C108.076 159.81 108.095 159.801 108.114 159.782C108.247 159.687 108.389 159.602 108.532 159.535C108.57 159.516 108.598 159.507 108.636 159.488C108.484 159.545 108.75 159.431 108.636 159.488C108.712 159.46 108.788 159.431 108.864 159.412C109.034 159.365 109.196 159.327 109.376 159.299L109.205 159.318C109.367 159.299 109.528 159.289 109.689 159.289C110.031 159.289 110.353 158.986 110.334 158.645C110.315 158.304 110.05 158.001 109.689 158.001C108.655 157.982 107.64 158.408 106.918 159.138C106.681 159.374 106.662 159.82 106.918 160.056C107.175 160.293 107.583 160.312 107.839 160.056L107.829 160.047Z" fill="black"/>
<path d="M63.2323 161.799C62.2359 161.657 61.2396 161.695 60.2623 161.941C59.9302 162.027 59.7024 162.415 59.8068 162.737C59.9112 163.059 60.2528 163.277 60.6039 163.191C60.8126 163.135 61.0214 163.097 61.2396 163.059C61.2681 163.059 61.2871 163.059 61.3155 163.049C61.363 163.049 61.344 163.049 61.2681 163.049C61.2681 163.049 61.4104 163.03 61.4199 163.03C61.5243 163.021 61.6382 163.012 61.7425 163.002C61.9513 162.993 62.16 162.993 62.3688 163.002C62.4732 163.002 62.568 163.012 62.6724 163.021C62.7199 163.021 62.7673 163.021 62.8242 163.03C62.8622 163.03 63.0804 163.059 62.9002 163.03C63.0804 163.059 63.2323 163.059 63.4031 162.964C63.5359 162.888 63.6687 162.727 63.6972 162.576C63.7636 162.273 63.6023 161.828 63.2418 161.78L63.2323 161.799Z" fill="black"/>
<path d="M108.123 162.803C108.18 162.794 108.237 162.784 108.294 162.775C108.322 162.775 108.341 162.775 108.37 162.765C108.284 162.775 108.275 162.775 108.322 162.765C108.427 162.756 108.541 162.737 108.645 162.737C108.854 162.718 109.062 162.718 109.271 162.718C109.48 162.718 109.689 162.737 109.897 162.756C109.926 162.756 110.097 162.775 109.926 162.756C109.973 162.756 110.021 162.775 110.078 162.775C110.192 162.794 110.305 162.813 110.419 162.841C110.751 162.907 111.141 162.746 111.216 162.386C111.292 162.064 111.122 161.667 110.761 161.591C109.774 161.382 108.778 161.363 107.781 161.543C107.449 161.6 107.231 162.026 107.326 162.339C107.44 162.699 107.763 162.85 108.123 162.794V162.803Z" fill="black"/>
<path d="M127.424 120.288C126.978 120.259 126.523 120.24 126.067 120.24C124.084 120.24 122.168 120.534 120.365 121.083C119.928 119.312 119.245 117.57 118.296 115.912C115.563 111.129 110.591 109.093 105.686 107.767" stroke="#FCA735" stroke-width="1.8128" stroke-miterlimit="10"/>
<path d="M68.7162 106.621C62.985 107.53 57.6903 110.958 54.559 116.433C53.5627 118.166 52.8605 119.994 52.424 121.841C51.589 121.594 50.7255 121.405 49.8525 121.282" stroke="#FCA735" stroke-width="1.8128" stroke-miterlimit="10"/>
<path d="M127.632 80.8889C127.29 78.1992 127.157 75.4904 127.224 72.7817L127.632 80.8889Z" fill="#FCA735"/>
<path d="M128.495 80.8886C128.163 78.1988 128.021 75.4901 128.087 72.7814C128.115 71.6638 126.379 71.6733 126.351 72.7814C126.284 75.4901 126.417 78.1988 126.759 80.8886C126.815 81.3527 127.119 81.7505 127.622 81.7505C128.049 81.7505 128.542 81.3527 128.486 80.8886H128.495Z" fill="#FCA735"/>
<path d="M136.325 102.491C132.52 96.913 129.796 90.6053 128.307 84.0229L136.325 102.491Z" fill="#FCA735"/>
<path d="M137.074 102.056C133.307 96.5061 130.64 90.3215 129.141 83.796C128.894 82.7163 127.224 83.1709 127.471 84.26C128.999 90.9276 131.741 97.2732 135.575 102.937C136.191 103.856 137.7 102.994 137.074 102.066V102.056Z" fill="#FCA735"/>
<path d="M126.332 183.857H118.248C113.38 183.857 109.442 187.797 109.442 192.647C109.442 197.505 113.39 201.436 118.248 201.436H126.332" stroke="black" stroke-width="2.03523" stroke-miterlimit="10"/>
<path d="M125.943 97.9457C126.104 97.7089 126.266 97.4721 126.436 97.2354C126.522 97.1217 126.607 97.0081 126.683 96.9039C126.74 96.8281 126.683 96.9134 126.655 96.9418C126.683 96.9134 126.702 96.8755 126.73 96.8471C126.778 96.7902 126.825 96.7334 126.873 96.6766C127.233 96.2314 127.622 95.8052 128.021 95.3885C128.306 95.1044 128.334 94.5835 128.021 94.2994C127.708 94.0152 127.233 93.9963 126.93 94.2994C126.066 95.1802 125.288 96.1462 124.614 97.1691C124.396 97.51 124.539 98.0309 124.89 98.2204C125.279 98.4287 125.706 98.3056 125.943 97.9457Z" fill="black"/>
<path d="M42.8877 184.426H50.9721C55.8399 184.426 59.7777 188.366 59.7777 193.215C59.7777 198.074 55.8304 202.004 50.9721 202.004H42.8877" fill="white"/>
<path d="M42.8877 184.426H50.9721C55.8399 184.426 59.7777 188.366 59.7777 193.215C59.7777 198.074 55.8304 202.004 50.9721 202.004H42.8877" stroke="black" stroke-width="2.03523" stroke-miterlimit="10"/>
</g>
</svg>
