<?xml version="1.0" encoding="UTF-8"?>
<svg version="1.1" viewBox="0 0 1441 1147" width="1280" height="1280" xmlns="http://www.w3.org/2000/svg">
<path transform="translate(644,130)" d="m0 0h23l19 3 20 6 16 7 21 12 16 12 14 12 10 10 9 11 9 12 12 19 11 22 10 26 7 24 6 27 5 33 3 36 1 25v87l-2 60-4 66-5 58-8 72-10 73-11 67-4 12-5 9-11 12-13 8-9 3-6 1h-17l-13-4-11-6-8-7-6-8-6-12-2-6-1-7v-13l12-76 9-67 7-64 5-59 3-50 2-56v-99l-2-32-4-31-5-24-10-30-11-21-9-12-12-12-14-9-10-5-4-1h-11l-12 5-13 10-13 13-13 17-10 15-15 26-20 40-14 31 1 5 16 41 14 40 9 28 9 33 7 34 4 26 2 23v45l-3 29-6 29-8 24-11 23-10 15-11 13-8 8-13 10-16 9-14 6-21 6-13 2h-25l-17-3-19-7-14-8-14-11-10-10-12-16-10-18-10-25-6-23-4-23-2-21v-30l3-31 6-31 7-26 12-35 13-31 14-30 20-41 13-26-1-6-15-29-14-24-16-26-11-16-12-16-11-13-4-4v-2l-4-2-7-7-10-7-8-4-3-1h-7l-6 3-7 10-7 15-5 15-6 25-5 32-3 29-2 35v88l2 46 4 59 7 73 9 75 10 70 10 61 1 6v19l-4 14-6 10-9 10-9 6-11 5-8 2h-17l-15-4-10-6-10-9-6-9-5-11-3-13-11-68-9-63-9-73-6-59-4-48-3-46-2-50v-80l2-42 3-32 4-30 7-36 7-25 8-22 12-25 9-14 10-13 15-15 14-10 17-9 18-6 14-3 8-1h19l20 3 17 5 20 9 16 10 13 10 14 12 15 15 9 11 11 13 13 18 10 15 13 20v2h2l2-5 11-20 20-30 10-13 11-13 14-15 11-10 16-12 18-11 15-7 18-6 15-3zm-174 415-11 26-9 25-7 26-4 23-1 10v28l3 21 4 15 5 12 5 6 9-1 6-4 6-7 6-13 5-21 2-15v-45l-3-24-7-34-8-28z" fill="#F86D1E"/>
<path transform="translate(1101,504)" d="m0 0h29l22 3 21 5 19 7 19 9 16 10 11 8 10 9 8 8 10 13 9 15 8 19 4 14 2 14v20l-3 17-6 16-8 13-11 13-10 9-10 7-16 9-25 10-27 8-24 5-38 5-31 2h-56l-27-1-8-1 10 16 13 15 11 11 15 11 14 8 20 8 21 5 18 2h28l25-3 25-5 31-9 18-7 19-9 15-4h16l12 3 11 6 10 9 8 11 4 10 1 4v23l-4 11-7 12-7 8-11 7-31 13-30 11-32 10-26 6-27 4-24 2h-32l-21-2-26-5-24-7-21-8-17-8-19-11-16-12-13-11-16-16-9-11-10-14-8-13-10-19-6-15-5-15-4-16-3-20-1-24 2-24 5-24 8-24 11-24 13-22 14-19 11-12 7-8 14-13 17-13 15-10 22-12 25-10 25-7 21-4zm0 110-16 3-17 6-23 12-14 10-10 9-7 6v1l16 1h39l33-2 23-3 26-5 16-5 6-4 2-3-1-7-5-5-8-5-18-6-15-3z" fill="#F9D72E"/>
</svg>
